<svg id="jsconf-vibes" xmlns="http://www.w3.org/2000/svg" viewBox="0 0 497 325"><defs><style>.cls-1{fill:#e00079;}.cls-2{fill:#051add;}.cls-3{fill:#fcf3e6;}.cls-4{fill:#dde4f2;}.cls-5{fill:#5b0e3a;}.cls-6{fill:#272d38;}.cls-7{fill:#f5f6f7;}.cls-8{fill:#e4a1c8;}.cls-9{fill:none;}</style></defs><title>jsconf-vibes</title><path class="cls-1" d="M461.64,318.05c-6.44,2.3-13.16,4.64-20.11,6.95H497V295.19C488.23,304.88,476.63,312.69,461.64,318.05Z"/><path class="cls-1" d="M497,30.11V0H392.64A69.4,69.4,0,0,1,412,7.44C418.63,8,424.84,8.51,430.53,9Z"/><path class="cls-1" d="M356.52,0h-3.76l.59.65Q354.94.3,356.52,0Z"/><path class="cls-1" d="M123.58,0H0V93.54C4.16,59.75,8.88,32.12,12,21,15.51,8.5,61.74,2.3,123.58,0Z"/><path class="cls-2" d="M486.12,76.84q2.53,5.63,4.79,11.92Q494,97.4,497,106.35V30.11c-7.22-9.13-15.54-15.86-24.9-19.64C460.38,5.75,446.17,5.31,430.53,9Z"/><path class="cls-3" d="M377.48,308.35c-35.77,10.13-74.65,17.2-108.87,12.84a59.78,59.78,0,0,1-5.14,3.81H441.54c6.94-2.3,13.67-4.64,20.11-6.95,15-5.36,26.58-13.18,35.36-22.87V106.35q-3-8.93-6.09-17.59-2.25-6.3-4.79-11.92c1.3,30.21-.56,67.3-3.68,102.15,2.16,25.17.29,48.77-8,68.4Z"/><path class="cls-4" d="M143.31,2.86q7-1.6,14.46-2.86H123.58C61.74,2.3,15.51,8.5,12,21,8.88,32.12,4.16,59.75,0,93.54V250.79C8.27,219.87,23.39,191,40,178a42.54,42.54,0,0,1,8.24-5Z"/><path class="cls-2" d="M392.12,300l18.42,4.7q5.85.52,11.46.73c31.92,1.15,57.44-5.63,69.3-21.26a39.52,39.52,0,0,0,5.7-10.78V231a162.88,162.88,0,0,0-15.57-38.63C463.72,232.22,431.53,272.83,392.12,300Z"/><path class="cls-5" d="M481.43,192.33c16.36-36.82,20.38-73,6.37-97.52C461.51,48.88,355.29,66.42,335,53.49s-22.8.26-22.8.26c62.12,62.4,95.15,120.53,76.15,162.63-28.73,63.68-196,37.23-199.7,67.6-1.47,12.07,23.21,30.63,57.13,41h97.08a194.85,194.85,0,0,0,49.29-25C431.53,272.83,463.72,232.22,481.43,192.33Z"/><path class="cls-4" d="M482.44,179c3.13-34.85,5-71.94,3.68-102.15C484.66,42.74,479.18,17.42,467,14c-5.42-1.52-18.32-3.24-36.47-5C424.84,8.51,418.63,8,412,7.44Z"/><path class="cls-4" d="M377.48,308.35C428,304.62,463.93,297.94,467,287c2-7.29,4.71-21.44,7.4-39.61Z"/><path class="cls-6" d="M64,53.47C73.8,29.22,103.33,12,143.31,2.86,77,5.93,23.82,26.25,10,60.47c-11.3,28,1.89,70.27,38.21,112.49,26.13-12.18,62.4,3.12,88,27l.29-.29C74.77,147.45,49.71,89,64,53.47Z"/><path class="cls-2" d="M250.79,0h-93q-7.43,1.26-14.46,2.86C103.33,12,73.8,29.22,64,53.47,49.71,89,74.77,147.45,136.5,199.72l40.15-40.17Z"/><path class="cls-7" d="M195.86,155.66,271,230.82c25.76,25.76,25.21,63.31,1.79,86.6-1.34,1.34-2.74,2.59-4.17,3.77,34.22,4.36,73.1-2.71,108.87-12.84,16.66-4.72,32.64-10.1,47.16-15.29,25.43-9.1,41.09-25.23,49.76-45.66,8.33-19.63,10.2-43.24,8-68.4-3.23-37.61-15.46-78.71-28.52-115.23-10.13-28.32-24.63-46.45-42-56.33A69.4,69.4,0,0,0,392.64,0H356.52q-1.58.3-3.17.65Z"/><path class="cls-7" d="M176.65,159.55l5.45-5.45-3.85-.44Q177.39,156.58,176.65,159.55Z"/><path class="cls-8" d="M178.66,325h19.09a60.05,60.05,0,0,1-9.54-7.8A60.07,60.07,0,0,1,178.66,325Z"/><path class="cls-8" d="M136.21,200c-25.58-23.93-61.84-39.23-88-27A42.54,42.54,0,0,0,40,178C23.39,191,8.27,219.87,0,250.79V325H112.93Z"/><path class="cls-1" d="M272.79,317.42c23.42-23.29,24-60.84-1.79-86.6l-75.14-75.16L182.1,154.1l-5.45,5.45L136.5,199.72l-.29.29-30.81,30.81c-25.76,25.76-25.21,63.31-1.79,86.6a60.09,60.09,0,0,0,9.32,7.58h65.73a60.07,60.07,0,0,0,9.55-7.8,60.05,60.05,0,0,0,9.54,7.8h65.72a59.78,59.78,0,0,0,5.14-3.81C270,320,271.44,318.76,272.79,317.42Z"/><path class="cls-3" d="M372.46,175.67c15.07-74.12,8.42-143.73-19.11-175L352.76,0h-102c-45,24.06-95.24,72.9-134.34,146.67L182.1,184.1Z"/><path class="cls-8" d="M303.2,239.83c8.06-8.05,54-54.07,82.8-82.82,25.76-25.76,25.21-63.31,1.79-86.6a59.81,59.81,0,0,0-84.59.22,59.81,59.81,0,0,0-84.59-.22c-23.42,23.29-24,60.84,1.79,86.6Z"/><path class="cls-9" d="M188.62,284c3.69-30.37,171-3.92,199.7-67.6,19-42.1-14-100.23-76.15-162.63,0,0,2.48-13.18,22.8-.26S461.51,48.88,487.8,94.82c14,24.48,10,60.69-6.37,97.52A162.88,162.88,0,0,1,497,231V44H114V325H245.76C211.83,314.61,187.16,296.05,188.62,284Z"/><path class="cls-9" d="M491.3,284.2c-11.86,15.63-37.38,22.41-69.3,21.26q-5.61-.2-11.46-.73L392.12,300a194.85,194.85,0,0,1-49.29,25H497V273.42A39.52,39.52,0,0,1,491.3,284.2Z"/></svg>
