<?xml version="1.0" standalone="no"?>
<!DOCTYPE svg PUBLIC "-//W3C//DTD SVG 20010904//EN"
 "http://www.w3.org/TR/2001/REC-SVG-20010904/DTD/svg10.dtd">
<svg version="1.0" xmlns="http://www.w3.org/2000/svg"
 width="700.000000pt" height="700.000000pt" viewBox="0 0 700.000000 700.000000"
 preserveAspectRatio="xMidYMid meet">
<metadata>
Created by potrace 1.11, written by Peter Selinger 2001-2013
</metadata>
<g transform="translate(0.000000,700.000000) scale(0.100000,-0.100000)"
fill="#000000" stroke="none">
<path d="M201 6984 c-42 -13 -103 -53 -129 -84 -7 -8 -25 -37 -40 -65 l-27
-50 -2 -3270 c-1 -2809 0 -3277 13 -3316 18 -60 90 -140 152 -171 l47 -23
3270 -2 c3630 -2 3322 -8 3409 68 47 42 70 76 93 139 10 28 13 683 12 3290 0
2790 -2 3262 -15 3301 -18 59 -87 137 -150 169 l-49 25 -3270 2 c-2751 1
-3277 -1 -3314 -13z m3796 -3443 c40 -11 98 -33 130 -48 65 -30 191 -112 212
-137 30 -36 47 -37 82 -5 53 46 161 117 224 144 115 51 200 69 340 69 150 1
192 -5 294 -39 136 -47 243 -115 350 -224 126 -128 199 -273 236 -466 7 -37 7
-211 0 -245 -23 -116 -48 -196 -86 -273 -64 -131 -122 -194 -759 -832 l-635
-636 -639 638 c-350 351 -642 647 -648 658 -6 11 -14 22 -18 25 -16 11 -79
120 -108 185 -111 257 -101 525 29 762 48 89 54 97 144 188 129 131 247 199
430 245 99 25 321 21 422 -9z"/>
</g>
</svg>
