<?xml version="1.0" encoding="utf-8"?>
<!-- Generator: Adobe Illustrator 22.1.0, SVG Export Plug-In . SVG Version: 6.00 Build 0)  -->
<svg version="1.2" baseProfile="tiny" id="Ebene_1" xmlns="http://www.w3.org/2000/svg" xmlns:xlink="http://www.w3.org/1999/xlink"
	 x="0px" y="0px" viewBox="0 0 1366 938" xml:space="preserve">
<path fill="#6058C5" d="M1366,430.3v3C1366.1,431.5,1366,430.3,1366,430.3z"/>
<g>
	<path fill="#FF008F" d="M1085.6,659.8c-34.7-1-34.8,50.3-55.6,55.2c-63.4,15-3.6-64.6,24.4-79c43.2-22.1,100.6-1.8,95.3,41.8
		c32.1-27.3,67-52.4,94.1-78.4c3.7-3.5,27.1-32.6,28.6-33.3c7.9-4,21.6-1.8,32.6-6.2c19.2-7.7,44.2,10.8,61-29v-97.6v-3
		c0,0,0-32.8,0-80.3c-12.3,7.2-39.6,45.1-56,41c-36.2-25.9,19.2-44-28-56c-23.4-6-30.5,14.7-49,11c2.2-37.5,20.2-157-26-153
		c-22.3,1.9-70.5,75.7-81.8,87.8c-50.6,54.1-106.4,109.9-164.1,158c-20.1,16.8-40.4,32.7-60.8,47.2c-80,56.9-241,143.4-206.3,264.8
		c4.7,16.3,5,20.9,11.8,36.7c10.8-1.4,21.7-1.9,32.6-1.4c5.2,15.7,5.7,31.8,1.5,48.2c8.1,35.4,23.7,80.9-12.9,103.7h130.6
		c44.7-9.4,53.8-26.5,80.4-56.4c-0.2,0.2,1.7-18.3,4.3-21.6c0.5-0.6,20.4-7.8,27.7-14.7c17.1-16.3,30.2-35.3,43-47.9
		c29.7-29.2,57.6-47.9,86.5-73.3c1.1-4.3,2.2-8.5,3-12.6C1107.9,683.7,1132.3,661.1,1085.6,659.8z"/>
	<path fill="#303F62" d="M1366,819c-58.2-59.3-164.5,124.5-117-10c14.8-41.8,19.8-109.5-52-96c-42.7,8-64,62.7-71,47
		s17.3-58,21.8-73.1c0.9-3.1,1.6-6.1,1.9-9c5.3-43.6-52.1-64-95.3-41.8c-28,14.4-87.8,94-24.4,79c20.7-4.9,20.8-56.3,55.6-55.2
		c46.7,1.4,22.3,24,16.9,51.8c-0.8,4-1.9,8.3-3,12.6c-7.4,27.8-17.9,59.3,24,69.4c37.5,9.1,44.2-31.4,71-39
		c83.1-23.6-21.7,82.5,6.5,120.5c44.6,60.1,131.9-54.7,142.8-25.6c4.5,12-46.8,72.9-41.1,88.6l30.1,0
		C1369.5,921.6,1366,848.9,1366,819z"/>
</g>
<g>
	<path fill="#FF008F" d="M195,239c-20.1-71.2-36.1-148.3-49-221c-0.7-6-1.3-12-2-18H0v414c61.6,6.8,167.6,45.2,223.7,30.4
		c31-8.2,40-26.9,69-29.8c14.6-1.4,66.3,7.7,73.4,18.4c-6.6,5.2-38.2,26.9-31,39c2.6,5.2,69.3,19.9,79,18c3.2,4.9,2.3,21.7-0.5,37.8
		c4.8,0.7,9.7,1.4,14.6,2.2c-2.6-32.2-33.3-71.9-44-99c-19.6-49.3-39-99.7-59.5-148.2c-13.6,1.9-26.5,3.6-38.3,5.4
		C227.7,296.9,212.4,300.7,195,239z"/>
	<path fill="#0024DD" d="M418.1,182.6c-5.7-9.2-12.9-45.4-20.7-52.2c-18.8-16.6-20.5-2.8-48.4-9.4C269.8,102.5,239.9,69.8,205,0
		c-20.3,0-40.7,0-61,0c0.7,6,1.3,12,2,18c12.9,72.7,28.9,149.8,49,221c17.4,61.7,32.7,57.9,91.1,49.2c11.9-1.8,24.8-3.5,38.3-5.4
		c51-7.1,111.6-16.3,164.5-35.9c0,0-0.1,0-0.1-0.1C460.5,233.6,434.8,209.6,418.1,182.6z"/>
	<path fill="#6058C5" d="M714,0H578c0,0-71.6,0-94.5,0C390.7,0,297.8,0,205,0c34.9,69.8,64.8,102.5,144,121
		c27.9,6.5,29.6-7.2,48.4,9.4c7.8,6.9,15,43.1,20.7,52.2c16.7,26.9,42.4,50.9,70.7,64.2c0,0,0.1,0,0.1,0.1
		c60.1,28.2,139.5,16.3,187.8-29.4c23.3-22,39.5-52.5,46.4-84.1C727.9,111.8,731.8,15.3,714,0z"/>
</g>
<g>
	<path fill="#DDE4F2" d="M428,530c-4.9-0.7-9.7-1.5-14.6-2.2c-2.5,14-6.5,27.5-10.5,32.2c-29.4,34.3-81.7,23.1-124,18
		c-36.9-4.4-79.4-5.1-116-12c-56.6-10.7-27.3-11.2-42.2-38.6c3.1,5.7-87.9,2.9-96.8-1.4c-13.4-5.6-24-8-24-26.4V938h63
		c55.8-96.1,124.3-186.5,186-279c36-58.5,106.1,96.7,116.3,114.1c5.4,9.2,10.7,18.3,16.1,27.5c44.5-31.2,90.4-60.3,133.6-93.6
		c47.3-36.5,117.4-69.7,80-132C553.5,552.4,489.9,539.4,428,530z"/>
	<path fill="#6058C5" d="M1096,0c-15,33.3-58.9,155.1-99,159c-6.2,0.6-13.1-1.8-20.3-6.4C930,222.1,870.7,295,833.9,369.6
		c-41.8,84.6,66.4,66.1,127.3,69.1c57.6-48.1,113.4-104,164.1-158c11.3-12,59.4-85.8,81.8-87.8c46.2-4,28.2,115.5,26,153
		c18.5,3.7,25.6-17,49-11c47.2,12-8.2,30.1,28,56c16.4,4.1,43.7-33.8,56-41V0H1096z"/>
	<path fill="#FFC4BC" d="M997,159c40.1-3.9,84-125.7,99-159h-16c-73,0-146,0-219,0c21,28.6,74.5,126.5,115.7,152.6
		C983.9,157.2,990.8,159.6,997,159z"/>
	<path fill="#FFC4BC" d="M24,526c8.9,4.2,99.9,7.1,96.8,1.4c15,27.5-14.3,27.9,42.2,38.6c36.6,6.9,79.1,7.6,116,12
		c42.3,5.1,94.6,16.3,124-18c4-4.7,8-18.2,10.5-32.2c2.9-16.1,3.8-32.9,0.5-37.8c-9.7,1.9-76.4-12.8-79-18
		c-7.2-12.1,24.4-33.8,31-39c-7.1-10.6-58.7-19.8-73.4-18.4c-29,2.9-38,21.6-69,29.8C167.6,459.2,61.6,420.8,0,414v55v16v14.6
		C0,518,10.6,520.4,24,526z"/>
	<path fill="#303F62" d="M249,659c-61.7,92.5-130.2,182.9-186,279h149.4c83.2,0,166.4,0,249.6,0c-26.9-45.8-53.7-91.6-80.6-137.4
		c-5.4-9.2-10.7-18.3-16.1-27.5C355.1,755.7,285,600.5,249,659z"/>
</g>
</svg>
