<?xml version="1.0" encoding="utf-8"?>
<!-- Generator: Adobe Illustrator 22.1.0, SVG Export Plug-In . SVG Version: 6.00 Build 0)  -->
<svg version="1.1" id="Ebene_1" xmlns="http://www.w3.org/2000/svg" xmlns:xlink="http://www.w3.org/1999/xlink" x="0px" y="0px"
	 viewBox="0 0 1366 938" style="enable-background:new 0 0 1366 938;" xml:space="preserve">
<style type="text/css">
	.st0{fill:none;}
	.st1{clip-path:url(#SVGID_2_);fill:#303F62;}
	.st2{clip-path:url(#SVGID_4_);fill:none;stroke:#303F62;stroke-width:8;stroke-linecap:round;stroke-miterlimit:10;}
	.st3{fill:#6058C5;}
	.st4{fill:#DDE4F2;}
	.st5{fill:#FFC4BC;}
	.st6{fill:#FF008F;}
	.st7{fill:#303F62;}
	.st8{fill:#0024DD;}
	.st9{fill:url(#Neues_Muster);}
	.st10{fill:url(#New_Pattern_Swatch_2);}
</style>
<pattern  y="938" width="264" height="212" patternUnits="userSpaceOnUse" id="Neues_Muster" viewBox="11 -219.4 264 212" style="overflow:visible;">
	<g>
		<rect x="11" y="-219.4" class="st0" width="264" height="212"/>
		<g>
			<defs>
				<rect id="SVGID_1_" x="11" y="-219.4" width="264" height="212"/>
			</defs>
			<clipPath id="SVGID_2_">
				<use xlink:href="#SVGID_1_"  style="overflow:visible;"/>
			</clipPath>
			<path class="st1" d="M136-227.4c-1-4-5-4-7-3c-2,1.8-3.1,4.3-3,7c0.1,1.8,0.8,3.6,2,5c0.9,1.3,2.4,2,4,2c2,0,3-3,3-6
				C135.5-224,135.8-225.7,136-227.4z"/>
			<path class="st1" d="M174-229.4c-3-1-5,2-5,4c0.1,2.3,1.2,4.5,3,6c1.7,1.2,4,1.6,6,1c1.2-0.3,2.3-1,3-2c1-1-1-3-3-5
				C176.8-226.9,175.5-228.3,174-229.4z"/>
			<path class="st1" d="M153-227.4c-3-1-5,2-5,4c0.1,2.3,1.2,4.5,3,6c1.8,1.1,3.9,1.5,6,1c1.2-0.3,2.3-1,3-2c1-1-1-3-3-5
				C155.8-224.9,154.5-226.3,153-227.4z"/>
			<path class="st1" d="M225-225.4c-3,0-5,3-4,5c0.8,2.4,2.6,4.2,5,5c1.6,0.6,3.4,0.6,5,0c1-0.7,1.7-1.8,2-3c1-2-1-3-3-4
				C228.5-223.6,226.8-224.6,225-225.4z"/>
			<path class="st1" d="M47-223.4c1-2-2-4-4-4c-2.3,0.1-4.5,1.2-6,3c-1,1.5-1.3,3.3-1,5c0.3,1.2,1,2.3,2,3c2,0,4-1,5-3
				C44.5-220.6,45.9-221.9,47-223.4z"/>
			<path class="st1" d="M277-217.4c2-3-1-6-3-6c-2.5-0.5-5.1,0.2-7,2c-1.2,1.4-1.9,3.2-2,5c-0.3,1.4,0.1,2.9,1,4c1,1,4,0,6-2
				C273.8-215.2,275.5-216.2,277-217.4z"/>
			<path class="st1" d="M12-217.4c2-3-1-6-3-6c-2.2-0.2-4.4,0.5-6,2c-1.6,1.2-2.7,3-3,5c0,1.6,0.7,3.1,2,4c1,1,4,0,6-2
				C9.4-215.3,10.8-216.3,12-217.4z"/>
			<path class="st1" d="M282-198.4c3,1,5-2,5-4c-0.1-2.3-1.2-4.5-3-6c-1.6-1.5-3.8-2.2-6-2c-1.4,0.5-2.5,1.6-3,3c-1,1,0,3,2,5
				C278.5-200.9,280.2-199.5,282-198.4z"/>
			<path class="st1" d="M274-35.4c-2,2,1,4,3,4c2-0.2,3.8-1.3,5-3c0.8-1.2,1.1-2.6,1-4c-0.2-1.3-0.9-2.4-2-3l-5,2
				C275.2-38.2,274.5-36.8,274-35.4z"/>
			<path class="st1" d="M62-124.4c2,3,6,1,7,0c1.4-2.1,1.8-4.6,1-7c-0.8-1.8-2.2-3.2-4-4c-1.3-0.6-2.7-0.6-4,0c-2,1-2,3-1,6
				C61.1-127.7,61.5-126,62-124.4z"/>
			<path class="st1" d="M99-191.4c1,3,5,1,6,0c1.4-2.1,1.8-4.6,1-7c-0.7-1.8-2.2-3.3-4-4c-1.3-0.6-2.7-0.6-4,0l-1,6
				C97.5-194.7,98.1-193,99-191.4z"/>
			<path class="st1" d="M73-102.4c1,2,5,1,7-1c0.9-2.2,0.9-4.8,0-7c-0.6-2.2-2-4-4-5c-1.3-0.6-2.7-0.6-4,0l-1,7
				C71.4-106.3,72.1-104.3,73-102.4z"/>
			<path class="st1" d="M78-192.4c1,3,5,1,6,0c1.1-2.2,1.1-4.8,0-7c-0.7-1.8-2.2-3.3-4-4c-1.1,0-2.1,0.4-3,1c-2,0-2,3-1,5
				C76.5-195.7,77.1-194,78-192.4z"/>
			<path class="st1" d="M60-148.4c2,2,6,1,7-1c0.8-1.9,0.8-4.1,0-6c-0.7-1.8-2.2-3.3-4-4c-1-0.3-2-0.3-3,0c-2,0-2,3-1,5
				C59.1-152.4,59.4-150.4,60-148.4z"/>
			<path class="st1" d="M90-154.4c2,3,6,1,7-1c0.8-1.9,0.8-4.1,0-6c-0.7-1.8-2.2-3.3-4-4c-1.3-0.6-2.7-0.6-4,0v6
				C89.1-157.7,89.5-156,90-154.4z"/>
			<path class="st1" d="M55-203.4c2,2,5-1,5-2c0.8-2.4,0.4-4.9-1-7c-1.3-1.3-3.1-2-5-2c-1.4-0.3-2.9,0.1-4,1c-1,1,0,4,1,6
				C52.2-205.9,53.5-204.6,55-203.4z"/>
			<path class="st1" d="M60-172.4c2,2,5-1,6-3c0.5-2.1,0.1-4.2-1-6c-1.2-1.7-3-2.8-5-3c-1.1,0-2.1,0.4-3,1c-2,1-1,4,0,6
				C57.8-175.6,58.8-173.9,60-172.4z"/>
			<path class="st1" d="M80-137.4c2,3,6,2,7,0c1.1-2.2,1.1-4.8,0-7c-0.8-1.8-2.2-3.2-4-4c-1-0.3-2-0.3-3,0c-2,1-2,3-1,6
				C79.1-140.7,79.5-139,80-137.4z"/>
			<path class="st1" d="M20-170.4c3,2,6,0,6-2c0.5-2.5-0.2-5.1-2-7c-1.3-1.3-3.1-2-5-2c-1.1,0-2.1,0.4-3,1c-1,1,0,4,1,6
				C17.9-173,18.9-171.6,20-170.4z"/>
			<path class="st1" d="M17-198.4c3,1,6-2,6-4c-0.3-2.5-1.8-4.7-4-6c-1.4-1.2-3.2-1.9-5-2c-1.8,0.2-3.3,1.4-4,3l3,5
				C14.2-200.9,15.5-199.6,17-198.4z"/>
			<path class="st1" d="M44-110.4c2,1,5-1,5-3c0.2-2.2-0.5-4.4-2-6c-1.3-1.3-3.1-2-5-2c-1.1,0-2.1,0.4-3,1c-1,1,0,4,1,6
				C41.1-112.9,42.5-111.6,44-110.4z"/>
			<path class="st1" d="M18-91.4c3,2,5-1,5-3c0-1.9-0.7-3.7-2-5c-1.3-1.4-3.1-2.2-5-2c-1.3,0.2-2.4,0.9-3,2c-1,1,1,3,2,5
				C15.9-93.3,16.9-92.3,18-91.4z"/>
			<path class="st1" d="M20-115.4c3,2,5-1,5-3c-0.2-2-1.3-3.8-3-5c-1.4-1.1-3.3-1.4-5-1c-1.3,0.2-2.4,0.9-3,2l3,4
				C17.9-117.3,18.9-116.3,20-115.4z"/>
			<path class="st1" d="M37-186.4c3,1,5-2,5-4c-0.1-2.3-1.2-4.5-3-6c-1.7-1.2-4-1.6-6-1c-1.2,0.3-2.3,1-3,2c-1,1,1,4,3,5
				C34.2-188.9,35.5-187.6,37-186.4z"/>
			<path class="st1" d="M78-216.4c3-1,2-5,1-6c-1.6-1.5-3.8-2.2-6-2c-2,0.2-3.8,1.3-5,3c-0.9,1.1-1.3,2.6-1,4l6,2
				C74.7-215.6,76.4-215.9,78-216.4z"/>
			<path class="st1" d="M41-158.4c1-3-2-5-4-5c-2.3,0.1-4.5,1.2-6,3c-1,1.5-1.3,3.3-1,5c0.3,1.2,1,2.3,2,3c2,1,4-1,5-2
				C38.5-155.6,39.8-156.9,41-158.4z"/>
			<path class="st1" d="M27-143.4c1-3-2-5-4-5c-2,0.2-3.8,1.3-5,3c-1,1.5-1.3,3.3-1,5c0,1.1,0.4,2.1,1,3c2,1,4-1,6-2
				C25.2-140.6,26.2-142,27-143.4z"/>
			<path class="st1" d="M47-99.4c0-3-4-3-6-2c-1.5,1.6-2.2,3.8-2,6c0,1.9,0.7,3.7,2,5c0.9,1.3,2.4,2,4,2l2-6
				C47.2-96.1,47.2-97.8,47-99.4z"/>
			<path class="st1" d="M139-86.4c-1-3-5-3-7-2c-2,1.8-3.1,4.3-3,7c-0.2,2.2,0.5,4.4,2,6c1.2,0.8,2.6,1.1,4,1c2,0,3-3,3-6
				C138.6-82.4,138.9-84.4,139-86.4z"/>
			<path class="st1" d="M157-58.4c0-4-4-5-6-4c-2.3,0.9-4.1,2.7-5,5c-1.1,2.2-1.1,4.8,0,7c1,1.2,2.5,1.9,4,2l5-5
				C155.8-55,156.5-56.7,157-58.4z"/>
			<path class="st1" d="M136-35.4c0-4-4-5-6-4c-2.3,0.9-4.1,2.7-5,5c-0.5,2.1-0.1,4.2,1,6c0.6,1.3,1.7,2.4,3,3c2,0,3-2,5-5
				C134.8-32,135.5-33.7,136-35.4z"/>
			<path class="st1" d="M136-15.4c-1-4-5-4-7-2c-1.7,1.5-2.8,3.7-3,6c-0.2,2.2,0.5,4.4,2,6c1.1,0.9,2.6,1.3,4,1c2,0,3-3,3-5
				C135.6-11.4,135.9-13.4,136-15.4z"/>
			<path class="st1" d="M174-17.4c-3-1-5,2-5,4c0.1,2.3,1.2,4.5,3,6c1.7,1.2,4,1.6,6,1c1.2-0.3,2.3-1,3-2c1-1-1-3-3-5
				C176.8-14.9,175.5-16.3,174-17.4z"/>
			<path class="st1" d="M153-15.4c-3-1-5,2-5,4c0.1,2.3,1.2,4.5,3,6c1.6,1.5,3.8,2.2,6,2c1.4-0.5,2.5-1.6,3-3c1-1-1-3-3-5
				C155.8-12.9,154.5-14.3,153-15.4z"/>
			<path class="st1" d="M159-38.4c-3-1-5,2-5,4c-0.1,2.7,1,5.2,3,7c1.8,1.1,3.9,1.5,6,1c1.2-0.3,2.3-1,3-2c1-2-1-4-3-6
				C161.8-35.9,160.5-37.2,159-38.4z"/>
			<path class="st1" d="M191-34.4c-3,0-4,3-4,5c0.8,2.4,2.6,4.2,5,5c1.6,0.6,3.4,0.6,5,0c1.2-0.3,2.3-1,3-2c0-2-2-4-4-5
				C194.5-32.6,192.8-33.6,191-34.4z"/>
			<path class="st1" d="M180-53.4c-3-1-5,3-5,5c0.5,2.7,2.4,5,5,6c1.9,0.8,4.1,0.8,6,0c1-0.7,1.7-1.8,2-3c1-1-1-3-3-5
				C183.5-51.6,181.8-52.6,180-53.4z"/>
			<path class="st1" d="M225-13.4c-3,0-5,4-4,5c0.8,2.4,2.6,4.2,5,5c1.6,0.6,3.4,0.6,5,0c1-0.7,1.7-1.8,2-3c1-1-1-3-3-4
				C228.5-11.6,226.8-12.6,225-13.4z"/>
			<path class="st1" d="M210-29.4c-3,0-2,4-1,6c1.6,1.5,3.8,2.2,6,2c1.9,0,3.7-0.7,5-2c0.6-0.9,1-1.9,1-3c0-2-3-3-5-3
				C214-29.7,212-29.7,210-29.4z"/>
			<path class="st1" d="M233-37.4c-3,0-4,4-3,6c1.3,2.2,3.5,3.7,6,4c1.9,0,3.7-0.7,5-2c1-0.7,1.7-1.8,2-3c0-1-2-3-5-3
				C236.4-36.3,234.7-37,233-37.4z"/>
			<path class="st1" d="M210-55.4c-3,2-1,5,0,7c2.2,1.1,4.8,1.1,7,0c1.8-0.7,3.3-2.2,4-4c0.3-1,0.3-2,0-3c-1-2-3-2-6-1
				C213.3-56.3,211.6-55.9,210-55.4z"/>
			<path class="st1" d="M193-94.4c-3,1-2,5,0,6c2.1,1.4,4.6,1.8,7,1c1.8-0.8,3.2-2.2,4-4c0.3-1,0.3-2,0-3c0-2-3-2-6-2
				C196.3-95.9,194.6-95.3,193-94.4z"/>
			<path class="st1" d="M232-56.4c-1,3,2,5,4,5c2-0.3,3.8-1.4,5-3c1.6-1.6,2.3-3.8,2-6c-0.5-0.8-1.2-1.5-2-2c-2-1-4,0-6,2
				C233.9-59.2,232.9-57.9,232-56.4z"/>
			<path class="st1" d="M235-75.4c1,3,5,2,6,1c1.8-1.9,2.5-4.5,2-7c-0.5-1.7-1.5-3.1-3-4c-0.9-0.6-1.9-1-3-1c-2,0-2,3-2,5
				C234.7-79.4,234.7-77.4,235-75.4z"/>
			<path class="st1" d="M197-65.4c1,3,4,3,6,3c2.2-1.3,3.7-3.5,4-6c0.3-1.7,0-3.5-1-5c-0.7-1-1.8-1.7-3-2c-2,0-3,2-4,4
				C198-69.5,197.4-67.5,197-65.4z"/>
			<path class="st1" d="M253-29.4c0,3,4,4,6,3c1.8-1.5,2.9-3.7,3-6c0.3-1.7,0-3.5-1-5c-0.7-1-1.8-1.7-3-2c-2,0-3,2-4,5
				C253.5-32.8,253.1-31.1,253-29.4z"/>
			<path class="st1" d="M220-87.4c2,3,6,1,6-1c0.8-1.9,0.8-4.1,0-6c-0.7-1.8-2.2-3.3-4-4c-1.4-0.3-2.9,0.1-4,1v6
				C218.5-90,219.2-88.7,220-87.4z"/>
			<path class="st1" d="M222-113.4c1,2,5,0,6-1c1.1-2.2,1.1-4.8,0-7c-0.7-1.8-2.2-3.3-4-4c-1.4-0.3-2.9,0.1-4,1v5
				C220.4-117.3,221-115.3,222-113.4z"/>
			<path class="st1" d="M162-70.4c3,3,6,0,7-2c0.5-2.1,0.1-4.2-1-6c-1-2-2.8-3.4-5-4c-1.4-0.3-2.9,0.1-4,1v6
				C159.8-73.6,160.8-72,162-70.4z"/>
			<path class="st1" d="M168-104.4c3,2,6-1,6-3c0.3-2.5-0.4-5.1-2-7c-1.4-1.2-3.2-1.9-5-2c-1.4-0.3-2.9,0.1-4,1c-1,2,0,4,2,6
				C165.8-107.6,166.8-106,168-104.4z"/>
			<path class="st1" d="M153-92.4c3,1,5-3,5-5c-0.2-2.3-1.3-4.5-3-6c-1.8-1.1-3.9-1.5-6-1c-1.6,0-3.1,0.7-4,2c-1,1,1,4,3,6
				C149.5-94.9,151.2-93.5,153-92.4z"/>
			<path class="st1" d="M123-50.4c3,2,6-2,6-4c0.1-2.7-1-5.2-3-7c-1.7-1.4-3.8-2.1-6-2c-1.5,0.1-3,0.8-4,2c-1,2,1,5,3,7
				C120.2-52.9,121.5-51.6,123-50.4z"/>
			<path class="st1" d="M33-47.4c3,0,4-3,4-5c-0.7-1.8-2.2-3.3-4-4c-1.5-1-3.3-1.3-5-1c-0.8,0.5-1.5,1.2-2,2c-1,2,1,4,3,5
				C30.2-49.3,31.6-48.3,33-47.4z"/>
			<path class="st1" d="M66-58.4c3,1,5-2,5-4c-0.3-2.5-1.8-4.7-4-6c-1.5-0.9-3.3-1.2-5-1c-1.4,0.5-2.5,1.6-3,3c-1,1,1,3,3,5
				C63.2-60.3,64.6-59.3,66-58.4z"/>
			<path class="st1" d="M264-49.4c3,1,4-2,3-4c-0.5-1.7-1.5-3.1-3-4c-1.6-0.7-3.4-0.7-5,0c-0.9,0.4-1.6,1.1-2,2c0,2,1,3,3,4
				C261.2-50.6,262.6-49.9,264-49.4z"/>
			<path class="st1" d="M117-95.4c3,1,5-3,4-5c-0.7-2.7-2.5-4.9-5-6c-2.1-0.5-4.2-0.1-6,1c-1.3,0.6-2.4,1.7-3,3l5,5
				C113.6-96.6,115.3-95.9,117-95.4z"/>
			<path class="st1" d="M98-57.4c4,0,4-5,3-7c-1.8-2-4.3-3.1-7-3c-2.2-0.2-4.4,0.5-6,2c-0.6,0.9-0.9,1.9-1,3c0,2,2,4,5,4
				C94-57.8,96-57.5,98-57.4z"/>
			<path class="st1" d="M85-79.4c3,0,4-5,3-7c-1.8-2-4.3-3.1-7-3c-2.1-0.5-4.2-0.1-6,1c-0.8,1.2-1.1,2.6-1,4c0,2,2,3,5,4
				C81-79.8,83-79.5,85-79.4z"/>
			<path class="st1" d="M79-38.4c3-1,3-5,2-7c-1.8-2-4.3-3.1-7-3c-1.8,0.1-3.6,0.8-5,2c-1.3,0.9-2,2.4-2,4c1,2,4,3,6,3
				C74.9-38.8,77-38.5,79-38.4z"/>
			<path class="st1" d="M70-16.4c3,0,4-4,2-6c-1.5-1.8-3.7-2.9-6-3c-1.7-0.2-3.5,0.1-5,1c-1.3,0.9-2,2.4-2,4c0,1,3,3,5,3
				C65.9-16.8,68-16.5,70-16.4z"/>
			<path class="st1" d="M51-29.4c3-1,3-5,2-6c-1.5-1.8-3.7-2.9-6-3c-2,0.2-3.8,1.3-5,3c-0.6,0.9-1,1.9-1,3l5,3
				C47.7-29.2,49.3-29.2,51-29.4z"/>
			<path class="st1" d="M30-16.4c2-1,2-5,1-6c-1.3-1.3-3.1-2-5-2c-1.9-0.2-3.7,0.6-5,2c-0.7,0.8-1.1,1.9-1,3c0,2,3,2,5,2
				C26.6-16.9,28.3-16.5,30-16.4z"/>
			<path class="st1" d="M47-10.4c1-3-2-5-4-5c-2.3,0.1-4.5,1.2-6,3c-1,1.5-1.3,3.3-1,5c0.3,1.2,1,2.3,2,3c2,1,4-1,5-2
				C44.5-7.6,45.8-8.9,47-10.4z"/>
			<path class="st1" d="M92-15.4c-2,3,0,6,2,7c2.2,0.9,4.8,0.9,7,0c1.6-1.2,2.7-3,3-5c0.6-1.3,0.6-2.7,0-4c-1-2-4-1-7,0
				C95.3-16.9,93.6-16.3,92-15.4z"/>
			<path class="st1" d="M98-35.4c-2,3,0,7,3,7c2.4,0.6,4.9,0.3,7-1c1.8-1.5,2.9-3.7,3-6c-0.1-1.1-0.4-2.1-1-3c-1-2-4-1-7,0
				C101.2-37.6,99.5-36.6,98-35.4z"/>
			<path class="st1" d="M101-80.4c-2,2,0,6,2,7c2.7,0.9,5.6,0.6,8-1c2-1,3.4-2.8,4-5c0.1-1.4-0.2-2.8-1-4c-2-2-4-1-7,0
				C104.9-82.7,102.9-81.7,101-80.4z"/>
			<path class="st1" d="M23-75.4c-2,2,1,5,3,5c1.9,0,3.7-0.7,5-2c1.1-1.1,1.8-2.5,2-4c0.1-1.1-0.3-2.2-1-3c-2-1-4,0-6,1
				C24.9-77.5,23.9-76.5,23-75.4z"/>
			<path class="st1" d="M9-35.4c-1,2,2,4,4,4c1.7-0.5,3.1-1.5,4-3c0.8-1.2,1.1-2.6,1-4c0.1-1.1-0.3-2.2-1-3l-5,2
				C10.8-38.2,9.8-36.9,9-35.4z"/>
			<path class="st1" d="M79-179.4c-2,1-2,5,0,6c1.6,1.5,3.8,2.2,6,2c2-0.2,3.8-1.3,5-3c0.3-1,0.3-2,0-3c0-2-3-2-5-2
				C83-179.7,81-179.7,79-179.4z"/>
			<path class="st1" d="M255-223.4c0-3-4-3-6-2c-1.6,1.2-2.7,3-3,5c-0.3,2.2,0.4,4.4,2,6c0.9,0.6,1.9,1,3,1c2,0,3-2,3-5
				C254.5-220,254.9-221.7,255-223.4z"/>
			<path class="st1" d="M243-204.4c-1-3-5-2-6,0c-1.4,2.1-1.8,4.6-1,7c0.7,1.8,2.2,3.3,4,4c1.3,0.6,2.7,0.6,4,0l1-6
				C244.5-201.2,243.9-202.8,243-204.4z"/>
			<path class="st1" d="M277-5.4c2-3-1-6-3-6c-2.5-0.5-5.1,0.2-7,2c-1.5,1.6-2.2,3.8-2,6c0,1.1,0.4,2.1,1,3c1,1,4,0,6-1
				C273.8-2.5,275.5-3.9,277-5.4z"/>
			<path class="st1" d="M260-150.4c2,2,6,0,7-1c0.9-2.2,0.9-4.8,0-7c-0.6-2.2-2-4-4-5c-1.4-0.3-2.9,0.1-4,1c-2,1-1,3-1,6
				C258.4-154.3,259.1-152.3,260-150.4z"/>
			<path class="st1" d="M257-193.4c-2,2,0,6,2,7c2.4,0.6,4.9,0.3,7-1c1.6-1.2,2.7-3,3-5c0.6-1.3,0.6-2.7,0-4h-7
				C260.2-195.6,258.5-194.6,257-193.4z"/>
			<path class="st1" d="M240-167.4c2,3,5,2,6,0c1.4-2.1,1.8-4.6,1-7c-0.7-1.8-2.2-3.3-4-4c-1-0.3-2-0.3-3,0c-2,1-2,3-1,6
				C239.1-170.7,239.5-169,240-167.4z"/>
			<path class="st1" d="M217-188.4c2,3,6,1,7,0c1.1-2.2,1.1-4.8,0-7c-0.7-1.8-2.2-3.3-4-4c-1-0.3-2-0.3-3,0c-2,1-2,4-1,6
				C216.1-191.7,216.5-190,217-188.4z"/>
			<path class="st1" d="M202-215.4c1,2,5,1,6-1c1.1-1.8,1.5-3.9,1-6c-0.7-1.8-2.2-3.3-4-4c-1.3-0.6-2.7-0.6-4,0l-1,5
				C200.4-219.3,201-217.3,202-215.4z"/>
			<path class="st1" d="M198-170.4c2,2,5,1,6-1c1.1-2.2,1.1-4.8,0-7c-0.9-1.5-2.3-2.5-4-3c-1.3-0.6-2.7-0.6-4,0v6
				C196.5-173.7,197.1-172,198-170.4z"/>
			<path class="st1" d="M199-196.4c3,1,5-2,5-4c-0.1-2.3-1.2-4.5-3-6c-1.7-1.2-4-1.6-6-1c-1.2,0.3-2.3,1-3,2l3,5
				C196.2-198.9,197.5-197.6,199-196.4z"/>
			<path class="st1" d="M190-153.4c2,2,5,0,6-2c0.8-1.9,0.8-4.1,0-6c-0.7-1.8-2.2-3.3-4-4c-1.4-0.3-2.9,0.1-4,1v6
				C188.5-156.7,189.1-155,190-153.4z"/>
			<path class="st1" d="M197-111.4c3,2,5-2,5-4c-0.3-2-1.4-3.8-3-5c-1.6-1.6-3.8-2.3-6-2c-1.2,0.3-2.3,1-3,2l3,6
				C194.2-113.3,195.6-112.3,197-111.4z"/>
			<path class="st1" d="M178-182.4c2,2,5-1,6-2c0.8-2.4,0.4-4.9-1-7c-1.2-1.7-3-2.8-5-3c-1.4-0.3-2.9,0.1-4,1c-1,1,0,4,1,6
				C175.8-185.6,176.8-183.9,178-182.4z"/>
			<path class="st1" d="M161-153.4c3,2,5-1,6-3c0.2-2.2-0.5-4.4-2-6c-1.3-1.3-3.1-2-5-2c-1.4-0.3-2.9,0.1-4,1c-1,1,0,4,2,6
				C158.9-156,159.9-154.6,161-153.4z"/>
			<path class="st1" d="M154-132.4c2,2,5-1,5-3c0.2-2.2-0.5-4.4-2-6c-1.3-1.3-3.1-2-5-2c-1.1,0-2.1,0.4-3,1c-1,2,0,4,1,6
				C151.2-134.9,152.5-133.6,154-132.4z"/>
			<path class="st1" d="M157-178.4c2,2,5-1,5-3c0.2-2.2-0.5-4.4-2-6c-1.3-1.3-3.1-2-5-2c-1.6,0-3.1,0.7-4,2c-1,1,1,4,2,6
				C154.2-180.3,155.6-179.3,157-178.4z"/>
			<path class="st1" d="M168-197.4c3,1,5-2,5-4c-0.1-2.3-1.2-4.5-3-6c-1.5-1-3.3-1.3-5-1c-1.2,0.3-2.3,1-3,2c-1,2,0,4,2,5
				C165.2-199.9,166.5-198.6,168-197.4z"/>
			<path class="st1" d="M95-117.4c3,1,5-2,5-4c-0.1-2.3-1.2-4.5-3-6c-1.7-1.2-4-1.6-6-1c-1.2,0.3-2.3,1-3,2c-1,1,1,3,3,5
				C92.2-119.9,93.5-118.6,95-117.4z"/>
			<path class="st1" d="M134-147.4c-2-2-5,1-6,3c-0.2,2.7,0.9,5.3,3,7c1.4,1.2,3.2,1.9,5,2c1.6,0,3.1-0.7,4-2c1-1,0-4-2-6
				C136.8-144.9,135.5-146.3,134-147.4z"/>
			<path class="st1" d="M123-122.4c2-2-1-5-4-5c-2.2-0.1-4.3,0.6-6,2c-1.5,1.6-2.2,3.8-2,6c0.3,1.2,1,2.3,2,3c1,1,4,0,6-2
				C120.5-119.6,121.8-120.9,123-122.4z"/>
			<path class="st1" d="M144-125.4c-2-3-6,0-6,2c-0.8,2.4-0.4,4.9,1,7c1.2,1.6,3,2.7,5,3c1.4,0.3,2.9-0.1,4-1c1-1,0-4-1-6
				C146.2-122.2,145.2-123.9,144-125.4z"/>
			<path class="st1" d="M178-144.4c-3-2-6,0-7,2c-0.5,2.5,0.2,5.1,2,7c1.2,1.7,3,2.8,5,3c1.1,0,2.1-0.4,3-1c1-1,1-4-1-6
				C179.5-141.2,178.9-142.8,178-144.4z"/>
			<path class="st1" d="M209-143.4c-2-3-5-1-6,1c-1.1,2.2-1.1,4.8,0,7c1.2,1.7,3,2.8,5,3c1.1,0,2.1-0.4,3-1c2-1,1-3,0-6
				C210.5-140.8,209.8-142.2,209-143.4z"/>
			<path class="st1" d="M222-163.4c-2-2-6,0-6,2c-0.8,2.4-0.4,4.9,1,7c1.2,1.7,3,2.8,5,3c1.1,0,2.1-0.4,3-1v-6
				C224.2-160.2,223.2-161.9,222-163.4z"/>
			<path class="st1" d="M242-144.4c-1-3-5-1-6,1c-1.1,2.2-1.1,4.8,0,7c0.8,1.8,2.2,3.2,4,4c1.4,0.3,2.9-0.1,4-1l1-6
				C244.2-141.2,243.2-142.9,242-144.4z"/>
			<path class="st1" d="M249-119.4c-2-3-6-2-7,0c-1.1,2.2-1.1,4.8,0,7c0.8,1.8,2.2,3.2,4,4c1.3,0.6,2.7,0.6,4,0l1-6
				C250.5-116.2,249.9-117.8,249-119.4z"/>
			<path class="st1" d="M262-102.4c-2-3-6-1-7,0c-1.3,2.1-1.6,4.6-1,7c0.6,2.2,2,4,4,5c1.3,0.6,2.7,0.6,4,0c2-1,2-4,2-6
				C263.6-98.5,262.9-100.5,262-102.4z"/>
			<path class="st1" d="M267-133.4c-3-2-6,1-7,3c-0.3,2.5,0.4,5.1,2,7c1.2,1.6,3,2.7,5,3c1.4,0.3,2.9-0.1,4-1c1-1,0-4-1-6
				C269.3-129.5,268.3-131.6,267-133.4z"/>
			<path class="st1" d="M274-72.4c2-3-2-5-4-5c-2.3,0.1-4.5,1.2-6,3c-1.1,1.8-1.5,3.9-1,6c0.3,1.2,1,2.3,2,3c2,1,4-1,6-2
				C272.2-69,273.2-70.6,274-72.4z"/>
			<path class="st1" d="M124-213.4c2-3-1-5-3-5c-2.3,0.1-4.5,1.2-6,3c-1.2,1.7-1.6,4-1,6c0.3,1.2,1,2.3,2,3l5-3
				C122.1-210.6,123.2-212,124-213.4z"/>
			<path class="st1" d="M141-205.4c2-2-1-5-3-5c-2.2-0.2-4.4,0.5-6,2c-1.3,1.3-2,3.1-2,5c0,1.1,0.4,2.1,1,3c1,1,4,0,6-1
				C138.5-202.6,139.8-203.9,141-205.4z"/>
			<path class="st1" d="M126-193.4c1-3-2-5-4-5c-2,0.3-3.8,1.4-5,3c-1.3,1.3-2,3.1-2,5c0.3,1.2,1,2.3,2,3c2,1,4,0,6-2
				C124.1-190.6,125.2-192,126-193.4z"/>
			<path class="st1" d="M123-173.4c2-3-2-5-4-5c-2,0.3-3.8,1.4-5,3c-1,1.5-1.3,3.3-1,5c0.3,1.2,1,2.3,2,3c1,1,3,0,5-2
				C121.1-170.6,122.2-172,123-173.4z"/>
			<path class="st1" d="M141-167.4c2-3-2-5-4-5c-2,0.3-3.8,1.4-5,3c-1.3,1.3-2,3.1-2,5c0.3,1.2,1,2.3,2,3c2,1,4,0,6-2
				C139.1-164.6,140.2-166,141-167.4z"/>
			<path class="st1" d="M114-146.4c2-3-2-5-4-5c-2,0.3-3.8,1.4-5,3c-1,1.5-1.3,3.3-1,5c0.3,1.2,1,2.3,2,3c1,1,3,0,5-2
				C112.1-143.6,113.1-145,114-146.4z"/>
			<path class="st1" d="M12-5.4c2-3-1-6-3-6c-2.2-0.2-4.4,0.5-6,2C1.2-8,0.1-5.8,0-3.4c0.3,1.2,1,2.3,2,3c1,1,4,0,6-1
				C9.5-2.6,10.8-3.9,12-5.4z"/>
			<path class="st1" d="M78-4.4c3-1,2-4,1-6c-1.6-1.5-3.8-2.2-6-2c-2,0.2-3.8,1.3-5,3c-0.9,1.1-1.3,2.6-1,4l6,2
				C74.7-3.6,76.4-3.9,78-4.4z"/>
			<path class="st1" d="M255-11.4c0-3-4-3-6-2c-1.8,1.5-2.9,3.7-3,6c0,1.9,0.7,3.7,2,5c0.7,1,1.8,1.7,3,2c2-1,3-3,3-5
				C254.6-7.4,254.9-9.4,255-11.4z"/>
			<path class="st1" d="M202-3.4c1,2,5,1,6,0c1.4-2.1,1.8-4.6,1-7c-0.7-1.8-2.2-3.3-4-4c-1.3-0.6-2.7-0.6-4,0l-1,6
				C200.5-6.7,201.1-5,202-3.4z"/>
		</g>
	</g>
</pattern>
<pattern  y="938" width="290" height="290" patternUnits="userSpaceOnUse" id="New_Pattern_Swatch_2" viewBox="30 -319 290 290" style="overflow:visible;">
	<g>
		<rect x="30" y="-319" class="st0" width="290" height="290"/>
		<g>
			<defs>
				<rect id="SVGID_3_" x="30" y="-319" width="290" height="290"/>
			</defs>
			<clipPath id="SVGID_4_">
				<use xlink:href="#SVGID_3_"  style="overflow:visible;"/>
			</clipPath>
			<path class="st2" d="M203-306c20,0,4-26,21-29"/>
			<path class="st2" d="M284-304c10-7.3,12.7-16.7,8-28"/>
			<path class="st2" d="M320-187c15,0,5-25,19-27"/>
			<path class="st2" d="M317-228c4,2,19-29,32-24"/>
			<path class="st2" d="M309-256c12-4.7,17-13.3,15-26"/>
			<path class="st2" d="M54-52c-17-9,13-26,12-34"/>
			<path class="st2" d="M85-58c-2-10,14-13,20-15"/>
			<path class="st2" d="M298-286c1,10-9,18-21,14"/>
			<path class="st2" d="M107-40c0,1,28-7,32-33"/>
			<path class="st2" d="M146-39c17-2,6-24,21-29"/>
			<path class="st2" d="M188-52c10,9,19-17,27-18"/>
			<path class="st2" d="M240-58c-10-11,12-22,9-40"/>
			<path class="st2" d="M203-16c20,0,4-26,21-29"/>
			<path class="st2" d="M255-35c-1-19,20-20,18-35"/>
			<path class="st2" d="M294-57c15-1,12-20,24-20"/>
			<path class="st2" d="M284-14c10-7.3,12.7-16.7,8-28"/>
			<path class="st2" d="M275-83c7,2,8-24,20-25"/>
			<path class="st2" d="M312-90c13,1,7-29,20-34"/>
			<path class="st2" d="M284-124c-1-12,34-20,28-25"/>
			<path class="st2" d="M263-117c-1-4,0-36,16-34"/>
			<path class="st2" d="M286-170c25,0,20-29,19-28"/>
			<path class="st2" d="M249-163c0,1,7-21,23-17"/>
			<path class="st2" d="M221-88c0,0,7-40,21-37"/>
			<path class="st2" d="M184-86c24-8-5-22,11-30"/>
			<path class="st2" d="M213-132c13,6,13-28,25-31"/>
			<path class="st2" d="M187-151c16-4,11-25,22-29"/>
			<path class="st2" d="M157-91c10-4,1-23,14-29"/>
			<path class="st2" d="M121-84c2-31,14-12,27-33"/>
			<path class="st2" d="M81-93c-1-11,31-10,27-20"/>
			<path class="st2" d="M139-133c2-14,34-1,29-21"/>
			<path class="st2" d="M110-130c13,0,3-27,21-27"/>
			<path class="st2" d="M66-109c11,0,13-35,26-30"/>
			<path class="st2" d="M47-136c3-5,24-14,23-17"/>
			<path class="st2" d="M83-161c13-2,20-8,17-22"/>
			<path class="st2" d="M149-179c21,9,17-22,32-23"/>
			<path class="st2" d="M114-190c7.9-8.4,17.4-15.2,28-20"/>
			<path class="st2" d="M74-196c0,0,9-33,29-33"/>
			<path class="st2" d="M35-167c10,2,23-11,26-19"/>
			<path class="st2" d="M30-187c15,0,5-25,19-27"/>
			<path class="st2" d="M27-228c4,2,19-29,32-24"/>
			<path class="st2" d="M82-242c-1-2,14-33,13-33"/>
			<path class="st2" d="M62-269c-14-1,17-21,16-25"/>
			<path class="st2" d="M19-256c12-4.7,17-13.3,15-26"/>
			<path class="st2" d="M40-308c14,3,21-22,33-17"/>
			<path class="st2" d="M115-252c26,2,29-26,29-26"/>
			<path class="st2" d="M130-225c-1-10,17-10,21-15"/>
			<path class="st2" d="M164-263c3-18,25-1,25-17"/>
			<path class="st2" d="M153-294c12-3,11-26,21-25"/>
			<path class="st2" d="M99-296c15,4,18-20,33-19"/>
			<path class="st2" d="M165-224c4-8,16-2,22-6c6-5,0-15,9-21"/>
			<path class="st2" d="M205-211c15,3,11-25,24-27"/>
			<path class="st2" d="M227-190c-6-14,26-15,23-32"/>
			<path class="st2" d="M272-201c1-9,23-10,26-27"/>
			<path class="st2" d="M266-238c17,11,14-13,29-16"/>
			<path class="st2" d="M233-258c16,9,13-23,28-21"/>
			<path class="st2" d="M213-284c22,9,21-26,36-21"/>
			<path class="st2" d="M4-57c15-1,12-20,24-20"/>
			<path class="st2" d="M22-90c13,1,7-29,20-34"/>
			<path class="st2" d="M40-18c14,3,21-22,33-17"/>
			<path class="st2" d="M153-4c12-3,11-26,21-25"/>
			<path class="st2" d="M99-6c15,4,18-20,33-19"/>
		</g>
	</g>
</pattern>
<path class="st3" d="M1366,430.3v3C1366.1,431.5,1366,430.3,1366,430.3z"/>
<g>
	<path class="st4" d="M428,530c-4.9-0.7-9.7-1.5-14.6-2.2c-2.5,14-6.5,27.5-10.5,32.2c-29.4,34.3-81.7,23.1-124,18
		c-36.9-4.4-79.4-5.1-116-12c-56.6-10.7-27.3-11.2-42.2-38.6c3.1,5.7-87.9,2.9-96.8-1.4c-13.4-5.6-24-8-24-26.4V938h212.4
		c39.2-10.9,64.3-54.3,96.6-82c64.7-55.5,138.7-97.1,206-149c47.3-36.5,117.4-69.7,80-132C553.5,552.4,489.9,539.4,428,530z"/>
	<g>
		<path class="st3" d="M1096,0c-15,33.3-58.9,155.1-99,159c-6.2,0.6-13.1-1.8-20.3-6.4C930,222.1,870.7,295,833.9,369.6
			c-41.8,84.6,66.4,66.1,127.3,69.1c57.6-48.1,113.4-104,164.1-158c11.3-12,59.4-85.8,81.8-87.8c46.2-4,28.2,115.5,26,153
			c18.5,3.7,25.6-17,49-11c47.2,12-8.2,30.1,28,56c16.4,4.1,43.7-33.8,56-41V0H1096z"/>
		<path class="st5" d="M997,159c40.1-3.9,84-125.7,99-159h-16c-73,0-146,0-219,0c21,28.6,74.5,126.5,115.7,152.6
			C983.9,157.2,990.8,159.6,997,159z"/>
	</g>
	<path class="st5" d="M24,526c8.9,4.2,99.9,7.1,96.8,1.4c15,27.5-14.3,27.9,42.2,38.6c36.6,6.9,79.1,7.6,116,12
		c42.3,5.1,94.6,16.3,124-18c4-4.7,8-18.2,10.5-32.2c2.9-16.1,3.8-32.9,0.5-37.8c-9.7,1.9-76.4-12.8-79-18
		c-7.2-12.1,24.4-33.8,31-39c-7.1-10.6-58.7-19.8-73.4-18.4c-29,2.9-38,21.6-69,29.8C167.6,459.2,61.6,420.8,0,414v55v16v14.6
		C0,518,10.6,520.4,24,526z"/>
</g>
<g>
	<path class="st6" d="M1085.6,659.8c-34.7-1-34.8,50.3-55.6,55.2c-63.4,15-3.6-64.6,24.4-79c43.2-22.1,100.6-1.8,95.3,41.8
		c32.1-27.3,67-52.4,94.1-78.4c3.7-3.5,27.1-32.6,28.6-33.3c7.9-4,21.6-1.8,32.6-6.2c19.2-7.7,44.2,10.8,61-29v-97.6v-3
		c0,0,0-32.8,0-80.3c-12.3,7.2-39.6,45.1-56,41c-36.2-25.9,19.2-44-28-56c-23.4-6-30.5,14.7-49,11c2.2-37.5,20.2-157-26-153
		c-22.3,1.9-70.5,75.7-81.8,87.8c-50.6,54.1-106.4,109.9-164.1,158c-20.1,16.8-40.4,32.7-60.8,47.2c-80,56.9-241,143.4-206.3,264.8
		c4.7,16.3,5,20.9,11.8,36.7c10.8-1.4,21.7-1.9,32.6-1.4c5.2,15.7,5.7,31.8,1.5,48.2c8.1,35.4,23.7,80.9-12.9,103.7h130.6
		c44.7-9.4,53.8-26.5,80.4-56.4c-0.2,0.2,1.7-18.3,4.3-21.6c0.5-0.6,20.4-7.8,27.7-14.7c17.1-16.3,30.2-35.3,43-47.9
		c29.7-29.2,57.6-47.9,86.5-73.3c1.1-4.3,2.2-8.5,3-12.6C1107.9,683.7,1132.3,661.1,1085.6,659.8z"/>
	<path class="st7" d="M1366,819c-58.2-59.3-164.5,124.5-117-10c14.8-41.8,19.8-109.5-52-96c-42.7,8-64,62.7-71,47s17.3-58,21.8-73.1
		c0.9-3.1,1.6-6.1,1.9-9c5.3-43.6-52.1-64-95.3-41.8c-28,14.4-87.8,94-24.4,79c20.7-4.9,20.8-56.3,55.6-55.2
		c46.7,1.4,22.3,24,16.9,51.8c-0.8,4-1.9,8.3-3,12.6c-7.4,27.8-17.9,59.3,24,69.4c37.5,9.1,44.2-31.4,71-39
		c83.1-23.6-21.7,82.5,6.5,120.5c44.6,60.1,131.9-54.7,142.8-25.6c4.5,12-46.8,72.9-41.1,88.6l30.1,0
		C1369.5,921.6,1366,848.9,1366,819z"/>
</g>
<g>
	<path class="st6" d="M195,239c-20.1-71.2-36.1-148.3-49-221c-0.7-6-1.3-12-2-18H0v414c61.6,6.8,167.6,45.2,223.7,30.4
		c31-8.2,40-26.9,69-29.8c14.6-1.4,66.3,7.7,73.4,18.4c-6.6,5.2-38.2,26.9-31,39c2.6,5.2,69.3,19.9,79,18c3.2,4.9,2.3,21.7-0.5,37.8
		c4.8,0.7,9.7,1.4,14.6,2.2c-2.6-32.2-33.3-71.9-44-99c-19.6-49.3-39-99.7-59.5-148.2l0,0c-13.6,1.9-26.5,3.6-38.3,5.4
		C227.7,296.9,212.4,300.7,195,239z"/>
	<path class="st8" d="M589,5c-3.2-2.3-11-5-11-5s-71.6,0-94.5,0C390.7,0,297.8,0,205,0c-20.3,0-40.7,0-61,0c0.7,6,1.3,12,2,18
		c12.9,72.7,28.9,149.8,49,221c17.4,61.7,32.7,57.9,91.1,49.2c11.9-1.8,24.8-3.5,38.3-5.4c104.8-14.6,250.5-38,285.5-142.8
		C621.8,104.8,624.3,30.5,589,5z"/>
</g>
<path class="st9" d="M205,0c34.9,69.8,64.8,102.5,144,121c27.9,6.5,29.6-7.2,48.4,9.4c7.8,6.9,15,43.1,20.7,52.2
	c16.7,26.9,42.4,50.9,70.7,64.2c60.1,28.3,139.6,16.4,187.9-29.3c23.3-22,39.5-52.5,46.4-84.1c4.7-21.7,8.7-118.2-9.1-133.5H205z"/>
<path class="st10" d="M249,659c-61.7,92.5-130.2,182.9-186,279c133,0,266,0,399,0c-32.2-55-64.5-109.9-96.7-164.9
	C355.1,755.7,285,600.5,249,659z"/>
</svg>
