<?xml version="1.0" encoding="UTF-8"?>
<svg width="1206px" height="3891px" viewBox="0 0 1206 3891" version="1.1" xmlns="http://www.w3.org/2000/svg" xmlns:xlink="http://www.w3.org/1999/xlink">
    <!-- Generator: Sketch 48.2 (47327) - http://www.bohemiancoding.com/sketch -->
    <title>form-speakers</title>
    <desc>Created with Sketch.</desc>
    <defs></defs>
    <g id="speaker-overview" stroke="none" stroke-width="1" fill="none" fill-rule="evenodd">
        <path d="M321.476942,606.322605 C326.225515,605.004593 327.699383,602.478176 331.006784,601.338274 C345.053806,595.910038 363.250798,603.431748 379.853196,606.919957 C385.127431,610.106751 386.078152,609.147698 389.131524,610.942496 C392.82374,608.572267 396.123596,616.935202 398.731789,621.215315 C401.599042,625.961253 400.175476,623.538961 400.769047,624.758328 C409.501592,634.392692 405.628286,647.23029 405.334015,658.82112 C400.243385,657.297597 404.373234,666.934702 403.16597,671.058626 C404.496476,673.653547 402.245431,673.911121 401.56886,675.349699 C399.340452,667.704683 399.68754,679.273593 398.588427,681.221839 C398.08037,680.665588 394.808181,686.94875 392.411258,689.455986 C378.210813,699.706884 367.830857,705.792755 353.552443,706.217478 C337.654282,708.393156 317.015095,695.445952 308.16937,677.314386 C307.107984,672.916447 304.869515,669.891322 303.810643,665.997571 C297.090206,660.610438 301.954475,658.130603 301.572174,654.21767 C303.134072,644.597007 302.6235,630.304389 309.004394,619.628769 C305.928386,617.828491 312.734338,613.762109 315.31235,611.339818 C318.121754,613.378489 319.062414,607.594034 321.476942,606.322605 Z" id="Fill-4-Copy-3" fill="#FFC4BC" transform="translate(353.333956, 652.942949) scale(1, -1) rotate(-88.000000) translate(-353.333956, -652.942949) "></path>
        <path d="M0,115.507372 C2.50429079,119.389679 5.33131437,123.215461 8.5623679,126.738903 C18.4084784,135.043172 23.5848205,140.6553 34.3246243,153.217884 C42.5182871,161.484546 52.9196378,169.572028 65.210132,173.403406 C76.6533874,180.778587 88.654095,183.24288 100.223441,186.269049 C110.693367,187.116288 127.527539,191.92542 138.364676,190.78397 C149.296933,193.843321 164.598112,187.439257 176.505911,186.269049 C187.469138,189.231067 201.40102,179.840652 211.517008,173.403406 C223.535412,165.223016 228.017151,160.736853 242.404728,153.217884 C251.458902,141.993628 262.857915,134.510053 268.164772,126.738903 C276.265526,119.739781 284.59634,106.312261 287.80169,94.9884597 C293.318697,85.3016212 297.276166,68.9541136 300.31782,58.9973974 C301.563239,49.270741 307.704062,31.9919341 304.708862,19.7899243 C305.006715,12.0215223 304.778747,5.71767571 304.141277,-2.88250703e-07 L450.961525,-1.05879118e-22 L450.961502,-8.85368991e-07 C455.567382,20.1778177 445.583815,48.3799182 443.536587,64.3285874 C438.499608,80.8243066 431.94512,107.900557 422.804673,123.951642 C417.495605,142.70814 403.694238,164.950926 390.275566,176.544605 C381.482421,189.419097 362.602045,201.815772 347.601714,220.412998 C323.768419,232.864977 316.342359,240.297673 296.437775,253.851283 C279.676603,264.513663 256.597638,280.067022 238.433987,275.160558 C218.710796,277.102792 193.359992,287.709869 175.251644,282.641921 C157.300355,284.535489 129.414471,276.567461 112.067088,275.160558 C92.9013501,270.150124 73.0233116,266.068778 54.0655118,253.851283 C33.707445,247.502522 16.4773046,234.105971 2.90157329,220.412998 C1.90656084,219.24883 0.94035763,218.12069 0,217.025783 L0,115.507372 Z" id="Combined-Shape" fill="#F3ECDA"></path>
        <path d="M-3.48096364e-06,2443.17263 C4.94910107,2445.32304 10.5691927,2447.40265 16.3656167,2448.84256 C26.9920598,2452.13406 45.7058148,2457.59291 51.9255286,2458.96559 C59.4134619,2464.05437 63.8694871,2461.91826 73.6564389,2463.62004 C76.2641109,2463.47334 89.9795353,2454.78481 97.7065538,2467.5529 C108.97369,2469.57224 117.383329,2463.70262 124.501306,2470.6178 C128.252427,2470.64709 137.493381,2478.36593 152.788526,2476.98888 C161.241905,2487.13966 169.322616,2485.53944 179.9475,2486.45872 C187.259658,2491.57722 195.848524,2495.0672 203.358707,2498.8165 C212.565596,2508.81083 230.582032,2509.84669 234.188308,2512.53849 C241.785124,2515.98854 249.944716,2522.37125 255.959508,2524.27743 C260.632474,2530.1176 267.216826,2527.83094 278.062437,2530.67964 C288.510384,2527.03123 295.768833,2537.42912 309.890555,2528.39491 C319.149066,2531.93389 330.350991,2528.94426 341.167969,2532.26735 C346.552761,2538.39583 356.864646,2537.16586 370.265676,2537.42013 C379.445808,2537.74092 389.090496,2540.7914 395.146714,2543.3688 C401.152687,2552.25798 403.051664,2544.64765 413.77634,2549.63124 C423.024237,2555.13857 426.662313,2560.86683 424.142583,2561.15754 C433.604765,2561.70827 443.051538,2560.22687 449.758561,2564.19169 C453.614861,2571.34504 461.448194,2570.96165 461.695901,2584.17131 C461.426872,2592.588 461.258295,2600.88546 460.1212,2613.75435 C454.927733,2625.03732 454.341093,2634.2897 445.199752,2645.6089 C449.144371,2644.20447 435.164494,2651.20139 418.805264,2671.62896 C421.613304,2676.39183 411.271031,2672.17247 405.341262,2685.34667 C393.958793,2693.62704 394.569867,2692.8858 390.497862,2700.16308 C388.318279,2705.06389 382.15488,2709.01549 375.055913,2714.74403 C371.211967,2721.65216 363.939976,2724.01388 359.70076,2728.17432 C358.709662,2735.7236 351.407946,2740.11213 348.718923,2749.12994 C340.912925,2756.75701 337.258836,2762.3105 330.017927,2770.79432 C325.902932,2775.87052 316.726889,2789.43694 306.42766,2790.26574 C301.855119,2799.20658 293.093919,2802.35075 280.779118,2804.64366 C271.114769,2816.90578 269.909996,2826.4617 263.188474,2827.60284 C258.427461,2836.52342 250.46454,2844.33093 242.4517,2846.05896 C237.550081,2856.23329 230.451538,2854.68245 220.915542,2863.02445 C215.257793,2865.73207 209.436784,2873.19365 200.917739,2881.5093 C191.774436,2892.61704 189.216751,2896.05379 182.918316,2901.00482 C181.412073,2904.25301 171.96235,2912.70506 166.906332,2917.5387 C153.119062,2926.91005 148.254553,2931.13646 141.047722,2942.39672 C124.102408,2953.32417 120.849946,2964.88864 115.421047,2964.0725 C109.278286,2966.38835 98.8009946,2969.19162 90.9350031,2969.82658 C80.3761779,2970.95274 71.5706481,2968.8633 64.085874,2965.40729 C60.0707705,2960.48541 51.9717452,2959.50733 41.9866542,2954.32295 C41.0749789,2948.70673 31.6628324,2941.27323 31.7548597,2940.08196 C29.5508723,2950.20274 25.6362684,2934.5354 25.3659934,2911.93044 C20.6378737,2901.34719 17.8706198,2890.49061 17.9228079,2873.4441 C23.7557115,2869.96501 11.854046,2862.2574 11.5437743,2850.17055 C13.6218771,2838.71109 3.99717021,2836.45923 2.99952442,2824.75613 C6.30488378,2817.09234 13.3434672,2807.56814 5.13313253,2802.34351 C2.32546724,2801.22919 1.06836099,2798.42027 2.07523072e-20,2794.75893 L-3.48096364e-06,2443.17263 Z" id="Combined-Shape" fill="#F3ECDA"></path>
        <path d="M1206,1851.55745 C1203.23472,1849.98619 1200.47601,1848.30848 1197.72832,1846.52498 C1188.86099,1840.77083 1180.73408,1834.56799 1172.87584,1828.57133 C1160.70134,1819.28687 1149.20683,1810.5144 1137.24691,1805.24893 C1123.13665,1799.03736 1106.54848,1799.83117 1101.02326,1806.98931 C1095.85633,1813.68584 1098.56001,1828.55272 1106.88257,1839.47155 C1116.03717,1851.4366 1130.25302,1861.03959 1145.3019,1871.20924 C1149.45227,1874.01339 1153.59699,1876.81408 1157.66911,1879.67761 C1173.19237,1890.5841 1193.21682,1906.55275 1206,1928.92401 L1206,2017.95622 C1202.85389,2023.45801 1199.12374,2028.74108 1194.83345,2033.71159 C1174.55163,2057.20472 1145.535,2069.33745 1117.21273,2066.16148 C1085.45101,2062.60022 1061.93197,2043.86578 1041.18096,2027.3345 C1036.26549,2023.41783 1031.62246,2019.71897 1027.02119,2016.3331 C1009.33444,2003.31262 989.391249,1998.12748 981.617945,2004.52994 C973.865697,2010.91575 977.019178,2031.36409 987.821234,2045.09288 C996.055536,2055.51802 1007.38251,2064.67135 1019.37376,2074.36746 C1030.71896,2083.54436 1042.45568,2093.02895 1053.18094,2104.76066 C1082.54632,2136.8457 1097.17239,2188.555 1068.35268,2225.29429 C1048.03576,2251.20401 1010.89779,2261.32194 973.742258,2251.07007 C952.496248,2245.20979 934.241462,2234.12788 918.135407,2224.35313 C913.900792,2221.78341 909.672776,2219.21306 905.404526,2216.75176 C885.57003,2205.31804 870.816964,2200.79112 858.97831,2202.51148 C850.730975,2203.70769 842.690586,2209.79462 837.469705,2218.79367 C832.253852,2227.78958 830.96008,2237.79209 834.01765,2245.54402 C839.142817,2258.5517 853.324587,2269.61627 868.341892,2281.32984 C874.350888,2286.01747 880.568217,2290.86507 886.615183,2296.13376 C918.642672,2324.03132 941.560948,2371.96441 916.199654,2411.26204 C903.406488,2431.08604 881.681819,2442.50767 855.034442,2443.4275 C836.119253,2444.07779 815.103159,2439.4582 795.864574,2430.41035 C790.296279,2427.79305 784.821961,2425.00166 779.530844,2422.30206 C760.688897,2412.69173 742.893988,2403.61572 728.553171,2406.30531 C714.257921,2408.98391 701.897958,2427.06196 702.102737,2444.99005 C702.327487,2464.41585 713.657747,2485.41805 733.20102,2502.59563 C753.327811,2520.29303 779.795745,2532.815 805.39167,2544.92049 C820.190069,2551.92561 826.512726,2569.59658 819.510749,2584.40001 C812.509715,2599.19935 794.834659,2605.52107 780.035317,2598.52003 C752.098949,2585.30406 720.438864,2570.32479 694.048296,2547.12362 C661.899855,2518.86466 643.228919,2481.87987 642.815938,2445.66577 C642.281392,2398.87929 675.141385,2355.99016 717.627713,2348.02567 C751.83399,2341.61343 782.130178,2357.06741 806.473152,2369.4839 C811.572271,2372.08324 816.383549,2374.54083 821.086119,2376.75171 C839.885085,2385.58835 861.475646,2386.7132 866.383087,2379.10909 C871.132751,2371.75039 862.213486,2353.51006 847.664506,2340.83964 C842.830139,2336.62758 837.508676,2332.47519 831.875183,2328.08079 C812.209493,2312.73811 789.924078,2295.3513 778.852483,2267.28318 C769.068074,2242.45543 771.740636,2213.93733 786.182215,2189.04209 C800.622222,2164.14434 824.047467,2147.66781 850.457545,2143.8339 C884.238498,2138.92847 914.898645,2153.78446 935.019409,2165.38538 C939.677625,2168.06795 944.289635,2170.8668 948.90573,2173.66659 C962.946955,2182.1901 976.209821,2190.24562 989.511754,2193.91042 C1002.68453,2197.54755 1016.51936,2195.30697 1021.69916,2188.70377 C1029.29365,2179.02208 1021.32308,2157.79079 1009.4305,2144.7784 C1001.70856,2136.33687 992.178971,2128.63335 982.093513,2120.47663 C968.100945,2109.16099 953.632637,2097.46444 941.293752,2081.84685 C913.477926,2046.61913 906.556866,1989.53937 943.920205,1958.76349 C973.998311,1933.99071 1020.41513,1937.84371 1062.17002,1968.58082 C1067.68193,1972.63519 1072.99364,1976.86709 1078.1253,1980.9563 C1094.02274,1993.61963 1109.03436,2005.58146 1123.81787,2007.23675 C1132.55711,2008.21521 1142.56867,2003.51495 1149.95125,1994.96548 C1157.32723,1986.41664 1160.51976,1975.82194 1158.27241,1967.31902 C1155.0132,1954.97019 1143.98634,1942.53201 1123.57389,1928.18733 C1119.79998,1925.53249 1115.95598,1922.93893 1112.10884,1920.34033 C1094.63064,1908.53194 1074.81832,1895.14766 1059.79014,1875.49483 C1030.18025,1836.83657 1036.08372,1794.0816 1054.08594,1770.76142 C1072.65105,1746.70844 1114.0716,1730.2578 1161.14142,1750.98273 C1178.35196,1758.56074 1192.4786,1768.97541 1206,1779.26887 L1206,1851.55746 L1206,1851.55745 Z" id="Combined-Shape" fill="#DDE4F2"></path>
        <path d="M1.09139364e-11,1367.09396 C28.3623384,1364.4426 55.3314872,1362.79695 78.1520104,1359.52703 C102.945512,1361.66501 118.658481,1334.46204 152.792952,1372.04546 C177.464918,1377.9671 196.633003,1390.48553 224.499649,1396.42124 C339.386626,1445.89014 421.423949,1561.31288 407.638207,1650.22187 C404.947035,1730.07257 366.385153,1788.12152 301.432428,1867.53619 C285.545835,1880.94076 245.73386,1899.24017 249.258427,1902.08143 C236.913763,1908.22812 163.609725,1906.28706 212.050811,1918.74923 C202.935553,1922.53289 201.303488,1935.12165 184.861299,1927.68092 C158.730892,1934.43243 97.6673439,1911.33663 107.320836,1939.80551 C72.324066,1940.58971 35.5334837,1945.91876 0,1945.99908 L0,1367.09396 Z" id="Combined-Shape" fill="#FFC4BC"></path>
        <path d="M887.742334,1107.86849 C887.616856,1110.54272 888.585583,1111.68319 888.603794,1113.57833 C888.960453,1121.71335 882.496165,1130.11791 878.204261,1138.28072 C875.851543,1140.5691 876.157264,1141.20644 874.81907,1142.53858 C875.361813,1144.81517 870.858661,1145.31309 868.408233,1146.04825 C865.695046,1146.85046 867.073519,1146.46185 866.399109,1146.59319 C860.429674,1149.74311 854.934042,1145.8372 849.464419,1143.98403 C850.996454,1141.54771 845.755333,1142.29246 843.984063,1141.05706 C842.538186,1141.37174 842.772437,1140.15788 842.195043,1139.59347 C846.18668,1139.55009 840.625823,1138.03522 839.872851,1137.17532 C840.218117,1136.99143 837.746561,1134.36059 836.933285,1132.74067 C834.305761,1123.8184 833.05482,1117.5029 835.116096,1109.98059 C836.600825,1101.35529 846.034333,1092.47024 856.06567,1090.50703 C858.326973,1090.5973 860.121522,1089.87131 862.142476,1089.88898 C865.771624,1087.1676 866.180736,1090.07262 868.103569,1090.44659 C872.434612,1092.67319 879.317643,1094.50199 883.386852,1099.40105 C884.731243,1098.05788 885.587624,1102.20998 886.331768,1103.91207 C884.916185,1105.08099 887.51999,1106.42056 887.742334,1107.86849 Z" id="Fill-4-Copy-4" fill="#DDE4F2" transform="translate(861.351918, 1118.258949) rotate(-86.000000) translate(-861.351918, -1118.258949) "></path>
        <path d="M1206,3278.51144 L1206,3491.51146 C1197.06909,3487.58987 1188.5656,3483.85616 1180.27709,3480.21642 C1171.91179,3476.54393 1167.66088,3468.71901 1155.62011,3469.38981 C1150.27427,3462.63782 1151.17612,3459.32338 1140.71345,3454.89602 C1133.91359,3446.04323 1132.11037,3449.30671 1125.16959,3441.23471 C1110.99374,3428.46501 1094.91142,3419.77456 1095.60247,3424.29527 C1084.06239,3417.45036 1081.11657,3417.29683 1073.6727,3410.92325 C1063.46364,3406.54643 1056.25621,3397.01628 1051.75922,3397.52259 C1044.11529,3395.74 1039.30433,3389.26171 1032.77123,3386.41223 C1030.14402,3384.65357 1010.33835,3378.87585 1013.70048,3375.43882 C1002.60226,3358.76891 994.083182,3366.27495 992.484138,3359.5165 C980.147402,3354.13691 985.639868,3348.58572 971.771339,3344.8045 C969.955076,3345.45793 963.84479,3332.57838 950.89443,3329.48179 C946.844861,3316.6438 929.337532,3319.76441 929.852241,3314.15596 C925.407299,3304.92629 927.589103,3307.81375 909.551892,3298.94566 C903.021124,3292.97967 893.526759,3291.4387 888.021645,3283.38735 C873.161075,3269.95253 865.98838,3263.69288 862.375786,3260.63204 C857.014129,3257.64503 848.679671,3244.05626 848.05961,3229.30503 C849.020027,3228.69961 858.506085,3225.31043 842.409159,3224.86298 C850.884572,3219.59559 854.592429,3204.84354 863.593931,3199.44726 C863.913918,3188.78995 883.750636,3182.65783 884.951817,3173.09154 C895.15485,3172.13406 900.057804,3169.6212 908.706458,3148.31687 C918.383435,3145.33817 912.52029,3151.74647 918.072897,3140.50695 C916.862117,3131.18216 929.944414,3128.35414 934.137181,3128.07989 C949.025965,3120.64059 943.236431,3121.37071 950.020631,3123.84581 C949.124118,3123.1412 963.779414,3121.45826 966.185846,3125.60126 C967.831572,3127.02817 986.866862,3124.36799 984.07711,3135.19024 C990.288053,3142.04044 994.7897,3142.63844 1008.79165,3153.62722 C1010.05581,3164.65201 1030.49043,3169.84643 1033.55845,3171.98347 C1042.00055,3175.63198 1046.9522,3174.65456 1048.68935,3182.74922 C1059.8937,3182.8591 1058.90509,3187.80291 1064.31536,3192.6863 C1061.77811,3194.90168 1070.55021,3203.30304 1079.39621,3203.02365 C1085.43004,3203.19632 1095.14325,3216.7569 1095.77621,3212.27104 C1105.97501,3207.98157 1105.76927,3211.21737 1123.48984,3221.37793 C1122.70461,3231.78298 1129.20222,3227.09877 1123.5194,3226.04692 C1122.40596,3236.80257 1135.22171,3237.25426 1142.42444,3242.91355 C1146.93187,3256.00483 1166.09837,3258.69937 1163.68884,3257.35685 C1171.84697,3260.02649 1175.48317,3260.76494 1185.48228,3270.09355 C1199.18857,3277.24945 1196.71486,3276.47553 1206,3278.51144 Z" id="Combined-Shape" fill="#DDE4F2"></path>
        <path d="M1205,3211.90818 L1205,3227.89176 C1204.30614,3226.87273 1203.75477,3225.71056 1203.37419,3224.375 C1202.31419,3220.657 1200.26819,3218.377 1196.41019,3217.517 C1194.00419,3216.981 1192.14319,3215.25 1193.30519,3212.658 C1193.95919,3211.201 1195.95019,3210.343 1196.49719,3209.899 C1199.86311,3209.85268 1202.77578,3210.54465 1205,3211.90818 Z M1205,3184.54154 C1204.64306,3183.59367 1204.20894,3182.68134 1203.66119,3181.847 C1202.42619,3179.967 1200.26119,3179.066 1199.02119,3177.12 C1197.95919,3175.453 1197.71919,3173.091 1198.99819,3171.586 C1200.71826,3169.56076 1202.87708,3169.97771 1205,3171.53993 L1205,3184.54154 Z M1205,3107.83546 C1202.12812,3105.851 1200.02248,3103.07331 1199.02719,3099.35 C1198.10519,3095.903 1197.37719,3092.048 1196.11319,3088.491 C1197.48719,3088.488 1198.89019,3088.489 1200.36119,3088.503 C1201.72799,3089.91119 1203.2912,3091.04422 1205,3091.95024 L1205,3107.83546 Z M1205,3155.40755 C1203.95886,3154.78072 1203.34469,3153.68736 1203.53819,3151.872 C1203.68494,3150.49766 1204.23569,3149.7035 1205,3149.23659 L1205,3155.40755 Z M1205,3391.31657 L1205,3407.83546 C1202.12812,3405.851 1200.02248,3403.07331 1199.02719,3399.35 C1197.41819,3393.335 1196.40919,3386.069 1192.08919,3381.335 C1190.93919,3380.073 1189.77819,3378.59 1189.83619,3376.882 C1189.88219,3375.557 1190.74919,3374.294 1191.97019,3373.775 C1194.07119,3372.882 1197.68619,3374.675 1198.73919,3376.602 C1201.08719,3380.899 1203.41719,3385.37 1204.66619,3390.061 C1204.77825,3390.48175 1204.88877,3390.90063 1205,3391.31657 Z M1160.28419,3385.748 C1160.12419,3383.296 1160.10519,3380.835 1159.59919,3378.42 C1159.13219,3376.189 1157.95519,3375.168 1156.94519,3373.202 C1156.37019,3372.081 1156.08019,3370.76 1156.41819,3369.547 C1156.76719,3368.293 1157.80419,3367.255 1159.05719,3366.904 C1163.81119,3365.575 1166.17519,3373.496 1167.33319,3376.706 C1167.98019,3378.498 1167.78519,3380.611 1167.86619,3382.585 C1168.07519,3387.72 1171.13819,3389.386 1175.07519,3391.82 C1176.16819,3392.494 1177.20419,3393.507 1177.62319,3394.671 C1177.81019,3395.187 1177.87419,3395.734 1177.76719,3396.294 C1177.46919,3397.865 1175.86519,3398.922 1174.27519,3399.096 C1167.40719,3399.849 1160.70019,3392.099 1160.28419,3385.748 Z M1127.21619,3152.286 C1125.67519,3149.833 1124.53919,3147.001 1127.41919,3145.066 C1130.46419,3143.022 1132.10519,3145.391 1133.76919,3147.905 C1137.00819,3152.796 1141.77719,3155.873 1147.27219,3157.806 C1149.60319,3158.627 1151.94719,3159.451 1154.34419,3160.029 C1156.97419,3160.664 1158.61019,3162.432 1157.67719,3164.739 C1157.05319,3166.279 1154.60219,3167.079 1153.92819,3167.547 C1143.43119,3165.838 1135.34919,3162.541 1129.35319,3155.294 C1128.57119,3154.348 1127.86919,3153.326 1127.21619,3152.286 Z M1131.75019,3246.758 C1131.16719,3246.151 1130.74619,3245.339 1130.79219,3244.499 C1130.85119,3243.394 1131.70819,3242.462 1132.70619,3241.987 C1133.26619,3241.721 1133.83019,3241.531 1134.39419,3241.41 C1140.37319,3240.121 1146.32519,3246.549 1147.64019,3251.816 C1148.12019,3253.739 1148.20419,3255.758 1148.62019,3257.702 C1149.27619,3260.768 1149.24119,3264.075 1153.12719,3265.615 C1154.09119,3265.998 1154.91419,3269.476 1154.23919,3270.523 C1153.49819,3271.671 1150.83519,3272.299 1149.21119,3272.011 C1145.18519,3271.299 1142.82919,3268.301 1141.67919,3264.529 C1140.88719,3261.927 1140.33619,3259.221 1139.99519,3256.522 C1139.41419,3251.909 1137.60319,3250.489 1133.79119,3248.232 C1133.06619,3247.803 1132.33219,3247.367 1131.75019,3246.758 Z M1174.74619,3320.329 C1168.70219,3317.647 1162.57719,3315.149 1156.52319,3312.491 C1153.33719,3311.092 1150.96619,3306.228 1151.94119,3302.84 C1151.94819,3302.816 1151.95519,3302.793 1151.96219,3302.769 C1153.04919,3299.184 1157.93819,3297.156 1159.00419,3301.906 C1159.89419,3305.868 1163.04019,3307.267 1166.30319,3308.525 C1170.20919,3310.031 1174.21319,3311.297 1178.05519,3312.945 C1180.61119,3314.043 1181.92919,3316.163 1180.44919,3318.929 C1179.16719,3321.325 1177.12719,3321.386 1174.74619,3320.329 Z M1084.38419,3117.599 C1084.99919,3114.878 1087.32519,3114.558 1089.65119,3114.617 C1097.75619,3114.819 1104.25219,3121.296 1103.44319,3129.704 C1102.85919,3135.776 1104.17819,3139.648 1109.94019,3142.013 C1111.64419,3142.713 1113.44619,3144.308 1114.15719,3145.947 C1114.78919,3147.403 1114.53519,3149.852 1113.65919,3151.208 C1112.40419,3153.147 1110.36419,3152.688 1108.52819,3151.21 C1106.62619,3149.677 1104.56719,3148.313 1102.46919,3147.053 C1095.57119,3142.913 1094.57419,3140.967 1095.29919,3132.526 C1095.91019,3125.418 1095.53719,3124.808 1088.06519,3122.174 C1085.78519,3121.371 1083.73919,3120.454 1084.38419,3117.599 Z M1102.71319,3371.446 C1103.44819,3367.773 1108.11819,3365.28 1109.64019,3369.906 C1110.90819,3373.762 1114.17519,3374.851 1117.54419,3375.787 C1121.57719,3376.908 1125.68619,3377.779 1129.66919,3379.049 C1132.32019,3379.893 1133.83619,3381.876 1132.63119,3384.773 C1131.58719,3387.282 1129.56319,3387.54 1127.09019,3386.718 C1120.81519,3384.633 1114.47719,3382.74 1108.19419,3380.68 C1104.88819,3379.597 1102.05719,3374.986 1102.70019,3371.518 C1102.70419,3371.494 1102.70919,3371.47 1102.71319,3371.446 Z M1093.67019,3328.343 C1090.06819,3327.678 1086.27119,3326.761 1083.21419,3324.889 C1080.30119,3323.106 1074.71319,3315.239 1080.56819,3313.537 C1081.11019,3313.379 1081.59319,3313.342 1082.03119,3313.4 C1084.21519,3313.685 1085.27519,3316.29 1086.92919,3317.673 C1089.25519,3319.618 1092.40819,3319.856 1095.27619,3320.343 C1099.85119,3321.123 1104.51219,3322.062 1108.75619,3323.84 C1111.11119,3324.825 1114.23319,3328.632 1114.05919,3331.288 C1113.96319,3332.734 1113.02519,3334.122 1111.67319,3334.644 C1108.54019,3335.854 1106.20019,3331.446 1103.59719,3330.306 C1100.47919,3328.943 1096.96919,3328.952 1093.67019,3328.343 Z M1085.53819,3415.603 C1086.58219,3414.722 1088.11019,3414.578 1089.65119,3414.617 C1093.64719,3414.716 1097.24719,3416.346 1099.77719,3418.975 C1095.82719,3418.702 1090.91919,3417.572 1085.53819,3415.603 Z M1109.48719,3300.449 C1105.12519,3299.471 1100.72419,3298.65 1096.39819,3297.533 C1091.39419,3296.241 1086.99419,3290.682 1087.12619,3286.163 C1087.19519,3283.772 1089.62019,3281.599 1091.71819,3281.69 C1092.82519,3281.738 1093.84119,3282.417 1094.37219,3284.026 C1096.28519,3289.827 1100.95819,3290.876 1106.08519,3291.505 C1108.03519,3291.744 1110.02219,3292.173 1111.83719,3292.9 C1114.17819,3293.839 1115.35819,3295.751 1114.40619,3298.285 C1113.56619,3300.516 1111.68319,3300.942 1109.48719,3300.449 Z M1104.80719,3186.956 C1105.65719,3185.668 1107.28419,3184.853 1108.78719,3185.202 C1109.84719,3185.448 1110.72619,3186.217 1111.33319,3187.122 C1113.00219,3189.611 1113.41919,3191.701 1116.24619,3193.308 C1118.64919,3194.674 1121.42519,3195.23 1124.00119,3196.174 C1127.29119,3197.382 1132.41919,3198.287 1133.00619,3202.433 C1133.19919,3203.799 1132.62119,3205.34 1131.37919,3205.941 C1130.81819,3206.214 1130.21019,3206.268 1129.59219,3206.206 C1128.85019,3206.13 1128.09419,3205.883 1127.38819,3205.634 C1120.12619,3203.081 1106.13019,3200.33 1104.14619,3191.414 C1103.81019,3189.907 1103.95719,3188.244 1104.80719,3186.956 Z M1132.98419,3082.204 C1133.12619,3082.955 1133.03019,3083.812 1132.63119,3084.773 C1131.58719,3087.281 1129.56319,3087.54 1127.09019,3086.718 C1125.36519,3086.145 1123.63419,3085.588 1121.90219,3085.036 C1125.67719,3083.18 1129.54319,3081.918 1132.98419,3082.204 Z M1131.11819,3340.549 C1130.20519,3338.555 1129.27119,3336.478 1128.91319,3334.343 C1128.21919,3330.212 1127.98119,3326.006 1127.44419,3321.843 C1127.01919,3318.546 1129.00819,3316.166 1132.47319,3317.648 C1136.11319,3319.206 1136.72519,3325.441 1136.70019,3328.827 C1136.65019,3335.504 1139.28919,3339.326 1145.91219,3341.224 C1151.67519,3342.877 1156.12919,3347.79 1155.46019,3354.105 C1155.45519,3354.153 1155.45019,3354.201 1155.44319,3354.248 C1155.28519,3355.507 1154.79419,3356.75 1153.88919,3357.635 C1152.94919,3358.553 1151.52319,3359.021 1150.27019,3358.629 C1147.65119,3357.806 1148.26519,3354.066 1147.11119,3352.077 C1145.79719,3349.814 1143.35419,3348.734 1141.03519,3347.784 C1137.12019,3346.178 1133.05419,3344.772 1131.11819,3340.549 Z M1108.95719,3269.762 C1108.16919,3269.201 1107.13019,3269.007 1106.27319,3268.526 C1104.17419,3267.35 1102.48519,3265.721 1103.53519,3263.145 C1104.54319,3260.67 1106.74419,3260.253 1109.15319,3261.07 C1113.70319,3262.613 1118.08219,3264.766 1121.80819,3267.829 C1124.21119,3269.802 1127.63719,3272.881 1129.02319,3276.212 C1129.47819,3277.302 1129.71319,3278.42 1129.62319,3279.535 C1129.53619,3280.606 1129.15519,3281.716 1128.31319,3282.383 C1127.04419,3283.389 1125.10019,3283.064 1123.81419,3282.08 C1122.56719,3281.125 1122.16519,3279.674 1121.12619,3278.598 C1120.23819,3277.679 1118.88919,3276.991 1117.86119,3276.224 C1114.92219,3274.031 1111.94119,3271.893 1108.95719,3269.762 Z M1173.41919,3347.246 C1171.79219,3346.273 1171.07319,3344.024 1171.83419,3342.288 C1172.62719,3340.479 1174.43019,3339.856 1176.45019,3339.829 C1178.90719,3339.796 1181.68519,3340.643 1183.34519,3341.31 C1187.40219,3342.937 1190.51819,3346.054 1192.72219,3349.775 C1194.36719,3352.553 1195.83719,3355.574 1198.23919,3357.799 C1200.18719,3359.606 1205.18019,3360.396 1204.92619,3363.656 C1204.80119,3365.266 1203.46619,3366.631 1201.90819,3367.054 C1199.45919,3367.721 1195.53819,3366.139 1193.54019,3364.718 C1191.24919,3363.091 1189.57919,3360.347 1188.14419,3357.805 C1186.58019,3355.034 1184.87319,3352.127 1182.27519,3350.193 C1179.48519,3348.116 1176.18619,3348.9 1173.41919,3347.246 Z M1195.62619,3299.655 C1197.01319,3294.611 1196.31019,3292.137 1191.54319,3291.093 C1183.63119,3289.361 1181.40619,3282.955 1178.60519,3277.009 C1177.21319,3274.056 1180.09419,3271 1183.06719,3271.916 C1184.98519,3272.507 1185.16719,3273.951 1185.98019,3275.468 C1186.89519,3277.176 1188.34919,3278.714 1189.79619,3279.976 C1192.77919,3282.578 1196.40319,3284.298 1199.79219,3286.287 C1204.21319,3288.883 1205.22519,3293.819 1204.28319,3298.825 C1203.69019,3301.983 1202.74519,3305.076 1201.95819,3308.198 L1193.00019,3308.198 C1193.88119,3305.352 1194.83619,3302.526 1195.62619,3299.655 Z M1139.50619,3121.926 C1138.66419,3116.576 1138.49019,3111.118 1138.07719,3105.703 C1137.90019,3103.391 1138.00519,3101.067 1140.88519,3100.475 C1144.13419,3099.807 1145.35619,3101.825 1145.70919,3104.609 C1146.45419,3110.486 1146.94619,3116.402 1147.89719,3122.244 C1148.80719,3127.831 1149.59419,3128.457 1155.43719,3129.334 C1157.81219,3129.69 1160.02219,3130.067 1160.12119,3132.961 C1160.22719,3136.062 1158.10419,3137.214 1155.37619,3137.553 C1154.64319,3137.645 1153.89719,3137.64 1152.93019,3137.692 C1148.65219,3137.446 1144.84519,3135.686 1142.78219,3131.636 C1141.24319,3128.615 1140.03119,3125.262 1139.50619,3121.926 Z M1169.14719,3110.229 C1171.29919,3108.978 1172.75219,3110.733 1173.66319,3112.713 C1174.06719,3113.592 1174.53219,3114.443 1175.14319,3115.651 C1179.06719,3115.651 1182.31219,3115.373 1185.49419,3115.7 C1190.10819,3116.174 1195.15219,3117.383 1197.78019,3121.568 C1199.79219,3124.769 1202.25419,3133.389 1199.34919,3136.383 C1196.90619,3138.901 1193.81919,3137.674 1193.26219,3134.437 C1193.13619,3133.704 1193.02519,3132.966 1192.87619,3132.238 C1191.38519,3125.004 1189.13919,3123.236 1181.70119,3123.366 C1178.97519,3123.414 1176.20519,3123.7 1173.53019,3123.332 C1168.56819,3122.649 1165.74419,3119.373 1166.25919,3114.696 C1166.43719,3113.079 1167.75119,3111.041 1169.14719,3110.229 Z M1185.49419,3415.7 C1190.10819,3416.174 1195.15219,3417.383 1197.78019,3421.568 C1198.11119,3422.094 1198.45319,3422.778 1198.78319,3423.549 C1195.65319,3424.069 1192.51519,3424.581 1189.35319,3424.926 C1187.68219,3423.693 1185.30419,3423.303 1181.70119,3423.366 C1178.97519,3423.414 1176.20519,3423.7 1173.53019,3423.332 C1168.56819,3422.65 1165.74419,3419.373 1166.25919,3414.696 C1166.43719,3413.079 1167.75119,3411.041 1169.14719,3410.229 C1171.29919,3408.978 1172.75219,3410.733 1173.66319,3412.714 C1174.06719,3413.592 1174.53219,3414.444 1175.14319,3415.651 C1179.06719,3415.651 1182.31219,3415.373 1185.49419,3415.7 Z M1140.88519,3400.475 C1144.13419,3399.807 1145.35619,3401.825 1145.70919,3404.609 C1146.43319,3410.317 1146.92519,3416.06 1147.82419,3421.738 C1144.84519,3421.515 1142.03419,3421.308 1139.39119,3421.116 C1138.65319,3416.025 1138.46919,3410.845 1138.07719,3405.703 C1137.90019,3403.391 1138.00519,3401.067 1140.88519,3400.475 Z M1178.58619,3209.156 C1178.93119,3209.78 1178.99719,3210.558 1179.11519,3210.986 C1178.93719,3214.139 1175.44219,3215.916 1172.98719,3213.871 C1170.41419,3211.726 1168.43119,3208.799 1166.48719,3206.007 C1165.52919,3204.632 1165.26519,3202.782 1164.64819,3201.162 C1162.89219,3196.555 1159.96019,3193.159 1155.15219,3191.465 C1151.88319,3190.313 1148.62819,3189.034 1145.55019,3187.456 C1143.39819,3186.352 1141.19319,3184.937 1139.71819,3183.095 C1138.90819,3182.084 1138.94719,3179.441 1139.73919,3178.383 C1140.44619,3177.437 1143.01219,3176.957 1144.24019,3177.482 C1150.35019,3180.098 1156.42719,3182.865 1162.22619,3186.1 C1164.91119,3187.598 1167.46719,3189.934 1169.14619,3192.503 C1172.63019,3197.834 1175.50419,3203.565 1178.58619,3209.156 Z M1164.51619,3227.773 C1165.61219,3229.752 1167.21419,3232.023 1169.36519,3232.911 C1170.77019,3233.491 1172.29619,3233.688 1173.77519,3234.036 C1176.31019,3234.633 1178.12819,3235.477 1177.73719,3238.316 C1177.31919,3241.344 1175.16419,3242.335 1173.12519,3242.154 C1167.32919,3241.941 1162.94119,3240.409 1160.19919,3236.009 C1157.39819,3231.514 1154.49019,3227.353 1149.10519,3225.554 C1147.06919,3224.875 1145.91119,3223.013 1146.90219,3220.76 C1147.93619,3218.412 1149.78719,3217.466 1152.37819,3218.417 C1157.41519,3220.265 1161.89019,3223.03 1164.51619,3227.773 Z M1180.56619,3184.821 C1179.18419,3181.707 1178.09019,3178.43 1177.23319,3175.131 C1176.74619,3173.257 1176.92619,3171.199 1176.89619,3169.222 C1176.76119,3160.478 1176.73819,3160.609 1168.26319,3158.403 C1166.74819,3158.008 1164.79919,3156.175 1164.54419,3154.74 C1164.11719,3152.344 1165.87019,3150.838 1168.51519,3150.406 C1177.42919,3148.95 1184.07519,3153.952 1184.97119,3163.028 C1185.15319,3164.868 1184.75719,3166.681 1184.69019,3168.511 C1184.68019,3168.788 1184.67719,3169.064 1184.68619,3169.341 C1184.74519,3171.353 1185.46319,3173.363 1185.95219,3175.308 C1186.64219,3178.053 1189.05819,3181.931 1187.92119,3184.751 C1186.50119,3188.273 1182.06019,3188.186 1180.56619,3184.821 Z M1194.99919,3256.852 C1193.40319,3253.55 1191.74419,3250.279 1190.07919,3247.011 C1189.64019,3246.15 1188.80719,3245.498 1188.26819,3244.676 C1186.94919,3242.665 1186.20219,3240.441 1188.32119,3238.639 C1190.35719,3236.908 1192.50219,3237.553 1194.26319,3239.389 C1197.58819,3242.857 1200.48019,3246.788 1202.37419,3251.223 C1203.59519,3254.084 1205.21519,3258.394 1204.90919,3261.99 C1204.80919,3263.167 1204.50319,3264.267 1203.90819,3265.215 C1203.33719,3266.126 1202.48719,3266.934 1201.43119,3267.138 C1199.84119,3267.445 1198.26719,3266.26 1197.58019,3264.794 C1196.91519,3263.371 1197.22719,3261.898 1196.80119,3260.465 C1196.43719,3259.239 1195.55719,3258.007 1194.99919,3256.852 Z M1177.76719,3096.294 C1177.46919,3097.865 1175.86519,3098.922 1174.27519,3099.096 C1168.99719,3099.674 1163.82519,3095.229 1161.52019,3090.258 C1164.54319,3090.054 1167.77919,3089.766 1171.50219,3089.48 C1172.54819,3090.279 1173.76119,3091.007 1175.07519,3091.819 C1176.16819,3092.494 1177.20419,3093.507 1177.62319,3094.671 C1177.81019,3095.187 1177.87419,3095.734 1177.76719,3096.294 Z" id="Combined-Shape" fill="#303F62"></path>
    </g>
</svg>