<svg width="1610" height="2068" xmlns="http://www.w3.org/2000/svg" xmlns:xlink="http://www.w3.org/1999/xlink"><g fill="none" fill-rule="evenodd"><path d="M1248.258 786.325c15.043-2.625 24.698-3.88 36.165-3.579 1.92.051 3.853-.019 5.742-.36 9.669-1.754 22.013 2.838 32.73 6.486 2.064.703 4.2 1.151 6.364 1.43 14.627 1.885 21.215 8.982 30.729 15.351.639.427 1.277.88 1.884 1.351 12.486 9.714 19.196 14.41 27.255 22.947.675.715 1.3 1.467 1.9 2.244 5.9 7.646 12.94 15.816 18.506 24.805 1.89 3.053 3.129 6.451 3.883 9.961 1.118 5.208 3.087 9.785 5.199 14.221 5.998 12.601 19.69 19.71 33.422 17.222 3.36-.609 6.7-1.14 10.039-1.332 2.4-.139 4.805.071 7.173.492 12.116 2.158 23.819 2.624 35.147 6.23 10.53 2.943 22.87 8.945 33.36 15.41a33.07 33.07 0 0 0 2.605 1.447c14.537 7.26 18.475 12.642 24.646 19.73 1.684 1.935 3.544 3.731 5.647 5.2 8.146 5.691 13.41 16.081 18.48 25.817 1.167 2.241 2.133 4.591 2.744 7.043 2.614 10.506 9.958 21.363 13.167 33.002.265.96.595 1.897.978 2.817 2.915 7.003 3.723 24.074 3.329 36.37-.051 1.577.01 3.16.202 4.726 1.909 15.604-3.208 23.616-6.927 34.773a31.668 31.668 0 0 1-.757 2.051c-4.886 11.866-8.608 22.282-14.912 32.345a29.556 29.556 0 0 1-1.935 2.705c-8.733 10.974-13.631 17.866-21.14 25.181-1.894 1.845-4.038 3.414-6.337 4.72-12.301 6.988-18.636 14.846-29.396 20.68a38.55 38.55 0 0 0-2.291 1.344c-10.11 6.392-23.897 10.283-37.513 13.393-1.401.32-2.767.766-4.107 1.283-14.756 5.694-32.036 6.88-49.337 10.531a30.532 30.532 0 0 0-4.552 1.34c-23.487 8.934-37.077 8.085-56.151 12.345-18.38 2.945-38.026 8.32-56.074 12.434a31.65 31.65 0 0 0-3.133.891c-20.931 7.1-34.142 7.638-48.95 10.834-.684.148-1.381.275-2.073.374-12.03 1.726-23.308 4.091-33.025 6.413-17.415 4.161-34.731-7.207-37.82-24.844-1.522-8.692-3.262-18.568-5.51-29.05-.347-1.626-.8-3.233-1.405-4.78-5.777-14.784-6.627-32.08-10.58-49.763-4.562-25.164-8.001-36.305-11.983-53.53-.55-2.378-.793-4.818-.78-7.257.112-19.23-7.898-34.23-12.263-50.647-.61-2.287-.925-4.649-.994-7.015-.638-21.862-7.76-33.68-11.532-48.449-.335-1.313-.544-2.652-.696-3.998-1.466-12.89-4.652-28.124-4.434-41.56.714-18.018 1.994-26.4 5.075-37.58.5-1.816.808-3.674 1.014-5.546 1.117-10.137 7.657-20.303 13.445-29.56a31.296 31.296 0 0 0 3.09-6.543c3.282-9.66 13.094-17.622 21.384-25.142 1.077-.978 2.103-2.01 3.027-3.133 9.085-11.049 18.255-14.886 28.642-20.099 1.349-.677 2.758-1.223 4.193-1.69 12.63-4.114 22.714-9.833 35.44-12.482" fill="#FFC4BC"/><path d="M1355.1 1012.628c.825.291 1.699.34 2.524 0 1.263-.63 2.185-1.457 2.72-2.865.533-1.407.437-3.447-.34-4.612-.777-1.166-3.351-2.185-4.476-.336-.174.267-.79 1.93-1.109 3.67-.319 1.741-.339 3.56.681 4.143M1471.5 977.888c1.175-.784 2.204-3.38.338-4.517-.27-.174-1.947-.797-3.704-1.119-1.757-.32-3.593-.342-4.18.687-.295.833-.344 1.715 0 2.548.636 1.274 1.47 2.205 2.89 2.744 1.421.54 3.48.441 4.655-.343M1342.663 1003.645c-.173.268-.79 1.93-1.108 3.67-.319 1.742-.34 3.56.68 4.144.825.29 1.7.34 2.525 0 1.262-.631 2.185-1.457 2.718-2.865.535-1.408.438-3.447-.339-4.612-.777-1.166-3.35-2.185-4.476-.337M1460.09 996.307c.572 1.291 1.352 2.252 2.733 2.852 1.38.601 3.423.601 4.624-.12 1.2-.72 2.34-3.243.549-4.455-.26-.185-1.89-.881-3.614-1.282s-3.541-.508-4.171.483c-.33.811-.42 1.681-.12 2.522M1451.264 994.603c.866.124 1.733 0 2.476-.495 1.114-.867 1.856-1.857 2.104-3.342.248-1.486-.248-3.467-1.238-4.457-.99-.99-3.714-1.485-4.455.548-.117.296-.396 2.047-.367 3.817.03 1.769.366 3.557 1.48 3.929M1418.217 982.14c-.248 1.484.248 3.465 1.238 4.455.99.99 3.714 1.485 4.455-.548.117-.296.396-2.047.367-3.816-.03-1.77-.366-3.558-1.48-3.93-.867-.123-1.733 0-2.476.496-1.114.866-1.856 1.857-2.104 3.342M1401.724 984.525c.391 1.356 1.034 2.413 2.321 3.195 1.288.782 3.31 1.057 4.598.506 1.287-.552 2.758-2.897 1.146-4.34-.232-.22-1.754-1.13-3.408-1.758-1.654-.631-3.439-.982-4.198-.085-.436.758-.643 1.608-.459 2.482M1435.984 990.223c1.381.601 3.422.601 4.624-.12 1.2-.721 2.341-3.242.548-4.455-.259-.186-1.89-.881-3.613-1.281-1.724-.402-3.54-.509-4.17.482-.33.811-.422 1.681-.12 2.522.57 1.291 1.35 2.251 2.731 2.852M1406.424 998.75c-.347.803-.456 1.672-.173 2.52.542 1.301 1.302 2.278 2.67 2.908 1.368.63 3.41.674 4.625-.022 1.216-.695 2.41-3.192.644-4.442-.255-.19-1.87-.92-3.586-1.358-1.715-.438-3.529-.584-4.18.394M1378.835 1013.506c.292-.127 1.728-1.168 2.958-2.439 1.23-1.272 2.257-2.775 1.732-3.825-.525-.7-1.225-1.226-2.101-1.4-1.4-.176-2.626 0-3.851.874-1.225.876-2.276 2.626-2.276 4.027 0 1.401 1.576 3.676 3.538 2.763M1390.094 1042.776c.865-.134 1.658-.505 2.225-1.195.813-1.153 1.235-2.317 1.04-3.81-.196-1.493-1.246-3.244-2.482-3.903-1.236-.66-3.986-.34-4.103 1.822-.026.317.217 2.073.76 3.758.543 1.684 1.386 3.297 2.56 3.328M1400.354 1143.759c-.117.296-.396 2.047-.367 3.817.03 1.769.366 3.558 1.48 3.929.866.124 1.733 0 2.475-.496 1.115-.866 1.857-1.856 2.105-3.341.247-1.486-.248-3.467-1.238-4.457-.99-.99-3.713-1.485-4.455.548M1421.86 1047.721c.874 1.226 2.624 2.276 4.025 2.276 1.401 0 3.677-1.576 2.763-3.538-.127-.292-1.167-1.727-2.439-2.958-1.272-1.23-2.775-2.257-3.825-1.732-.7.525-1.226 1.225-1.4 2.1-.175 1.401 0 2.626.875 3.852M1373.72 1027.042c-.084.307-.168 2.079.056 3.833.224 1.756.756 3.497 1.904 3.743.875.027 1.723-.192 2.407-.766 1.011-.984 1.64-2.051 1.722-3.554.082-1.504-.629-3.418-1.722-4.293-1.094-.875-3.855-1.066-4.368 1.037M1427.79 1028.511c.274 1.374 2.266 3.296 4.011 2.016.261-.182 1.465-1.484 2.422-2.973.958-1.488 1.67-3.163.948-4.09-.652-.583-1.442-.96-2.334-.96-1.408.102-2.575.514-3.605 1.612-1.03 1.1-1.717 3.022-1.442 4.395M1414.608 1018.957c0 1.4 1.576 3.676 3.538 2.763.292-.127 1.728-1.168 2.958-2.44 1.23-1.27 2.257-2.774 1.732-3.824-.525-.7-1.226-1.226-2.101-1.4-1.4-.176-2.626 0-3.851.875s-2.276 2.625-2.276 4.026M1439.98 1020.063c.292-.126 1.728-1.167 2.958-2.439 1.23-1.272 2.257-2.775 1.732-3.825-.525-.7-1.225-1.226-2.101-1.4-1.4-.175-2.626 0-3.851.874-1.225.876-2.276 2.626-2.276 4.027 0 1.401 1.576 3.677 3.538 2.763M1472.015 1024.477c.292-.126 1.728-1.167 2.958-2.44 1.231-1.271 2.257-2.773 1.732-3.824-.525-.7-1.225-1.225-2.1-1.4-1.4-.175-2.627 0-3.852.875s-2.276 2.626-2.276 4.026 1.576 3.677 3.538 2.763M1359.766 1045.992c.063.312.78 1.934 1.766 3.404.985 1.47 2.239 2.788 3.377 2.494.794-.366 1.455-.941 1.809-1.76.465-1.332.55-2.568-.049-3.95-.599-1.381-2.091-2.775-3.46-3.068-1.37-.294-3.925.77-3.443 2.88M1467.417 922.925c.264 1.321 2.18 3.172 3.86 1.94.252-.175 1.41-1.428 2.33-2.86.923-1.434 1.608-3.045.914-3.937-.628-.562-1.388-.926-2.247-.926-1.355.1-2.478.496-3.47 1.554-.991 1.057-1.651 2.907-1.387 4.23M1479.101 905.561c-.488-.65-1.139-1.14-1.953-1.302-1.302-.163-2.442 0-3.582.814-1.139.814-2.116 2.442-2.116 3.743 0 1.303 1.465 3.42 3.29 2.57.272-.118 1.606-1.086 2.751-2.268 1.144-1.183 2.1-2.58 1.61-3.557M1493.619 915.73c-.196-.73-.59-1.375-1.234-1.796-1.067-.59-2.105-.842-3.368-.533-1.262.308-2.665 1.375-3.114 2.497-.45 1.123.084 3.45 1.949 3.348.275-.008 1.759-.382 3.153-1.006 1.394-.625 2.698-1.5 2.614-2.51M1424.325 916.945c0 1.557 1.751 4.087 3.933 3.07.325-.14 1.92-1.297 3.288-2.711 1.368-1.413 2.51-3.084 1.925-4.252-.583-.778-1.362-1.362-2.335-1.556-1.557-.195-2.919 0-4.28.973-1.364.973-2.53 2.919-2.53 4.476M1445.259 912.18c-.267 1.599.266 3.73 1.332 4.795 1.065 1.066 3.995 1.599 4.793-.59.126-.318.426-2.202.395-4.105-.031-1.904-.394-3.828-1.592-4.227-.932-.134-1.865 0-2.664.532-1.2.932-1.998 1.998-2.264 3.596M1495.106 1076.796c.55 1.32 1.319 2.308 2.704 2.946.618.284 1.372.443 2.126.477v-6.255c-.14-.04-.28-.08-.422-.117-1.736-.443-3.573-.59-4.232.4-.352.812-.462 1.692-.176 2.55M1455.629 1075.617c1.253-.626 2.583-3.053.889-4.4-.244-.205-1.817-1.023-3.505-1.555-1.687-.532-3.49-.778-4.195.162-.392.783-.548 1.644-.313 2.505.47 1.33 1.174 2.35 2.505 3.053 1.33.705 3.367.861 4.619.235M1483.45 934.153c1.187.628 3 .768 4.117.209 1.116-.558 2.303-2.721.793-3.921-.218-.183-1.62-.912-3.124-1.387-1.505-.474-3.112-.693-3.74.144-.349.698-.488 1.466-.279 2.233.42 1.187 1.047 2.094 2.233 2.722M1459.213 925.842c-.31-.123-2.146-.416-4.002-.385-1.856.031-3.73.384-4.12 1.552-.13.91 0 1.817.518 2.596.91 1.17 1.948 1.947 3.505 2.207 1.558.26 3.635-.26 4.674-1.298 1.038-1.039 1.558-3.895-.575-4.672M1489.308 974.76c-.28-.182-2.019-.827-3.84-1.16-1.822-.334-3.726-.356-4.335.712-.305.863-.356 1.778 0 2.641.66 1.321 1.524 2.286 2.997 2.845 1.473.56 3.607.457 4.826-.355 1.22-.813 2.286-3.506.352-4.684M1495.968 981.624c-.321.91-.375 1.872 0 2.781.695 1.391 1.604 2.407 3.156 2.996.253.096.529.166.812.225v-6.847c-1.721-.246-3.393-.162-3.968.845M1461.198 956.663c0 1.4 1.576 3.676 3.538 2.763.292-.127 1.727-1.168 2.958-2.44 1.23-1.27 2.257-2.773 1.732-3.823-.525-.701-1.226-1.226-2.101-1.401-1.4-.175-2.626 0-3.851.876-1.226.875-2.276 2.626-2.276 4.026" fill="#303F62"/><g transform="rotate(90 285.696 1214.696)"><mask id="a" fill="#fff"><use xlink:href="#path-1"/></mask><path d="M.515 2.599c.568.43 1.234.686 1.96.627 1.136-.176 2.057-.588 2.823-1.548.271-.343.498-.768.667-1.223H.462C.156 1.318.077 2.12.515 2.599" fill="#303F62" mask="url(#a)"/></g><path d="M1446.641 973.075c.277 1.384.831 2.49 2.048 3.377 1.218.886 3.211 1.329 4.54.886 1.33-.443 2.99-2.658 1.502-4.23-.213-.237-1.653-1.27-3.249-2.035-1.596-.766-3.346-1.264-4.176-.434-.498.72-.775 1.55-.665 2.436M1430.93 1073.08c.876 1.227 2.626 2.277 4.027 2.277 1.4 0 3.677-1.575 2.763-3.538-.127-.292-1.167-1.727-2.44-2.958-1.271-1.232-2.774-2.258-3.824-1.733-.7.526-1.226 1.226-1.4 2.102-.175 1.4 0 2.625.875 3.85M1465.434 937.596c-.329 1.317.617 3.828 2.677 3.43.305-.05 1.899-.692 3.356-1.598 1.456-.907 2.775-2.079 2.528-3.19-.33-.782-.865-1.44-1.646-1.81-1.276-.495-2.47-.618-3.828-.083-1.358.535-2.758 1.934-3.087 3.251M1478.934 954.352c.277-.12 1.64-1.108 2.807-2.314 1.168-1.207 2.141-2.633 1.643-3.629-.498-.665-1.163-1.163-1.993-1.329-1.329-.166-2.492 0-3.654.83-1.163.831-2.159 2.492-2.159 3.82 0 1.33 1.494 3.49 3.356 2.622M1448.544 944.002c.174 1.437.653 2.614 1.83 3.616 1.176 1.002 3.18 1.61 4.574 1.263 1.393-.35 3.267-2.483 1.869-4.21-.2-.258-1.592-1.428-3.164-2.336-1.572-.91-3.323-1.557-4.238-.772-.566.696-.914 1.524-.871 2.439M1489.9 945.92c.775 1.086 2.327 2.018 3.57 2.018 1.241 0 3.26-1.397 2.45-3.137-.114-.259-1.037-1.53-2.164-2.623-1.128-1.09-2.46-2-3.39-1.535-.622.465-1.088 1.087-1.243 1.862-.155 1.242 0 2.33.776 3.415M1453.253 1157.72c.239.266 1.86 1.428 3.656 2.29 1.796.86 3.764 1.421 4.698.486.56-.809.873-1.743.748-2.74-.311-1.557-.934-2.803-2.305-3.799-1.37-.997-3.612-1.495-5.107-.997-1.494.498-3.363 2.99-1.69 4.76M1461.725 1142.598c.353-.913.436-1.888.083-2.82-.664-1.433-1.556-2.49-3.112-3.134-1.556-.644-3.838-.602-5.166.228-1.328.83-2.552 3.672-.523 4.991.293.202 2.13.946 4.065 1.36 1.935.413 3.968.495 4.653-.625M1427.186 1170.82c.221.247 1.717 1.318 3.374 2.113 1.656.794 3.473 1.312 4.335.45.517-.748.804-1.61.689-2.53-.287-1.435-.862-2.585-2.126-3.504-1.264-.92-3.333-1.38-4.712-.92-1.379.46-3.103 2.759-1.56 4.39M1475.69 1164.527c.248.277 1.933 1.484 3.798 2.379 1.865.894 3.91 1.477 4.88.506.583-.841.906-1.811.777-2.846-.324-1.618-.971-2.912-2.394-3.947-1.423-1.035-3.752-1.553-5.306-1.035-1.552.517-3.493 3.105-1.755 4.943M1435.414 1146.773c-.703-1.301-1.599-2.238-3.09-2.75-1.493-.512-3.625-.341-4.819.512-1.193.852-2.174 3.58-.2 4.697.286.172 2.047.762 3.88 1.037 1.833.275 3.74.234 4.314-.853.278-.874.3-1.79-.085-2.643M1478.792 1149.856c.37-.958.457-1.981.087-2.961-.697-1.503-1.633-2.613-3.266-3.288-1.633-.675-4.029-.631-5.422.239-1.394.87-2.678 3.855-.549 5.239.308.212 2.236.993 4.267 1.426 2.031.434 4.164.52 4.883-.655M1487.81 1185.575c.136-.963 0-1.925-.55-2.75-.964-1.238-2.064-2.062-3.714-2.338-1.65-.275-3.85.276-4.95 1.375-1.1 1.1-1.65 4.125.61 4.949.328.13 2.273.44 4.238.408 1.966-.033 3.952-.407 4.365-1.644M1447.966 1166.797c.491-.808.737-1.72.562-2.668-.386-1.474-1.053-2.633-2.422-3.51-1.369-.878-3.546-1.229-4.95-.667-1.404.562-3.053 3.054-1.35 4.655.243.242 1.863 1.263 3.631 1.987 1.77.724 3.687 1.15 4.53.203M1357.686 1160.832c-.296-.117-2.047-.396-3.817-.367-1.769.03-3.558.366-3.929 1.48-.124.866 0 1.733.495 2.476.867 1.114 1.857 1.856 3.342 2.104 1.486.247 3.467-.248 4.457-1.238.99-.99 1.485-3.714-.548-4.455M1492.908 1134.903c-.443.914-.613 1.915-.329 2.91.564 1.539 1.396 2.71 2.951 3.509 1.247.642 3.01.857 4.406.536v-6.412a21.69 21.69 0 0 0-2.162-.79c-1.966-.593-4.06-.853-4.866.247M1370.135 1134.877c-1.23 1.27-2.257 2.774-1.732 3.825.525.7 1.226 1.225 2.101 1.4 1.401.175 2.626 0 3.851-.875 1.226-.875 2.276-2.626 2.276-4.026 0-1.401-1.576-3.677-3.538-2.763-.292.126-1.727 1.167-2.958 2.439M1392.28 1131.282c-.118.296-.397 2.047-.368 3.817.03 1.77.366 3.558 1.48 3.93.866.123 1.733 0 2.475-.497 1.115-.866 1.857-1.856 2.105-3.34.247-1.487-.248-3.468-1.238-4.458-.99-.99-3.714-1.486-4.455.548M1421.399 1134.263c.292.143 2.053.563 3.856.672 1.804.11 3.65-.093 4.115-1.198.194-.872.136-1.764-.31-2.559-.795-1.202-1.744-2.035-3.237-2.404-1.493-.368-3.548-.019-4.633.911-1.085.931-1.803 3.664.209 4.578M1353.839 1138.166c-.124.867 0 1.733.495 2.476.867 1.114 1.857 1.857 3.342 2.104 1.486.248 3.466-.247 4.456-1.238.99-.99 1.486-3.714-.547-4.455-.297-.117-2.047-.396-3.817-.367-1.77.029-3.557.366-3.93 1.48M1458.76 1175.793c.25.25 1.914 1.298 3.73 2.042 1.816.743 3.786 1.181 4.65.208.505-.83.758-1.767.578-2.74-.397-1.514-1.082-2.703-2.488-3.605-1.406-.9-3.64-1.26-5.082-.684-1.442.576-3.137 3.135-1.388 4.78M1447.327 1131.942c-.676-1.352-1.56-2.34-3.067-2.911-1.508-.571-3.691-.468-4.938.364-1.248.832-2.34 3.587-.361 4.792.287.186 2.066.846 3.93 1.187 1.864.34 3.812.363 4.436-.73.312-.883.364-1.818 0-2.702M1499.716 1158.33c-1.277-.851-2.554-1.276-4.17-1.021-1.619.255-3.492 1.447-4.173 2.809-.68 1.362-.255 4.34 2.097 4.407.347.018 2.248-.297 4.064-.935.886-.31 1.748-.7 2.402-1.165v-3.883c-.075-.07-.138-.148-.22-.212M1360.852 1180.223c-1.404.562-3.054 3.054-1.351 4.655.245.242 1.863 1.264 3.632 1.988 1.768.723 3.686 1.15 4.529.202.491-.807.737-1.72.562-2.668-.387-1.474-1.054-2.632-2.423-3.51-1.368-.877-3.545-1.229-4.949-.667M1444.519 1186.087c.245.231 1.854 1.192 3.602 1.858 1.747.666 3.634 1.038 4.436.09.462-.802.68-1.7.485-2.624-.412-1.433-1.092-2.55-2.453-3.377-1.361-.825-3.498-1.117-4.859-.534-1.36.583-2.915 3.061-1.211 4.587M1403.956 1081.264c.087.307.929 1.867 2.027 3.255s2.452 2.604 3.562 2.222c.764-.428 1.377-1.053 1.666-1.897.359-1.365.347-2.603-.359-3.934-.705-1.33-2.302-2.602-3.69-2.788-1.388-.184-3.852 1.077-3.206 3.142M1372.564 1071.539c.104.3 1.032 1.812 2.205 3.136 1.174 1.325 2.593 2.464 3.68 2.02.74-.47 1.317-1.127 1.558-1.987.282-1.384.202-2.619-.577-3.908-.78-1.288-2.444-2.47-3.84-2.576-1.396-.108-3.786 1.288-3.026 3.315M1475.446 1078.922c.232.219 1.754 1.128 3.408 1.758 1.653.63 3.44.982 4.197.085.437-.758.644-1.61.46-2.482-.39-1.357-1.034-2.414-2.322-3.195-1.287-.782-3.31-1.058-4.597-.506-1.287.55-2.758 2.896-1.146 4.34M1386.56 1083.52c.077.309.868 1.896 1.92 3.319s2.366 2.682 3.488 2.337c.777-.403 1.41-1.007 1.727-1.842.403-1.353.431-2.59-.231-3.943-.661-1.352-2.216-2.676-3.597-2.906-1.382-.231-3.885.949-3.307 3.035M1379.012 1058.737c1.173 1.324 2.593 2.463 3.68 2.02.739-.47 1.317-1.128 1.558-1.987.282-1.383.2-2.618-.577-3.908-.78-1.288-2.444-2.47-3.84-2.577-1.397-.108-3.786 1.289-3.026 3.315.104.3 1.032 1.812 2.205 3.137M1311.389 1054.67c.296.116 2.047.395 3.817.366 1.769-.029 3.558-.366 3.929-1.48.124-.866 0-1.733-.496-2.476-.866-1.114-1.856-1.856-3.341-2.104-1.486-.247-3.467.248-4.457 1.238-.99.99-1.485 3.714.548 4.455M1295.123 1083.3c.082.328.923 2.016 2.042 3.53 1.12 1.514 2.517 2.854 3.711 2.486.827-.429 1.5-1.072 1.837-1.959.429-1.439.459-2.756-.245-4.195-.704-1.439-2.358-2.847-3.827-3.092-1.47-.245-4.134 1.01-3.518 3.23M1352.724 1063.575c.126.293 1.167 1.728 2.439 2.958 1.272 1.23 2.774 2.258 3.825 1.732.7-.525 1.225-1.225 1.4-2.1.175-1.401 0-2.626-.875-3.852-.875-1.225-2.626-2.275-4.026-2.275-1.401 0-3.677 1.575-2.763 3.537M1468.707 1217.73c-.84 1.12-.945 3.886 1.172 4.333.31.074 2.083.102 3.83-.177 1.748-.28 3.471-.865 3.681-2.02 0-.876-.245-1.716-.84-2.381-1.016-.981-2.1-1.576-3.607-1.611-1.505-.035-3.396.735-4.236 1.856M1454.23 1213.122c-.158.277-.682 1.971-.903 3.727-.222 1.755-.141 3.574.909 4.1.84.244 1.716.244 2.52-.14 1.226-.702 2.102-1.577 2.557-3.012.455-1.436.245-3.467-.595-4.587-.841-1.12-3.467-1.996-4.488-.088M1340.764 1049.45c.126.293 1.167 1.729 2.44 2.959 1.271 1.23 2.773 2.257 3.824 1.732.7-.525 1.225-1.226 1.401-2.101.174-1.401 0-2.626-.876-3.851-.875-1.225-2.626-2.276-4.026-2.276s-3.677 1.576-2.763 3.538M1497.847 1102.475c-1.5-.598-3.687-.53-4.95.282-1.263.812-2.402 3.551-.44 4.791.284.191 2.054.881 3.914 1.254 1.31.262 2.654.357 3.565.019v-4.857a5.127 5.127 0 0 0-2.089-1.489M1497.108 1198.957c.257-1.388.154-2.622-.648-3.896-.802-1.275-2.487-2.426-3.886-2.51-1.398-.081-3.762 1.359-2.966 3.37.11.3 1.065 1.794 2.262 3.097 1.197 1.304 2.637 2.416 3.717 1.954.73-.483 1.295-1.152 1.521-2.015M1377.854 1105.66c.052.314.714 1.959 1.649 3.46.935 1.504 2.144 2.864 3.29 2.609.807-.34 1.487-.891 1.869-1.698.509-1.316.636-2.548.085-3.95-.552-1.4-1.996-2.843-3.354-3.183-1.36-.34-3.95.637-3.54 2.762M1312.021 1094.509c.045.315.672 1.974 1.575 3.496.903 1.522 2.083 2.907 3.235 2.677.813-.322 1.504-.86 1.903-1.658.537-1.306.691-2.534.17-3.946-.523-1.413-1.935-2.887-3.287-3.255-1.35-.37-3.96.553-3.596 2.686M1400.251 1103.54c.777-.403 1.41-1.008 1.727-1.842.402-1.353.431-2.59-.23-3.943-.663-1.353-2.217-2.676-3.598-2.906-1.38-.23-3.885.95-3.307 3.035.077.31.867 1.896 1.92 3.32 1.052 1.422 2.365 2.681 3.488 2.336M1341.38 1091.892c1.11.854 3.875.993 4.347-1.12.078-.307.128-2.08-.13-3.831s-.823-3.48-1.975-3.704c-.876-.011-1.72.224-2.391.81-.993 1.004-1.601 2.082-1.655 3.587-.053 1.506.694 3.405 1.804 4.259M1354.603 1030.489c-.007.319.336 2.058.975 3.708.639 1.65 1.573 3.212 2.747 3.176.856-.184 1.627-.6 2.152-1.321.746-1.198 1.101-2.384.819-3.863-.281-1.48-1.43-3.167-2.702-3.754-1.271-.587-3.998-.11-3.991 2.054M1422.143 1266.196c1.458.365 4.236-.683 3.796-2.963-.056-.337-.766-2.102-1.769-3.714-1.004-1.612-2.3-3.072-3.53-2.798-.866.364-1.595.957-2.005 1.822-.546 1.412-.683 2.734-.09 4.236.591 1.504 2.14 3.053 3.598 3.417M1477.194 1267.047c-.99-.99-3.713-1.486-4.455.548-.117.296-.396 2.047-.367 3.816.029 1.77.366 3.558 1.48 3.93.866.123 1.733 0 2.476-.496 1.114-.866 1.856-1.857 2.104-3.342.247-1.485-.248-3.466-1.238-4.456M1455.163 1264.123c-.732 1.1-.687 3.708 1.33 4.017.296.053 1.966-.012 3.596-.367 1.631-.353 3.221-.995 3.36-2.094-.047-.824-.32-1.602-.916-2.197-1.008-.87-2.06-1.373-3.479-1.328-1.419.046-3.159.87-3.89 1.97M1407.155 1260.646c-.135-.313-1.248-1.847-2.607-3.163-1.36-1.315-2.966-2.413-4.09-1.85-.748.56-1.31 1.31-1.496 2.245-.187 1.497 0 2.807.935 4.117.936 1.31 2.807 2.433 4.304 2.433 1.498 0 3.93-1.685 2.954-3.782M1473.71 823.47c1.748-.28 3.47-.866 3.68-2.022 0-.875-.244-1.715-.84-2.38-1.015-.98-2.101-1.576-3.606-1.61-1.505-.036-3.396.735-4.236 1.855-.841 1.12-.946 3.886 1.172 4.333.31.074 2.082.102 3.83-.177M1495.778 1268.034c.248-1.485-.248-3.466-1.238-4.456-.991-.99-3.714-1.485-4.455.548-.117.296-.396 2.047-.367 3.816.029 1.77.366 3.558 1.48 3.93.866.123 1.733 0 2.476-.495 1.114-.867 1.856-1.858 2.104-3.343M1447.92 1258.286c-.235-1.487-1.33-3.209-2.583-3.836-1.253-.626-3.993-.235-4.054 1.93-.017.317.272 2.066.86 3.736.586 1.67 1.471 3.26 2.646 3.26.861-.156 1.644-.548 2.192-1.253.783-1.174 1.174-2.348.94-3.836M1469.984 1249.296c-1.35-.312-3.896.701-3.45 2.796.056.31.74 1.926 1.693 3.396.952 1.47 2.173 2.793 3.302 2.521.792-.35 1.455-.909 1.818-1.714.481-1.312.585-2.532.013-3.909-.57-1.376-2.025-2.778-3.376-3.09M1482.217 1255.4c.237.189 1.75.927 3.368 1.39 1.616.464 3.335.652 3.98-.258.353-.753.48-1.575.235-2.387-.48-1.253-1.174-2.202-2.456-2.838-1.281-.635-3.22-.734-4.393-.107-1.174.626-2.377 2.964-.734 4.2M1330.476 1195.236c-.117.296-.396 2.047-.367 3.817.029 1.77.366 3.558 1.48 3.93.866.123 1.733 0 2.476-.497 1.114-.866 1.856-1.856 2.104-3.34.247-1.487-.248-3.468-1.238-4.458-.99-.99-3.713-1.486-4.455.548M1394.554 1197.026c.705-1.33.861-3.367.235-4.619-.627-1.253-3.053-2.584-4.4-.889-.205.244-1.023 1.817-1.555 3.505s-.778 3.49.161 4.195c.783.391 1.644.548 2.506.313 1.33-.469 2.348-1.174 3.053-2.505M1369.009 1201.06c.924-.139 1.773-.532 2.38-1.267.875-1.228 1.33-2.47 1.129-4.066-.203-1.596-1.318-3.471-2.635-4.18-1.317-.71-4.256-.38-4.391 1.928-.03.339.224 2.217.796 4.019.573 1.801 1.467 3.528 2.72 3.566M1484.583 1119.399c.236.265 1.841 1.414 3.617 2.266 1.776.85 3.724 1.406 4.648.482.555-.801.863-1.726.74-2.711-.309-1.541-.925-2.773-2.28-3.76-1.356-.985-3.574-1.478-5.053-.985s-3.327 2.958-1.672 4.708M1400.827 1237.516c-.86.287-1.606.804-2.065 1.606-.631 1.32-.861 2.582-.402 4.074.459 1.492 1.836 3.098 3.213 3.557 1.377.459 4.13-.344 3.876-2.572-.03-.33-.582-2.082-1.43-3.708-.846-1.627-1.987-3.129-3.192-2.957M1479.388 1238.426c.886-1.218 1.329-3.211.886-4.54-.443-1.328-2.657-2.99-4.23-1.502-.237.213-1.27 1.654-2.035 3.25-.766 1.595-1.264 3.345-.433 4.176.719.498 1.549.775 2.435.664 1.384-.277 2.49-.83 3.377-2.048M1431.857 1243.463c-.202.258-.985 1.904-1.469 3.658-.485 1.754-.672 3.616.32 4.306.818.373 1.71.503 2.585.23 1.351-.532 2.371-1.294 3.046-2.687.675-1.394.761-3.49.072-4.755-.69-1.264-3.233-2.543-4.554-.752M1455.955 1244.485c-1.297-.577-4.053-.054-4.015 2.139-.003.323.371 2.08 1.042 3.743.671 1.663 1.64 3.232 2.83 3.179.864-.2 1.638-.631 2.161-1.37.738-1.225 1.08-2.431.774-3.926-.306-1.495-1.495-3.19-2.792-3.765M1461.904 1114.584c-.369.88-.477 1.828-.159 2.748.608 1.414 1.448 2.47 2.947 3.14 1.5.67 3.724.693 5.042-.079 1.317-.773 2.588-3.509.648-4.85-.28-.207-2.05-.982-3.926-1.438-1.874-.457-3.854-.594-4.552.48M1253.511 1098.058c0-1.4-1.576-3.676-3.538-2.763-.292.127-1.727 1.168-2.958 2.439-1.23 1.272-2.257 2.775-1.732 3.825.525.7 1.226 1.226 2.101 1.4 1.4.176 2.626 0 3.851-.875 1.226-.875 2.276-2.626 2.276-4.026M1462.737 1282.74c.205-1.436-1.076-3.997-3.219-3.349-.318.088-1.94.944-3.387 2.066-1.447 1.122-2.718 2.511-2.334 3.664.436.794 1.076 1.435 1.947 1.742 1.41.384 2.69.384 4.073-.333 1.383-.717 2.715-2.356 2.92-3.79M1454.23 814.706c-.158.277-.682 1.97-.903 3.727-.222 1.755-.141 3.573.909 4.099.84.245 1.716.245 2.52-.14 1.226-.701 2.102-1.576 2.557-3.012.455-1.435.245-3.466-.595-4.586-.841-1.121-3.467-1.996-4.488-.088M1426.313 1277.59c-.203-1.595-1.317-3.47-2.635-4.18-1.317-.71-4.256-.38-4.39 1.93-.029.338.223 2.216.796 4.018.573 1.802 1.466 3.528 2.72 3.566.925-.14 1.774-.532 2.382-1.267.874-1.23 1.33-2.47 1.127-4.066" fill="#303F62"/><g transform="rotate(90 50.696 1331.696)"><mask id="b" fill="#fff"><use xlink:href="#path-3"/></mask><path d="M2.42 1.1c-.762.57-1.333 1.333-1.523 2.284-.19 1.523 0 2.855.951 4.188.952 1.332 2.855 2.474 4.378 2.474.916 0 2.17-.622 2.813-1.58.116-.607.23-1.228.341-1.856a2.518 2.518 0 0 0-.15-.41c-.138-.318-1.269-1.88-2.652-3.217C5.195 1.645 3.561.529 2.42 1.1" fill="#303F62" mask="url(#b)"/></g><path d="M1269.393 1101.867c.783-1.174 1.175-2.35.939-3.836-.234-1.487-1.33-3.21-2.583-3.836-1.252-.627-3.993-.235-4.053 1.928-.017.319.272 2.068.859 3.737.587 1.67 1.472 3.26 2.646 3.26.861-.157 1.644-.548 2.192-1.253M1469.737 805.766c1.226-.875 2.276-2.626 2.276-4.026s-1.576-3.677-3.538-2.764c-.292.127-1.727 1.168-2.958 2.44s-2.257 2.774-1.732 3.825c.525.7 1.225 1.225 2.1 1.4 1.4.175 2.626 0 3.852-.875M1454.934 801.242c0-1.4-1.575-3.676-3.538-2.763-.292.127-1.727 1.168-2.958 2.44-1.231 1.271-2.257 2.774-1.732 3.824.525.701 1.226 1.226 2.101 1.401 1.4.175 2.626 0 3.851-.876 1.226-.875 2.276-2.626 2.276-4.026M1433.293 853.24c1.351-.532 2.371-1.293 3.046-2.687.675-1.393.761-3.49.072-4.755-.69-1.264-3.233-2.542-4.554-.752-.202.26-.985 1.905-1.469 3.66-.485 1.753-.672 3.615.32 4.304.818.374 1.71.503 2.585.23M1436.439 811.17c-.175 1.4 0 2.626.875 3.852.875 1.225 2.626 2.275 4.026 2.275s3.677-1.575 2.764-3.538c-.127-.292-1.168-1.727-2.44-2.958-1.271-1.23-2.774-2.257-3.825-1.732-.7.525-1.225 1.226-1.4 2.101M1478.699 809.585c.306.09 2.075.21 3.834.02 1.76-.189 3.51-.686 3.779-1.83.045-.874-.156-1.725-.717-2.42-.964-1.03-2.017-1.68-3.52-1.793-1.501-.112-3.428.56-4.325 1.636-.896 1.075-1.143 3.833.949 4.387M1472.304 792.066c-.64-1.379-1.499-2.398-2.998-3.018-1.499-.619-3.697-.579-4.976.221-1.279.798-2.458 3.537-.504 4.807.283.195 2.053.911 3.916 1.31 1.864.397 3.822.477 4.482-.602.34-.88.42-1.819.08-2.718M1420.86 850.376c-.051-.913-.355-1.775-1.014-2.434-1.116-.963-2.282-1.521-3.854-1.471-1.572.05-3.5.964-4.31 2.18-.811 1.218-.761 4.108 1.473 4.45.328.06 2.178-.013 3.984-.405s3.569-1.103 3.72-2.32M1489.609 797.505c.109.3 1.064 1.793 2.262 3.096 1.197 1.303 2.636 2.416 3.716 1.954.73-.484 1.295-1.152 1.522-2.015.256-1.388.154-2.62-.648-3.896-.802-1.275-2.488-2.426-3.886-2.509-1.398-.082-3.762 1.357-2.966 3.37M1480.203 987.341c-.283-.184-2.044-.837-3.888-1.174-1.844-.338-3.772-.36-4.389.721-.309.874-.36 1.8 0 2.674.67 1.338 1.543 2.315 3.034 2.881 1.492.565 3.652.462 4.887-.36 1.234-.824 2.314-3.55.356-4.742M1466.453 1048.946c1.373-.274 3.296-2.266 2.015-4.011-.182-.261-1.484-1.465-2.972-2.423-1.488-.957-3.163-1.67-4.09-.947-.584.652-.961 1.442-.961 2.334.103 1.408.515 2.575 1.613 3.605 1.099 1.03 3.02 1.716 4.395 1.442M1424.556 1001.57c-.292.826-.34 1.7 0 2.525.63 1.263 1.457 2.185 2.865 2.719 1.408.534 3.447.438 4.612-.34 1.166-.776 2.185-3.35.336-4.475-.267-.174-1.93-.79-3.67-1.11-1.741-.318-3.56-.338-4.143.682M1444.576 1043.961c1.04 1.09 2.921 1.881 4.308 1.684 1.386-.199 3.416-2.08 2.234-3.893-.167-.272-1.4-1.546-2.833-2.584-1.433-1.039-3.065-1.842-4.03-1.174-.62.62-1.04 1.387-1.09 2.278.025 1.411.371 2.6 1.411 3.69M1494.123 997.767c-.13-.302-1.205-1.782-2.517-3.052-1.312-1.27-2.862-2.329-3.946-1.787-.722.542-1.264 1.264-1.445 2.167-.18 1.445 0 2.71.904 3.974.902 1.264 2.71 2.348 4.153 2.348 1.446 0 3.793-1.626 2.851-3.65M1475.568 1038.363c.06 1.44.441 2.645 1.528 3.73 1.087 1.088 3.026 1.853 4.436 1.618 1.411-.236 3.438-2.204 2.19-4.027-.178-.273-1.467-1.543-2.954-2.57-1.487-1.025-3.173-1.806-4.142-1.101-.617.646-1.028 1.439-1.058 2.35M1461.604 1088.09c.213.238 1.657 1.272 3.256 2.04 1.599.766 3.352 1.266 4.184.434.5-.722.777-1.554.666-2.44-.277-1.388-.832-2.497-2.052-3.385-1.221-.887-3.218-1.33-4.55-.887-1.33.443-2.994 2.662-1.504 4.238M1408.917 1030.596c-.76.434-1.368 1.063-1.65 1.911-.348 1.367-.326 2.605.39 3.93.718 1.324 2.324 2.584 3.714 2.757 1.389.174 3.843-1.107 3.18-3.167-.09-.306-.944-1.86-2.053-3.239-1.11-1.379-2.474-2.583-3.581-2.192M1395.287 1003.384c-1.4-.175-2.626 0-3.85.875-1.227.876-2.277 2.626-2.277 4.027 0 1.4 1.576 3.676 3.538 2.763.292-.127 1.727-1.168 2.958-2.439 1.231-1.272 2.257-2.775 1.732-3.826-.525-.7-1.226-1.225-2.1-1.4M1463.086 1024.542c-.525-.7-1.226-1.226-2.1-1.4-1.4-.175-2.627 0-3.852.875-1.226.875-2.276 2.626-2.276 4.026 0 1.401 1.576 3.677 3.538 2.763.292-.126 1.727-1.167 2.958-2.439s2.257-2.774 1.732-3.825M1496.902 1032.723c-.296-1.482-.89-2.668-2.193-3.616-1.305-.948-3.44-1.423-4.862-.948-1.423.474-3.201 2.845-1.61 4.529.229.254 1.773 1.359 3.48 2.179 1.71.82 3.584 1.354 4.474.464.533-.77.829-1.66.71-2.608M1475.14 1056.657c.217.242 1.689 1.297 3.319 2.079 1.63.782 3.418 1.29 4.266.442.509-.734.792-1.583.679-2.488-.283-1.413-.848-2.544-2.092-3.45-1.244-.904-3.28-1.356-4.637-.904-1.358.453-3.054 2.715-1.535 4.32M1432.293 1113.691c-1.2.8-2.247 3.446-.346 4.604.275.177 1.985.812 3.775 1.14 1.79.327 3.662.348 4.26-.7.3-.849.35-1.749 0-2.597-.648-1.299-1.497-2.247-2.945-2.797-1.45-.549-3.546-.449-4.744.35M1491.69 1066.272c1.429 0 3.75-1.607 2.818-3.608-.13-.298-1.191-1.762-2.488-3.017-1.297-1.256-2.83-2.303-3.901-1.767-.714.536-1.25 1.25-1.43 2.142-.177 1.429 0 2.679.895 3.929.892 1.25 2.678 2.32 4.106 2.32M1450.676 1015.342c0 1.4 1.575 3.676 3.538 2.763.292-.127 1.727-1.168 2.958-2.44 1.231-1.27 2.257-2.774 1.732-3.824-.526-.7-1.226-1.226-2.1-1.4-1.4-.176-2.627 0-3.853.875-1.225.875-2.275 2.625-2.275 4.026M1394.68 1062.014c.126.292 1.166 1.728 2.438 2.958 1.272 1.231 2.775 2.257 3.825 1.732.7-.525 1.225-1.225 1.401-2.1.175-1.4 0-2.627-.876-3.852-.875-1.225-2.626-2.276-4.026-2.276s-3.677 1.576-2.763 3.538M1460.341 1066.713c.47 1.331 1.174 2.35 2.505 3.053 1.331.705 3.367.861 4.62.235 1.252-.626 2.583-3.054.89-4.4-.245-.205-1.818-1.023-3.506-1.555-1.688-.532-3.49-.778-4.196.161-.39.783-.548 1.645-.313 2.506M1491.974 1013.113c-.043-1.521-.43-2.797-1.563-3.96-1.134-1.161-3.17-1.993-4.662-1.763-1.492.23-3.658 2.28-2.363 4.22.182.292 1.526 1.65 3.083 2.753 1.556 1.102 3.325 1.949 4.358 1.217.659-.674 1.104-1.506 1.147-2.467M1420.141 1068.842c1.424.488 3.459.325 4.599-.489 1.14-.814 2.076-3.419.192-4.484-.273-.165-1.954-.727-3.704-.99-1.751-.262-3.57-.224-4.119.814-.265.835-.285 1.71.081 2.524.672 1.241 1.526 2.136 2.951 2.625M1439.603 1056.875c.276 1.384.83 2.491 2.048 3.377 1.218.886 3.211 1.33 4.539.886 1.329-.443 2.99-2.658 1.503-4.23-.213-.237-1.654-1.27-3.25-2.035-1.595-.766-3.345-1.264-4.176-.434-.498.72-.775 1.55-.664 2.436M1343.78 1124.262c.47 1.331 1.173 2.35 2.504 3.053 1.331.705 3.367.862 4.62.235 1.252-.626 2.583-3.053.888-4.399-.244-.205-1.817-1.024-3.505-1.556-1.687-.532-3.49-.778-4.195.162-.392.783-.548 1.644-.313 2.505M1361.612 1121.443c-1.23 1.27-2.257 2.774-1.731 3.825.524.7 1.225 1.225 2.1 1.4 1.4.175 2.626 0 3.85-.875 1.227-.875 2.277-2.626 2.277-4.027 0-1.4-1.575-3.676-3.538-2.762-.292.126-1.727 1.168-2.958 2.439M1338.016 1070.32c.831-.275 1.55-.774 1.993-1.55.609-1.272.83-2.49.388-3.93-.444-1.44-1.772-2.99-3.101-3.432-1.328-.442-3.985.332-3.739 2.483.027.317.561 2.008 1.378 3.577.818 1.57 1.919 3.019 3.081 2.853M1309.582 1065.257c-.47-1.33-1.174-2.349-2.505-3.054-1.33-.704-3.367-.86-4.62-.234-1.252.626-2.583 3.053-.889 4.4.244.204 1.817 1.023 3.505 1.555s3.491.777 4.196-.162c.391-.783.548-1.644.313-2.505M1396.935 1117.526c.001.319.393 2.048 1.077 3.68.684 1.632 1.661 3.168 2.833 3.099.851-.207 1.609-.644 2.115-1.38.712-1.218 1.034-2.413.712-3.884-.321-1.471-1.517-3.126-2.804-3.678s-3.999 0-3.933 2.163M1381.116 1120.026c.028.317.562 2.008 1.379 3.578.817 1.569 1.918 3.018 3.08 2.852.83-.277 1.55-.775 1.994-1.55.609-1.273.83-2.491.387-3.93-.443-1.44-1.772-2.99-3.1-3.432-1.33-.444-3.986.332-3.74 2.482M1416.523 1114.116c-.72 1.201-.54 3.963 1.612 4.19.316.041 2.082-.113 3.792-.57 1.71-.458 3.363-1.218 3.453-2.389-.09-.87-.42-1.682-1.08-2.282-1.112-.87-2.253-1.35-3.754-1.23-1.5.12-3.302 1.08-4.023 2.281M1498.92 961.481c-.168-.26-1.396-1.47-2.812-2.447-1.417-.977-3.021-1.72-3.945-1.05-.587.616-.98 1.372-1.007 2.24.056 1.37.42 2.517 1.455 3.552 1.035 1.036 2.882 1.763 4.225 1.54 1.343-.225 3.273-2.099 2.084-3.835M1449.554 1106.092c1.455.523 3.547.387 4.73-.432 1.183-.818 2.183-3.479.265-4.602-.278-.173-1.996-.777-3.789-1.072-1.793-.296-3.663-.284-4.242.773-.284.854-.318 1.751.045 2.593.671 1.285 1.535 2.218 2.991 2.74M1369.984 1095.649c.34 1.358 2.42 3.184 4.102 1.822.253-.194 1.393-1.551 2.278-3.084.886-1.532 1.517-3.24.753-4.131-.68-.551-1.486-.891-2.378-.85-1.401.17-2.547.639-3.524 1.785-.976 1.146-1.571 3.099-1.231 4.458M1483.13 1103.976c.38-.84.508-1.755.225-2.653-.55-1.384-1.334-2.428-2.767-3.115-1.43-.688-3.583-.769-4.877-.057-1.295.712-2.597 3.325-.756 4.674.266.206 1.958 1.004 3.758 1.494 1.802.492 3.712.677 4.416-.342M1422.274 1098.891c-.403-.777-1.007-1.411-1.842-1.727-1.353-.403-2.59-.432-3.943.23-1.353.662-2.676 2.216-2.907 3.598-.23 1.381.95 3.885 3.036 3.306.31-.076 1.896-.867 3.32-1.919 1.422-1.052 2.681-2.366 2.336-3.488M1361.685 1088.427c.222-1.756.141-3.573-.909-4.099-.841-.245-1.716-.245-2.521.141-1.225.7-2.101 1.575-2.556 3.011-.455 1.435-.245 3.466.595 4.586.841 1.121 3.466 1.996 4.488.088.158-.277.681-1.97.903-3.727M1412.596 961.376c-.248-.208-1.841-1.037-3.552-1.576-1.711-.54-3.538-.79-4.252.163-.397.794-.556 1.667-.318 2.539.476 1.35 1.19 2.38 2.539 3.095 1.349.715 3.413.873 4.682.238 1.27-.634 2.618-3.094.9-4.46M1443.502 933.538c.126-.318.425-2.198.394-4.098-.031-1.9-.393-3.82-1.59-4.22-.93-.132-1.86 0-2.657.532-1.196.93-1.994 1.994-2.26 3.59-.265 1.594.266 3.72 1.329 4.784 1.064 1.063 3.988 1.595 4.784-.588M1436.006 1084.532c-.292.825-.34 1.699 0 2.524.63 1.263 1.457 2.185 2.864 2.72 1.408.533 3.448.437 4.613-.341 1.165-.776 2.185-3.35.336-4.475-.267-.173-1.93-.79-3.67-1.11-1.741-.318-3.56-.338-4.143.682M1424.55 929.729c.686-1.375.257-4.381-2.117-4.447-.349-.02-2.267.298-4.099.942-1.832.644-3.576 1.615-3.576 2.903.172.945.601 1.804 1.374 2.405 1.29.859 2.577 1.289 4.21 1.03 1.631-.257 3.52-1.46 4.207-2.833M1261.943 1113.765c.159.875.557 1.671 1.273 2.228 1.193.795 2.386 1.193 3.898.954 1.51-.239 3.26-1.352 3.897-2.625s.239-4.057-1.96-4.119c-.322-.017-2.1.277-3.796.874-1.696.596-3.312 1.495-3.312 2.688M1280.835 1090.22c.045.316.672 1.975 1.575 3.497.903 1.522 2.083 2.907 3.234 2.677.814-.322 1.505-.86 1.904-1.658.537-1.306.691-2.534.17-3.946-.523-1.413-1.936-2.887-3.287-3.255-1.35-.37-3.96.553-3.596 2.686M1281.853 1125.018c.295 1.475 2.433 3.539 4.306 2.164.281-.195 1.572-1.593 2.6-3.191 1.028-1.598 1.792-3.395 1.018-4.39-.7-.627-1.548-1.032-2.506-1.032-1.511.11-2.765.553-3.87 1.732-1.106 1.179-1.843 3.243-1.548 4.717M1336.084 1105.554c-.175 1.4 0 2.626.875 3.851.876 1.226 2.626 2.276 4.027 2.276 1.4 0 3.676-1.576 2.763-3.538-.127-.292-1.168-1.728-2.439-2.958-1.272-1.23-2.775-2.257-3.825-1.732-.7.525-1.226 1.226-1.4 2.101M1351.27 1107.495c.12 1.5 1.08 3.303 2.282 4.023 1.2.72 3.963.54 4.189-1.613.042-.315-.113-2.081-.57-3.791-.457-1.71-1.217-3.363-2.388-3.453-.871.09-1.681.42-2.282 1.08-.871 1.111-1.351 2.252-1.231 3.753M1265.877 1128.42c-.125.872 0 1.744.5 2.492.871 1.121 1.868 1.87 3.363 2.118 1.495.25 3.49-.249 4.486-1.246.996-.997 1.495-3.738-.552-4.485-.298-.117-2.06-.398-3.842-.369-1.78.03-3.58.368-3.955 1.49M1296.207 1111.19c.131.303 1.205 1.783 2.517 3.053 1.311 1.269 2.861 2.328 3.945 1.786.722-.542 1.264-1.264 1.445-2.167.18-1.444 0-2.71-.904-3.973-.902-1.264-2.708-2.347-4.153-2.347-1.445 0-3.792 1.625-2.85 3.649M1317.464 1013.226c.7-.525 1.226-1.226 1.4-2.101.176-1.4 0-2.626-.875-3.851s-2.626-2.276-4.026-2.276-3.676 1.576-2.763 3.538c.127.293 1.168 1.728 2.439 2.959 1.272 1.23 2.775 2.256 3.825 1.731M1312.32 1119.12c-.541 1.353.102 4.159 2.349 4.035.33-.01 2.119-.46 3.799-1.213 1.68-.753 3.25-1.807 3.149-3.024-.236-.88-.71-1.656-1.487-2.164-1.285-.71-2.536-1.014-4.057-.642-1.522.372-3.212 1.656-3.753 3.009M1267.456 1155.85c1.4-.28 3.361-2.312 2.055-4.09-.185-.268-1.513-1.495-3.031-2.47-1.518-.978-3.226-1.703-4.171-.968-.595.665-.98 1.47-.98 2.381.105 1.435.525 2.625 1.646 3.676 1.12 1.05 3.08 1.75 4.481 1.47M1284.188 1156.931c-.913 1.36-1.314 3.542-.78 4.968.535 1.426 3.008 3.141 4.657 1.462.25-.24 1.313-1.848 2.081-3.613.767-1.764 1.238-3.686.302-4.555-.802-.512-1.715-.78-2.673-.624-1.493.357-2.673 1.003-3.587 2.362M1337.236 1148.427c.12 1.5 1.081 3.302 2.282 4.023 1.2.72 3.963.54 4.19-1.612.041-.316-.114-2.082-.57-3.792-.458-1.71-1.218-3.363-2.389-3.452-.87.089-1.68.419-2.282 1.08-.87 1.11-1.35 2.252-1.23 3.753M1257.758 1162.052c-.805 1.208-1.208 2.416-.966 3.945.241 1.53 1.368 3.3 2.657 3.945 1.288.644 4.106.24 4.168-1.983.018-.327-.279-2.126-.883-3.843s-1.514-3.353-2.722-3.353c-.885.162-1.69.564-2.254 1.289M1289.483 1139.867c.46 1.442 1.18 2.557 2.583 3.357 1.404.8 3.581 1.036 4.945.407 1.364-.63 2.872-3.187 1.1-4.687-.254-.228-1.914-1.158-3.705-1.785-1.792-.627-3.716-.95-4.504.033-.445.826-.642 1.744-.419 2.675M1325.791 1138.708c.242 1.53 1.37 3.301 2.657 3.945 1.288.644 4.106.242 4.168-1.983.018-.327-.279-2.126-.883-3.843s-1.514-3.352-2.72-3.352c-.887.161-1.692.564-2.256 1.288-.805 1.208-1.207 2.416-.966 3.945M1243.484 1131.68c.459 1.444 1.18 2.558 2.583 3.358 1.403.8 3.58 1.036 4.944.407 1.365-.63 2.872-3.187 1.1-4.687-.254-.228-1.913-1.158-3.704-1.785-1.792-.626-3.717-.951-4.504.033-.445.826-.642 1.744-.42 2.675M1308.369 1137.386c-.125.872 0 1.744.499 2.492.872 1.121 1.869 1.87 3.364 2.118 1.495.25 3.489-.249 4.486-1.246.996-.997 1.495-3.738-.552-4.484-.298-.118-2.061-.399-3.842-.37-1.781.03-3.581.368-3.955 1.49M1314.127 1035.682c-.626 1.252-.235 3.992 1.93 4.053.317.017 2.066-.272 3.736-.859 1.67-.587 3.26-1.472 3.26-2.646-.157-.861-.549-1.644-1.254-2.193-1.174-.782-2.348-1.174-3.836-.939-1.487.235-3.21 1.331-3.836 2.584M1337.255 1030.045c.084.308.912 1.875 1.996 3.273 1.085 1.4 2.428 2.627 3.542 2.256.767-.42 1.386-1.04 1.683-1.882.372-1.36.372-2.599-.322-3.936-.693-1.337-2.277-2.624-3.664-2.822-1.386-.199-3.862 1.04-3.235 3.111M1279.173 1039.218c.134.309 1.232 1.823 2.574 3.122 1.342 1.298 2.927 2.38 4.035 1.827.74-.554 1.293-1.293 1.478-2.217.185-1.478 0-2.771-.923-4.064-.924-1.293-2.77-2.401-4.249-2.401-1.478 0-3.879 1.663-2.915 3.733M1298.608 1040.42c.3.117 2.067.398 3.854.37 1.786-.03 3.592-.37 3.967-1.495.125-.875 0-1.75-.5-2.5-.875-1.124-1.875-1.874-3.375-2.124s-3.499.25-4.499 1.25c-1 1-1.5 3.75.553 4.498M1327.616 1015.821c.867.124 1.733 0 2.476-.495 1.114-.867 1.857-1.857 2.104-3.342.248-1.486-.247-3.466-1.238-4.456-.99-.99-3.713-1.486-4.455.547-.117.296-.396 2.047-.366 3.817.028 1.77.365 3.557 1.479 3.93M1302.095 1026.434c1.68-.752 3.25-1.807 3.15-3.024-.237-.879-.71-1.657-1.488-2.164-1.285-.71-2.536-1.014-4.057-.642-1.521.372-3.211 1.656-3.752 3.009-.541 1.352.1 4.158 2.348 4.034.332-.009 2.12-.46 3.799-1.213M1402.121 1020.102c.875 1.225 2.626 2.276 4.026 2.276 1.401 0 3.677-1.576 2.763-3.538-.126-.292-1.167-1.728-2.439-2.958-1.272-1.23-2.774-2.257-3.825-1.732-.7.525-1.225 1.225-1.4 2.101-.175 1.4 0 2.626.875 3.851M1292.831 1076.873c.76-.434 1.368-1.064 1.65-1.911.348-1.368.326-2.605-.39-3.93-.718-1.325-2.324-2.584-3.714-2.757-1.39-.174-3.843 1.107-3.18 3.167.09.306.944 1.859 2.053 3.238 1.11 1.379 2.474 2.584 3.581 2.193M1323.015 1080.356c.298.118 2.057.398 3.835.369 1.779-.03 3.576-.368 3.949-1.487.124-.871 0-1.742-.498-2.488-.87-1.12-1.866-1.866-3.358-2.115-1.493-.25-3.484.249-4.48 1.244-.994.995-1.491 3.732.552 4.477M1250.74 1079.726c-.173.27-.792 1.94-1.113 3.688-.32 1.75-.34 3.578.684 4.163.829.293 1.707.341 2.537 0 1.268-.634 2.195-1.464 2.732-2.878.536-1.415.439-3.464-.341-4.635-.781-1.17-3.367-2.195-4.498-.338M1265.786 1066.267c.058.321.759 1.997 1.739 3.523.98 1.527 2.238 2.904 3.409 2.626.822-.359 1.51-.935 1.89-1.767.504-1.356.617-2.619.03-4.048-.584-1.428-2.084-2.886-3.481-3.215-1.398-.329-4.038.709-3.587 2.881M1268.955 1079.973c-.074.31-.103 2.083.176 3.83.28 1.748.866 3.47 2.021 3.68.875 0 1.716-.245 2.381-.84.98-1.015 1.575-2.1 1.61-3.606.036-1.505-.735-3.396-1.855-4.237-1.121-.84-3.886-.945-4.333 1.173M1293.777 1053.848c.298.118 2.057.398 3.835.369 1.78-.03 3.576-.368 3.95-1.488.124-.87 0-1.741-.498-2.487-.87-1.12-1.867-1.866-3.359-2.115-1.493-.25-3.483.249-4.478 1.244-.996.995-1.493 3.732.55 4.477M1277.886 1054.276c.13.302 1.205 1.782 2.516 3.052 1.312 1.269 2.862 2.328 3.946 1.786.722-.541 1.264-1.264 1.444-2.167.18-1.444 0-2.71-.903-3.973-.902-1.263-2.71-2.347-4.153-2.347-1.445 0-3.792 1.625-2.85 3.649M1321.45 1108.681c.458 1.442 1.18 2.557 2.582 3.357 1.404.8 3.581 1.036 4.945.407 1.364-.63 2.872-3.187 1.1-4.687-.254-.228-1.914-1.158-3.705-1.785-1.792-.627-3.716-.95-4.504.032-.445.826-.642 1.744-.419 2.676M1361.6 1255.534c-1.575 1.165-2.969 2.618-2.587 3.86.446.86 1.115 1.56 2.04 1.912 1.496.446 2.866.478 4.363-.255 1.497-.733 2.962-2.453 3.217-3.982.255-1.53-1.05-4.3-3.36-3.66-.342.085-2.098.96-3.673 2.125M1332.897 1258.027c.025 1.453.382 2.676 1.452 3.797 1.07 1.12 3.007 1.936 4.434 1.732 1.427-.203 3.516-2.14 2.3-4.006-.172-.28-1.44-1.59-2.916-2.66-1.475-1.068-3.155-1.895-4.149-1.207-.637.637-1.07 1.427-1.12 2.344M1371.695 1172.69c-1.231 1.272-2.257 2.774-1.732 3.825.525.7 1.225 1.225 2.1 1.4 1.4.175 2.627 0 3.852-.875s2.276-2.626 2.276-4.026c0-1.401-1.576-3.677-3.538-2.763-.292.126-1.728 1.168-2.958 2.439M1381.624 1273.91c0 1.529 1.718 4.01 3.858 3.015.32-.14 1.885-1.274 3.227-2.661 1.342-1.387 2.462-3.026 1.89-4.171-.574-.764-1.338-1.337-2.292-1.528-1.528-.191-2.864 0-4.2.955-1.337.954-2.483 2.864-2.483 4.39M1322.981 1248.109c.253.1 1.747.338 3.257.313 1.511-.024 3.037-.312 3.354-1.263.106-.74 0-1.48-.423-2.113-.739-.951-1.584-1.585-2.852-1.796-1.268-.211-2.959.21-3.804 1.056-.845.846-1.268 3.17.468 3.803M1385.817 1252c-.703 1.312-.995 2.585-.597 4.124.398 1.538 1.724 3.236 3.104 3.767 1.38.53 4.217-.16 4.061-2.438-.014-.336-.496-2.144-1.282-3.838s-1.877-3.274-3.11-3.154c-.889.252-1.672.742-2.176 1.538M1398.386 1278.495c.446.86 1.115 1.562 2.04 1.913 1.496.445 2.866.477 4.363-.255 1.497-.734 2.962-2.454 3.217-3.983.255-1.529-1.05-4.3-3.36-3.66-.342.085-2.098.961-3.673 2.125-1.575 1.164-2.969 2.618-2.587 3.86M1346.613 1247.097c.356-.031 2.25-.63 4.012-1.545 1.759-.917 3.384-2.151 3.198-3.455-.311-.931-.87-1.738-1.738-2.234-1.428-.683-2.793-.931-4.407-.434-1.614.496-3.352 1.986-3.848 3.475-.497 1.49.372 4.469 2.783 4.193M1413.155 1251.519c.328.059 2.178-.014 3.984-.406s3.568-1.103 3.721-2.321c-.05-.912-.355-1.774-1.015-2.433-1.115-.964-2.28-1.522-3.854-1.471-1.57.051-3.498.964-4.31 2.181-.81 1.217-.76 4.107 1.474 4.45M1303.67 1242.661c.27.123 1.877.466 3.518.526 1.641.06 3.314-.165 3.712-1.178.157-.797.084-1.606-.338-2.318-.748-1.074-1.63-1.811-2.994-2.112-1.364-.302-3.223.06-4.188.929-.966.868-1.557 3.367.29 4.153M1498.445 815.194c-1.146-.977-3.1-1.571-4.458-1.231-1.36.339-3.185 2.419-1.822 4.102.194.253 1.55 1.393 3.084 2.278 1.532.886 3.238 1.517 4.13.752.23-.284.413-.594.557-.92v-2.79a4.776 4.776 0 0 0-1.491-2.191" fill="#303F62"/><g transform="rotate(90 353.196 1135.196)"><mask id="c" fill="#fff"><use xlink:href="#path-5"/></mask><path d="M6.394 9.186c.13-.33.439-2.274.408-4.24C6.769 2.982 6.395.996 5.158.583c-.963-.137-1.925 0-2.75.55C1.17 2.095.345 3.195.07 4.845c-.275 1.65.275 3.85 1.375 4.95 1.1 1.099 4.125 1.65 4.949-.61" fill="#303F62" mask="url(#c)"/></g><path d="M1341.028 1278.31c.19.248 1.524 1.368 3.03 2.237 1.504.87 3.18 1.49 4.055.74.542-.667.876-1.46.834-2.335-.167-1.376-.625-2.502-1.75-3.461-1.127-.959-3.045-1.543-4.379-1.21-1.334.334-3.127 2.377-1.79 4.029M1358.95 1274.64c-.33.811-.42 1.681-.12 2.522.57 1.291 1.35 2.251 2.731 2.852 1.381.601 3.423.601 4.623-.12 1.202-.721 2.342-3.242.55-4.455-.26-.186-1.89-.881-3.614-1.281-1.724-.402-3.54-.509-4.17.482M1444.066 1273.884c-.167-1.376-.626-2.502-1.751-3.461-1.126-.96-3.044-1.543-4.38-1.21-1.333.335-3.126 2.378-1.788 4.029.19.249 1.523 1.368 3.028 2.238 1.505.869 3.18 1.489 4.057.739.542-.668.876-1.46.834-2.335M1325.557 1269.645c.317-.028 2.006-.561 3.574-1.377s3.015-1.916 2.85-3.077c-.278-.83-.776-1.548-1.549-1.99-1.272-.61-2.489-.83-3.926-.388-1.438.443-2.986 1.77-3.428 3.097-.443 1.327.332 3.98 2.48 3.735M1295.683 1207.316c-.43 1.114-.539 2.156-.072 3.342s1.69 2.408 2.84 2.696c1.15.287 3.341-.539 2.994-2.338-.044-.266-.604-1.658-1.395-2.93-.792-1.272-1.816-2.423-2.786-2.207-.683.287-1.258.754-1.58 1.437M1358.547 1204.255c.406-.909.542-1.896.232-2.862-.599-1.49-1.45-2.612-2.998-3.346-1.547-.735-3.868-.813-5.26-.039-1.393.773-2.786 3.598-.793 5.044.287.221 2.115 1.073 4.06 1.594 1.944.521 4.005.712 4.76-.39M1410.058 1209.282c1.458.364 4.237-.684 3.796-2.963-.055-.338-.765-2.102-1.769-3.714-1.003-1.612-2.3-3.072-3.53-2.8-.866.366-1.595.958-2.004 1.824-.547 1.412-.684 2.733-.092 4.236.593 1.504 2.141 3.053 3.6 3.417M1300.98 1199.12c1.4-.28 3.362-2.31 2.056-4.09-.185-.266-1.513-1.493-3.031-2.47-1.517-.976-3.225-1.702-4.17-.966-.596.664-.981 1.47-.981 2.38.105 1.435.525 2.625 1.646 3.675 1.12 1.051 3.08 1.751 4.48 1.471M1320.015 1202.142c.126-.318.426-2.202.395-4.106-.031-1.904-.394-3.828-1.592-4.228-.932-.133-1.865 0-2.664.533-1.2.932-1.998 1.998-2.264 3.596-.267 1.599.266 3.729 1.332 4.795 1.065 1.065 3.995 1.598 4.793-.59M1269.098 1191.803c-.692 1.385-.26 4.413 2.131 4.48.352.02 2.285-.3 4.13-.95 1.844-.648 3.602-1.627 3.602-2.924-.173-.952-.606-1.817-1.384-2.422-1.298-.866-2.596-1.298-4.24-1.038-1.643.26-3.547 1.47-4.239 2.854M1262.35 1181.886c-.818 1.228-1.227 2.455-.981 4.009.245 1.555 1.39 3.355 2.699 4.01 1.309.654 4.173.245 4.237-2.016.018-.333-.285-2.161-.898-3.905-.614-1.745-1.538-3.407-2.766-3.407-.9.163-1.718.573-2.291 1.309M1375.965 1145.908c-.205.244-1.023 1.817-1.555 3.505s-.778 3.491.161 4.196c.784.391 1.644.548 2.506.312 1.331-.47 2.348-1.174 3.053-2.505.705-1.33.861-3.366.235-4.619-.627-1.253-3.053-2.583-4.4-.889M1392.164 1234.897c.542-.667.875-1.46.834-2.335-.167-1.376-.626-2.502-1.75-3.461-1.127-.96-3.045-1.543-4.38-1.21-1.334.334-3.127 2.378-1.789 4.029.19.249 1.523 1.369 3.028 2.238 1.505.87 3.181 1.489 4.057.739M1364.472 1241.165c0 1.527 1.718 4.01 3.858 3.013.32-.138 1.885-1.273 3.227-2.66 1.342-1.387 2.462-3.026 1.89-4.172-.574-.764-1.338-1.336-2.292-1.527-1.528-.19-2.865 0-4.2.954-1.337.955-2.483 2.865-2.483 4.392M1334.08 1229.07c.861-.155 1.645-.547 2.192-1.251.783-1.175 1.175-2.35.94-3.837-.235-1.487-1.33-3.21-2.584-3.836-1.252-.626-3.992-.235-4.053 1.929-.017.318.272 2.067.86 3.736.586 1.67 1.471 3.26 2.645 3.26M1282.682 1218.367c.7-.525 1.226-1.226 1.4-2.101.176-1.4 0-2.626-.875-3.851-.875-1.226-2.626-2.276-4.026-2.276-1.401 0-3.676 1.576-2.763 3.538.127.293 1.168 1.728 2.439 2.958 1.272 1.23 2.775 2.257 3.825 1.732M1317.297 1224.04c.774-.141 1.478-.493 1.97-1.125.703-1.056 1.055-2.111.844-3.448-.21-1.337-1.196-2.885-2.32-3.447-1.127-.563-3.589-.211-3.643 1.733-.017.286.244 1.858.771 3.358s1.323 2.929 2.378 2.929M1290.489 1222.77c-.157 1.256 0 2.355.785 3.453.784 1.099 2.354 2.04 3.609 2.04s3.295-1.412 2.476-3.171c-.113-.262-1.046-1.55-2.186-2.652-1.14-1.103-2.487-2.023-3.43-1.552-.626.47-1.097 1.098-1.254 1.883M1431.346 1238.931c.826-.315 1.531-.85 1.944-1.652.56-1.312.73-2.552.22-3.986-.512-1.433-1.92-2.94-3.282-3.328-1.36-.389-4.009.51-3.666 2.67.042.32.655 2.003 1.55 3.552.893 1.55 2.068 2.963 3.234 2.744M1493.253 1230.056c-.09-.87-.42-1.68-1.08-2.28-1.11-.872-2.253-1.353-3.753-1.233-1.502.12-3.303 1.081-4.023 2.283-.72 1.2-.54 3.962 1.611 4.188.316.042 2.082-.112 3.792-.569 1.71-.457 3.363-1.218 3.453-2.389M1498.445 1213.61c-1.146-.977-3.1-1.57-4.458-1.23-1.36.338-3.185 2.42-1.822 4.101.194.253 1.55 1.393 3.084 2.278 1.532.886 3.238 1.517 4.13.753.23-.284.413-.595.557-.92v-2.79a4.78 4.78 0 0 0-1.491-2.192M1462.053 1237.4c.86-.157 1.644-.548 2.192-1.252.783-1.175 1.175-2.349.939-3.837-.235-1.487-1.33-3.209-2.583-3.836-1.253-.626-3.993-.235-4.053 1.928-.017.32.272 2.068.859 3.738.586 1.67 1.472 3.26 2.646 3.26M1486.698 898.644c-.477 1.256-.39 3.075.303 4.115.694 1.04 2.99 1.949 3.993.3.155-.238.705-1.722.99-3.274.284-1.554.302-3.177-.608-3.697-.736-.26-1.516-.303-2.252 0-1.127.563-1.949 1.3-2.426 2.556M1346.687 1213.45c.276 1.384.83 2.49 2.048 3.377 1.218.886 3.21 1.329 4.539.886 1.329-.443 2.99-2.658 1.503-4.23-.213-.238-1.654-1.27-3.25-2.035-1.595-.766-3.345-1.264-4.176-.434-.498.72-.775 1.55-.664 2.436M1443.425 1232.845c1.381.601 3.422.601 4.623-.12 1.201-.72 2.342-3.243.55-4.455-.26-.186-1.89-.88-3.614-1.282-1.724-.4-3.54-.508-4.17.483-.33.811-.422 1.681-.12 2.521.57 1.291 1.35 2.252 2.731 2.853M1428.072 1221.601c.822-.302 1.526-.821 1.945-1.609.57-1.291.755-2.516.268-3.941-.486-1.425-1.86-2.934-3.202-3.337-1.342-.402-3.974.453-3.663 2.595.037.316.622 1.99 1.486 3.534.865 1.545 2.01 2.959 3.166 2.758M1395.623 1220.24c.818.375 1.71.504 2.585.23 1.351-.531 2.371-1.292 3.046-2.686.676-1.393.762-3.49.072-4.755-.689-1.264-3.232-2.542-4.554-.752-.2.259-.984 1.905-1.469 3.659-.485 1.754-.672 3.616.32 4.305M1411.863 1223.756c-1.231 1.273-2.26 2.777-1.733 3.828.525.7 1.226 1.226 2.102 1.4 1.402.177 2.629 0 3.855-.874 1.226-.876 2.277-2.63 2.277-4.03 0-1.402-1.576-3.68-3.54-2.765-.293.127-1.73 1.168-2.961 2.44M1499.37 905.592c.053.1.262.364.565.701v-3.14c-.675.597-1.099 1.498-.565 2.44M1499.337 837.531c.06.11.278.382.599.738v-3.607c-.771.718-1.234 1.776-.6 2.87M1449.346 893.123c-.097-.932-.45-1.8-1.157-2.442-1.19-.933-2.41-1.447-4.017-1.318-1.607.128-3.534 1.156-4.306 2.442-.771 1.286-.58 4.242 1.726 4.484.337.045 2.228-.12 4.058-.609 1.83-.49 3.599-1.304 3.696-2.557M1497.779 878.464c-1.253-.626-3.993-.235-4.053 1.928-.018.319.27 2.068.859 3.738.587 1.669 1.47 3.259 2.646 3.259.86-.157 1.644-.548 2.192-1.253.197-.296.37-.591.513-.893v-4.295c-.481-1.061-1.277-2.044-2.157-2.484M1426.562 834.218c.042.32.655 2.003 1.549 3.552.894 1.55 2.069 2.963 3.235 2.744.826-.316 1.53-.85 1.945-1.652.558-1.312.728-2.55.218-3.985-.51-1.434-1.92-2.94-3.28-3.329-1.361-.389-4.01.51-3.667 2.67M1476.01 842.057c1.385-.276 2.492-.83 3.378-2.048.886-1.218 1.329-3.211.886-4.54-.443-1.328-2.658-2.989-4.23-1.502-.237.213-1.27 1.654-2.035 3.25-.766 1.595-1.264 3.345-.434 4.176.72.498 1.55.775 2.436.664M1440.813 829.054c-.33.811-.42 1.682-.12 2.522.57 1.291 1.35 2.251 2.732 2.852 1.38.601 3.423.601 4.623-.12 1.202-.72 2.342-3.242.55-4.455-.26-.186-1.89-.88-3.614-1.28-1.724-.403-3.541-.51-4.171.481M1484.397 830.409c-.721 1.2-.541 3.963 1.612 4.189.316.042 2.082-.112 3.792-.57 1.709-.457 3.363-1.217 3.452-2.388-.09-.871-.42-1.681-1.08-2.282-1.111-.87-2.252-1.35-3.753-1.231-1.502.12-3.303 1.08-4.023 2.282M1458.547 831.987c-.017.318.272 2.067.86 3.737.586 1.67 1.471 3.26 2.645 3.26.862-.157 1.644-.548 2.192-1.253.783-1.174 1.175-2.349.94-3.836-.235-1.488-1.33-3.21-2.584-3.836-1.252-.627-3.992-.236-4.053 1.928M1469.737 1204.183c1.226-.875 2.276-2.626 2.276-4.026 0-1.401-1.576-3.677-3.538-2.763-.292.127-1.727 1.167-2.958 2.439s-2.257 2.775-1.732 3.825c.525.7 1.225 1.225 2.1 1.4 1.4.176 2.626 0 3.852-.875M1408.595 1174.892c.867.124 1.733 0 2.476-.495 1.114-.866 1.857-1.857 2.104-3.342.248-1.486-.247-3.466-1.238-4.457-.99-.99-3.713-1.485-4.455.548-.117.297-.396 2.047-.366 3.817.028 1.769.365 3.558 1.48 3.929M1390.39 1172.416c-.206.244-1.024 1.817-1.556 3.505s-.778 3.491.161 4.195c.783.392 1.644.548 2.506.314 1.33-.47 2.348-1.175 3.053-2.506.705-1.33.861-3.366.235-4.619-.627-1.252-3.053-2.583-4.4-.889M1285.35 1177.208c-.818 1.227-1.228 2.455-.982 4.009.246 1.555 1.391 3.355 2.7 4.009 1.309.655 4.173.246 4.236-2.016.019-.332-.284-2.16-.897-3.905-.614-1.744-1.538-3.406-2.766-3.406-.9.163-1.718.572-2.291 1.309M1378.588 1208.83c-1.644.26-3.547 1.47-4.24 2.855-.691 1.384-.26 4.413 2.132 4.479.352.02 2.285-.3 4.129-.95 1.846-.648 3.603-1.626 3.603-2.923-.173-.952-.606-1.817-1.385-2.423-1.297-.865-2.595-1.298-4.24-1.038M1347.072 1176.176c-1.287-.551-4 0-3.933 2.164 0 .318.393 2.047 1.077 3.679.684 1.633 1.66 3.168 2.833 3.099.85-.207 1.609-.644 2.115-1.38.713-1.218 1.034-2.413.713-3.884-.323-1.471-1.518-3.126-2.805-3.678M1388.28 1158.861c.81.331 1.68.42 2.522.12 1.29-.57 2.25-1.35 2.852-2.732.6-1.38.6-3.423-.12-4.623-.72-1.2-3.242-2.342-4.455-.549-.186.26-.881 1.89-1.281 3.614-.402 1.723-.51 3.54.482 4.17M1299.002 1161.22c-.913 1.358-1.314 3.541-.78 4.967.535 1.426 3.008 3.141 4.656 1.462.25-.24 1.314-1.848 2.082-3.613.767-1.764 1.238-3.686.302-4.555-.802-.512-1.715-.78-2.673-.623-1.493.356-2.673 1.002-3.587 2.361M1316.684 1158.5c.105 1.435.525 2.625 1.646 3.675 1.12 1.051 3.081 1.751 4.481 1.47 1.4-.279 3.361-2.31 2.055-4.089-.185-.267-1.513-1.494-3.03-2.47-1.519-.977-3.227-1.703-4.172-.968-.595.666-.98 1.471-.98 2.381M1335.333 1180.203c.636-1.273.239-4.057-1.96-4.119-.323-.017-2.1.277-3.797.873-1.696.597-3.312 1.496-3.312 2.689.159.875.557 1.671 1.273 2.227 1.193.796 2.387 1.194 3.898.955 1.512-.239 3.262-1.352 3.898-2.625M1478.699 1208.002c.306.09 2.075.21 3.834.02 1.76-.189 3.51-.687 3.779-1.83.045-.874-.156-1.726-.717-2.42-.964-1.032-2.017-1.682-3.52-1.793-1.501-.113-3.428.56-4.325 1.635-.896 1.076-1.143 3.833.949 4.388M1317.345 1187.995c.28-.194 1.573-1.592 2.6-3.19 1.028-1.599 1.793-3.397 1.019-4.392-.701-.627-1.548-1.032-2.507-1.032-1.511.111-2.764.553-3.87 1.732-1.105 1.18-1.843 3.243-1.548 4.718.295 1.475 2.433 3.539 4.306 2.164M1495.778 869.617c.248-1.485-.248-3.466-1.238-4.457-.991-.99-3.714-1.485-4.455.55-.117.295-.396 2.046-.367 3.815.029 1.77.366 3.558 1.48 3.93.866.123 1.733 0 2.476-.496 1.114-.866 1.856-1.856 2.104-3.342M1436.439 1209.587c-.175 1.4 0 2.626.875 3.852.875 1.225 2.626 2.275 4.026 2.275s3.677-1.575 2.764-3.538c-.127-.292-1.168-1.727-2.44-2.958-1.271-1.231-2.774-2.256-3.825-1.732-.7.525-1.225 1.226-1.4 2.1M1446.706 1203.16c.525.7 1.225 1.225 2.101 1.4 1.4.176 2.626 0 3.851-.875s2.276-2.626 2.276-4.026-1.576-3.676-3.538-2.763c-.293.127-1.728 1.167-2.959 2.44-1.23 1.271-2.256 2.774-1.73 3.824M1424.585 1187.619c.277-.874.298-1.791-.085-2.643-.704-1.301-1.6-2.238-3.091-2.75-1.492-.512-3.624-.341-4.818.512-1.194.852-2.174 3.581-.201 4.697.286.172 2.047.762 3.88 1.037 1.834.274 3.739.234 4.315-.853M1463.827 1192.493c.283.195 2.052.912 3.916 1.31 1.864.398 3.822.477 4.48-.602.34-.88.42-1.818.082-2.718-.64-1.38-1.5-2.398-3-3.017-1.497-.62-3.695-.58-4.974.22-1.28.799-2.458 3.537-.504 4.807M1421.984 1201.659c1.381.6 3.423.6 4.624-.12 1.201-.72 2.341-3.242.548-4.455-.258-.186-1.889-.881-3.613-1.281-1.724-.402-3.54-.51-4.17.482-.33.81-.42 1.682-.12 2.522.57 1.29 1.35 2.25 2.731 2.852M1398.199 941.435c-.641 1.341-.874 2.623-.408 4.138.467 1.515 1.865 3.147 3.264 3.613 1.399.467 4.196-.349 3.937-2.613-.03-.334-.591-2.114-1.451-3.767-.861-1.652-2.02-3.178-3.244-3.003-.874.292-1.632.816-2.098 1.632M1438.165 957.853c.889 1.244 2.666 2.31 4.087 2.31 1.422 0 3.732-1.6 2.805-3.591-.129-.297-1.185-1.753-2.476-3.003-1.291-1.25-2.816-2.291-3.883-1.758-.711.533-1.244 1.244-1.422 2.133-.177 1.42 0 2.665.889 3.909M1426.814 972.068c1.146.977 3.1 1.57 4.458 1.23 1.359-.338 3.185-2.42 1.823-4.101-.194-.253-1.552-1.393-3.084-2.278-1.532-.886-3.24-1.517-4.131-.753-.552.679-.892 1.486-.85 2.378.17 1.4.638 2.547 1.784 3.524M1389.78 961.303c.042.317.65 1.99 1.539 3.528.888 1.538 2.055 2.944 3.213 2.726.82-.314 1.52-.845 1.932-1.64.555-1.304.724-2.536.217-3.96-.507-1.425-1.907-2.92-3.26-3.307-1.35-.386-3.982.507-3.641 2.653M1489.8 855.728c-.48-1.252-1.174-2.202-2.456-2.837-1.281-.637-3.22-.734-4.393-.108-1.174.626-2.377 2.965-.734 4.2.237.189 1.75.927 3.368 1.39 1.616.463 3.335.652 3.98-.258.353-.753.48-1.575.235-2.387M1428.355 939.97c-.184 1.47 0 2.758.919 4.044.919 1.287 2.757 2.389 4.227 2.389 1.47 0 3.859-1.654 2.9-3.714-.133-.306-1.225-1.813-2.561-3.105-1.335-1.292-2.912-2.37-4.015-1.82-.735.553-1.286 1.288-1.47 2.207M1399.693 927.043c-.956 1.315-1.435 3.466-.956 4.9.478 1.434 2.868 3.227 4.566 1.622.256-.23 1.37-1.785 2.197-3.508.826-1.722 1.364-3.612.467-4.508-.776-.538-1.672-.837-2.628-.717-1.495.298-2.69.896-3.646 2.21M1341.474 976.949c.025 1.452.382 2.675 1.452 3.796 1.07 1.12 3.007 1.937 4.434 1.733 1.427-.204 3.516-2.14 2.3-4.007-.172-.28-1.441-1.59-2.916-2.66-1.475-1.068-3.155-1.894-4.15-1.207-.636.637-1.07 1.428-1.12 2.345M1335.72 999.109c.7-.525 1.226-1.226 1.4-2.101.176-1.4 0-2.626-.875-3.851-.875-1.226-2.626-2.276-4.026-2.276-1.401 0-3.676 1.576-2.763 3.538.127.293 1.168 1.727 2.439 2.958 1.272 1.23 2.775 2.257 3.825 1.732M1368.61 971.498c.277 1.384.831 2.49 2.048 3.377 1.218.886 3.211 1.329 4.54.886 1.33-.443 2.99-2.658 1.502-4.23-.213-.238-1.654-1.27-3.25-2.035-1.595-.766-3.345-1.264-4.175-.434-.499.72-.776 1.55-.665 2.436M1352.97 990.038c-.886 1.218-1.33 3.212-.886 4.54.443 1.329 2.657 2.99 4.23 1.503.238-.213 1.27-1.654 2.035-3.25.766-1.596 1.264-3.346.433-4.176-.72-.498-1.55-.775-2.435-.664-1.384.277-2.491.83-3.377 2.048M1370.957 1001.6c.268-.173 1.512-1.436 2.517-2.893 1.005-1.456 1.771-3.107 1.08-4.057-.633-.604-1.41-1.007-2.303-1.036-1.41.058-2.59.432-3.654 1.497-1.065 1.065-1.814 2.964-1.583 4.345.23 1.382 2.158 3.368 3.943 2.144M1321.727 996.29c.175-1.4 0-2.627-.875-3.852-.876-1.226-2.626-2.276-4.027-2.276-1.4 0-3.676 1.575-2.763 3.538.127.292 1.168 1.727 2.439 2.958 1.272 1.231 2.775 2.257 3.826 1.732.7-.525 1.225-1.226 1.4-2.1M1380.114 987.888c.47 1.331 1.174 2.35 2.505 3.054 1.33.704 3.367.861 4.619.234 1.253-.626 2.584-3.053.889-4.399-.244-.205-1.817-1.023-3.505-1.556-1.688-.53-3.49-.777-4.195.162-.392.783-.548 1.644-.313 2.505M1407.993 917.002c.694 1.39 3.386 2.865 4.879.986.227-.27 1.134-2.015 1.724-3.886.59-1.872.863-3.87-.18-4.653-.867-.434-1.822-.607-2.777-.347-1.476.521-2.604 1.302-3.386 2.778-.781 1.476-.954 3.733-.26 5.122M1413.813 951.038c.162.894.57 1.706 1.3 2.275 1.22.812 2.437 1.22 3.981.975 1.544-.244 3.332-1.38 3.982-2.681.65-1.3.243-4.143-2.002-4.207-.33-.018-2.145.282-3.878.892-1.733.608-3.383 1.527-3.383 2.746M1456.494 869.724c.296.053 1.966-.013 3.596-.367 1.63-.354 3.22-.995 3.359-2.094-.046-.824-.32-1.602-.915-2.197-1.008-.87-2.061-1.373-3.48-1.328-1.418.046-3.158.87-3.89 1.968-.733 1.099-.687 3.708 1.33 4.018M1422.143 867.78c1.458.364 4.236-.684 3.796-2.963-.056-.338-.766-2.102-1.769-3.714-1.004-1.612-2.3-3.072-3.53-2.798-.866.364-1.595.956-2.005 1.822-.546 1.412-.683 2.733-.09 4.236.591 1.504 2.14 3.053 3.598 3.417M1436.146 874.826c.19.248 1.524 1.368 3.03 2.237 1.504.87 3.18 1.49 4.055.74.542-.667.876-1.46.834-2.335-.167-1.377-.626-2.502-1.75-3.461-1.127-.96-3.045-1.543-4.379-1.21-1.335.334-3.128 2.377-1.79 4.029M1388.856 908.422c-.997 1.246-1.215 4.393 1.18 4.976.352.095 2.369.191 4.37-.064 2-.256 3.983-.862 4.263-2.17.03-.998-.218-1.964-.872-2.742-1.122-1.153-2.337-1.87-4.05-1.963-1.713-.094-3.894.717-4.891 1.963M1455.811 855.128c.865-.198 1.64-.63 2.162-1.369.738-1.225 1.08-2.432.774-3.927-.306-1.495-1.495-3.188-2.792-3.765-1.297-.576-4.053-.053-4.015 2.14-.003.322.371 2.08 1.042 3.743.671 1.663 1.64 3.232 2.83 3.178M1471.53 859.593c.792-.351 1.454-.91 1.818-1.714.48-1.312.584-2.533.013-3.91-.571-1.376-2.026-2.778-3.376-3.09-1.351-.311-3.896.702-3.452 2.797.058.31.742 1.926 1.694 3.396s2.173 2.793 3.303 2.52M1441.284 857.962c-.018.318.272 2.067.859 3.737s1.472 3.26 2.646 3.26c.862-.157 1.644-.548 2.192-1.253.783-1.175 1.175-2.348.94-3.836-.235-1.488-1.331-3.21-2.584-3.836-1.252-.627-3.992-.235-4.053 1.928M1473.851 876.924c.867.124 1.733 0 2.476-.495 1.114-.867 1.857-1.857 2.104-3.343.248-1.485-.247-3.466-1.238-4.456-.99-.99-3.713-1.485-4.455.548-.117.296-.396 2.047-.366 3.816.028 1.77.365 3.558 1.48 3.93M1426.767 901.17c.352.02 2.285-.3 4.13-.949 1.845-.649 3.602-1.627 3.602-2.925-.173-.95-.606-1.816-1.384-2.422-1.298-.865-2.596-1.298-4.24-1.038-1.644.26-3.547 1.471-4.239 2.855-.692 1.384-.26 4.412 2.131 4.48M1405.863 898.194c.288.221 2.116 1.073 4.06 1.594 1.944.521 4.005.712 4.76-.39.406-.91.54-1.896.232-2.863-.6-1.489-1.45-2.61-2.998-3.346-1.547-.735-3.868-.813-5.261-.039-1.393.774-2.785 3.597-.793 5.044M1422.805 884.507c.925-.14 1.773-.532 2.38-1.267.876-1.229 1.33-2.47 1.129-4.066-.203-1.596-1.318-3.47-2.635-4.18-1.317-.71-4.256-.38-4.391 1.928-.028.34.224 2.217.796 4.02.574 1.8 1.467 3.527 2.72 3.565M1458.418 907.2c.832.338 1.726.43 2.588.122 1.325-.585 2.311-1.386 2.928-2.804.616-1.417.616-3.513-.124-4.745-.739-1.233-3.328-2.404-4.572-.564-.19.266-.904 1.94-1.316 3.71-.41 1.768-.52 3.633.496 4.28M1477.771 889.158c.867.124 1.733 0 2.476-.495 1.114-.866 1.857-1.857 2.104-3.342.248-1.485-.247-3.466-1.238-4.456-.99-.991-3.713-1.486-4.455.547-.117.297-.396 2.048-.367 3.817.03 1.77.366 3.558 1.48 3.929M1408.006 877.754c.255-1.53-1.05-4.3-3.36-3.66-.342.085-2.098.96-3.673 2.125-1.575 1.164-2.969 2.618-2.587 3.86.446.86 1.115 1.56 2.038 1.912 1.498.446 2.868.477 4.365-.255 1.497-.733 2.962-2.453 3.217-3.982M1453.797 886.704c.436.794 1.076 1.435 1.947 1.742 1.41.384 2.69.384 4.073-.333 1.383-.717 2.715-2.356 2.92-3.79.205-1.434-1.076-3.996-3.219-3.347-.318.086-1.94.943-3.387 2.065-1.447 1.121-2.718 2.511-2.334 3.663" fill="#303F62"/><path d="M688.482 1155.236a29.76 29.76 0 0 1 2.535 5.086c10.152 26.36 19.203 52.426 18.45 81.47-.992 38.184-21.213 71.85-51.514 85.771-29.535 13.569-66.796 8.162-102.225-14.835-8.867-5.754-16.994-11.957-24.852-17.954-12.175-9.284-23.67-18.057-35.63-23.322-14.11-6.212-30.698-5.418-36.223 1.74-5.167 6.697-2.463 21.564 5.86 32.483 9.154 11.965 23.37 21.568 38.419 31.737 4.15 2.804 8.295 5.605 12.367 8.469 20.446 14.365 48.702 37.513 57.934 72.506 7.275 27.553-.49 58.032-20.77 81.528-20.281 23.493-49.298 35.626-77.62 32.45-31.762-3.562-55.281-22.296-76.032-38.827-4.916-3.917-9.559-7.616-14.16-11.002-17.687-13.02-37.63-18.205-45.403-11.803-7.752 6.386-4.599 26.834 6.203 40.563 8.235 10.425 19.562 19.578 31.553 29.275 11.345 9.176 23.082 18.661 33.807 30.393 29.365 32.085 43.991 83.794 15.172 120.533-20.317 25.91-57.455 36.028-94.61 25.776-21.247-5.86-39.502-16.942-55.608-26.717-4.234-2.57-8.462-5.14-12.73-7.601-19.835-11.434-34.588-15.96-46.427-14.24-8.247 1.196-16.287 7.283-21.508 16.282-5.216 8.996-6.51 18.998-3.452 26.75 5.125 13.008 19.307 24.072 34.324 35.786 6.009 4.688 12.226 9.535 18.273 14.804 32.028 27.897 54.946 75.83 29.585 115.128-12.794 19.824-34.518 31.246-61.166 32.166-18.915.65-39.93-3.97-59.17-13.018-5.568-2.617-11.042-5.408-16.333-8.108-18.842-9.61-36.637-18.686-50.978-15.997-14.295 2.679-26.655 20.757-26.45 38.685.224 19.426 11.555 40.428 31.098 57.606 20.127 17.697 46.595 30.22 72.19 42.325 14.8 7.005 21.122 24.676 14.12 39.48-7.001 14.798-24.676 21.12-39.476 14.12-27.936-13.217-59.596-28.196-85.987-51.397-32.148-28.26-50.82-65.244-51.232-101.458-.535-46.787 32.325-89.676 74.812-97.64 34.206-6.412 64.502 9.041 88.845 21.458 5.1 2.6 9.91 5.057 14.613 7.268 18.8 8.836 40.39 9.961 45.297 2.357 4.75-7.359-4.17-25.599-18.718-38.27-4.835-4.211-10.156-8.364-15.79-12.758-19.666-15.343-41.95-32.73-53.023-60.798-9.784-24.828-7.111-53.346 7.33-78.24 14.44-24.899 37.865-41.375 64.276-45.209 33.78-4.905 64.44 9.95 84.561 21.551 4.659 2.683 9.27 5.482 13.887 8.282 14.041 8.523 27.304 16.579 40.606 20.243 13.173 3.638 27.007 1.397 32.187-5.206 7.595-9.682-.376-30.913-12.269-43.926-7.721-8.441-17.251-16.145-27.336-24.301-13.993-11.316-28.461-23.012-40.8-38.63-27.816-35.228-34.737-92.308 2.626-123.083 30.078-24.773 76.495-20.92 118.25 9.817 5.512 4.054 10.824 8.286 15.955 12.375 15.898 12.664 30.91 24.626 45.693 26.28 8.74.98 18.75-3.721 26.133-12.27 7.376-8.55 10.569-19.144 8.321-27.647-3.259-12.349-14.286-24.787-34.698-39.132-3.774-2.654-7.618-5.248-11.465-7.847-17.478-11.808-37.29-25.192-52.319-44.845-29.61-38.658-23.706-81.413-5.704-104.734 18.565-24.052 59.986-40.503 107.055-19.778 18.419 8.11 33.305 19.468 47.697 30.45 7.301 5.569 14.196 10.829 21.17 15.357 13.72 8.903 32.792 16.387 45.192 10.69 9.61-4.413 16.598-18.16 16.996-33.427.47-18.153-6.291-37.291-14.509-58.627-5.885-15.28 1.733-32.433 17.012-38.32 13.473-5.186 28.407.123 35.783 11.927z" fill="#DDE4F2"/><path d="M677.207 179.684c-.932-12.914-6.725-20.688-9.705-35.862-5.401-15.524-10.123-21.389-22.945-41.845-32.65-46.058-90.057-84.505-129.313-89.796-16.814-4.663-34.227-18.134-52.517-9.174-17.94-1.586-36.317 7.795-54.388 1.108-45.214 5.068-76.515 19.816-122.15 50.202-34.758 27.25-57.462 53.958-77.611 106.378-11.814 32.397-23.404 75.347-18.48 101.145-.252 34.337 9.129 72.404 18.48 100.644 6.071 14.85 8.98 39.332 22.944 41.17 6.072 8.1 4.107 5.077 18.893 22.945 4.73 5.4 8.263 21.646 14.85 14.175 14.844 12.15 31.047 31.79 46.566 29.698 47.247 20.242 101.555 58.879 148.48 35.091 6.072-.674 4.225 4.613 18.219-3.373 22.273-4.726 37.093-9.769 59.392-26.321 12.822-10.802 20.078-5.372 33.072-35.095 21.932-34.417 38.54-69.655 69.406-100.172 21.317-33.695 50.64-79.141 40.412-110 1.18-16.716-1.986-38.413-3.605-50.918" fill="#F3ECDA"/><path d="M345.11 269.854c9.648-2.458 12.643-7.17 19.362-9.295 28.54-10.123 65.51 3.904 99.24 10.409 10.716 5.943 12.648 4.154 18.851 7.501 7.501-4.42 14.206 11.176 19.505 19.157 5.825 8.85 2.933 4.334 4.139 6.608 17.741 17.966 9.872 41.906 9.274 63.521-10.342-2.84-1.952 15.13-4.405 22.821 2.704 4.84-1.87 5.32-3.244 8.002-4.528-14.256-3.823 7.318-6.056 10.95-1.032-1.036-7.68 10.68-12.55 15.356-28.85 19.117-49.939 30.466-78.948 31.258-32.3 4.057-74.232-20.087-92.204-53.9-2.156-8.201-6.704-13.843-8.855-21.104-13.654-10.046-3.771-14.67-4.548-21.968 3.173-17.94 2.136-44.594 15.1-64.502-6.25-3.357 7.578-10.94 12.815-15.458 5.708 3.802 7.62-6.985 12.525-9.356z" fill="#FFC4BC"/><path d="M1402.713 548.361s.502 1.313 0-.004c.191-3.183-.184-6.578-.779-9.246-.682-2.959-.966-4.004-3.148-8.366-1.422-2.607-3.933-5.886-5.239-7.134-2.052-2.132-4.068-4.136-6.965-5.569-2.568-1.546-5.907-2.629-8.308-3.58-2.958-.828-5.451-1.865-9.374-1.301 0 0 1 .26 0 0-3.249 0-6.667-.608-9.374 1.255-2.974.825-5.537 1.266-8.309 3.626-2.568 1.547-4.865 3.972-6.987 5.529-2.062 2.129-2.983 3.507-5.217 7.174-1.422 2.607-2.482 6.485-3.18 8.353-.676 2.948-1.152 5.013-.748 9.259 0 0 1.232.927 0 .004.25 4.173 1.093 8.942 2.434 11.274 1.332 3.34 2.937 6.226 5.32 8.756 2.173 2.503 3.933 5.02 7.465 6.247 2.77 1.666 6.053 3.815 8.946 3.767 3.136.835 4.6 2.578 9.67 1.248 3.264 0 6.368-1.51 9.629-1.248 3.136-.834 5.312-1.816 8.944-3.775 2.78-1.675 6.984-1.558 7.468-6.24 2.174-2.503 3.617-5.706 5.344-8.743 1.34-3.332 2.271-7.67 2.408-11.286" fill="#DDE4F2"/></g></svg>