<?xml version="1.0" encoding="UTF-8"?>
<svg width="658px" height="725px" viewBox="0 0 658 725" version="1.1" xmlns="http://www.w3.org/2000/svg" xmlns:xlink="http://www.w3.org/1999/xlink">
    <title>form-home-coc</title>
    <desc>Created with Sketch.</desc>
    <defs></defs>
    <g stroke="none" stroke-width="1" fill="none" fill-rule="evenodd">
        <g>
            <path d="M234.719,14.58785 C237.574,12.12985 249.327,13.96985 252.404,7.71785002 C257.729,5.49085002 267.616,4.18185002 272.812,4.20785002 C282.951,1.37885002 289.762,3.87385002 292.696,2.60985002 C298.17,-0.443149978 304.224,4.49785002 309.269,0.716850022 C313.123,2.72085002 319.197,-0.889149978 326.433,0.531850022 C330.32,2.07385002 336.791,2.76485002 345.527,0.383850022 C350.573,-1.35014998 359.864,3.49385002 365.114,1.07985002 C371.863,0.465850022 374.14,1.89485002 382.452,3.57885002 C389.819,8.95285002 395.628,3.18485002 400.458,4.63785002 C405.833,5.88585002 419.031,5.12585002 419.092,8.46285002 C426.03,10.88885 432.585,16.36685 436.984,14.05785 C443.031,13.84485 450.072,18.79585 451.823,21.91085 C450.758,25.89585 462.571,27.59585 465.347,28.12185 C469.535,30.39885 478.439,30.72985 480.209,36.32385 C487.444,40.40285 493.654,39.94185 496.88,45.86585 C503.881,47.60585 509.912,51.55085 514.933,54.45285 C522.546,59.96585 526.847,69.34985 529.337,68.21785 C531.705,71.73185 539.663,72.68285 542.176,78.97285 C547.23,82.79285 550.304,84.81085 554.958,88.21485 C564.498,93.73185 561.887,91.43485 569.339,99.94285 C570.482,105.30585 584.988,108.14785 583.526,112.45285 C587.778,118.20385 589.049,123.13385 597.268,125.97585 C601.359,130.48985 600.8,139.33085 608.069,141.26785 C609.872,142.21885 611.871,153.02185 612.593,157.12085 C611.41,161.14385 616.135,165.16685 621.016,173.40485 C624.183,178.74685 625.782,184.12785 630.543,190.70585 C638.469,198.67285 635.52,204.34085 638.481,208.12585 C638.92,216.19585 649.145,217.17885 642.248,224.72285 C645.964,229.49785 645.887,235.83285 647.43,241.37785 C649.591,245.95285 648.849,254.98485 650.221,260.88485 C650.592,273.70985 652.998,274.64885 652.405,280.33485 C656.479,287.74685 656.978,296.21585 655.297,297.38185 C658.497,303.23285 649.358,303.09585 656.029,314.73085 C657.711,320.90185 656.28,329.89985 656.296,332.34485 C657.821,337.97985 657.211,347.17285 654.881,350.44185 C652.329,358.95985 649.734,363.78485 651.244,368.96185 C650.357,381.12285 650.218,381.09185 649.569,387.26985 C652.72,395.99985 649.715,397.20085 645.248,404.89985 C643.558,411.62585 642.525,410.80585 638.97,421.58385 C638.227,429.16785 633.955,430.13585 631.42,437.05185 C622.57,435.14685 619.322,450.47385 620.228,454.86685 C614.763,463.52585 614.814,465.62285 611.537,469.65785 C609.703,471.26585 603.874,478.12385 604.22,483.69285 C602.318,484.10385 602.774,493.22985 597.151,499.24185 C589.778,503.80385 587.212,511.74685 586.182,515.25985 C579.226,523.92485 578.589,528.55585 573.911,529.56085 C569.38,533.39085 569.335,535.60885 561.414,542.17285 C555.249,547.54285 555.445,549.35185 549.766,553.12185 C544.316,558.41285 536.18,556.85885 532.878,565.66385 C534.94,571.39885 522.253,574.22385 519.719,577.42785 C505.968,583.40085 510.942,583.99785 506.791,587.82885 C502.622,589.75385 498.457,597.97885 490.594,596.27985 C483.037,598.06185 481.503,605.40585 476.016,606.11585 C470.714,608.65685 464.655,609.39085 458.344,615.47485 C447.904,618.88785 445.624,620.28985 439.389,622.74285 C433.886,625.46085 426.873,625.97685 420.963,626.30685 C415.256,626.74785 406.67,627.07685 401.425,628.33085 C393.158,634.53485 386.404,628.44485 383.484,632.67185 C377.844,630.79785 368.264,633.12085 365.645,637.29885 C357.511,640.68885 354.302,637.30685 346.413,640.17785 C338.679,641.02685 333.095,640.57285 326.349,638.97385 C316.994,639.73585 311.873,642.09985 306.302,639.68985 C300.913,640.69185 291.201,638.94285 288.015,639.93385 C282.479,639.29885 277.348,635.01585 273.23,637.31685 C263.981,638.67685 255.254,632.26285 252.571,634.15285 C245.433,632.12385 239.496,630.84185 236.014,629.48985 C230.621,628.84585 227.513,625.72185 220.722,624.15585 C216.828,621.83385 211.739,617.90285 203.86,618.98385 C193.957,615.41385 187.407,613.57085 178.665,607.06785 C170.443,603.21185 164.625,598.82785 154.824,594.05385 C151.187,592.37085 150.564,592.31885 148.077,590.36885 C145.015,586.26785 145.422,588.32185 140.749,586.44185 C137.014,583.45285 136.935,582.28685 136.145,581.12585 C136.85,579.27785 133.073,576.69385 130.958,576.31285 C127.327,576.37985 126.648,572.79485 125.338,571.87785 C123.618,571.23485 120.685,568.91585 119.432,567.69585 C119.126,566.77185 114.529,565.44785 113.39,563.64385 C112.978,560.76085 108.12,559.02485 107.36,559.59585 C103.742,559.00285 103.348,556.11485 101.492,555.42685 C99.158,554.38285 98.24,552.38785 95.934,551.01285 C94.396,549.70385 92.564,547.28485 90.834,546.22985 C88.823,545.06485 87.918,543.03685 86.343,540.95185 C84.111,539.11885 81.013,537.13885 80.261,534.68285 C78.063,532.16185 77.187,530.48285 75.641,528.60885 C74.944,526.27785 73.285,524.37785 72.08,522.70385 C70.873,520.86485 69.794,518.22585 69.177,516.93785 C68.462,514.71485 67.835,513.49785 66.53,511.28585 C65.399,508.79085 64.741,507.21985 63.738,505.71985 C62.304,504.14685 62.147,502.60085 60.4,500.21285 C59.219,498.16185 57.771,497.36885 56.114,494.73785 C54.295,492.93085 53.238,491.01185 50.477,489.26785 C48.61,487.72785 46.689,485.82685 43.09,483.77485 C40.508,482.34985 38.531,480.42685 37.37,477.93585 C35.388,475.74685 34.068,474.06885 32.836,471.54085 C31.525,469.12885 30.745,467.02385 29.271,464.72185 C27.987,462.37885 27.223,459.99985 26.461,457.61085 C26.279,455.46285 25.352,452.98885 24.191,450.33885 C23.249,448.65685 22.703,445.33685 22.247,443.03785 C22.073,440.48885 21.573,439.10885 20.414,435.83885 C19.742,433.52285 19.136,430.81185 18.477,428.87385 C18.215,427.11585 17.327,424.28085 16.222,422.27485 C14.913,420.14885 14.978,418.13685 13.434,416.17185 C12.669,414.29585 12.381,411.74385 11.285,409.38685 C11.546,407.15885 9.843,405.68485 9.765,402.51285 C8.735,399.63885 8.977,398.05685 8.709,395.54185 C7.519,393.57185 8.118,390.64085 7.95,388.46885 C8.041,386.88385 7.623,383.64485 7.323,381.28685 C7.374,378.44785 6.781,376.11985 6.664,373.98885 C6.182,372.01985 6.603,369.00485 5.805,366.56885 C4.448,364.20185 4.477,361.79885 4.584,359.02185 C3.986,356.21285 3.398,354.36785 2.832,351.33785 C2.159,349.53585 1.317,345.63885 0.386,343.51285 C1.051,340.58985 0.479,337.95785 0,335.33885 C0.232,333.21785 1.631,330.44885 0.253,327.56385 C1.216,325.40585 0.434,322.21385 0.97,320.12185 C1.838,317.43985 1.867,315.82785 1.978,312.94885 C3.645,311.41285 2.319,307.82085 3.104,305.98085 C3.206,302.04085 4.443,302.20985 4.175,299.15085 C3.577,298.20785 3.782,295.16285 5.016,292.39585 C5.23,289.97285 5.924,288.24885 5.456,285.65085 C4.443,283.77985 4.421,281.77685 5.322,278.85185 C5.431,275.99185 4.955,274.55185 4.438,271.93285 C4.307,271.30385 4.315,265.75785 4.7,263.87885 C4.538,262.19785 5.74,259.28185 5.693,256.38485 C6.628,254.45785 7.068,252.59285 7.284,249.34585 C9.128,247.10885 8.914,245.18585 9.344,242.65385 C10.99,241.70085 10.675,237.40785 11.743,236.20385 C12.558,233.60385 14.013,232.87285 14.351,229.88785 C16.456,228.18785 15.434,224.92085 17.036,223.60085 C18.309,222.58685 20.423,218.42585 19.671,217.23485 C19.969,216.15685 21.72,212.54885 22.122,210.68485 C23.24,209.09985 22.123,207.35085 24.262,203.84285 C25.833,202.91185 25.883,198.57085 27.551,197.86985 C29.384,196.88085 29.452,194.60585 30.818,191.79285 C30.72,191.44485 34.448,187.56385 34.083,185.63085 C34.277,182.67185 37.242,181.11785 37.366,179.40285 C38.821,178.74685 38.954,175.03785 40.687,173.12585 C43.304,172.62985 43.331,169.40085 44.064,166.81885 C45.067,163.87285 46.543,162.91185 47.517,160.49985 C49.14,157.81485 49.536,156.85085 51.067,154.18685 C50.883,152.85385 54.186,151.37685 54.731,147.89885 C56.735,145.93385 57.718,144.71485 58.531,141.65285 C60.005,139.90385 60.049,135.50385 61.35,134.68285 C61.893,133.98585 63.448,129.04485 64.433,128.14185 C64.888,126.77885 65.843,123.16385 67.841,121.99985 C68.09,120.65985 72.364,118.10385 71.635,116.22885 C73.143,113.82685 72.999,113.19585 75.875,110.79885 C77.888,109.79785 79.051,105.90485 80.623,105.68285 C82.346,103.35885 84.062,103.47385 85.941,100.85085 C88.57,98.60285 90.838,97.64685 91.888,96.27485 C93.752,95.24985 96.197,93.95885 98.526,91.92485 C101.605,92.07285 102.95,88.37785 105.916,87.77385 C105.589,86.26685 109.136,82.80985 111.591,82.47185 C112.928,82.55785 115.192,81.07885 117.078,77.52485 C117.971,75.46985 121.833,73.60885 122.468,72.88185 C126.551,71.00585 128.59,70.13885 127.851,68.49085 C130.877,68.93985 130.677,64.86585 133.318,64.30285 C136.49,65.15685 136.598,61.66485 138.959,60.26585 C140.778,60.60685 143.373,57.96585 144.866,56.32985 C149.548,53.96185 158.201,49.04585 165.088,44.61485 C170.014,40.50285 176.865,40.61885 180.227,35.75285 C183.841,30.71485 187.857,30.19385 195.774,27.97785 C200.489,25.83785 205.436,23.40785 213.386,21.01385 C219.633,16.78285 228.673,16.18285 234.719,14.58785" fill="#FFC4BC"></path>
            <path d="M286.542,445.497206 C287.813,444.403206 293.048,445.222206 294.419,442.437206 C296.791,441.445206 301.194,440.862206 303.508,440.874206 C308.024,439.614206 311.058,440.725206 312.365,440.163206 C314.802,438.802206 317.5,441.003206 319.746,439.319206 C321.463,440.211206 324.168,438.603206 327.391,439.237206 C329.122,439.923206 332.004,440.231206 335.895,439.171206 C338.142,438.398206 342.281,440.556206 344.619,439.481206 C347.625,439.207206 348.639,439.844206 352.341,440.594206 C355.623,442.987206 358.209,440.418206 360.361,441.065206 C362.755,441.621206 368.633,441.283206 368.66,442.769206 C371.75,443.850206 374.67,446.289206 376.629,445.261206 C379.323,445.166206 382.459,447.371206 383.238,448.759206 C382.764,450.534206 388.025,451.290206 389.262,451.525206 C391.127,452.539206 395.093,452.686206 395.881,455.178206 C399.104,456.995206 401.87,456.789206 403.307,459.428206 C406.424,460.203206 409.111,461.960206 411.347,463.253206 C414.738,465.708206 416.653,469.888206 417.763,469.384206 C418.817,470.949206 422.362,471.372206 423.481,474.174206 C425.732,475.875206 427.102,476.774206 429.174,478.290206 C433.423,480.747206 432.26,479.724206 435.579,483.514206 C436.088,485.902206 442.549,487.168206 441.898,489.085206 C443.792,491.646206 444.358,493.843206 448.019,495.108206 C449.84,497.119206 449.592,501.057206 452.829,501.919206 C453.632,502.343206 454.523,507.155206 454.844,508.980206 C454.317,510.772206 456.422,512.564206 458.596,516.233206 C460.006,518.612206 460.719,521.009206 462.839,523.938206 C466.37,527.487206 465.056,530.012206 466.375,531.697206 C466.57,535.291206 471.124,535.729206 468.052,539.089206 C469.707,541.216206 469.673,544.038206 470.36,546.507206 C471.323,548.545206 470.992,552.568206 471.604,555.196206 C471.769,560.908206 472.84,561.326206 472.576,563.859206 C474.391,567.160206 474.613,570.932206 473.864,571.451206 C475.29,574.057206 471.219,573.997206 474.19,579.178206 C474.939,581.927206 474.302,585.934206 474.309,587.024206 C474.988,589.533206 474.717,593.628206 473.679,595.083206 C472.542,598.877206 471.386,601.026206 472.059,603.332206 C471.664,608.749206 471.602,608.735206 471.313,611.486206 C472.717,615.375206 471.378,615.910206 469.389,619.339206 C468.636,622.334206 468.176,621.969206 466.592,626.769206 C466.261,630.148206 464.359,630.579206 463.229,633.659206 C459.288,632.810206 457.841,639.637206 458.245,641.594206 C455.811,645.451206 455.834,646.384206 454.374,648.182206 C453.557,648.898206 450.961,651.953206 451.115,654.433206 C450.268,654.616206 450.471,658.680206 447.966,661.358206 C444.682,663.390206 443.54,666.928206 443.081,668.492206 C439.983,672.352206 439.699,674.414206 437.616,674.862206 C435.598,676.568206 435.578,677.556206 432.049,680.479206 C429.304,682.871206 429.391,683.677206 426.862,685.356206 C424.434,687.712206 420.811,687.020206 419.34,690.942206 C420.258,693.496206 414.607,694.754206 413.479,696.182206 C407.354,698.842206 409.57,699.107206 407.721,700.814206 C405.864,701.671206 404.009,705.335206 400.507,704.578206 C397.141,705.372206 396.458,708.643206 394.014,708.959206 C391.652,710.091206 388.954,710.417206 386.143,713.127206 C381.493,714.647206 380.478,715.272206 377.701,716.364206 C375.25,717.575206 372.126,717.805206 369.494,717.952206 C366.952,718.148206 363.128,718.295206 360.792,718.853206 C357.11,721.617206 354.101,718.904206 352.801,720.787206 C350.289,719.953206 346.022,720.987206 344.855,722.848206 C341.233,724.357206 339.803,722.851206 336.29,724.130206 C332.845,724.508206 330.358,724.306206 327.354,723.594206 C323.187,723.933206 320.906,724.986206 318.425,723.913206 C316.024,724.359206 311.699,723.580206 310.28,724.021206 C307.814,723.739206 305.529,721.831206 303.694,722.855206 C299.575,723.461206 295.688,720.604206 294.493,721.447206 C291.314,720.542206 288.669,719.972206 287.119,719.370206 C284.717,719.082206 283.333,717.691206 280.308,716.994206 C278.574,715.959206 276.307,714.209206 272.797,714.690206 C268.387,713.100206 265.47,712.279206 261.576,709.383206 C257.914,707.665206 255.323,705.713206 250.958,703.586206 C249.337,702.837206 249.06,702.814206 247.952,701.945206 C246.588,700.119206 246.77,701.034206 244.688,700.196206 C243.025,698.865206 242.99,698.346206 242.638,697.829206 C242.952,697.006206 241.27,695.854206 240.328,695.685206 C238.71,695.715206 238.408,694.118206 237.825,693.709206 C237.059,693.423206 235.752,692.390206 235.194,691.847206 C235.058,691.435206 233.01,690.846206 232.503,690.042206 C232.32,688.758206 230.156,687.985206 229.817,688.239206 C228.206,687.975206 228.03,686.689206 227.204,686.382206 C226.164,685.917206 225.756,685.029206 224.728,684.416206 C224.043,683.833206 223.228,682.756206 222.457,682.286206 C221.562,681.768206 221.158,680.864206 220.457,679.935206 C219.462,679.119206 218.083,678.237206 217.748,677.143206 C216.769,676.020206 216.379,675.273206 215.69,674.438206 C215.38,673.400206 214.641,672.554206 214.104,671.808206 C213.566,670.989206 213.086,669.813206 212.811,669.240206 C212.492,668.249206 212.213,667.707206 211.632,666.723206 C211.128,665.611206 210.835,664.912206 210.389,664.244206 C209.75,663.542206 209.68,662.854206 208.902,661.791206 C208.375,660.877206 207.731,660.524206 206.993,659.352206 C206.183,658.547206 205.712,657.692206 204.482,656.915206 C203.651,656.230206 202.795,655.383206 201.192,654.469206 C200.042,653.834206 199.162,652.978206 198.645,651.869206 C197.762,650.893206 197.173,650.146206 196.625,649.020206 C196.041,647.946206 195.694,647.008206 195.037,645.983206 C194.465,644.939206 194.125,643.880206 193.786,642.816206 C193.705,641.859206 193.292,640.757206 192.774,639.577206 C192.355,638.828206 192.112,637.350206 191.909,636.325206 C191.831,635.190206 191.608,634.575206 191.092,633.119206 C190.793,632.087206 190.523,630.880206 190.229,630.017206 C190.113,629.234206 189.717,627.971206 189.225,627.078206 C188.643,626.131206 188.671,625.234206 187.983,624.359206 C187.643,623.524206 187.515,622.387206 187.026,621.337206 C187.143,620.345206 186.384,619.688206 186.35,618.275206 C185.89,616.996206 185.998,616.291206 185.879,615.171206 C185.349,614.294206 185.616,612.988206 185.541,612.020206 C185.582,611.314206 185.395,609.872206 185.262,608.822206 C185.284,607.558206 185.02,606.520206 184.968,605.572206 C184.753,604.694206 184.941,603.351206 184.586,602.267206 C183.981,601.212206 183.994,600.142206 184.042,598.905206 C183.775,597.654206 183.514,596.832206 183.261,595.483206 C182.962,594.680206 182.586,592.944206 182.172,591.997206 C182.468,590.696206 182.213,589.523206 182,588.357206 C182.103,587.412206 182.727,586.179206 182.113,584.894206 C182.542,583.933206 182.193,582.511206 182.432,581.580206 C182.818,580.385206 182.832,579.667206 182.881,578.385206 C183.624,577.701206 183.033,576.101206 183.382,575.281206 C183.428,573.526206 183.979,573.601206 183.859,572.239206 C183.593,571.819206 183.685,570.463206 184.234,569.230206 C184.33,568.151206 184.639,567.383206 184.43,566.226206 C183.979,565.393206 183.969,564.501206 184.37,563.198206 C184.419,561.924206 184.207,561.283206 183.977,560.117206 C183.918,559.836206 183.922,557.366206 184.094,556.529206 C184.021,555.781206 184.557,554.482206 184.536,553.192206 C184.952,552.333206 185.148,551.502206 185.244,550.057206 C186.065,549.060206 185.971,548.204206 186.162,547.076206 C186.895,546.651206 186.754,544.739206 187.23,544.203206 C187.593,543.045206 188.241,542.720206 188.392,541.390206 C189.329,540.633206 188.874,539.178206 189.588,538.590206 C190.155,538.138206 191.096,536.285206 190.761,535.755206 C190.894,535.274206 191.674,533.667206 191.854,532.837206 C192.351,532.131206 191.854,531.352206 192.806,529.790206 C193.506,529.375206 193.528,527.442206 194.271,527.129206 C195.087,526.689206 195.118,525.676206 195.726,524.423206 C195.683,524.268206 197.343,522.539206 197.181,521.679206 C197.267,520.361206 198.587,519.668206 198.643,518.904206 C199.291,518.612206 199.35,516.960206 200.122,516.109206 C201.288,515.888206 201.299,514.450206 201.626,513.300206 C202.072,511.987206 202.73,511.560206 203.164,510.485206 C203.887,509.289206 204.063,508.860206 204.745,507.673206 C204.663,507.080206 206.134,506.422206 206.377,504.872206 C207.27,503.997206 207.707,503.455206 208.069,502.091206 C208.726,501.312206 208.745,499.352206 209.325,498.986206 C209.567,498.676206 210.259,496.476206 210.698,496.073206 C210.901,495.466206 211.326,493.856206 212.216,493.337206 C212.327,492.741206 214.23,491.602206 213.905,490.767206 C214.577,489.697206 214.513,489.416206 215.794,488.349206 C216.691,487.903206 217.209,486.169206 217.909,486.070206 C218.677,485.035206 219.44,485.086206 220.277,483.918206 C221.449,482.917206 222.459,482.491206 222.926,481.880206 C223.756,481.423206 224.845,480.848206 225.883,479.942206 C227.254,480.008206 227.854,478.362206 229.174,478.093206 C229.028,477.422206 230.608,475.882206 231.702,475.732206 C232.297,475.770206 233.306,475.111206 234.146,473.529206 C234.543,472.614206 236.264,471.785206 236.546,471.461206 C238.365,470.625206 239.273,470.239206 238.944,469.505206 C240.292,469.705206 240.203,467.891206 241.379,467.640206 C242.792,468.020206 242.84,466.465206 243.892,465.842206 C244.701,465.994206 245.857,464.817206 246.522,464.088206 C248.607,463.034206 252.462,460.845206 255.529,458.871206 C257.723,457.039206 260.774,457.091206 262.272,454.924206 C263.881,452.680206 265.67,452.448206 269.196,451.460206 C271.296,450.508206 273.5,449.426206 277.041,448.359206 C279.823,446.475206 283.849,446.207206 286.542,445.497206" fill="#DDE4F2"></path>
            <path d="M471.697874,607.870966 C467.518858,609.409578 462.999864,610.986113 458.3437,615.4748 C447.9037,618.8878 445.6237,620.2898 439.3887,622.7428 C433.8857,625.4608 426.8727,625.9768 420.9627,626.3068 C415.2557,626.7478 406.6697,627.0768 401.4247,628.3308 C393.1577,634.5348 386.4037,628.4448 383.4837,632.6718 C377.8437,630.7978 368.2637,633.1208 365.6447,637.2988 C357.5107,640.6888 354.3017,637.3068 346.4127,640.1778 C338.6787,641.0268 333.0947,640.5728 326.3487,638.9738 C316.9937,639.7358 311.8727,642.0998 306.3017,639.6898 C300.9127,640.6918 291.2007,638.9428 288.0147,639.9338 C282.4787,639.2988 277.3477,635.0158 273.2297,637.3168 C263.9807,638.6768 255.2537,632.2628 252.5707,634.1528 C245.4327,632.1238 239.4957,630.8418 236.0137,629.4898 C230.6207,628.8458 227.5127,625.7218 220.7217,624.1558 C216.8277,621.8338 211.7387,617.9028 203.8597,618.9838 C196.699241,616.402477 191.291781,614.724056 185.541164,611.534082 C185.511431,610.769111 185.369181,609.668371 185.262,608.822206 C185.284,607.558206 185.02,606.520206 184.968,605.572206 C184.753,604.694206 184.941,603.351206 184.586,602.267206 C183.981,601.212206 183.994,600.142206 184.042,598.905206 C183.775,597.654206 183.514,596.832206 183.261,595.483206 C182.962,594.680206 182.586,592.944206 182.172,591.997206 C182.468,590.696206 182.213,589.523206 182,588.357206 C182.103,587.412206 182.727,586.179206 182.113,584.894206 C182.542,583.933206 182.193,582.511206 182.432,581.580206 C182.818,580.385206 182.832,579.667206 182.881,578.385206 C183.624,577.701206 183.033,576.101206 183.382,575.281206 C183.428,573.526206 183.979,573.601206 183.859,572.239206 C183.593,571.819206 183.685,570.463206 184.234,569.230206 C184.33,568.151206 184.639,567.383206 184.43,566.226206 C183.979,565.393206 183.969,564.501206 184.37,563.198206 C184.419,561.924206 184.207,561.283206 183.977,560.117206 C183.918,559.836206 183.922,557.366206 184.094,556.529206 C184.021,555.781206 184.557,554.482206 184.536,553.192206 C184.952,552.333206 185.148,551.502206 185.244,550.057206 C186.065,549.060206 185.971,548.204206 186.162,547.076206 C186.895,546.651206 186.754,544.739206 187.23,544.203206 C187.593,543.045206 188.241,542.720206 188.392,541.390206 C189.329,540.633206 188.874,539.178206 189.588,538.590206 C190.155,538.138206 191.096,536.285206 190.761,535.755206 C190.894,535.274206 191.674,533.667206 191.854,532.837206 C192.351,532.131206 191.854,531.352206 192.806,529.790206 C193.506,529.375206 193.528,527.442206 194.271,527.129206 C195.087,526.689206 195.118,525.676206 195.726,524.423206 C195.683,524.268206 197.343,522.539206 197.181,521.679206 C197.267,520.361206 198.587,519.668206 198.643,518.904206 C199.291,518.612206 199.35,516.960206 200.122,516.109206 C201.288,515.888206 201.299,514.450206 201.626,513.300206 C202.072,511.987206 202.73,511.560206 203.164,510.485206 C203.887,509.289206 204.063,508.860206 204.745,507.673206 C204.663,507.080206 206.134,506.422206 206.377,504.872206 C207.27,503.997206 207.707,503.455206 208.069,502.091206 C208.726,501.312206 208.745,499.352206 209.325,498.986206 C209.567,498.676206 210.259,496.476206 210.698,496.073206 C210.901,495.466206 211.326,493.856206 212.216,493.337206 C212.327,492.741206 214.23,491.602206 213.905,490.767206 C214.577,489.697206 214.513,489.416206 215.794,488.349206 C216.691,487.903206 217.209,486.169206 217.909,486.070206 C218.677,485.035206 219.44,485.086206 220.277,483.918206 C221.449,482.917206 222.459,482.491206 222.926,481.880206 C223.756,481.423206 224.845,480.848206 225.883,479.942206 C227.254,480.008206 227.854,478.362206 229.174,478.093206 C229.028,477.422206 230.608,475.882206 231.702,475.732206 C232.297,475.770206 233.306,475.111206 234.146,473.529206 C234.543,472.614206 236.264,471.785206 236.546,471.461206 C238.365,470.625206 239.273,470.239206 238.944,469.505206 C240.292,469.705206 240.203,467.891206 241.379,467.640206 C242.792,468.020206 242.84,466.465206 243.892,465.842206 C244.701,465.994206 245.857,464.817206 246.522,464.088206 C248.607,463.034206 252.462,460.845206 255.529,458.871206 C257.723,457.039206 260.774,457.091206 262.272,454.924206 C263.881,452.680206 265.67,452.448206 269.196,451.460206 C271.296,450.508206 273.5,449.426206 277.041,448.359206 C279.823,446.475206 283.849,446.207206 286.542,445.497206 C287.813,444.403206 293.048,445.222206 294.419,442.437206 C296.791,441.445206 301.194,440.862206 303.508,440.874206 C308.024,439.614206 311.058,440.725206 312.365,440.163206 C314.802,438.802206 317.5,441.003206 319.746,439.319206 C321.463,440.211206 324.168,438.603206 327.391,439.237206 C329.122,439.923206 332.004,440.231206 335.895,439.171206 C338.142,438.398206 342.281,440.556206 344.619,439.481206 C347.625,439.207206 348.639,439.844206 352.341,440.594206 C355.623,442.987206 358.209,440.418206 360.361,441.065206 C362.755,441.621206 368.633,441.283206 368.66,442.769206 C371.75,443.850206 374.67,446.289206 376.629,445.261206 C379.323,445.166206 382.459,447.371206 383.238,448.759206 C382.764,450.534206 388.025,451.290206 389.262,451.525206 C391.127,452.539206 395.093,452.686206 395.881,455.178206 C399.104,456.995206 401.87,456.789206 403.307,459.428206 C406.424,460.203206 409.111,461.960206 411.347,463.253206 C414.738,465.708206 416.653,469.888206 417.763,469.384206 C418.817,470.949206 422.362,471.372206 423.481,474.174206 C425.732,475.875206 427.102,476.774206 429.174,478.290206 C433.423,480.747206 432.26,479.724206 435.579,483.514206 C436.088,485.902206 442.549,487.168206 441.898,489.085206 C443.792,491.646206 444.358,493.843206 448.019,495.108206 C449.84,497.119206 449.592,501.057206 452.829,501.919206 C453.632,502.343206 454.523,507.155206 454.844,508.980206 C454.317,510.772206 456.422,512.564206 458.596,516.233206 C460.006,518.612206 460.719,521.009206 462.839,523.938206 C466.37,527.487206 465.056,530.012206 466.375,531.697206 C466.57,535.291206 471.124,535.729206 468.052,539.089206 C469.707,541.216206 469.673,544.038206 470.36,546.507206 C471.323,548.545206 470.992,552.568206 471.604,555.196206 C471.769,560.908206 472.84,561.326206 472.576,563.859206 C474.391,567.160206 474.613,570.932206 473.864,571.451206 C475.29,574.057206 471.219,573.997206 474.19,579.178206 C474.939,581.927206 474.302,585.934206 474.309,587.024206 C474.988,589.533206 474.717,593.628206 473.679,595.083206 C472.542,598.877206 471.386,601.026206 472.059,603.332206 C471.89423,605.591845 471.787404,606.906465 471.697874,607.870966 Z" fill="#E10079"></path>
        </g>
    </g>
</svg>
