<svg width="434" height="189" xmlns="http://www.w3.org/2000/svg"><g fill="none" fill-rule="evenodd"><path d="M431.06 163.658a12.191 12.191 0 0 1-1.511 1.77c-8.315 8.047-16.695 15.632-27.768 19.997-14.557 5.738-30.488 3.502-40.587-5.696-9.844-8.965-13.77-23.88-10.768-40.921.75-4.265 1.788-8.322 2.792-12.245 1.552-6.077 3.02-11.815 3.091-17.168.084-6.315-2.87-12.443-6.454-13.38-3.352-.877-8.525 2.522-11.31 7.408-3.047 5.367-4.393 12.265-5.819 19.567a329.126 329.126 0 0 1-1.213 6.019c-2.145 10.01-6.35 24.368-18.068 33.45-9.225 7.154-21.96 9.105-34.066 5.218-12.105-3.887-21.325-12.887-24.66-24.075-3.741-12.546-.442-24.413 2.47-34.884.69-2.48 1.342-4.823 1.883-7.1 2.078-8.754.841-17.104-2.817-19.01-3.649-1.901-10.855 2.56-14.302 8.832-2.613 4.773-4.252 10.51-5.989 16.583-1.644 5.747-3.342 11.69-6.05 17.613-7.398 16.208-24.555 30-43.021 25.013-13.022-3.514-22.782-15.898-24.863-31.55-1.19-8.95.066-17.606 1.174-25.244.291-2.008.584-4.014.829-6.017 1.136-9.31.482-15.597-2.062-19.786-1.77-2.918-5.353-4.976-9.582-5.504-4.227-.527-8.206.586-10.64 2.98-4.084 4.014-5.986 11.133-8 18.67-.805 3.017-1.638 6.137-2.657 9.26-5.393 16.543-19.8 32.857-38.677 29.584-9.523-1.651-17.307-8.015-21.919-17.916-3.273-7.028-4.894-15.692-4.562-24.395.096-2.519.272-5.03.443-7.457.608-8.643 1.182-16.806-2.127-21.783-3.299-4.962-12.094-6.729-18.821-3.782-7.29 3.194-13.395 10.828-16.744 20.947-3.452 10.422-3.937 22.407-4.405 33.996-.273 6.701-5.924 11.914-12.627 11.643C4.952 114.024-.261 108.37.01 101.67c.512-12.65 1.093-26.986 5.617-40.65 5.51-16.646 16.468-29.606 30.058-35.558 17.556-7.69 38.988-2.165 48.792 12.581 7.893 11.872 6.915 25.77 6.129 36.936-.164 2.34-.32 4.547-.402 6.674-.323 8.503 2.709 16.824 6.362 17.458 3.535.613 8.985-5.67 11.434-13.184.815-2.497 1.529-5.169 2.284-7.996 2.638-9.871 5.627-21.058 14.438-29.725 7.796-7.663 18.978-11.22 30.677-9.76 11.7 1.46 21.661 7.656 27.334 17.001 7.257 11.953 6.563 25.892 5.409 35.336-.266 2.186-.583 4.373-.9 6.562-.967 6.659-1.882 12.95-1.134 18.552.737 5.549 3.796 10.407 7.115 11.303 4.866 1.314 11.596-5.09 14.6-11.657 1.946-4.262 3.326-9.089 4.787-14.197 2.028-7.088 4.122-14.416 8.036-21.568 8.832-16.127 29.247-27.873 46.833-18.71 14.155 7.376 20.132 25.496 15.225 46.16-.647 2.728-1.392 5.408-2.113 7.997-2.23 8.022-4.338 15.597-2.596 21.436 1.03 3.452 4.404 6.475 8.81 7.89 4.404 1.414 8.91.922 11.757-1.287 4.134-3.205 7.06-9.354 9.201-19.347.397-1.848.76-3.713 1.124-5.58 1.655-8.48 3.531-18.093 8.536-26.905 9.838-17.353 26.905-21.97 38.58-18.915 12.041 3.15 24.874 16.136 24.593 37.202-.11 8.243-2.01 15.675-3.848 22.86-.93 3.644-1.81 7.086-2.402 10.44-1.16 6.599-.93 14.988 3.202 18.752 3.203 2.917 9.505 3.352 15.325 1.059 6.92-2.729 13.055-8.341 19.785-14.855 4.82-4.665 12.507-4.538 17.173.281 4.112 4.25 4.5 10.732 1.23 15.402z" fill="#6058C5"/><path d="M431.06 141.658a12.191 12.191 0 0 1-1.511 1.77c-8.315 8.047-16.695 15.632-27.768 19.997-14.557 5.738-30.488 3.502-40.587-5.696-9.844-8.965-13.77-23.88-10.768-40.921.75-4.265 1.788-8.322 2.792-12.245 1.552-6.077 3.02-11.815 3.091-17.168.084-6.315-2.87-12.443-6.454-13.38-3.352-.877-8.525 2.522-11.31 7.408-3.047 5.367-4.393 12.265-5.819 19.567a329.126 329.126 0 0 1-1.213 6.019c-2.145 10.01-6.35 24.368-18.068 33.45-9.225 7.154-21.96 9.105-34.066 5.218-12.105-3.887-21.325-12.887-24.66-24.075-3.741-12.546-.442-24.413 2.47-34.884.69-2.48 1.342-4.823 1.883-7.1 2.078-8.754.841-17.104-2.817-19.01-3.649-1.901-10.855 2.56-14.302 8.832-2.613 4.773-4.252 10.51-5.989 16.583-1.644 5.747-3.342 11.69-6.05 17.613-7.398 16.208-24.555 30-43.021 25.013-13.022-3.514-22.782-15.898-24.863-31.55-1.19-8.95.066-17.606 1.174-25.244.291-2.008.584-4.014.829-6.017 1.136-9.31.482-15.597-2.062-19.786-1.77-2.918-5.353-4.976-9.582-5.504-4.227-.527-8.206.586-10.64 2.98-4.084 4.014-5.986 11.133-8 18.67-.805 3.017-1.638 6.137-2.657 9.26-5.393 16.543-19.8 32.857-38.677 29.584-9.523-1.651-17.307-8.015-21.919-17.916-3.273-7.028-4.894-15.692-4.562-24.395.096-2.519.272-5.03.443-7.457.608-8.643 1.182-16.806-2.127-21.783-3.299-4.962-12.094-6.729-18.821-3.782-7.29 3.194-13.395 10.828-16.744 20.947-3.452 10.422-3.937 22.407-4.405 33.996-.273 6.701-5.924 11.914-12.627 11.643C4.952 92.024-.261 86.37.01 79.67c.512-12.65 1.093-26.986 5.617-40.65 5.51-16.646 16.468-29.606 30.058-35.558 17.556-7.69 38.988-2.165 48.792 12.581 7.893 11.872 6.915 25.77 6.129 36.936-.164 2.34-.32 4.547-.402 6.674-.323 8.503 2.709 16.824 6.362 17.458 3.535.613 8.985-5.67 11.434-13.184.815-2.497 1.529-5.169 2.284-7.996 2.638-9.871 5.627-21.058 14.438-29.725 7.796-7.663 18.978-11.22 30.677-9.76 11.7 1.46 21.661 7.656 27.334 17.001 7.257 11.953 6.563 25.892 5.409 35.336-.266 2.186-.583 4.373-.9 6.562-.967 6.659-1.882 12.95-1.134 18.552.737 5.549 3.796 10.407 7.115 11.303 4.866 1.314 11.596-5.09 14.6-11.657 1.946-4.262 3.326-9.089 4.787-14.197 2.028-7.088 4.122-14.416 8.036-21.568 8.832-16.127 29.247-27.873 46.833-18.71 14.155 7.376 20.132 25.496 15.225 46.16-.647 2.728-1.392 5.408-2.113 7.997-2.23 8.022-4.338 15.597-2.596 21.436 1.03 3.452 4.404 6.475 8.81 7.89 4.404 1.414 8.91.922 11.757-1.287 4.134-3.205 7.06-9.354 9.201-19.347.397-1.848.76-3.713 1.124-5.58 1.655-8.48 3.531-18.093 8.536-26.905 9.838-17.353 26.905-21.97 38.58-18.915 12.041 3.15 24.874 16.136 24.593 37.202-.11 8.243-2.01 15.675-3.848 22.86-.93 3.644-1.81 7.086-2.402 10.44-1.16 6.599-.93 14.988 3.202 18.752 3.203 2.917 9.505 3.352 15.325 1.059 6.92-2.729 13.055-8.341 19.785-14.855 4.82-4.665 12.507-4.538 17.173.281 4.112 4.25 4.5 10.732 1.23 15.402z" fill="#FFC4BC"/></g></svg>