<svg width="1206" height="3891" xmlns="http://www.w3.org/2000/svg"><g fill="none" fill-rule="evenodd"><path d="M305.63 622.732c-1.151 4.792-3.625 6.353-4.648 9.698-4.935 14.228 3.217 32.152 7.283 48.622 3.368 5.16 2.443 6.144 4.343 9.133-2.24 3.772 6.233 6.778 10.602 9.235 4.843 2.7 2.373 1.362 3.612 1.913 9.933 8.39 22.628 4.072 34.201 3.373-1.7-5.034 8.075-1.243 12.155-2.594 2.64 1.24 2.818-1.02 4.232-1.746-7.718-1.96 3.856-2.017 5.765-3.183-.574-.488 5.591-3.978 8.014-6.46 9.749-14.55 15.469-25.136 15.395-39.421 1.62-15.964-12.04-36.14-30.47-44.347-4.432-.907-7.533-3.038-11.462-3.96-5.618-6.53-7.927-1.581-11.85-1.827-9.56 1.897-23.863 1.885-34.309 8.635-1.907-3.011-5.733 3.932-8.064 6.593 2.136 2.737-3.612 3.879-4.799 6.336z" fill="#FFC4BC"/><path d="M0 115.507c2.504 3.883 5.331 7.708 8.562 11.232 9.846 8.304 15.023 13.916 25.763 26.479 8.193 8.267 18.595 16.354 30.885 20.185 11.443 7.376 23.444 9.84 35.013 12.866 10.47.847 27.305 5.656 38.142 4.515 10.932 3.06 26.233-3.345 38.14-4.515 10.964 2.962 24.896-6.428 35.012-12.866 12.018-8.18 16.5-12.666 30.888-20.185 9.054-11.224 20.453-18.708 25.76-26.48 8.1-6.998 16.431-20.426 19.637-31.75 5.517-9.686 9.474-26.034 12.516-35.99 1.245-9.727 7.386-27.006 4.39-39.208.299-7.768.07-14.072-.567-19.79h146.82c4.606 20.178-5.377 48.38-7.424 64.329-5.037 16.495-11.592 43.572-20.732 59.623-5.31 18.756-19.11 40.999-32.53 52.593-8.793 12.874-27.673 25.27-42.673 43.868-23.834 12.452-31.26 19.885-51.164 33.438-16.761 10.663-39.84 26.216-58.004 21.31-19.723 1.942-45.074 12.549-63.182 7.48-17.952 1.894-45.838-6.074-63.185-7.48-19.166-5.01-39.044-9.092-58.001-21.31-20.359-6.348-37.589-19.745-51.164-33.438-.995-1.164-1.962-2.292-2.902-3.387V115.507zM0 2443.173c4.95 2.15 10.57 4.23 16.366 5.67 10.626 3.291 29.34 8.75 35.56 10.123 7.487 5.088 11.943 2.952 21.73 4.654 2.608-.147 16.324-8.835 24.05 3.933 11.268 2.02 19.677-3.85 26.795 3.065 3.751.03 12.992 7.748 28.288 6.37 8.453 10.152 16.534 8.551 27.159 9.47 7.312 5.12 15.9 8.61 23.41 12.358 9.208 9.995 27.224 11.03 30.83 13.722 7.597 3.45 15.757 9.833 21.772 11.74 4.672 5.84 11.257 3.553 22.102 6.402 10.448-3.649 17.707 6.75 31.829-2.285 9.258 3.539 20.46.55 31.277 3.872 5.385 6.129 15.697 4.899 29.098 5.153 9.18.32 18.824 3.371 24.88 5.949 6.007 8.889 7.906 1.279 18.63 6.262 9.248 5.508 12.886 11.236 10.367 11.527 9.462.55 18.909-.931 25.616 3.034 3.856 7.153 11.69 6.77 11.937 19.98-.27 8.416-.438 16.713-1.575 29.582-5.193 11.283-5.78 20.536-14.921 31.855 3.944-1.405-10.036 5.592-26.395 26.02 2.808 4.763-7.534.543-13.464 13.718-11.382 8.28-10.771 7.539-14.843 14.816-2.18 4.9-8.343 8.852-15.442 14.581-3.844 6.908-11.116 9.27-15.355 13.43-.991 7.55-8.293 11.938-10.982 20.956-7.806 7.627-11.46 13.18-18.701 21.664-4.115 5.077-13.291 18.643-23.59 19.472-4.573 8.94-13.334 12.085-25.649 14.378-9.664 12.262-10.869 21.818-17.59 22.959-4.762 8.92-12.724 16.728-20.737 18.456-4.902 10.174-12 8.623-21.536 16.965-5.658 2.708-11.48 10.17-19.998 18.485-9.144 11.108-11.701 14.545-18 19.496-1.506 3.248-10.956 11.7-16.012 16.534-13.787 9.371-18.651 13.597-25.858 24.858-16.946 10.927-20.198 22.492-25.627 21.676-6.143 2.315-16.62 5.119-24.486 5.754-10.559 1.126-19.364-.964-26.85-4.42-4.014-4.922-12.113-5.9-22.098-11.084-.912-5.616-10.324-13.05-10.232-14.241-2.204 10.12-6.119-5.547-6.389-28.152-4.728-10.583-7.495-21.44-7.443-38.486 5.833-3.479-6.069-11.187-6.38-23.273 2.079-11.46-7.546-13.712-8.543-25.415 3.305-7.664 10.343-17.188 2.133-22.412-2.808-1.115-4.065-3.924-5.133-7.585v-351.586z" fill="#F3ECDA"/><path d="M1206 1851.557a164.096 164.096 0 0 1-8.272-5.032c-8.867-5.754-16.994-11.957-24.852-17.954-12.175-9.284-23.67-18.057-35.63-23.322-14.11-6.212-30.698-5.418-36.223 1.74-5.167 6.697-2.463 21.564 5.86 32.483 9.154 11.965 23.37 21.568 38.419 31.737 4.15 2.804 8.295 5.605 12.367 8.469 15.523 10.906 35.548 26.875 48.331 49.246v89.032a100.416 100.416 0 0 1-11.167 15.756c-20.281 23.493-49.298 35.625-77.62 32.45-31.762-3.562-55.281-22.296-76.032-38.827-4.916-3.917-9.559-7.616-14.16-11.002-17.687-13.02-37.63-18.206-45.403-11.803-7.752 6.386-4.599 26.834 6.203 40.563 8.235 10.425 19.562 19.578 31.553 29.274 11.345 9.177 23.082 18.662 33.807 30.394 29.365 32.085 43.991 83.794 15.172 120.533-20.317 25.91-57.455 36.028-94.61 25.776-21.247-5.86-39.502-16.942-55.608-26.717-4.234-2.57-8.462-5.14-12.73-7.601-19.835-11.434-34.588-15.96-46.427-14.24-8.247 1.196-16.287 7.283-21.508 16.282-5.216 8.996-6.51 18.998-3.452 26.75 5.125 13.008 19.307 24.072 34.324 35.786 6.009 4.687 12.226 9.535 18.273 14.804 32.028 27.897 54.946 75.83 29.585 115.128-12.794 19.824-34.518 31.246-61.166 32.165-18.915.65-39.93-3.969-59.17-13.017-5.568-2.617-11.042-5.408-16.333-8.108-18.842-9.61-36.637-18.686-50.978-15.997-14.295 2.679-26.655 20.757-26.45 38.685.224 19.426 11.555 40.428 31.098 57.606 20.127 17.697 46.595 30.219 72.19 42.324 14.8 7.006 21.122 24.677 14.12 39.48-7.001 14.8-24.676 21.121-39.476 14.12-27.936-13.216-59.596-28.195-85.987-51.396-32.148-28.26-50.82-65.244-51.232-101.458-.535-46.787 32.325-89.676 74.812-97.64 34.206-6.413 64.502 9.041 88.845 21.458 5.1 2.6 9.91 5.057 14.613 7.268 18.8 8.836 40.39 9.961 45.297 2.357 4.75-7.359-4.17-25.599-18.718-38.27-4.835-4.211-10.156-8.364-15.79-12.758-19.666-15.343-41.95-32.73-53.023-60.798-9.784-24.828-7.111-53.346 7.33-78.24 14.44-24.899 37.865-41.375 64.276-45.21 33.78-4.905 64.44 9.951 84.561 21.552 4.659 2.683 9.27 5.482 13.887 8.282 14.041 8.523 27.304 16.579 40.606 20.243 13.173 3.638 27.007 1.397 32.187-5.206 7.595-9.682-.376-30.913-12.268-43.926-7.722-8.441-17.252-16.145-27.337-24.301-13.993-11.316-28.461-23.013-40.8-38.63-27.816-35.228-34.737-92.308 2.626-123.084 30.078-24.772 76.495-20.92 118.25 9.818 5.512 4.054 10.824 8.286 15.955 12.375 15.898 12.664 30.91 24.625 45.693 26.28 8.74.98 18.75-3.721 26.133-12.27 7.376-8.55 10.569-19.144 8.321-27.647-3.259-12.349-14.286-24.787-34.698-39.132-3.774-2.655-7.618-5.248-11.465-7.847-17.478-11.808-37.29-25.192-52.319-44.845-29.61-38.658-23.706-81.413-5.704-104.734 18.565-24.053 59.986-40.503 107.055-19.778 17.211 7.578 31.338 17.992 44.859 28.286v72.288z" fill="#DDE4F2"/><path d="M0 1367.094c28.362-2.651 55.331-4.297 78.152-7.567 24.794 2.138 40.506-25.065 74.641 12.518 24.672 5.922 43.84 18.44 71.707 24.376 114.887 49.47 196.924 164.892 183.138 253.8-2.691 79.852-41.253 137.9-106.206 217.315-15.886 13.405-55.698 31.704-52.174 34.545-12.344 6.147-85.648 4.206-37.207 16.668-9.115 3.784-10.748 16.373-27.19 8.932-26.13 6.751-87.194-16.344-77.54 12.125-34.997.784-71.788 6.113-107.321 6.193v-578.905z" fill="#FFC4BC"/><path d="M852.828 1091.208c2.659.312 3.864-.575 5.756-.461 8.14.212 16.073 7.246 23.916 12.097 2.12 2.507 2.776 2.246 4.012 3.674 2.309-.382 2.491 4.145 3.054 6.64.61 2.763.32 1.36.403 2.043 2.726 6.174-1.554 11.384-3.784 16.711-2.323-1.698-1.946 3.582-3.302 5.263.213 1.464-.982 1.146-1.585 1.682.235-3.985-1.664 1.457-2.574 2.148-.16-.357-2.956 1.925-4.629 2.623-9.084 1.999-15.471 2.806-22.831.225-8.501-2.082-16.706-12.113-17.965-22.257.248-2.25-.351-4.09-.193-6.105-2.461-3.81.465-4.015.972-5.907 2.524-4.166 4.828-10.904 9.999-14.622-1.246-1.435 2.956-2 4.705-2.623 1.068 1.494 2.586-1.01 4.046-1.131zM1206 3278.511v213l-25.723-11.295c-8.365-3.672-12.616-11.497-24.657-10.826-5.346-6.752-4.444-10.067-14.907-14.494-6.8-8.853-8.603-5.59-15.543-13.661-14.176-12.77-30.259-21.46-29.568-16.94-11.54-6.845-14.485-6.998-21.93-13.372-10.208-4.377-17.416-13.907-21.913-13.4-7.644-1.783-12.455-8.261-18.988-11.11-2.627-1.76-22.433-7.537-19.07-10.974-11.099-16.67-19.618-9.164-21.217-15.922-12.337-5.38-6.844-10.931-20.713-14.712-1.816.653-7.926-12.227-20.877-15.323-4.05-12.838-21.556-9.718-21.042-15.326-4.445-9.23-2.263-6.342-20.3-15.21-6.53-5.966-16.025-7.507-21.53-15.559-14.86-13.434-22.034-19.694-25.646-22.755-5.362-2.987-13.696-16.576-14.316-31.327.96-.605 10.446-3.995-5.65-4.442 8.475-5.267 12.182-20.02 21.184-25.416.32-10.657 20.157-16.79 21.358-26.355 10.203-.958 15.106-3.47 23.754-24.775 9.677-2.979 3.814 3.43 9.367-7.81-1.21-9.325 11.871-12.153 16.064-12.427 14.889-7.44 9.1-6.71 15.884-4.234-.897-.705 13.758-2.388 16.165 1.755 1.646 1.427 20.68-1.233 17.891 9.59 6.211 6.85 10.713 7.447 24.715 18.436 1.264 11.025 21.698 16.22 24.766 18.356 8.443 3.649 13.394 2.672 15.131 10.766 11.205.11 10.216 5.054 15.626 9.937-2.537 2.216 6.235 10.617 15.081 10.338 6.034.172 15.747 13.733 16.38 9.247 10.199-4.29 9.993-1.054 27.714 9.107-.785 10.405 5.712 5.72.03 4.669-1.114 10.756 11.702 11.207 18.904 16.867 4.508 13.09 23.674 15.785 21.265 14.443 8.158 2.67 11.794 3.408 21.793 12.737 13.707 7.155 11.233 6.382 20.518 8.417z" fill="#DDE4F2"/><path d="M1205 3211.908v15.984a12.061 12.061 0 0 1-1.626-3.517c-1.06-3.718-3.106-5.998-6.964-6.858-2.406-.536-4.267-2.267-3.105-4.859.654-1.457 2.645-2.315 3.192-2.759 3.366-.046 6.279.646 8.503 2.01zm0-27.366c-.357-.948-.791-1.86-1.339-2.695-1.235-1.88-3.4-2.781-4.64-4.727-1.062-1.667-1.302-4.029-.023-5.534 1.72-2.025 3.88-1.608 6.002-.046v13.002zm0-76.707c-2.872-1.984-4.978-4.762-5.973-8.485-.922-3.447-1.65-7.302-2.914-10.859 1.374-.003 2.777-.002 4.248.012 1.367 1.408 2.93 2.541 4.639 3.447v15.885zm0 47.573c-1.041-.627-1.655-1.72-1.462-3.536.147-1.374.698-2.168 1.462-2.635v6.17zm0 235.909v16.518c-2.872-1.984-4.978-4.762-5.973-8.485-1.609-6.015-2.618-13.281-6.938-18.015-1.15-1.262-2.31-2.745-2.253-4.453.046-1.325.913-2.588 2.134-3.107 2.101-.893 5.716.9 6.77 2.827 2.347 4.297 4.677 8.768 5.926 13.459l.334 1.256zm-44.716-5.569c-.16-2.452-.179-4.913-.685-7.328-.467-2.231-1.644-3.252-2.654-5.218-.575-1.121-.865-2.442-.527-3.655a3.879 3.879 0 0 1 2.64-2.643c4.753-1.329 7.117 6.592 8.275 9.802.647 1.792.452 3.905.533 5.879.21 5.135 3.272 6.801 7.21 9.235 1.092.674 2.128 1.687 2.547 2.851.187.516.251 1.063.144 1.623-.298 1.571-1.902 2.628-3.492 2.802-6.868.753-13.575-6.997-13.99-13.348zm-33.068-233.462c-1.54-2.453-2.677-5.285.203-7.22 3.045-2.044 4.686.325 6.35 2.839 3.24 4.891 8.008 7.968 13.503 9.901 2.331.821 4.675 1.645 7.072 2.223 2.63.635 4.266 2.403 3.333 4.71-.624 1.54-3.075 2.34-3.749 2.808-10.497-1.709-18.579-5.006-24.575-12.253-.782-.946-1.484-1.968-2.137-3.008zm4.534 94.472c-.583-.607-1.004-1.419-.958-2.259.06-1.105.916-2.037 1.914-2.512a7.682 7.682 0 0 1 1.688-.577c5.98-1.289 11.931 5.139 13.246 10.406.48 1.923.564 3.942.98 5.886.656 3.066.621 6.373 4.507 7.913.964.383 1.787 3.861 1.112 4.908-.74 1.148-3.404 1.776-5.028 1.488-4.026-.712-6.382-3.71-7.532-7.482-.792-2.602-1.343-5.308-1.684-8.007-.58-4.613-2.392-6.033-6.204-8.29-.725-.429-1.459-.865-2.04-1.474zm42.996 73.571c-6.044-2.682-12.169-5.18-18.223-7.838-3.186-1.399-5.557-6.263-4.582-9.651l.021-.071c1.087-3.585 5.976-5.613 7.042-.863.89 3.962 4.036 5.361 7.3 6.619 3.905 1.506 7.91 2.772 11.751 4.42 2.556 1.098 3.874 3.218 2.394 5.984-1.282 2.396-3.322 2.457-5.703 1.4zm-90.362-202.73c.615-2.721 2.941-3.041 5.267-2.982 8.105.202 14.601 6.679 13.792 15.087-.584 6.072.735 9.944 6.497 12.309 1.704.7 3.506 2.295 4.217 3.934.632 1.456.378 3.905-.498 5.261-1.255 1.939-3.295 1.48-5.13.002-1.903-1.533-3.962-2.897-6.06-4.157-6.898-4.14-7.895-6.086-7.17-14.527.611-7.108.238-7.718-7.234-10.352-2.28-.803-4.326-1.72-3.68-4.575zm18.33 253.847c.734-3.673 5.404-6.166 6.926-1.54 1.268 3.856 4.535 4.945 7.904 5.881 4.033 1.121 8.142 1.992 12.125 3.262 2.651.844 4.167 2.827 2.962 5.724-1.044 2.509-3.068 2.767-5.54 1.945-6.276-2.085-12.614-3.978-18.897-6.038-3.306-1.083-6.137-5.694-5.494-9.162.004-.024.01-.048.013-.072zm-9.044-43.103c-3.602-.665-7.399-1.582-10.456-3.454-2.913-1.783-8.5-9.65-2.646-11.352.542-.158 1.025-.195 1.463-.137 2.184.285 3.244 2.89 4.898 4.273 2.326 1.945 5.48 2.183 8.347 2.67 4.575.78 9.236 1.719 13.48 3.497 2.355.985 5.477 4.792 5.303 7.448-.096 1.446-1.034 2.834-2.386 3.356-3.133 1.21-5.473-3.198-8.076-4.338-3.118-1.363-6.628-1.354-9.927-1.963zm-8.132 87.26c1.044-.881 2.572-1.025 4.113-.986 3.996.099 7.596 1.729 10.126 4.358-3.95-.273-8.858-1.403-14.239-3.372zm23.95-115.154c-4.363-.978-8.764-1.799-13.09-2.916-5.004-1.292-9.404-6.851-9.272-11.37.07-2.391 2.494-4.564 4.592-4.473 1.107.048 2.123.727 2.654 2.336 1.913 5.801 6.586 6.85 11.713 7.479 1.95.239 3.937.668 5.752 1.395 2.341.939 3.521 2.851 2.57 5.385-.84 2.231-2.724 2.657-4.92 2.164zm-4.68-113.493c.85-1.288 2.476-2.103 3.98-1.754 1.06.246 1.938 1.015 2.545 1.92 1.67 2.489 2.086 4.579 4.913 6.186 2.403 1.366 5.18 1.922 7.755 2.866 3.29 1.208 8.418 2.113 9.005 6.259.193 1.366-.385 2.907-1.627 3.508-.56.273-1.169.327-1.787.265-.742-.076-1.498-.323-2.204-.572-7.262-2.553-21.258-5.304-23.242-14.22-.336-1.507-.189-3.17.661-4.458zm28.176-104.752c.142.751.046 1.608-.353 2.569-1.044 2.508-3.068 2.767-5.54 1.945a447.925 447.925 0 0 0-5.189-1.682c3.775-1.856 7.641-3.118 11.082-2.832zm-1.866 258.345c-.913-1.994-1.847-4.071-2.205-6.206-.694-4.131-.932-8.337-1.469-12.5-.425-3.297 1.564-5.677 5.03-4.195 3.64 1.558 4.251 7.793 4.226 11.179-.05 6.677 2.59 10.499 9.212 12.397 5.763 1.653 10.217 6.566 9.548 12.881-.005.048-.01.096-.017.143-.158 1.259-.649 2.502-1.554 3.387-.94.918-2.366 1.386-3.619.994-2.619-.823-2.005-4.563-3.159-6.552-1.314-2.263-3.757-3.343-6.076-4.293-3.915-1.606-7.98-3.012-9.917-7.235zm-22.16-70.787c-.789-.561-1.828-.755-2.685-1.236-2.099-1.176-3.788-2.805-2.738-5.381 1.008-2.475 3.21-2.892 5.618-2.075 4.55 1.543 8.93 3.696 12.655 6.759 2.403 1.973 5.83 5.052 7.215 8.383.455 1.09.69 2.208.6 3.323-.087 1.071-.468 2.181-1.31 2.848-1.269 1.006-3.213.681-4.499-.303-1.247-.955-1.649-2.406-2.688-3.482-.888-.919-2.237-1.607-3.265-2.374-2.939-2.193-5.92-4.331-8.904-6.462zm64.461 77.484c-1.627-.973-2.346-3.222-1.585-4.958.793-1.809 2.596-2.432 4.616-2.459 2.457-.033 5.235.814 6.895 1.481 4.057 1.627 7.173 4.744 9.377 8.465 1.645 2.778 3.115 5.799 5.517 8.024 1.948 1.807 6.941 2.597 6.687 5.857-.125 1.61-1.46 2.975-3.018 3.398-2.449.667-6.37-.915-8.368-2.336-2.29-1.627-3.96-4.371-5.396-6.913-1.564-2.771-3.27-5.678-5.869-7.612-2.79-2.077-6.089-1.293-8.856-2.947zm22.207-47.591c1.387-5.044.684-7.518-4.083-8.562-7.912-1.732-10.137-8.138-12.938-14.084-1.392-2.953 1.49-6.009 4.462-5.093 1.918.591 2.1 2.035 2.913 3.552.915 1.708 2.37 3.246 3.816 4.508 2.983 2.602 6.607 4.322 9.996 6.311 4.421 2.596 5.433 7.532 4.491 12.538-.593 3.158-1.538 6.251-2.325 9.373H1193c.881-2.846 1.836-5.672 2.626-8.543zm-56.12-177.729c-.842-5.35-1.016-10.808-1.429-16.223-.177-2.312-.072-4.636 2.808-5.228 3.25-.668 4.471 1.35 4.824 4.134.745 5.877 1.237 11.793 2.188 17.635.91 5.587 1.697 6.213 7.54 7.09 2.375.356 4.585.733 4.684 3.627.106 3.101-2.017 4.253-4.745 4.592-.733.092-1.479.087-2.446.139-4.278-.246-8.085-2.006-10.148-6.056-1.539-3.021-2.75-6.374-3.276-9.71zm29.641-11.697c2.152-1.251 3.605.504 4.516 2.484.404.879.87 1.73 1.48 2.938 3.924 0 7.17-.278 10.351.049 4.614.474 9.658 1.683 12.286 5.868 2.012 3.201 4.474 11.821 1.57 14.815-2.444 2.518-5.53 1.291-6.088-1.946-.126-.733-.237-1.471-.386-2.199-1.49-7.234-3.737-9.002-11.175-8.872-2.726.048-5.496.334-8.17-.034-4.963-.683-7.787-3.959-7.272-8.636.178-1.617 1.492-3.655 2.888-4.467zm16.347 305.471c4.614.474 9.658 1.683 12.286 5.868.331.526.673 1.21 1.003 1.981-3.13.52-6.268 1.032-9.43 1.377-1.67-1.233-4.049-1.623-7.652-1.56-2.726.048-5.496.334-8.17-.034-4.963-.682-7.787-3.959-7.272-8.636.178-1.617 1.492-3.655 2.888-4.467 2.152-1.251 3.605.504 4.516 2.485.404.878.87 1.73 1.48 2.937 3.924 0 7.17-.278 10.351.049zm-44.609-15.225c3.25-.668 4.471 1.35 4.824 4.134.724 5.708 1.216 11.451 2.115 17.129-2.979-.223-5.79-.43-8.433-.622-.738-5.091-.922-10.271-1.314-15.413-.177-2.312-.072-4.636 2.808-5.228zm37.701-191.319c.345.624.411 1.402.53 1.83-.179 3.153-3.674 4.93-6.129 2.885-2.573-2.145-4.556-5.072-6.5-7.864-.958-1.375-1.222-3.225-1.839-4.845-1.756-4.607-4.688-8.003-9.496-9.697-3.269-1.152-6.524-2.431-9.602-4.009-2.152-1.104-4.357-2.519-5.832-4.361-.81-1.011-.77-3.654.021-4.712.707-.946 3.273-1.426 4.501-.901 6.11 2.616 12.187 5.383 17.986 8.618 2.685 1.498 5.241 3.834 6.92 6.403 3.484 5.331 6.358 11.062 9.44 16.653zm-14.07 18.617c1.096 1.979 2.698 4.25 4.85 5.138 1.404.58 2.93.777 4.41 1.125 2.534.597 4.352 1.441 3.961 4.28-.418 3.028-2.573 4.019-4.612 3.838-5.796-.213-10.184-1.745-12.926-6.145-2.8-4.495-5.709-8.656-11.094-10.455-2.036-.679-3.194-2.541-2.203-4.794 1.034-2.348 2.885-3.294 5.476-2.343 5.037 1.848 9.512 4.613 12.138 9.356zm16.05-42.952c-1.382-3.114-2.476-6.391-3.333-9.69-.487-1.874-.307-3.932-.337-5.909-.135-8.744-.158-8.613-8.633-10.819-1.515-.395-3.464-2.228-3.719-3.663-.427-2.396 1.326-3.902 3.971-4.334 8.914-1.456 15.56 3.546 16.456 12.622.182 1.84-.214 3.653-.28 5.483-.01.277-.014.553-.005.83.06 2.012.777 4.022 1.266 5.967.69 2.745 3.106 6.623 1.97 9.443-1.42 3.522-5.862 3.435-7.356.07zm14.433 72.031c-1.596-3.302-3.255-6.573-4.92-9.841-.439-.861-1.272-1.513-1.81-2.335-1.32-2.011-2.067-4.235.052-6.037 2.036-1.731 4.181-1.086 5.942.75 3.325 3.468 6.217 7.399 8.111 11.834 1.221 2.861 2.841 7.171 2.535 10.767-.1 1.177-.406 2.277-1 3.225-.572.911-1.422 1.719-2.478 1.923-1.59.307-3.164-.878-3.85-2.344-.666-1.423-.354-2.896-.78-4.329-.364-1.226-1.244-2.458-1.802-3.613zm-17.232-160.558c-.298 1.571-1.902 2.628-3.492 2.802-5.278.578-10.45-3.867-12.755-8.838 3.023-.204 6.26-.492 9.982-.778 1.046.799 2.26 1.527 3.573 2.339 1.093.675 2.13 1.688 2.548 2.852.187.516.251 1.063.144 1.623z" fill="#303F62"/><path d="M3 3891v-80.957c1.822-2.492 3.675-5.117 5.562-8.202 8.648-10.38 15.156-15.817 25.763-26.481 11.458-4.239 19.56-16.131 30.885-20.186 14.087-8.302 21.624-1.716 35.013-12.863 12.38-7.802 26.924-2.263 38.142-4.515 12.458-.774 23.598 5.254 38.14 4.515 14.313 2.977 22.737 11.512 35.012 12.863 13.963 3.989 20.216 13.419 30.888 20.186 8.145 8.474 17.402 16.914 25.76 26.48 10.567 8.126 16.83 16.78 19.637 31.751 6.19 12.4 9.72 21.458 12.516 35.991 1.89 7.272 3.32 13.759 4.027 21.418H3v-223.694c18.93-7.05 32.337-26.7 51.066-33.402 23.335-13.757 35.822-2.845 58.001-21.31 20.506-12.925 44.6-3.749 63.185-7.48 20.639-1.28 39.094 8.702 63.182 7.48 23.71 4.932 37.663 19.07 58.004 21.31 23.125 6.608 33.487 22.23 51.164 33.438 13.494 14.036 28.826 28.019 42.674 43.869 17.506 13.458 27.881 27.795 32.53 52.595 10.252 20.54 16.098 35.546 20.73 59.623 5.257 20.205 8.358 36.752 7.278 64.95.211.859.395 1.733.553 2.621H3z" fill="#F3ECDA"/></g></svg>