<svg width="823" height="812" xmlns="http://www.w3.org/2000/svg"><g fill="none" fill-rule="evenodd"><path d="M821.17 446.33c-1.871 1.645-4.419 1.95-6.207.959-2.256-1.25-5.626-.416-13.997 14.128-.91 2.09-13.776 16.79-17.489 16.4-1.471-.155-3.092.68-4.343 1.782-8.48 7.463-19.314 7.495-21.789 13.652-.424 1.056-1.27 1.986-2.267 2.696-10.076 7.173-26.763 16.867-27.178 20.297 3.426-.959 3.264-2.244-15.748 11.791-.537.397-1.12.762-1.731.996-7.573 2.904-1.092 10.994-15.026 13.266-1.227.2-2.47.752-3.426 1.658-4.357 4.126-8.394 2.912-13.9 7.705-1.25 1.088-2.876 1.818-4.334 1.655-3.81-.422-17.549 7.764-18.806 14.285-.347 1.806-1.659 3.518-3.49 4.438-7.089 3.562-12.37 6.403-14.568 9.148-1.107 1.382-2.714 2.344-4.384 2.548-7.382.901-15.616 20.392-14.757 15.761-5.609 4.528-10.968 10.923-14.928 13.658-2.026 1.4-3.165 3.679-2.724 5.65 1.958 8.77-7.523 9.204-15.877 9.58-2.222.1-4.607 1.46-5.596 3.524-2.002 4.183-14.779 7.089-19.626 11.664-.574.543-1 1.207-1.313 1.884-6.868 14.831-13.706 11.895-19.403 13.923-1.617 1.45-10.104-4.42-18.777 13.095-.54 1.092-1.463 2.056-2.564 2.713-9.656 5.773-11.586 6.514-17.227 13.177a7.111 7.111 0 0 1-.383.417c-8.007 8.016-4.59 3.355-16.477 12.342-1.118.845-1.983 2.005-2.3 3.23-2.983 11.499-25.702 8.67-17.8 11.94 1.571-.428-2.596 1.494-15.51 11.622-.927.727-2.013 1.304-3.106 1.446-4.552.593-6.693 7.577-12.328 11.082-1.323.823-2.804.955-4.121.662-3.684-.821-8.936 6.973-13.911 12.117-1.093 1.13-2.553 1.91-4.014 2.03-8.099.67-11.775 12.035-16.39 13.365-4.21 1.924-17.827 15.65-28.858 21.856-.497.28-.968.619-1.384 1.01-16.366 15.455-22.246 23.156-24.504 18.346 6.598-3.069 9.402-2.412-9.459-12.552-6.151-4.27 4.878-10.69-8.645-14.718a3.558 3.558 0 0 1-2.24-1.924c-3.616-7.706-10.393-13.447-13.442-16.153-.866-.769-1.287-1.91-1.185-3.164 1.14-13.988-.811-8.595-4.978-12.406-5.107-.354.78-9.748-9.794-9.212-1.525.077-3.1.846-4.245 2.036-3.898 4.049-5.066-7.018-7.611-12.86-.302-.693-.82-1.237-1.466-1.65-8.377-5.347-6.411-14.904-9.902-14.228-5.46.52-12.692-9.987-11.895-13.906a3.55 3.55 0 0 0-1.126-3.406c-6.404-5.726-12.073-8.405-10.166-11.834.811-1.457 1.03-3.06.388-4.298-1.67-3.22-5.853-8.099-10.355-12.736-8.023-6.602-4.221-13.057-12.373-14.707a4.193 4.193 0 0 1-.77-.226c-5.174-2.127-16.239-5.774-11.794-16.092.687 1.193-10.149-10.495-11.842-16.345a3.385 3.385 0 0 0-.744-1.317c-5.362-5.994-11.154-6.087-12.284-14.227-.109-.782-.432-1.496-.972-2.028-5.87-5.796-8.749-16.77-11.443-16.432-.825.104-1.56-.198-2.185-.567-6.072-3.588-8.55-11.685-9.8-15.58-.363-1.134-1.244-1.972-2.43-2.353-9.687-3.112-7.55-5.458-11.3-15.164a3.699 3.699 0 0 0-.536-.932c-5.605-7.103-8.337-11.463-11.725-14.664a3.288 3.288 0 0 1-.41-.453c-2.582-3.509-5.757-11.244-10.864-15.429-.828-.68-1.271-1.695-1.287-2.832-.098-7.459-2.658-8.861-10.605-12.52-.478-.221-.9-.539-1.237-.913-4.706-5.258-7.61-5.625-10.58-13.769-.31-.852-.852-1.614-1.687-2.021-4.456-2.176-3.101-12.307-8.268-13.65-1.477-.385-2.493-1.478-2.76-2.922-1.626-8.798-7.061-7.32-10.17-12.117-.464-.715-1.142-1.282-2.011-1.553-7.787-2.415-8.21-8.173-8.966-11.207a3.422 3.422 0 0 0-1.449-2.061c-3.571-2.352-6.382-10.249-7.959-12.512-.45-.65-.649-1.46-.593-2.318.55-8.453-14.45-11.123-17.511-21.742-2.928-6.169-11.328-3.087-13.977-16.314-.278-1.393-1.248-2.466-2.693-2.813-6.975-1.672-7.966-9.6-8.736-13.69a3.514 3.514 0 0 0-1.038-1.935c-4.423-4.187-11.17-14.587-8.688-11.87-2.822 7.12 1.56 4.612 13.236-9.891.11-.137.236-.282.357-.411 10.612-11.25 6.315-2.815 16.412-12.532 6.679-6.061 16.524-7.307 19.272-13.193.507-1.087 1.47-2.009 2.561-2.662 10.757-6.447 9.185-10.851 21.652-16.744a6.965 6.965 0 0 0 2.275-1.73c11.046-12.777 24.592-18.806 27.386-20.586.18-.115.35-.255.514-.392 9.838-8.245 17.045-5.033 16.64-9.547-.115-1.283.274-2.668 1.264-3.817 2.62-3.04 6.6-6.34 11.29-8.642 1.535-.754 2.865-2.021 3.34-3.527 1.895-6.009 11.025-10.466 13.896-10.648 1.082-.068 2.188-.345 3.167-.993 3.884-2.572 11.033-8.396 13.978-10.712.648-.512 1.376-.917 2.14-1.146 3.528-1.056 15.375-6.637 16.452-11.578.271-1.242 1.028-2.442 2.122-3.348 5.415-4.483 14.107-8.047 15.645-11.324 3.612-5.037 5.544-10.535 16.44-13.14.967-.232 1.894-.732 2.693-1.397 6.155-5.127 14.515-10.99 16.424-12.277.167-.114.333-.239.49-.368 7.455-6.106 12.856-10.002 18.31-13.853.6-.423 1.254-.776 1.933-.96 6.303-1.717 10.154-8.653 18.88-14.676.23-.158.462-.34.669-.527 5.972-5.409 10.246-8.856 18.746-14.472a7.33 7.33 0 0 1 1.22-.638c7.831-3.257 6.585-8.474 17.044-12.989 1.043-.45 1.999-1.17 2.69-2.067 8.659-11.259 20.127-11.94 17.377-12.079 8.582-2.696 12.455-1.962 16.627-10.804.786-1.667 2.387-2.978 4.2-3.528 4.646-1.41 13.42-7.482 15.07-12.26.153-.443.316-.892.58-1.307 4.984-7.805 11.459-9.573 15.476-10.988 9.398-3.85 8.439-10.318 14.146-12.406 9.793-5.207 12.43-4.207 15.22-9.95a6.53 6.53 0 0 1 1.642-2.1c7.02-5.963 16.918-14.212 23.34-17.597.334-.175.641-.368.944-.599 7.975-6.106 19.168-12.746 24.982-18.64.41-.414.743-.876 1.011-1.366 1.589-2.89 3.421-5.9 9.024-6.374-1.356-1.285 2.583 4.527 9.175 12.223.186.216.414.403.644.578 3.814 2.897 1.503 10.46 11.02 14.56.385.164.826.254 1.264.31 10.685 1.365 6.774 15.29 11.992 18.497.695.426 1.252 1.001 1.571 1.738 5.753 13.263 13.071 13.507 17.715 21.647-1.615-2.198 13.74-2.281 10.63 9.593-.501 1.919.09 3.723 1.677 4.577 5.604 3.016 9.83 6.279 8.967 10.1-.444 1.958.602 3.655 2.363 4.318 5.264 1.98 13.191 6.056 8.98 11.458-1.235 1.586-1.692 3.482-1 4.969 2.588 5.569 5.504 7.933 9.14 10.113.766.459 1.712.678 2.723.59 13.963-1.222 13.326 3.407 10.395 15.184-1.403 6.518 11.527 9.01 11.917 15.37.08 1.292.63 2.43 1.688 3.093 9.815 6.152-2.012 8.459 6.183 14.089 1.295.89 1.965 2.476 1.444 4.17-1.163 3.778 4.02 9.908 10.096 12.738.986.458 1.898 1.176 2.065 2.25.284 1.818 13.572 3.927 14.185 14.106.085 1.422.953 2.559 2.26 3.092 11.423 4.671 4.448 5.329 10.514 13.216.718.935.972 2.186.603 3.484-1.551 5.449 1.666 7.509.187 13.814-.494 2.11.486 4.061 2.483 4.593 1.512.403 3.599.307 6.178-.562 2.57-.865 5.041-.011 5.794 2.11 2.872 8.085 11.378 1.088 11.19 8.619-.035 1.44.499 2.754 1.651 3.484 5.711 3.62 14.11 19.35 10.709 15.78 1.53-4.45 15.31 2.36 13.822 12.602-.257 1.768.396 3.328 1.845 4.139 4.566 2.556 11.932 11.343 11.436 14.475-.14.884.092 1.71.508 2.4 6.684 11.143.898 15.656 8.029 14.396 1.438-.253 2.813.03 3.766.822 10.505 8.714 15.067 7.934 10.574 13.157-.872 1.013-1.345 2.244-1.366 3.405-.377 20.711 10.8.005 9.824 12.159-.34 10.558 9.186 3.33 9.81 10.635.138 1.619 1.08 2.96 2.685 3.384 4.846 1.282 5.096 5.15 5.491 8.492.353 3.001 3.803 4.33 6.929 2.53 2.291-1.32-4.466.287 3.807 9.475 1 1.111 1.23 2.784.521 4.397-2.858 6.496-.966 10.156 3.736 11.131 2.305.478 3.406 2.689 2.741 5.06-2.682 9.569 8.14 9.348 14.609 12.983 1.47.827 2.045 2.548 1.601 4.35-1.813 7.333.116 7.056 10.845 11.534.48.201.893.506 1.247.855 5.827 5.728 18.697 4.042 12.729 9.29" fill="#DDE4F2"/><path d="M160.506 451.175c1.023-1.35 1.576-2.729 1.402-4.526-.174-1.798-1.363-3.94-2.818-4.78-1.455-.84-4.766-.569-4.993 2.018-.043.38.177 2.496.76 4.537.583 2.042 1.528 4.01 2.935 4.094 1.043-.126 2.008-.538 2.714-1.343m23.476.856c.526 1.112 1.343 2.033 2.498 2.52 1.88.637 3.616.74 5.55-.12 1.935-.86 3.875-2.974 4.27-4.902.393-1.929-1.135-5.506-4.094-4.801-.438.091-2.708 1.12-4.76 2.525-2.054 1.404-3.891 3.183-3.464 4.778m134.936 3.867c.051-.446-.207-2.924-.89-5.316-.684-2.392-1.791-4.697-3.44-4.796-1.22.147-2.352.63-3.18 1.573-1.198 1.581-1.846 3.196-1.642 5.303.205 2.107 1.597 4.615 3.302 5.6 1.705.985 5.583.666 5.85-2.364M205.979 587.673c.73 1.006 1.711 1.769 2.95 2.039 1.986.28 3.73.06 5.491-1.154 1.76-1.215 3.293-3.675 3.326-5.665.032-1.989-2.152-5.258-4.96-4.007-.417.173-2.48 1.619-4.258 3.395-1.778 1.778-3.27 3.888-2.549 5.392m-21.272-160.258c.472.998 1.206 1.827 2.244 2.265 1.69.57 3.25.664 4.988-.108 1.739-.773 3.481-2.673 3.836-4.407.354-1.732-1.019-4.948-3.678-4.314-.394.083-2.434 1.007-4.278 2.27-1.845 1.261-3.496 2.861-3.112 4.294m14.842-35.428c-1.67-.18-3.124.052-4.564 1.117-1.44 1.066-2.655 3.17-2.627 4.835.029 1.666 1.949 4.343 4.264 3.216.346-.156 2.032-1.422 3.47-2.961 1.44-1.537 2.63-3.345 1.984-4.584-.639-.822-1.482-1.433-2.527-1.623m127.358 83.665c1.902-.51 4.417-3.477 2.463-5.808-.277-.351-2.213-1.92-4.387-3.13-2.175-1.208-4.588-2.055-5.823-.959-.76.968-1.218 2.11-1.137 3.362.271 1.964.955 3.564 2.59 4.91 1.633 1.345 4.393 2.135 6.294 1.625m-111.482-52.514c.479.055 3.146-.223 5.72-.958 2.573-.735 5.053-1.927 5.16-3.7-.159-1.314-.679-2.532-1.693-3.423-1.702-1.287-3.44-1.985-5.705-1.765-2.268.22-4.967 1.718-6.025 3.552-1.06 1.835-.717 6.006 2.543 6.294m-33.304 231.16c-.334-.039-1.823.098-3.558.46 1.22 2.585 2.41 5.068 3.603 7.565.987-.584 1.838-1.34 2.32-2.176.984-1.705.665-5.582-2.365-5.85m1.785-286.154c-.351.279-1.92 2.214-3.13 4.388-1.208 2.175-2.055 4.588-.959 5.823.968.76 2.11 1.218 3.361 1.137 1.966-.272 3.565-.955 4.91-2.59 1.346-1.634 2.135-4.393 1.625-6.294-.51-1.9-3.476-4.418-5.807-2.464m54.584 179.842c.035 2.112 2.467 5.503 5.404 4.076.438-.199 2.575-1.804 4.398-3.753 1.823-1.948 3.333-4.24 2.514-5.81-.81-1.044-1.878-1.818-3.202-2.059-2.117-.229-3.96.066-5.786 1.418-1.825 1.35-3.365 4.016-3.328 6.128m-11.917-71.763c1.382.22 2.771.045 3.972-.727 1.803-1.356 3.017-2.92 3.452-5.287.435-2.369-.304-5.548-1.862-7.156-1.557-1.61-5.897-2.473-7.136.757-.195.47-.687 3.262-.687 6.093 0 2.828.49 5.696 2.261 6.32m-47.955 21.47c-2.074.556-4.819 3.792-2.688 6.335.304.382 2.414 2.094 4.785 3.412 2.372 1.318 5.005 2.242 6.352 1.047.83-1.054 1.328-2.301 1.24-3.666-.297-2.143-1.042-3.888-2.824-5.356-1.783-1.467-4.79-2.328-6.865-1.772m-7.6 91.481c.438-.199 2.576-1.805 4.399-3.753 1.824-1.948 3.333-4.241 2.514-5.81-.809-1.044-1.879-1.817-3.203-2.06-2.116-.228-3.96.067-5.785 1.419-1.825 1.35-3.365 4.016-3.329 6.128.036 2.11 2.468 5.503 5.404 4.076m-36.84-126.854c1.026-.677 1.82-1.614 2.14-2.826.363-1.949.22-3.68-.903-5.471s-3.488-3.41-5.45-3.529c-1.963-.117-5.285 1.9-4.17 4.726.152.42 1.491 2.52 3.17 4.35 1.678 1.833 3.698 3.398 5.214 2.75m37.888 89.494c-1.034-.812-2.254-1.302-3.593-1.216-2.1.291-3.811 1.022-5.249 2.768-1.439 1.747-2.282 4.696-1.738 6.73.545 2.032 3.717 4.722 6.21 2.633.374-.297 2.052-2.366 3.345-4.69 1.29-2.325 2.196-4.905 1.025-6.225m-23.218-8.127c.83-1.055 1.329-2.3 1.24-3.666-.296-2.143-1.042-3.889-2.824-5.355-1.782-1.468-4.79-2.329-6.865-1.773-2.073.556-4.818 3.792-2.688 6.335.305.383 2.415 2.095 4.787 3.413 2.37 1.317 5.003 2.24 6.35 1.046m39.926 33.336c1.221-.4 2.282-1.126 2.936-2.261.902-1.866 1.235-3.652.595-5.768-.64-2.115-2.581-4.4-4.529-5.058-1.947-.659-5.853.461-5.506 3.62.04.466.81 2.95 2.001 5.26 1.19 2.31 2.796 4.444 4.503 4.207m-14.221-44.015c-.665-1.114-1.616-1.998-2.88-2.394-2.038-.475-3.873-.408-5.817.69-1.944 1.1-3.767 3.52-3.985 5.585-.219 2.065 1.75 5.667 4.787 4.627.45-.142 2.73-1.453 4.744-3.137 2.013-1.683 3.762-3.74 3.151-5.37m-52.884-42.646c1.807-.728 3.168-1.76 4.06-3.637.894-1.877.988-4.694.05-6.385-.938-1.69-4.365-3.381-6.12-.964-.269.35-1.303 2.567-1.936 4.927-.634 2.359-.866 4.86.472 5.775 1.103.494 2.3.658 3.474.284m17.202-19.4c.797 1.863 4.186 3.994 6.277 1.663.317-.334 1.635-2.534 2.55-4.925.914-2.391 1.426-4.974.13-6.073-1.096-.633-2.326-.933-3.59-.67-1.963.564-3.494 1.493-4.627 3.354-1.133 1.86-1.535 4.787-.74 6.65m19.668 38.166c2.168-.21 5.456-2.99 3.746-5.892-.24-.434-2.066-2.5-4.22-4.214-2.154-1.715-4.635-3.08-6.182-2.108-1.006.919-1.714 2.081-1.854 3.463-.06 2.195.395 4.066 1.933 5.832 1.54 1.767 4.408 3.13 6.577 2.92m-6.88 85.776c2.095-.856 4.234-3.052 4.718-5.098.484-2.047-1.032-5.917-4.216-5.26-.325.058-1.605.573-3.1 1.355a94.46 94.46 0 0 1 2.364 9.086c.08-.03.156-.05.235-.083m-.985-31.265c-.24-.433-2.067-2.5-4.22-4.215-2.156-1.715-4.636-3.078-6.183-2.107-1.006.919-1.713 2.08-1.853 3.463-.03 1.088.068 2.096.36 3.052.558.948 1.118 1.908 1.675 2.883 1.56 1.715 4.349 3.023 6.474 2.817 2.17-.21 5.457-2.991 3.747-5.893m-21.809-120.866c.298-.313 1.536-2.381 2.396-4.628.859-2.248 1.34-4.675.123-5.708-1.032-.595-2.187-.878-3.374-.629-1.833.527-3.264 1.393-4.326 3.12-.03.457-.068.915-.065 1.374-.332.931-.68 1.882-1.033 2.838.01.752.125 1.47.38 2.069.749 1.75 3.933 3.756 5.899 1.564m2.294 59.598c-1.22-.152-2.435.042-3.468.755-1.545 1.244-2.565 2.654-2.878 4.746-.313 2.095.43 4.866 1.845 6.234 1.415 1.369 5.254 2 6.248-.875.158-.419.509-2.886.426-5.372-.083-2.486-.599-4.992-2.173-5.488m45.517-111.815c-1.762.243-3.196.856-4.402 2.32-1.206 1.466-1.913 3.938-1.456 5.643.456 1.704 3.116 3.96 5.205 2.208.316-.249 1.723-1.984 2.805-3.933 1.084-1.949 1.843-4.112.86-5.22-.867-.68-1.89-1.09-3.012-1.018m74.106 45.398c1.96.401 5.595-1.153 4.879-4.159-.094-.446-1.139-2.752-2.566-4.837-1.427-2.086-3.236-3.953-4.855-3.519-1.13.535-2.066 1.363-2.562 2.539-.646 1.909-.752 3.673.122 5.64.874 1.964 3.023 3.935 4.982 4.336m-2.41 17.694c.59 1.08 1.46 1.951 2.642 2.37 1.913.523 3.653.526 5.533-.447 1.88-.972 3.693-3.196 3.973-5.145.281-1.948-1.455-5.43-4.367-4.552-.433.117-2.638 1.278-4.606 2.8-1.967 1.522-3.696 3.407-3.175 4.974m25.838 28.939c-2.174-1.208-4.588-2.054-5.823-.959-.76.967-1.217 2.11-1.137 3.361.272 1.966.955 3.565 2.59 4.91 1.634 1.346 4.393 2.135 6.294 1.626 1.902-.51 4.419-3.477 2.464-5.808-.279-.35-2.214-1.92-4.388-3.13m-1.028 77.239c1.288.059 2.54-.246 3.558-1.077 1.51-1.428 2.457-2.985 2.61-5.197.15-2.213-.857-5.044-2.448-6.355-1.592-1.31-5.653-1.65-6.451 1.436-.13.451-.29 3.057.004 5.646s1.042 5.161 2.727 5.547m-36.516-192.822c-1.964-.665-3.78-.774-5.8.125-2.022.899-4.05 3.11-4.461 5.124-.414 2.016 1.183 5.755 4.277 5.018.458-.095 2.83-1.17 4.976-2.638 2.145-1.469 4.065-3.329 3.618-4.995-.55-1.163-1.402-2.125-2.61-2.634m-3.006 47.363c.366.31 2.734 1.555 5.277 2.37 2.543.813 5.262 1.197 6.332-.216.596-1.18.837-2.477.488-3.779-.699-2.01-1.754-3.55-3.758-4.623-2.004-1.072-5.074-1.322-6.968-.385-1.895.936-3.92 4.59-1.371 6.633m-5.055 20.462c-.445-.051-2.924.207-5.316.89-2.391.682-4.696 1.79-4.795 3.438.147 1.222.63 2.353 1.573 3.182 1.582 1.196 3.196 1.844 5.303 1.64 2.107-.203 4.615-1.597 5.6-3.3.984-1.706.666-5.583-2.365-5.85m-16.004-38.632c.89 1.8 4.36 3.723 6.301 1.302.296-.348 1.478-2.597 2.251-5.013.774-2.416 1.138-4.999-.204-6.014-1.12-.567-2.353-.796-3.589-.465-1.91.664-3.374 1.668-4.392 3.57-1.018 1.904-1.256 4.82-.367 6.62m72.044 137.29c.147 1.222.63 2.354 1.573 3.182 1.581 1.197 3.196 1.846 5.303 1.641 2.106-.204 4.615-1.597 5.6-3.301.984-1.705.665-5.583-2.365-5.85-.445-.051-2.923.207-5.316.89-2.39.683-4.696 1.79-4.795 3.439M256.313 380.47c-1.742 1.244-3.171 5.226-.291 6.854.418.25 2.987 1.11 5.661 1.51 2.676.4 5.455.34 6.295-1.247.404-1.274.435-2.612-.125-3.856-1.027-1.896-2.334-3.264-4.512-4.01-2.177-.746-5.287-.496-7.028.75m19.751 75.548c.204 2.107 1.597 4.615 3.301 5.6 1.706.984 5.582.666 5.85-2.365.05-.444-.207-2.923-.89-5.314-.683-2.393-1.792-4.698-3.44-4.797-1.22.147-2.352.63-3.18 1.573-1.197 1.58-1.845 3.196-1.64 5.303m25.586 27.048c1.122 1.636 2.45 2.762 4.513 3.234 2.063.472 4.883-.056 6.356-1.362 1.472-1.306 2.397-5.085-.394-6.297-.406-.19-2.838-.728-5.324-.836-2.484-.108-5.022.213-5.637 1.746-.247 1.204-.146 2.431.486 3.515m-33.24-117.151c.404-1.275.435-2.613-.125-3.856-1.028-1.897-2.334-3.264-4.511-4.011-2.178-.746-5.288-.496-7.029.75-1.742 1.244-3.171 5.225-.292 6.854.418.25 2.987 1.11 5.663 1.508 2.675.402 5.455.342 6.294-1.245m30.695 17.852c-1.23.148-2.368.634-3.202 1.583-1.205 1.592-1.858 3.218-1.652 5.338.205 2.121 1.608 4.647 3.323 5.637 1.716.99 5.62.67 5.888-2.38.052-.448-.208-2.943-.895-5.35-.689-2.408-1.804-4.73-3.462-4.828m5.415 122.651c2.094.313 4.866-.43 6.234-1.845 1.368-1.415 2-5.255-.875-6.248-.42-.158-2.887-.507-5.373-.425-2.486.082-4.991.597-5.487 2.172-.153 1.221.041 2.435.755 3.468 1.244 1.545 2.653 2.566 4.746 2.878m-9.902-79.442c-1.995.709-4.091 2.668-4.633 4.56-.541 1.894.709 5.578 3.713 5.103.444-.06 2.785-.911 4.94-2.153 2.155-1.243 4.123-2.877 3.82-4.5-.44-1.149-1.183-2.13-2.297-2.705-1.826-.777-3.549-1.014-5.543-.305m-17.36-17.76c.774-2.414 1.138-4.997-.204-6.014-1.12-.565-2.353-.796-3.59-.465-1.91.665-3.373 1.668-4.392 3.573-1.018 1.902-1.255 4.82-.365 6.618.89 1.799 4.36 3.722 6.3 1.303.295-.35 1.479-2.598 2.252-5.015m9.274 188.442c1.795-1.083 3.065-2.413 3.692-4.56.626-2.148.244-5.156-1.043-6.792-1.286-1.635-5.216-2.844-6.667.025-.225.417-.944 2.95-1.213 5.565-.269 2.615-.087 5.313 1.492 6.057 1.256.335 2.556.304 3.739-.295m2.334-238.628c-1.792 1.147-3.043 2.533-3.619 4.728-.575 2.196-.104 5.238 1.247 6.86 1.35 1.623 5.372 2.74 6.763-.21.218-.43.877-3.02 1.076-5.68.199-2.661-.06-5.392-1.682-6.102-1.284-.305-2.602-.238-3.785.404m14.78 48.872c-1.988.885-3.983 3.06-4.389 5.042-.405 1.984 1.167 5.663 4.21 4.94.45-.097 2.784-1.155 4.895-2.598 2.112-1.444 4-3.274 3.56-4.915-.54-1.144-1.38-2.09-2.568-2.592-1.932-.653-3.718-.76-5.707.123m-43.61 62.704c-1.272-1.702-5.256-3.036-6.81-.141-.24.42-1.038 2.99-1.378 5.653-.338 2.665-.22 5.424 1.374 6.224 1.274.373 2.603.375 3.825-.209 1.861-1.06 3.191-2.387 3.885-4.566.693-2.177.379-5.259-.895-6.961m15.38 44.92c2.065.473 4.885-.056 6.358-1.362 1.473-1.306 2.396-5.086-.394-6.297-.406-.19-2.838-.728-5.324-.836-2.485-.109-5.023.214-5.637 1.745-.247 1.205-.146 2.432.486 3.515 1.122 1.637 2.45 2.762 4.512 3.235m28.512 48.97c.788-2.05.66-5.026-.466-6.731-1.126-1.706-4.874-3.21-6.528-.52-.255.39-1.166 2.81-1.642 5.348s-.518 5.193.967 6.05c1.202.43 2.476.506 3.684.016 1.845-.913 3.197-2.111 3.985-4.162m22.582 69.16c2.077-1.027 3.6-2.376 4.487-4.685.888-2.309.743-5.66-.525-7.58-1.267-1.92-5.487-3.614-7.35-.585-.286.439-1.312 3.164-1.847 6.022-.537 2.857-.584 5.846 1.088 6.81 1.353.485 2.788.571 4.147.019m-9.74-61.4c-1.273-1.701-5.256-3.035-6.81-.14-.24.419-1.039 2.989-1.378 5.653-.34 2.665-.22 5.423 1.373 6.223 1.275.373 2.602.375 3.825-.208 1.862-1.061 3.192-2.387 3.885-4.565.694-2.179.378-5.261-.896-6.962m-11.178 41.644c1.911-1.089 3.277-2.451 3.989-4.687.712-2.237.389-5.403-.92-7.15-1.306-1.748-5.398-3.117-6.993-.146-.247.432-1.066 3.07-1.414 5.807-.35 2.735-.227 5.57 1.408 6.39 1.31.383 2.674.385 3.93-.214m86.702 81.662c.216-.428.875-3.02 1.075-5.68.199-2.66-.061-5.392-1.682-6.101-1.285-.305-2.602-.239-3.785.403-1.792 1.148-3.043 2.532-3.618 4.729-.576 2.196-.105 5.237 1.246 6.86 1.351 1.623 5.371 2.74 6.764-.21m-78.71-13.93c-2.004-1.073-5.074-1.323-6.969-.386-1.894.937-3.918 4.59-1.37 6.632.366.311 2.734 1.557 5.278 2.37 2.542.815 5.262 1.198 6.33-.215.597-1.178.84-2.476.49-3.778-.7-2.012-1.756-3.552-3.76-4.624m12.013 54.06c2.145-1.469 4.065-3.33 3.618-4.995-.55-1.163-1.403-2.125-2.61-2.634-1.964-.665-3.78-.774-5.8.125-2.022.899-4.05 3.109-4.463 5.124-.412 2.016 1.185 5.755 4.278 5.018.459-.096 2.83-1.171 4.977-2.639m-24.95-104.634c-1.895-1.093-6.202-.74-6.498 2.627-.056.494.23 3.247.99 5.904.758 2.657 1.989 5.218 3.818 5.328 1.357-.164 2.614-.7 3.535-1.747 1.33-1.757 2.049-3.55 1.822-5.892-.226-2.34-1.774-5.126-3.667-6.22m16.792 37.428c2.539 1.145 5.31 1.866 6.587.529.758-1.15 1.163-2.467.956-3.856-.486-2.168-1.398-3.89-3.346-5.239-1.948-1.35-5.1-1.973-7.175-1.227-2.074.745-4.606 4.289-2.209 6.709.344.366 2.65 1.938 5.187 3.084m-28.214-8.372c1.439-1.554 2.389-4.26 1.992-6.189-.398-1.928-3.21-4.615-5.653-2.8-.367.257-2.047 2.096-3.381 4.196-1.335 2.099-2.321 4.459-1.301 5.756.921.815 2.034 1.34 3.29 1.333 1.977-.156 3.615-.744 5.053-2.296m-13.28 55.153c-.147-1.221-.63-2.353-1.573-3.181-1.581-1.197-3.196-1.845-5.303-1.64-2.107.203-4.615 1.596-5.6 3.3-.985 1.705-.665 5.583 2.365 5.85.445.051 2.923-.207 5.315-.89 2.392-.683 4.697-1.791 4.796-3.439m11.654-42.042c-.967-.76-2.109-1.217-3.36-1.137-1.966.272-3.567.956-4.912 2.59-1.345 1.634-2.134 4.393-1.624 6.295.51 1.9 3.476 4.418 5.808 2.463.35-.278 1.92-2.213 3.128-4.388 1.209-2.174 2.055-4.587.96-5.823m.234 96.85c1.965-.272 3.565-.955 4.91-2.59 1.346-1.633 2.135-4.392 1.625-6.293-.51-1.902-3.476-4.418-5.808-2.465-.35.278-1.92 2.213-3.129 4.388-1.208 2.175-2.055 4.588-.96 5.823.968.76 2.11 1.218 3.362 1.137m46.496-76.244c2.675.4 5.456.341 6.295-1.246.403-1.275.434-2.612-.127-3.855-1.027-1.897-2.332-3.266-4.51-4.012-2.177-.745-5.287-.495-7.028.749-1.742 1.245-3.172 5.227-.291 6.854.416.251 2.986 1.11 5.66 1.51m-39.736 31.995c2.28.73 4.718 1.073 5.677-.193.533-1.057.752-2.221.44-3.387-.629-1.803-1.575-3.184-3.372-4.145-1.796-.962-4.548-1.186-6.247-.346-1.698.84-3.514 4.115-1.229 5.946.329.28 2.45 1.395 4.731 2.125m-7.52-21.055c.19-.405.729-2.839.837-5.323.108-2.486-.214-5.023-1.745-5.638-1.206-.247-2.432-.146-3.516.486-1.636 1.121-2.761 2.449-3.233 4.512-.474 2.063.055 4.885 1.361 6.357 1.306 1.473 5.085 2.396 6.297-.394m5.82 34.039c-.127-1.965-2.543-5.015-5.212-3.556-.399.204-2.318 1.794-3.929 3.69-1.611 1.894-2.915 4.094-2.083 5.52.8.935 1.83 1.609 3.073 1.775 1.98.118 3.683-.238 5.323-1.577 1.64-1.338 2.955-3.888 2.828-5.852m54.923-144.942c1.367.147 2.722-.095 3.86-.913 1.703-1.422 2.815-3.018 3.122-5.365.308-2.347-.58-5.43-2.19-6.931-1.609-1.501-5.913-2.13-6.966 1.105-.167.473-.51 3.237-.367 6.015.144 2.778.77 5.567 2.54 6.09m-113.1-104.612c.525 1.205 1.367 2.215 2.586 2.773 1.987.74 3.838.907 5.931.052 2.093-.856 4.232-3.052 4.716-5.098.484-2.047-1.033-5.918-4.215-5.26-.471.084-2.928 1.109-5.166 2.542-2.238 1.434-4.257 3.275-3.852 4.991m136.101 156.854c.214-.473.805-3.304.896-6.188.091-2.886-.318-5.826-2.105-6.518-1.401-.27-2.823-.135-4.072.614-1.882 1.324-3.17 2.88-3.689 5.28-.52 2.401.132 5.667 1.67 7.357 1.534 1.69 5.933 2.71 7.3-.545M247.453 788.043c1.81-.773 3.882-4.066 1.618-6.099-.326-.307-2.463-1.587-4.786-2.476-2.325-.889-4.833-1.386-5.9-.127-.617 1.065-.908 2.26-.651 3.489.547 1.906 1.45 3.394 3.258 4.495 1.808 1.1 4.65 1.49 6.461.718m200.18-84.593c.362-1.939-1.163-5.455-4.099-4.755-.438.092-2.708 1.12-4.761 2.525-2.053 1.405-3.89 3.184-3.462 4.78.526 1.112 1.342 2.032 2.498 2.52.033.011.066.019.1.03 1.474-.892 2.981-1.838 4.54-2.857 1.721-.78 3.452-1.521 5.185-2.243M335.86 706.8c-.55-1.163-1.403-2.125-2.61-2.635-1.965-.664-3.78-.773-5.8.126-2.022.897-4.05 3.108-4.463 5.124-.411 2.015 1.186 5.754 4.278 5.018.459-.096 2.831-1.172 4.976-2.64 2.146-1.468 4.065-3.328 3.619-4.994m-62.597 43.111c1.14-.462 2.103-1.226 2.655-2.354.739-1.84.94-3.569.188-5.548-.752-1.978-2.755-4.033-4.658-4.533-1.904-.502-5.562.826-5.022 3.82.067.443.97 2.766 2.258 4.893 1.287 2.129 2.963 4.061 4.58 3.722m67.017-98.735c.692-2.044.805-3.933-.13-6.035-.936-2.103-3.235-4.213-5.331-4.642-2.098-.428-5.987 1.233-5.221 4.451.1.477 1.218 2.944 2.745 5.177 1.528 2.233 3.463 4.229 5.196 3.764 1.21-.571 2.211-1.459 2.74-2.715m8.924-45.354c-1.689-1.575-6.207-2.234-7.311 1.16-.176.495-.535 3.398-.385 6.312.15 2.916.808 5.843 2.665 6.392 1.436.154 2.858-.1 4.053-.96 1.786-1.492 2.953-3.168 3.276-5.63.322-2.462-.608-5.699-2.298-7.274m-3.227 118.9c.451-.095 2.785-1.153 4.896-2.597 2.112-1.444 4-3.275 3.561-4.915-.541-1.143-1.38-2.09-2.569-2.59-1.932-.655-3.719-.762-5.707.123-1.99.883-3.984 3.059-4.39 5.041-.406 1.984 1.166 5.663 4.21 4.938m-14.19-128.99c.855-2.222.716-5.448-.505-7.296-1.22-1.849-5.282-3.479-7.076-.564-.275.422-1.263 3.046-1.778 5.797-.517 2.75-.562 5.628 1.046 6.556 1.304.466 2.686.55 3.993.018 2.001-.99 3.466-2.288 4.32-4.511m32.01 77.71c.183-.472.613-3.253.554-6.061-.058-2.81-.606-5.647-2.377-6.228-1.376-.19-2.751.012-3.926.803-1.763 1.384-2.935 2.962-3.318 5.321-.382 2.36.418 5.502 1.997 7.067 1.58 1.565 5.906 2.33 7.07-.902m6.316 53.39c.295-.35 1.477-2.599 2.25-5.014.775-2.417 1.139-5-.204-6.015-1.119-.566-2.352-.797-3.589-.465-1.91.665-3.373 1.668-4.392 3.571-1.018 1.904-1.255 4.82-.366 6.62.89 1.799 4.36 3.722 6.3 1.302m-3.581-37.437c-1.285-.305-2.602-.238-3.785.403-1.792 1.148-3.043 2.533-3.618 4.728-.576 2.196-.104 5.238 1.246 6.862 1.351 1.622 5.372 2.739 6.764-.212.217-.429.876-3.02 1.075-5.68.2-2.66-.06-5.39-1.682-6.101m-118.544 29.806c-.42.153-2.523 1.492-4.356 3.173-1.833 1.68-3.4 3.702-2.753 5.22.678 1.027 1.617 1.822 2.83 2.142 1.95.364 3.684.222 5.478-.903 1.793-1.126 3.414-3.493 3.532-5.458.117-1.965-1.902-5.29-4.731-4.174m-47.077-78.967c-.4.19-2.345 1.707-3.994 3.536-1.65 1.828-3.003 3.966-2.222 5.4.764.948 1.764 1.645 2.988 1.845 1.956.176 3.652-.127 5.313-1.404 1.66-1.276 3.035-3.761 2.967-5.708-.069-1.947-2.369-5.034-5.052-3.669m-15.181-23.016c1.934-.86 3.874-2.974 4.268-4.903.395-1.929-1.134-5.506-4.093-4.8-.438.09-2.707 1.12-4.76 2.524-2.054 1.405-3.891 3.185-3.464 4.78.527 1.111 1.343 2.031 2.499 2.52 1.88.635 3.615.74 5.55-.12m23.038 79.976c1.879.636 3.616.74 5.55-.12 1.934-.86 3.874-2.975 4.268-4.904.395-1.928-1.133-5.506-4.093-4.801-.438.093-2.708 1.121-4.76 2.525-2.054 1.405-3.89 3.186-3.463 4.78.525 1.111 1.342 2.032 2.498 2.52m-11.971-151.47c-.703-1.065-1.674-1.89-2.932-2.22-2.02-.377-3.818-.23-5.677.936-1.858 1.166-3.538 3.62-3.66 5.656-.122 2.037 1.97 5.483 4.902 4.327.437-.16 2.615-1.548 4.515-3.289 1.9-1.742 3.524-3.838 2.852-5.41m10.595 77.381c.31-1.97-1.401-5.522-4.364-4.672-.44.113-2.691 1.259-4.704 2.776-2.014 1.516-3.792 3.403-3.286 4.996.584 1.103 1.452 1.997 2.646 2.438 1.931.557 3.694.582 5.613-.378 1.918-.96 3.784-3.19 4.095-5.16m-7.38-33.09c-.424-.179-2.944-.643-5.501-.663-2.559-.02-5.154.404-5.73 2-.209 1.248-.06 2.504.63 3.595 1.212 1.64 2.617 2.748 4.754 3.158 2.138.41 5.017-.237 6.483-1.633 1.465-1.396 2.276-5.314-.636-6.456m-19.571 39.157c-1.758-.594-5.284.417-4.97 3.268.035.422.732 2.665 1.805 4.75 1.074 2.085 2.524 4.011 4.066 3.798 1.101-.363 2.058-1.019 2.65-2.042.814-1.684 1.115-3.297.536-5.207-.578-1.91-2.33-3.971-4.087-4.567m-22.456-203.906c1.139-.077 2.21-.47 3.023-1.301 1.187-1.408 1.865-2.872 1.78-4.834-.087-1.96-1.255-4.354-2.786-5.348-1.53-.994-5.139-.89-5.534 1.904-.07.41.05 2.72.565 4.968.517 2.25 1.43 4.44 2.952 4.61M127.369 535.9c.826-1.052 1.325-2.294 1.237-3.654-.295-2.138-1.039-3.878-2.816-5.34-.953-.785-2.256-1.385-3.58-1.697 1.26 3.774 2.628 7.534 3.963 11.207.46-.063.868-.225 1.196-.516m65.773 140.687c-.367-.043-2.124.13-4.07.575a480.832 480.832 0 0 1 3.41 7.82c1.28-.61 2.43-1.518 3.024-2.547.985-1.705.666-5.581-2.364-5.848m-25.928-62.567c.893-1.877.987-4.693.049-6.384-.939-1.69-4.365-3.381-6.12-.963-.22.284-.945 1.815-1.548 3.645 1.382 2.348 2.774 4.698 4.126 7.09 1.526-.713 2.697-1.713 3.493-3.388m31.723 86.364a262.433 262.433 0 0 1 1.733 4.29c.26-1.56-.181-3.549-1.733-4.29m50.809 57.619c1.966-.272 3.565-.956 4.911-2.59 1.345-1.633 2.134-4.392 1.624-6.293-.51-1.902-3.476-4.42-5.807-2.465-.351.279-1.92 2.213-3.13 4.388-1.208 2.174-2.055 4.587-.96 5.822.969.76 2.11 1.219 3.362 1.138m-15.709-27.206c-.509-1.9-3.475-4.417-5.807-2.463-.351.278-1.92 2.213-3.13 4.387-1.208 2.175-2.054 4.588-.959 5.823.968.76 2.11 1.218 3.361 1.138 1.966-.272 3.565-.956 4.911-2.59 1.345-1.634 2.134-4.393 1.624-6.295m.726-51.9c-.324.309-1.711 2.378-2.718 4.653-1.007 2.275-1.632 4.756-.43 5.886 1.033.67 2.211 1.021 3.452.828 1.931-.448 3.463-1.274 4.655-3.023 1.192-1.749 1.728-4.568 1.049-6.416-.68-1.847-3.863-4.085-6.008-1.928m-6.648 82.52c1.98.12 3.683-.237 5.323-1.576 1.64-1.338 2.954-3.888 2.828-5.852-.127-1.965-2.543-5.015-5.212-3.556-.399.204-2.318 1.794-3.93 3.69-1.61 1.894-2.915 4.094-2.082 5.52.8.936 1.83 1.609 3.073 1.775m15.444-100.764c-.709-1.993-2.668-4.09-4.56-4.631-1.893-.542-5.578.707-5.102 3.712.058.444.91 2.786 2.152 4.94 1.243 2.155 2.877 4.124 4.5 3.82 1.15-.44 2.13-1.182 2.705-2.298.778-1.825 1.015-3.549.305-5.543m-19.673-101.82c-.279-.353-2.215-1.924-4.391-3.133s-4.592-2.057-5.829-.961c-.759.968-1.219 2.112-1.138 3.365.273 1.967.957 3.568 2.592 4.914 1.636 1.347 4.397 2.136 6.3 1.627 1.903-.51 4.422-3.48 2.466-5.813m42.652 219.656c1.081-.355 2.019-.999 2.598-2.003.799-1.65 1.093-3.231.527-5.103-.567-1.872-2.285-3.893-4.008-4.477-1.723-.582-5.18.409-4.872 3.204.034.412.718 2.612 1.77 4.655 1.053 2.044 2.474 3.933 3.985 3.724m-31.817-72.744c-.51-1.902-3.477-4.418-5.809-2.464-.35.279-1.92 2.214-3.129 4.388-1.208 2.175-2.055 4.588-.96 5.823.968.759 2.11 1.218 3.362 1.137 1.965-.272 3.565-.955 4.91-2.59 1.345-1.634 2.135-4.393 1.626-6.294m-3.593-59.769c-.374-.245-2.707-1.122-5.152-1.58-2.445-.46-5.002-.5-5.828.93-.414 1.158-.487 2.386-.016 3.549.88 1.778 2.035 3.08 4.011 3.84 1.975.758 4.841.635 6.485-.45 1.642-1.084 3.092-4.695.5-6.289m-57.65-162.403c1.152-.76 2.044-1.811 2.403-3.171.407-2.188.247-4.131-1.014-6.141-1.26-2.012-3.916-3.828-6.12-3.962-2.202-.13-5.931 2.132-4.679 5.305.172.473 1.673 2.829 3.558 4.884 1.884 2.056 4.15 3.812 5.853 3.085m51.503 112.784c-1.221-.153-2.435.04-3.468.754-1.544 1.245-2.565 2.654-2.878 4.747-.313 2.094.43 4.866 1.845 6.234 1.415 1.368 5.253 2 6.248-.875.158-.42.509-2.887.425-5.373-.082-2.486-.598-4.991-2.172-5.487m-20.196-73.085c-.937-1.69-4.364-3.382-6.12-.965-.268.35-1.303 2.568-1.936 4.927-.633 2.358-.865 4.86.472 5.776 1.103.493 2.3.658 3.474.282 1.807-.727 3.17-1.759 4.062-3.636.892-1.878.988-4.694.048-6.384m11.876 196.207c-.278-.351-2.214-1.92-4.387-3.13-2.175-1.207-4.589-2.054-5.823-.959a5.422 5.422 0 0 0-.955 1.855 243.334 243.334 0 0 0 2.656 6.597c1.654 1.23 4.233 1.93 6.045 1.444 1.901-.509 4.418-3.475 2.464-5.807m14.882-93.176c.395-1.929-1.133-5.506-4.093-4.801-.438.092-2.708 1.121-4.76 2.525-2.054 1.404-3.89 3.184-3.463 4.779.525 1.112 1.342 2.032 2.498 2.52 1.88.637 3.616.74 5.55-.12 1.934-.86 3.874-2.974 4.268-4.903m-24.956 46.266c1.527-1.106 2.563-2.395 2.96-4.366.397-1.972-.175-4.638-1.452-6.004-1.277-1.367-4.89-2.15-5.971.532-.17.39-.62 2.714-.661 5.077-.041 2.363.328 4.765 1.798 5.31 1.151.204 2.313.078 3.326-.55m136.249-281.482c-1.79 1.148-3.042 2.533-3.618 4.73-.576 2.195-.104 5.237 1.247 6.86 1.35 1.622 5.37 2.74 6.764-.211.216-.43.875-3.02 1.074-5.68.2-2.66-.06-5.391-1.683-6.103-1.283-.305-2.6-.237-3.784.404m4.66 21.322c-1.346 1.635-2.135 4.393-1.626 6.294.51 1.902 3.476 4.418 5.807 2.464.351-.278 1.922-2.213 3.13-4.387 1.208-2.175 2.055-4.588.96-5.823-.967-.76-2.11-1.218-3.362-1.137-1.964.272-3.565.956-4.91 2.59m43.362 216.298c1.979-.98 3.428-2.264 4.272-4.463.846-2.199.709-5.39-.499-7.219-1.207-1.828-5.226-3.442-7-.557-.273.418-1.25 3.013-1.76 5.735-.51 2.72-.555 5.567 1.037 6.486 1.29.461 2.656.543 3.95.018m181.272-40.518c-.033.32-.037.651-.026.99.258-1.182.506-2.373.746-3.574a7.571 7.571 0 0 0-.72 2.584m-213.446-81.702c1.88-.972 3.692-3.197 3.973-5.145.28-1.948-1.456-5.43-4.369-4.553-.431.117-2.637 1.278-4.604 2.8-1.967 1.523-3.696 3.408-3.176 4.975.59 1.079 1.46 1.95 2.642 2.369 1.914.524 3.653.526 5.534-.446M511.52 456.39c.76-.968 1.217-2.11 1.137-3.361-.272-1.966-.956-3.566-2.59-4.91-1.635-1.346-4.393-2.136-6.295-1.626-1.9.509-4.418 3.476-2.463 5.808.278.351 2.213 1.92 4.388 3.129 2.174 1.208 4.587 2.055 5.823.96m-14.893 20.756c.351-.279 1.922-2.214 3.13-4.388 1.208-2.175 2.055-4.588.96-5.823-.969-.76-2.11-1.218-3.362-1.137-1.965.272-3.565.956-4.911 2.59-1.345 1.633-2.134 4.392-1.624 6.293.51 1.902 3.475 4.418 5.807 2.465m14.031 45.756c2.174 1.208 4.588 2.055 5.823.96.76-.968 1.217-2.11 1.137-3.361-.271-1.966-.956-3.565-2.59-4.91-1.633-1.346-4.393-2.135-6.294-1.626-1.9.51-4.418 3.476-2.463 5.808.278.35 2.213 1.92 4.387 3.129m-10.192-29.04c2.174 1.208 4.588 2.054 5.823.959.759-.967 1.218-2.11 1.137-3.362-.272-1.965-.955-3.564-2.59-4.91-1.634-1.346-4.392-2.135-6.294-1.625-1.901.51-4.418 3.477-2.464 5.808.278.351 2.214 1.92 4.388 3.13m18.03 47.653c2.173 1.207 4.587 2.054 5.822.96.76-.968 1.218-2.11 1.137-3.362-.271-1.965-.956-3.566-2.59-4.91-1.633-1.346-4.392-2.135-6.293-1.626-1.901.51-4.419 3.477-2.465 5.808.279.35 2.214 1.921 4.388 3.13m-132.578 42.41c-1.329-.182-2.656.017-3.788.784-1.699 1.34-2.827 2.864-3.19 5.142-.365 2.279.414 5.31 1.94 6.817 1.528 1.507 5.707 2.238 6.822-.885.177-.455.586-3.14.524-5.852-.062-2.711-.597-5.448-2.308-6.007m82.353 25.378c.358-.285 1.959-2.258 3.191-4.476 1.232-2.217 2.096-4.68.98-5.938-.988-.775-2.153-1.243-3.43-1.16-2.003.277-3.636.974-5.008 2.64-1.372 1.668-2.177 4.481-1.658 6.42.52 1.94 3.546 4.506 5.925 2.514m59.758-106.433c.137-.426.37-2.907.17-5.387-.201-2.48-.836-4.957-2.431-5.378-1.227-.095-2.431.158-3.428.919-1.485 1.316-2.437 2.773-2.65 4.879-.212 2.105.661 4.838 2.14 6.138 1.479 1.3 5.343 1.748 6.199-1.171m-91.343 144.647c1.319 1.488 5.139 2.422 6.364-.398.191-.41.735-2.87.845-5.381.11-2.511-.216-5.076-1.764-5.698-1.219-.249-2.458-.147-3.553.492-1.654 1.134-2.791 2.475-3.269 4.56-.477 2.086.057 4.937 1.377 6.425m-60.328-104.12c-1.52-1.335-5.494-1.796-6.375 1.206-.141.439-.381 2.99-.174 5.54.206 2.55.858 5.099 2.5 5.53 1.262.098 2.5-.16 3.525-.944 1.527-1.354 2.506-2.852 2.725-5.018.22-2.165-.68-4.976-2.2-6.313m-120.514-22.282c1.473-1.306 2.397-5.086-.393-6.297-.406-.19-2.84-.728-5.324-.837-2.486-.108-5.023.215-5.638 1.746-.246 1.205-.145 2.431.487 3.515 1.122 1.636 2.448 2.762 4.512 3.234 2.063.473 4.884-.056 6.356-1.361m198.923 53.748c.19-.406.728-2.839.837-5.324.107-2.485-.215-5.023-1.746-5.637-1.206-.247-2.431-.146-3.516.486-1.635 1.122-2.761 2.449-3.233 4.512-.473 2.064.055 4.884 1.361 6.356 1.306 1.473 5.085 2.398 6.297-.393m14.207 64.06c1.272-1.62 1.516-5.682-1.583-6.407-.453-.12-3.058-.218-5.636.136-2.577.354-5.13 1.16-5.476 2.851-.028 1.286.306 2.53 1.159 3.527 1.46 1.473 3.037 2.384 5.248 2.484 2.213.1 5.017-.971 6.288-2.591m-3.391 27.07c1.958.402 5.594-1.151 4.878-4.158-.094-.445-1.14-2.752-2.566-4.838-1.427-2.086-3.236-3.952-4.856-3.518-1.13.535-2.065 1.364-2.561 2.538-.646 1.91-.752 3.674.122 5.639.874 1.966 3.022 3.937 4.983 4.337m-11.222-40.398c.168-.421.576-2.91.545-5.428-.03-2.518-.498-5.066-2.08-5.602-1.232-.18-2.466-.01-3.526.69-1.59 1.226-2.655 2.63-3.016 4.743-.362 2.111.33 4.933 1.733 6.348 1.403 1.416 5.275 2.138 6.344-.751m-33.234-40.715c1.16.416 2.392.49 3.556.016 1.782-.881 3.086-2.038 3.847-4.017.762-1.98.637-4.852-.45-6.498-1.086-1.646-4.704-3.098-6.302-.502-.245.375-1.124 2.712-1.584 5.163-.46 2.449-.5 5.012.933 5.838m-46.522-58.106c-.708-1.995-2.668-4.09-4.561-4.632-1.893-.541-5.577.708-5.101 3.712.058.445.91 2.787 2.153 4.941 1.242 2.155 2.876 4.124 4.499 3.82 1.15-.44 2.13-1.183 2.704-2.298.778-1.826 1.016-3.549.306-5.543m-20.229-85.97c.445-.059 2.786-.91 4.941-2.154 2.155-1.242 4.122-2.877 3.819-4.499-.44-1.15-1.183-2.13-2.297-2.704-1.825-.778-3.549-1.015-5.544-.307-1.994.71-4.09 2.67-4.63 4.562-.543 1.893.707 5.577 3.711 5.101m58.985 108.963c1.477 1.299 5.343 1.747 6.198-1.173.138-.426.37-2.906.17-5.386-.2-2.479-.835-4.957-2.432-5.377-1.226-.096-2.43.156-3.427.918-1.484 1.316-2.436 2.772-2.65 4.878-.213 2.106.662 4.84 2.14 6.14m-15.26-68.361c1.983.056 3.675-.356 5.27-1.746 1.595-1.392 2.828-3.983 2.638-5.943-.19-1.959-2.703-4.928-5.325-3.385-.39.217-2.258 1.868-3.807 3.814-1.55 1.947-2.781 4.187-1.904 5.587.829.907 1.88 1.547 3.128 1.673m-18.517-42.93c.434.112 2.924.208 5.388-.13 2.465-.339 4.904-1.11 5.234-2.726.028-1.23-.29-2.418-1.106-3.371-1.396-1.41-2.904-2.28-5.018-2.375-2.115-.096-4.795.927-6.01 2.477-1.216 1.548-1.45 5.43 1.512 6.125m155.038 149.36c2.049-.612 3.641-1.602 4.806-3.563s1.554-5.03.7-6.97c-.855-1.942-4.428-4.138-6.59-1.674-.328.354-1.684 2.673-2.615 5.186-.93 2.515-1.438 5.225-.068 6.36 1.156.65 2.447.952 3.767.661m-78.466-55.182c-1.779.879-3.081 2.033-3.84 4.01-.76 1.975-.636 4.842.448 6.484 1.085 1.643 4.695 3.092 6.29.501.244-.375 1.122-2.706 1.58-5.152.46-2.444.5-5.002-.93-5.827-1.158-.415-2.387-.489-3.548-.016m-15.512-82.819c-.361-1.935-3.126-4.67-5.601-2.902-.372.251-2.085 2.06-3.456 4.136-1.372 2.074-2.401 4.416-1.405 5.73.907.833 2.01 1.377 3.266 1.393 1.98-.12 3.626-.68 5.093-2.206 1.467-1.525 2.466-4.216 2.103-6.15m-7.808 23.696c-.35.278-1.92 2.213-3.129 4.388-1.208 2.174-2.055 4.587-.96 5.822.968.76 2.11 1.218 3.362 1.137 1.965-.271 3.565-.955 4.91-2.589 1.345-1.633 2.134-4.393 1.625-6.294-.51-1.901-3.476-4.418-5.808-2.464m10.228 126.523c1.7-1.024 2.901-2.283 3.494-4.315.593-2.031.232-4.879-.986-6.425-1.217-1.547-4.936-2.692-6.309.023-.213.394-.893 2.79-1.147 5.266-.255 2.474-.082 5.026 1.41 5.73 1.19.317 2.42.288 3.538-.28m-10.235-89.47c-.146 2.113.816 4.816 2.336 6.067 1.52 1.251 5.397 1.574 6.159-1.37.123-.431.276-2.918-.004-5.39-.28-2.472-.995-4.929-2.604-5.297-1.23-.055-2.425.236-3.396 1.03-1.442 1.363-2.346 2.849-2.491 4.96m32.871-57.361c-.44.08-2.735 1.049-4.825 2.4-2.09 1.35-3.972 3.08-3.587 4.686.496 1.125 1.288 2.067 2.43 2.585 1.862.684 3.596.834 5.552.026 1.956-.81 3.951-2.872 4.396-4.79.445-1.917-.988-5.534-3.966-4.907m-65.22 260.184c-1.23.148-2.369.634-3.202 1.583-1.205 1.593-1.858 3.218-1.652 5.339.193 1.992 1.445 4.323 3.018 5.422 2.1-.832 4.158-1.603 6.197-2.351-.006-.728-.273-2.973-.9-5.166-.687-2.407-1.803-4.727-3.461-4.827m92.45-279.033c.28.35 2.213 1.92 4.388 3.129 2.174 1.208 4.588 2.056 5.823.96.76-.968 1.218-2.11 1.137-3.362a9.465 9.465 0 0 0-.44-1.858c-2.548-1.495-5.505-2.908-9.35-4.27-1.666 1.01-3.21 3.43-1.558 5.401m-17.243 3.531c.79-1.803.047-5.622-2.995-5.553-.449 0-2.882.53-5.185 1.472-2.302.944-4.47 2.3-4.386 3.948.28 1.197.886 2.269 1.914 2.987 1.704 1.016 3.38 1.482 5.451 1.046 2.072-.436 4.412-2.097 5.201-3.9m-60.18 58.435c-.254-1.953-2.862-4.84-5.431-3.21-.385.229-2.197 1.94-3.682 3.935-1.485 1.996-2.643 4.276-1.722 5.645.86.88 1.93 1.486 3.182 1.571 1.984-.01 3.661-.475 5.21-1.917 1.55-1.443 2.697-4.072 2.443-6.024m81.351 10.317c-1.866-.999-4.727-1.231-6.491-.359-1.764.872-3.65 4.275-1.277 6.178.342.29 2.547 1.45 4.916 2.208 2.37.759 4.902 1.115 5.898-.2.555-1.098.78-2.308.456-3.52-.652-1.873-1.636-3.309-3.502-4.307m3.992 36.22c-1.902.51-4.42 3.477-2.465 5.808.278.351 2.214 1.92 4.388 3.13 2.174 1.208 4.588 2.055 5.823.96.76-.969 1.217-2.11 1.137-3.362-.272-1.965-.956-3.565-2.59-4.91-1.634-1.346-4.393-2.135-6.293-1.626m57.86 79.481a31.41 31.41 0 0 0-5.304-1.172c-2.912-.37-5.93-.24-6.803 1.501-.408 1.394-.41 2.846.227 4.184 1.16 2.034 2.611 3.489 4.992 4.247a8.41 8.41 0 0 0 1.623.322c1.937-3 3.604-5.934 5.265-9.082m-1.291-95.006c.984-1.705.666-5.582-2.365-5.85-.445-.05-2.923.209-5.314.89-2.393.684-4.698 1.792-4.797 3.44.147 1.22.63 2.352 1.573 3.18 1.582 1.198 3.197 1.846 5.304 1.642 2.107-.204 4.615-1.597 5.599-3.302m-1.18 57.82c.363-.287 1.982-2.284 3.228-4.527 1.247-2.243 2.121-4.733.99-6.007-.998-.784-2.176-1.257-3.467-1.174-2.028.28-3.678.986-5.066 2.672-1.39 1.686-2.202 4.532-1.677 6.494.526 1.962 3.586 4.558 5.992 2.543m9.091-22.692c.146-.453.392-3.08.18-5.707-.213-2.627-.885-5.252-2.576-5.697-1.299-.1-2.575.166-3.63.973-1.573 1.395-2.582 2.937-2.808 5.168-.225 2.231.7 5.127 2.267 6.504 1.566 1.375 5.66 1.85 6.567-1.241m3.32-46.746c-.76 1.975-.636 4.842.448 6.484.673 1.02 2.317 1.962 3.849 1.915-.8-3.632-1.733-7.351-2.75-10.825-.647.648-1.165 1.433-1.547 2.426m6.839 20.392c-1.484 1.324-2.437 2.788-2.65 4.902-.215 2.125.666 4.883 2.158 6.196.67.588 1.828 1 2.977 1.013-.211-3.623-.933-7.57-2.485-12.11m-58.95-64.3c-.358 2.087.326 4.874 1.712 6.271 1.386 1.4 5.21 2.112 6.265-.741.167-.416.57-2.875.54-5.363-.03-2.487-.492-5.003-2.055-5.532-1.218-.178-2.437-.01-3.483.681-1.572 1.21-2.622 2.598-2.979 4.685m-77.268 53.494c-.968-.76-2.11-1.219-3.362-1.138-1.965.272-3.564.955-4.91 2.59-1.345 1.634-2.135 4.393-1.625 6.295.509 1.9 3.476 4.417 5.807 2.463.352-.278 1.922-2.213 3.13-4.387 1.208-2.175 2.055-4.588.96-5.823m3.566 35.514c.19-.407.728-2.839.836-5.325.109-2.485-.214-5.021-1.745-5.637-1.205-.247-2.43-.146-3.515.486-1.636 1.123-2.761 2.45-3.234 4.512-.472 2.064.055 4.884 1.361 6.357 1.306 1.473 5.086 2.397 6.297-.393M411.86 446.97c-.37.251-2.084 2.06-3.456 4.135-1.372 2.076-2.401 4.417-1.404 5.733.907.831 2.01 1.375 3.265 1.391 1.98-.12 3.627-.68 5.095-2.205 1.466-1.526 2.464-4.217 2.102-6.151-.362-1.936-3.127-4.672-5.602-2.903m142.502 36.814c-1.815-2.435-3.614-4.836-5.245-7.237-1.928.409-4 1.672-4.874 3.184-.984 1.705-.666 5.582 2.365 5.85.445.05 2.923-.208 5.315-.891.858-.244 1.7-.547 2.439-.906m-9.555 65.631c1.415 1.369 5.254 2 6.248-.875.158-.419.508-2.887.426-5.373-.083-2.486-.598-4.991-2.173-5.487-1.22-.153-2.435.042-3.467.755-1.546 1.244-2.566 2.653-2.879 4.746-.312 2.094.43 4.866 1.845 6.234m8.616-40.564c.158-.42.509-2.886.427-5.372-.083-2.487-.599-4.992-2.173-5.488-1.221-.153-2.436.042-3.468.755-1.545 1.245-2.565 2.653-2.878 4.747-.313 2.093.43 4.864 1.844 6.233 1.416 1.368 5.255 2 6.248-.875m-15.326-43.204c1.022 1.298 3.802 2.304 5.483.99-2.089-2.516-4.193-5.154-6.358-7.74-.037.11-.078.21-.112.324-.592 2.031-.23 4.878.987 6.426M456.092 683.52c2.115.214 4.861-.664 6.167-2.15 1.306-1.486 1.757-5.368-1.177-6.228-.428-.14-2.92-.372-5.412-.171-2.491.201-4.981.838-5.403 2.442-.096 1.233.157 2.444.923 3.445 1.323 1.491 2.785 2.448 4.902 2.662M350.957 559.907c-.147.456-.396 3.112-.182 5.767.216 2.654.894 5.307 2.604 5.756 1.313.103 2.602-.167 3.67-.983 1.589-1.41 2.608-2.968 2.836-5.222.227-2.256-.708-5.181-2.29-6.573-1.584-1.39-5.72-1.87-6.638 1.255m-.354-25.765c-1.657-1.136-5.629-1.115-6.139 1.948-.086.45-.018 2.993.491 5.48.508 2.488 1.455 4.922 3.124 5.151 1.255-.054 2.445-.457 3.362-1.352 1.342-1.515 2.129-3.109 2.085-5.268-.043-2.162-1.263-4.825-2.923-5.959m-26.685-23.169c-.446-.051-2.924.208-5.316.89-2.392.684-4.698 1.791-4.796 3.439.147 1.222.63 2.353 1.572 3.181 1.582 1.198 3.197 1.846 5.304 1.642 2.107-.205 4.616-1.597 5.6-3.302.983-1.705.666-5.583-2.364-5.85m169.59 168.353c1.698-1.48 3.008-4.237 2.807-6.321-.203-2.085-2.876-5.245-5.664-3.602-.417.23-2.403 1.987-4.052 4.057-1.648 2.071-2.958 4.454-2.024 5.942.882.967 2 1.648 3.327 1.782 2.11.059 3.91-.379 5.606-1.858M326.291 549.555c-.13.45-.29 3.056.004 5.645.294 2.59 1.042 5.162 2.727 5.547 1.288.059 2.54-.245 3.557-1.077 1.51-1.428 2.458-2.985 2.61-5.197.152-2.211-.855-5.044-2.448-6.355-1.591-1.31-5.652-1.649-6.45 1.437m-168.396-165.38c1.053 2.045 2.474 3.933 3.985 3.724 1.082-.354 2.019-.997 2.599-2.002.798-1.65 1.093-3.23.526-5.103-.198-.652-.54-1.318-.968-1.938-2.16 1.726-4.27 3.342-6.314 4.966.057.118.111.236.172.354m324.971 183.322c.29-.342 1.45-2.547 2.208-4.916.759-2.37 1.115-4.902-.2-5.899-1.098-.554-2.308-.78-3.52-.455-1.873.652-3.308 1.636-4.307 3.502-1 1.866-1.231 4.726-.36 6.491.874 1.764 4.276 3.65 6.18 1.277m7.966 52.982c-1.178-.613-2.48-.873-3.793-.538-2.032.68-3.594 1.723-4.697 3.726-1.102 2.001-1.39 5.086-.471 7.003.918 1.917 4.568 3.997 6.653 1.46.317-.366 1.599-2.733 2.448-5.28.85-2.549 1.268-5.278-.14-6.371m-18.493-28.427c1.816-.898 3.146-2.078 3.922-4.096.777-2.018.65-4.947-.458-6.625-1.109-1.677-4.797-3.158-6.425-.512-.25.384-1.146 2.766-1.615 5.264-.469 2.497-.509 5.11.951 5.952 1.183.424 2.438.5 3.625.017m23.204-5.756c.307-.339 1.563-2.552 2.415-4.944.851-2.392 1.299-4.964-.011-6.024-1.102-.602-2.33-.873-3.576-.581-1.934.603-3.43 1.56-4.51 3.43-1.081 1.873-1.412 4.783-.58 6.612.832 1.83 4.242 3.866 6.262 1.507m11.236 37.602c.391-.31 2.14-2.466 3.485-4.889 1.347-2.423 2.29-5.111 1.07-6.488-1.078-.845-2.35-1.357-3.745-1.266-2.19.302-3.972 1.064-5.472 2.885-1.497 1.82-2.378 4.894-1.81 7.013.568 2.119 3.874 4.923 6.472 2.745m14.26 33.382c1.929 2.103 4.247 3.9 5.989 3.156 1.176-.778 2.089-1.854 2.455-3.245.418-2.237.254-4.226-1.036-6.282-1.29-2.057-4.006-3.915-6.26-4.05-2.253-.136-6.067 2.18-4.787 5.424.176.483 1.712 2.894 3.64 4.997m-231.38-36.794c.297-2.26-.557-5.23-2.108-6.675-1.55-1.445-5.697-2.051-6.71 1.064-.162.455-.49 3.119-.354 5.793.138 2.676.742 5.363 2.448 5.866 1.316.142 2.621-.092 3.719-.88 1.64-1.37 2.71-2.907 3.006-5.168m48.257-125.015c-.445-.052-2.924.206-5.316.888-2.391.684-4.697 1.792-4.796 3.44.147 1.222.63 2.353 1.573 3.181 1.582 1.197 3.197 1.845 5.304 1.642 2.107-.205 4.615-1.598 5.599-3.302.984-1.705.666-5.583-2.364-5.85m-88.576 113.881c-.433-.113-2.923-.209-5.388.13-2.464.338-4.903 1.109-5.234 2.725-.028 1.23.29 2.42 1.107 3.373 1.397 1.408 2.903 2.278 5.018 2.374 2.115.095 4.795-.928 6.01-2.477 1.216-1.548 1.45-5.432-1.513-6.125m1.69-24.304c-.967-.76-2.11-1.217-3.362-1.136-1.964.271-3.565.955-4.91 2.589-1.346 1.634-2.134 4.393-1.625 6.295.51 1.9 3.476 4.418 5.808 2.464.35-.279 1.92-2.214 3.129-4.389 1.208-2.173 2.055-4.587.96-5.823m19.39 65.34c1.203-.257 2.286-.841 3.026-1.854 1.05-1.684 1.548-3.35 1.154-5.43-.394-2.08-2.009-4.453-3.795-5.278-1.787-.826-5.62-.158-5.612 2.884-.01.448.47 2.893 1.369 5.213.896 2.32 2.208 4.516 3.858 4.465m5.457-27.417c-.278-.351-2.214-1.922-4.389-3.13-2.173-1.208-4.587-2.055-5.823-.96-.759.968-1.217 2.11-1.136 3.362.272 1.965.955 3.565 2.59 4.91 1.634 1.346 4.392 2.135 6.294 1.625 1.9-.509 4.418-3.476 2.464-5.807m-16.357-67.069c-1.221-.153-2.436.04-3.468.754-1.545 1.244-2.565 2.653-2.878 4.748-.313 2.092.43 4.864 1.845 6.233 1.415 1.368 5.254 2 6.248-.875.158-.42.508-2.887.426-5.374-.083-2.485-.598-4.99-2.173-5.486m10.82 43.7c-.278-.35-2.213-1.92-4.387-3.129-2.175-1.208-4.589-2.055-5.823-.96-.76.968-1.219 2.11-1.138 3.362.272 1.964.955 3.565 2.59 4.91 1.634 1.346 4.392 2.135 6.293 1.625 1.902-.51 4.42-3.476 2.465-5.807M216.93 504.9c.102.484 1.239 2.992 2.79 5.26 1.553 2.27 3.52 4.3 5.282 3.827 1.229-.58 2.246-1.482 2.785-2.76.702-2.076.818-3.996-.133-6.133-.95-2.138-3.287-4.281-5.418-4.718-2.131-.436-6.085 1.254-5.306 4.524m1.428 27.473c-.209 1.248-.06 2.504.63 3.595 1.213 1.64 2.617 2.747 4.754 3.157 2.139.41 5.017-.236 6.483-1.632 1.465-1.396 2.276-5.314-.636-6.456-.424-.18-2.944-.644-5.5-.664-2.558-.02-5.155.404-5.73 2m-8.582-68.91c-1.78.88-3.08 2.034-3.84 4.01-.76 1.976-.636 4.842.448 6.485 1.086 1.643 4.696 3.092 6.29.501.244-.376 1.122-2.708 1.58-5.153.46-2.444.5-5.001-.93-5.826-1.158-.416-2.386-.49-3.548-.017M256.635 696.3c1.158.415 2.387.488 3.548.016 1.779-.88 3.08-2.034 3.84-4.009.76-1.976.635-4.843-.449-6.486-1.084-1.643-4.695-3.092-6.289-.501-.245.376-1.122 2.708-1.58 5.152-.46 2.446-.5 5.003.93 5.828m8.131-26.741c.91-1.912 1.005-4.78.05-6.5-.956-1.722-4.444-3.444-6.232-.982-.274.355-1.327 2.613-1.972 5.016-.644 2.402-.881 4.949.481 5.88 1.124.503 2.343.67 3.537.29 1.84-.741 3.228-1.792 4.136-3.704m-36.45-92.636c.709 1.006 1.67 1.773 2.894 2.055 1.96.304 3.689.11 5.446-1.069 1.76-1.18 3.308-3.594 3.366-5.561.058-1.969-2.06-5.231-4.855-4.03-.416.166-2.476 1.569-4.258 3.303-1.782 1.736-3.287 3.805-2.593 5.302m16.216 62.065c1.015 2.27 2.437 4.397 4.082 4.262 1.188-.319 2.24-.958 2.927-2.007.961-1.735 1.375-3.426.875-5.482-.5-2.057-2.234-4.343-4.06-5.078-1.828-.733-5.62.131-5.457 3.169.013.448.619 2.865 1.633 5.136m247.914 8.355c.392-2.614.334-5.331-1.217-6.152-1.246-.394-2.553-.424-3.768.124-1.855 1.003-3.191 2.28-3.92 4.407-.729 2.128-.485 5.168.732 6.87 1.216 1.701 5.107 3.099 6.698.284.245-.408 1.084-2.919 1.475-5.533m48.023-34.8c.465-.2 2.752-1.841 4.715-3.853 1.964-2.01 3.605-4.39 2.778-6.062-.83-1.116-1.937-1.955-3.326-2.239-2.223-.288-4.171-.019-6.123 1.362-1.953 1.382-3.634 4.155-3.643 6.379-.01 2.224 2.476 5.85 5.599 4.413m-18.327-43.582c.76-.968 1.218-2.11 1.137-3.362-.272-1.964-.955-3.565-2.59-4.91-1.633-1.346-4.392-2.135-6.293-1.625-1.902.51-4.42 3.476-2.465 5.808.28.35 2.215 1.92 4.388 3.13 2.174 1.207 4.589 2.054 5.823.959m-196.8-186.473c-2.032-.242-5.61 1.65-4.623 4.657.134.447 1.396 2.71 3.03 4.717 1.632 2.005 3.635 3.756 5.251 3.176 1.107-.64 1.99-1.567 2.397-2.807.496-2.003.455-3.812-.604-5.742-1.059-1.93-3.418-3.758-5.45-4.001m1.6-13.64l-.372-.222c.123.078.245.154.372.223m2.864 58.221c-1.638 1.122-2.763 2.45-3.235 4.512-.473 2.064.056 4.884 1.36 6.358 1.308 1.473 5.086 2.396 6.298-.395.19-.406.728-2.839.837-5.324.109-2.484-.214-5.022-1.746-5.637-1.205-.246-2.431-.146-3.514.486m198.968 210.065c1.35-.41 2.533-1.181 3.28-2.41 1.037-2.026 1.447-3.979.797-6.32-.65-2.338-2.724-4.894-4.846-5.666-2.122-.772-6.44.36-6.136 3.837.03.513.817 3.26 2.065 5.827 1.248 2.566 2.96 4.95 4.84 4.732m-89.977-205.89c1.978.147 3.686-.187 5.344-1.503 1.658-1.316 3.008-3.847 2.908-5.814-.1-1.966-2.474-5.048-5.163-3.626-.401.199-2.342 1.762-3.979 3.635-1.637 1.872-2.97 4.055-2.158 5.492.787.946 1.807 1.632 3.048 1.817m-25.266-11.666a25.696 25.696 0 0 0-1.208 1.944c-1.208 2.175-2.054 4.59-.96 5.823.968.76 2.11 1.219 3.362 1.138 1.965-.272 3.565-.956 4.91-2.59 1.345-1.633 2.135-4.393 1.625-6.294a3.32 3.32 0 0 0-.226-.578c-1.77.08-3.554.137-5.357.146-.721.116-1.435.255-2.146.411m67.344 123.205c.309-.324 1.59-2.463 2.478-4.786.888-2.323 1.385-4.832.126-5.9-1.065-.615-2.26-.907-3.489-.65-1.906.547-3.393 1.45-4.494 3.257-1.101 1.81-1.492 4.651-.72 6.462.775 1.81 4.067 3.882 6.1 1.617m-14.566-28.794c.35-.278 1.921-2.213 3.129-4.387 1.208-2.175 2.055-4.588.96-5.823-.968-.76-2.11-1.218-3.362-1.138-1.965.272-3.565.956-4.91 2.59-1.346 1.634-2.135 4.393-1.625 6.293.51 1.902 3.476 4.42 5.808 2.465m9.035-22.935c.383-.233 2.181-1.958 3.65-3.965 1.468-2.009 2.608-4.298 1.674-5.66-.866-.873-1.942-1.47-3.194-1.545-1.984.027-3.657.506-5.195 1.96-1.537 1.455-2.662 4.095-2.393 6.045.27 1.95 2.902 4.815 5.458 3.165m30.643 110.586c1.242.444 2.557.523 3.801.017 1.905-.94 3.298-2.178 4.111-4.293.814-2.116.681-5.186-.48-6.945-1.161-1.759-5.028-3.311-6.735-.536-.263.402-1.201 2.9-1.693 5.517-.49 2.618-.534 5.356.996 6.24m-97.948 7.24c1.28.21 2.569.053 3.685-.658 1.678-1.25 2.81-2.695 3.222-4.889.412-2.194-.26-5.146-1.698-6.644-1.437-1.498-5.458-2.316-6.62.676-.183.435-.65 3.022-.662 5.645-.011 2.625.433 5.285 2.073 5.87m.775 25.54c1.313.125 2.61-.124 3.691-.923 1.615-1.383 2.661-2.928 2.927-5.181.266-2.254-.622-5.199-2.183-6.618-1.563-1.42-5.697-1.968-6.666 1.145-.155.454-.45 3.11-.278 5.771.17 2.66.807 5.328 2.51 5.806m-16.082-118.409c-1.39-1.596-3.983-2.828-5.941-2.638-1.96.19-4.93 2.703-3.386 5.324.217.392 1.868 2.26 3.814 3.808 1.946 1.55 4.187 2.781 5.586 1.904.908-.83 1.548-1.88 1.673-3.13.056-1.981-.356-3.673-1.746-5.268m44.467 169.559c1.901-.51 4.419-3.478 2.464-5.809-.278-.35-2.214-1.92-4.387-3.128-2.174-1.209-4.589-2.056-5.824-.96-.759.967-1.217 2.11-1.137 3.361.272 1.965.955 3.566 2.59 4.91 1.634 1.345 4.393 2.135 6.294 1.626m-35.596-116.554c.133-.44.328-2.992.077-5.534-.25-2.543-.947-5.075-2.593-5.479-1.262-.075-2.494.205-3.504 1.005-1.5 1.38-2.452 2.891-2.632 5.058-.18 2.166.766 4.956 2.307 6.264 1.542 1.309 5.518 1.699 6.345-1.314m-13.504-109.057c.502-1.123.67-2.341.288-3.537-.74-1.84-1.791-3.226-3.702-4.136-1.912-.909-4.78-1.005-6.502-.05-1.72.956-3.442 4.445-.981 6.233.355.272 2.613 1.327 5.016 1.97 2.403.646 4.948.882 5.88-.48m-3.905 26.842c-.393.217-2.259 1.867-3.809 3.813-1.55 1.947-2.781 4.188-1.903 5.586.83.909 1.88 1.549 3.128 1.675 1.984.054 3.674-.356 5.27-1.748 1.595-1.39 2.827-3.982 2.637-5.94-.19-1.96-2.703-4.93-5.323-3.386m14.943 191.872c2.314 1.287 4.884 2.188 6.198 1.022.808-1.03 1.296-2.245 1.21-3.578-.289-2.09-1.017-3.795-2.757-5.226-1.738-1.432-4.675-2.271-6.698-1.73-2.024.543-4.702 3.7-2.623 6.182.297.373 2.356 2.044 4.67 3.33m-57.095-219.482c1.902-.51 4.42-3.477 2.465-5.808-.28-.351-2.213-1.92-4.388-3.13-2.174-1.208-4.587-2.054-5.823-.959-.76.968-1.218 2.11-1.137 3.361.272 1.966.956 3.566 2.59 4.91 1.634 1.346 4.392 2.135 6.293 1.626m59.429 195.412c1.332.061 2.627-.255 3.682-1.115 1.561-1.478 2.543-3.089 2.7-5.378.156-2.29-.886-5.22-2.533-6.578-1.648-1.355-5.851-1.707-6.677 1.487-.134.466-.3 3.163.005 5.843s1.078 5.342 2.823 5.74m44.234 9.812c.052-.447-.207-2.942-.895-5.35-.688-2.408-1.803-4.729-3.461-4.828-1.23.147-2.369.635-3.203 1.583-1.205 1.592-1.857 3.217-1.651 5.338.206 2.121 1.607 4.647 3.323 5.637 1.716.99 5.619.67 5.887-2.38m-100.846-177.66c1.95.362 3.685.22 5.478-.904 1.793-1.125 3.414-3.493 3.532-5.457.118-1.967-1.9-5.291-4.73-4.175-.421.153-2.523 1.493-4.357 3.173-1.833 1.682-3.4 3.702-2.752 5.22.678 1.027 1.616 1.824 2.83 2.143m24.53-10.68c1.702-1.258 3.136-3.743 3.103-5.712-.033-1.968-2.3-5.128-5.036-3.798-.409.184-2.4 1.682-4.1 3.497-1.7 1.817-3.107 3.953-2.344 5.416.754.972 1.751 1.694 2.986 1.92 1.972.212 3.69-.063 5.391-1.322m47.113 234.834c-.874-1.965-.769-3.73-.122-5.64.495-1.174 1.43-2.003 2.56-2.538 1.621-.434 3.43 1.432 4.857 3.518 1.427 2.087 2.472 4.393 2.565 4.838.717 3.007-2.918 4.56-4.878 4.159-1.96-.401-4.109-2.372-4.982-4.337" fill="#303F62"/></g></svg>