<svg width="658" height="725" xmlns="http://www.w3.org/2000/svg"><g fill="none" fill-rule="evenodd"><path d="M234.719 14.588c2.855-2.458 14.608-.618 17.685-6.87 5.325-2.227 15.212-3.536 20.408-3.51 10.139-2.83 16.95-.334 19.884-1.598 5.474-3.053 11.528 1.888 16.573-1.893 3.854 2.004 9.928-1.606 17.164-.185 3.887 1.542 10.358 2.233 19.094-.148 5.046-1.734 14.337 3.11 19.587.696 6.749-.614 9.026.815 17.338 2.499 7.367 5.374 13.176-.394 18.006 1.059 5.375 1.248 18.573.488 18.634 3.825 6.938 2.426 13.493 7.904 17.892 5.595 6.047-.213 13.088 4.738 14.839 7.853-1.065 3.985 10.748 5.685 13.524 6.21 4.188 2.278 13.092 2.609 14.862 8.203 7.235 4.079 13.445 3.618 16.671 9.542 7.001 1.74 13.032 5.685 18.053 8.587 7.613 5.513 11.914 14.897 14.404 13.765 2.368 3.514 10.326 4.465 12.839 10.755 5.054 3.82 8.128 5.838 12.782 9.242 9.54 5.517 6.929 3.22 14.381 11.728 1.143 5.363 15.649 8.205 14.187 12.51 4.252 5.75 5.523 10.68 13.742 13.523 4.091 4.514 3.532 13.355 10.801 15.292 1.803.95 3.802 11.754 4.524 15.853-1.183 4.023 3.542 8.046 8.423 16.284 3.167 5.342 4.766 10.723 9.527 17.3 7.926 7.968 4.977 13.636 7.938 17.42.439 8.07 10.664 9.054 3.767 16.598 3.716 4.775 3.639 11.11 5.182 16.655 2.161 4.575 1.419 13.607 2.791 19.507.371 12.825 2.777 13.764 2.184 19.45 4.074 7.412 4.573 15.88 2.892 17.047 3.2 5.85-5.939 5.714.732 17.349 1.682 6.17.251 15.169.267 17.614 1.525 5.635.915 14.828-1.415 18.097-2.552 8.518-5.147 13.343-3.637 18.52-.887 12.16-1.026 12.13-1.675 18.308 3.151 8.73.146 9.93-4.321 17.63-1.69 6.726-2.723 5.906-6.278 16.684-.743 7.584-5.015 8.552-7.55 15.468-8.85-1.905-12.098 13.422-11.192 17.815-5.465 8.659-5.414 10.756-8.691 14.79-1.834 1.609-7.663 8.467-7.317 14.036-1.902.41-1.446 9.537-7.069 15.549-7.373 4.562-9.939 12.505-10.969 16.018-6.956 8.665-7.593 13.296-12.271 14.3-4.531 3.83-4.576 6.049-12.497 12.613-6.165 5.37-5.969 7.179-11.648 10.949-5.45 5.29-13.586 3.737-16.888 12.542 2.062 5.735-10.625 8.56-13.159 11.764-13.751 5.973-8.777 6.57-12.928 10.4-4.169 1.926-8.334 10.15-16.197 8.452-7.557 1.782-9.091 9.126-14.578 9.836-5.302 2.54-11.361 3.275-17.672 9.359-10.44 3.413-12.72 4.815-18.955 7.268-5.503 2.718-12.516 3.234-18.426 3.564-5.707.44-14.293.77-19.538 2.024-8.267 6.204-15.021.114-17.941 4.34-5.64-1.873-15.22.45-17.839 4.628-8.134 3.39-11.343.008-19.232 2.879-7.734.849-13.318.395-20.064-1.204-9.355.762-14.476 3.126-20.047.716-5.389 1.002-15.101-.747-18.287.244-5.536-.635-10.667-4.918-14.785-2.617-9.249 1.36-17.976-5.054-20.659-3.164-7.138-2.03-13.075-3.311-16.557-4.663-5.393-.644-8.501-3.768-15.292-5.334-3.894-2.322-8.983-6.253-16.862-5.172-9.903-3.57-16.453-5.413-25.195-11.916-8.222-3.856-14.04-8.24-23.841-13.014-3.637-1.683-4.26-1.735-6.747-3.685-3.062-4.101-2.655-2.047-7.328-3.927-3.735-2.99-3.814-4.155-4.604-5.316.705-1.848-3.072-4.432-5.187-4.813-3.631.067-4.31-3.518-5.62-4.435-1.72-.643-4.653-2.962-5.906-4.182-.306-.924-4.903-2.248-6.042-4.052-.412-2.883-5.27-4.62-6.03-4.048-3.618-.593-4.012-3.481-5.868-4.17-2.334-1.043-3.252-3.038-5.558-4.413-1.538-1.31-3.37-3.728-5.1-4.783-2.011-1.165-2.916-3.193-4.491-5.278-2.232-1.833-5.33-3.813-6.082-6.27-2.198-2.52-3.074-4.2-4.62-6.073-.697-2.331-2.356-4.231-3.561-5.905-1.207-1.84-2.286-4.478-2.903-5.766-.715-2.223-1.342-3.44-2.647-5.652-1.131-2.495-1.789-4.066-2.792-5.566-1.434-1.573-1.591-3.12-3.338-5.507-1.181-2.051-2.629-2.844-4.286-5.475-1.819-1.807-2.876-3.726-5.637-5.47-1.867-1.54-3.788-3.441-7.387-5.493-2.582-1.425-4.559-3.348-5.72-5.84-1.982-2.188-3.302-3.866-4.534-6.394-1.311-2.412-2.091-4.517-3.565-6.82-1.284-2.342-2.048-4.721-2.81-7.11-.182-2.148-1.109-4.622-2.27-7.272-.942-1.682-1.488-5.002-1.944-7.301-.174-2.55-.674-3.93-1.833-7.2-.672-2.315-1.278-5.026-1.937-6.964-.262-1.758-1.15-4.593-2.255-6.6-1.309-2.125-1.244-4.137-2.788-6.102-.765-1.876-1.053-4.428-2.149-6.785.261-2.228-1.442-3.702-1.52-6.874-1.03-2.874-.788-4.456-1.056-6.971-1.19-1.97-.591-4.901-.759-7.073.091-1.585-.327-4.824-.627-7.182.051-2.84-.542-5.167-.659-7.298-.482-1.97-.061-4.984-.859-7.42-1.357-2.367-1.328-4.77-1.221-7.547-.598-2.81-1.186-4.654-1.752-7.684-.673-1.802-1.515-5.7-2.446-7.825.665-2.923.093-5.555-.386-8.174.232-2.121 1.631-4.89.253-7.775.963-2.158.181-5.35.717-7.442.868-2.682.897-4.294 1.008-7.173 1.667-1.536.341-5.128 1.126-6.968.102-3.94 1.339-3.771 1.071-6.83-.598-.943-.393-3.988.841-6.755.214-2.423.908-4.147.44-6.745-1.013-1.871-1.035-3.874-.134-6.8.109-2.86-.367-4.3-.884-6.918-.131-.63-.123-6.175.262-8.054-.162-1.681 1.04-4.597.993-7.494.935-1.927 1.375-3.792 1.591-7.04 1.844-2.236 1.63-4.16 2.06-6.691 1.646-.953 1.331-5.246 2.399-6.45.815-2.6 2.27-3.331 2.608-6.316 2.105-1.7 1.083-4.967 2.685-6.287 1.273-1.014 3.387-5.175 2.635-6.366.298-1.078 2.049-4.686 2.451-6.55 1.118-1.585.001-3.334 2.14-6.842 1.571-.931 1.621-5.272 3.289-5.973 1.833-.99 1.901-3.264 3.267-6.077-.098-.348 3.63-4.23 3.265-6.162.194-2.96 3.159-4.513 3.283-6.228 1.455-.656 1.588-4.365 3.321-6.277 2.617-.496 2.644-3.725 3.377-6.307 1.003-2.946 2.479-3.907 3.453-6.32 1.623-2.684 2.019-3.648 3.55-6.312-.184-1.333 3.119-2.81 3.664-6.288 2.004-1.965 2.987-3.184 3.8-6.246 1.474-1.75 1.518-6.15 2.819-6.97.543-.697 2.098-5.638 3.083-6.541.455-1.363 1.41-4.978 3.408-6.142.249-1.34 4.523-3.896 3.794-5.771 1.508-2.402 1.364-3.033 4.24-5.43 2.013-1.001 3.176-4.894 4.748-5.116 1.723-2.324 3.439-2.21 5.318-4.832 2.629-2.248 4.897-3.204 5.947-4.576 1.864-1.025 4.309-2.316 6.638-4.35 3.079.148 4.424-3.547 7.39-4.151-.327-1.507 3.22-4.964 5.675-5.302 1.337.086 3.601-1.393 5.487-4.947.893-2.055 4.755-3.916 5.39-4.643 4.083-1.876 6.122-2.743 5.383-4.391 3.026.449 2.826-3.625 5.467-4.188 3.172.854 3.28-2.638 5.641-4.037 1.819.34 4.414-2.3 5.907-3.936 4.682-2.368 13.335-7.284 20.222-11.715 4.926-4.112 11.777-3.996 15.139-8.862 3.614-5.038 7.63-5.56 15.547-7.775 4.715-2.14 9.662-4.57 17.612-6.964 6.247-4.231 15.287-4.831 21.333-6.426" fill="#FFC4BC"/><path d="M286.542 445.497c1.271-1.094 6.506-.275 7.877-3.06 2.372-.992 6.775-1.575 9.089-1.563 4.516-1.26 7.55-.149 8.857-.71 2.437-1.362 5.135.84 7.381-.845 1.717.892 4.422-.716 7.645-.082 1.731.686 4.613.994 8.504-.066 2.247-.773 6.386 1.385 8.724.31 3.006-.274 4.02.363 7.722 1.113 3.282 2.393 5.868-.176 8.02.471 2.394.556 8.272.218 8.299 1.704 3.09 1.081 6.01 3.52 7.969 2.492 2.694-.095 5.83 2.11 6.609 3.498-.474 1.775 4.787 2.531 6.024 2.766 1.865 1.014 5.831 1.161 6.619 3.653 3.223 1.817 5.989 1.611 7.426 4.25 3.117.775 5.804 2.532 8.04 3.825 3.391 2.455 5.306 6.635 6.416 6.131 1.054 1.565 4.599 1.988 5.718 4.79 2.251 1.701 3.621 2.6 5.693 4.116 4.249 2.457 3.086 1.434 6.405 5.224.509 2.388 6.97 3.654 6.319 5.571 1.894 2.561 2.46 4.758 6.121 6.023 1.821 2.011 1.573 5.95 4.81 6.811.803.424 1.694 5.236 2.015 7.061-.527 1.792 1.578 3.584 3.752 7.253 1.41 2.38 2.123 4.776 4.243 7.705 3.531 3.55 2.217 6.074 3.536 7.76.195 3.593 4.749 4.031 1.677 7.391 1.655 2.127 1.621 4.95 2.308 7.418.963 2.038.632 6.061 1.244 8.69.165 5.711 1.236 6.13.972 8.662 1.815 3.301 2.037 7.073 1.288 7.592 1.426 2.606-2.645 2.546.326 7.727.749 2.75.112 6.756.119 7.846.679 2.51.408 6.604-.63 8.06-1.137 3.793-2.293 5.942-1.62 8.248-.395 5.417-.457 5.403-.746 8.154 1.404 3.89.065 4.424-1.924 7.853-.753 2.995-1.213 2.63-2.797 7.43-.331 3.38-2.233 3.81-3.363 6.89-3.941-.849-5.388 5.978-4.984 7.935-2.434 3.857-2.411 4.79-3.871 6.588-.817.716-3.413 3.771-3.259 6.251-.847.183-.644 4.247-3.149 6.925-3.284 2.032-4.426 5.57-4.885 7.134-3.098 3.86-3.382 5.922-5.465 6.37-2.018 1.706-2.038 2.694-5.567 5.617-2.745 2.392-2.658 3.198-5.187 4.877-2.428 2.356-6.051 1.664-7.522 5.586.918 2.554-4.733 3.812-5.861 5.24-6.125 2.66-3.909 2.925-5.758 4.632-1.857.857-3.712 4.521-7.214 3.764-3.366.794-4.049 4.065-6.493 4.381-2.362 1.132-5.06 1.458-7.871 4.168-4.65 1.52-5.665 2.145-8.442 3.237-2.451 1.211-5.575 1.441-8.207 1.588-2.542.196-6.366.343-8.702.901-3.682 2.764-6.691.051-7.991 1.934-2.512-.834-6.779.2-7.946 2.061-3.622 1.51-5.052.003-8.565 1.282-3.445.378-5.932.176-8.936-.536-4.167.34-6.448 1.392-8.929.32-2.401.445-6.726-.334-8.145.107-2.466-.282-4.751-2.19-6.586-1.166-4.119.606-8.006-2.25-9.201-1.408-3.179-.905-5.824-1.475-7.374-2.077-2.402-.288-3.786-1.679-6.811-2.376-1.734-1.035-4.001-2.785-7.511-2.304-4.41-1.59-7.327-2.41-11.221-5.307-3.662-1.718-6.253-3.67-10.618-5.797-1.621-.749-1.898-.772-3.006-1.64-1.364-1.827-1.182-.912-3.264-1.75-1.663-1.33-1.698-1.85-2.05-2.367.314-.823-1.368-1.975-2.31-2.144-1.618.03-1.92-1.567-2.503-1.976-.766-.286-2.073-1.319-2.631-1.862-.136-.412-2.184-1-2.691-1.805-.183-1.284-2.347-2.057-2.686-1.803-1.611-.264-1.787-1.55-2.613-1.857-1.04-.465-1.448-1.353-2.476-1.966-.685-.583-1.5-1.66-2.271-2.13-.895-.518-1.299-1.422-2-2.35-.995-.817-2.374-1.699-2.709-2.793-.979-1.123-1.369-1.87-2.058-2.705-.31-1.038-1.049-1.884-1.586-2.63-.538-.819-1.018-1.995-1.293-2.568-.319-.99-.598-1.533-1.179-2.517-.504-1.112-.797-1.81-1.243-2.479-.639-.702-.709-1.39-1.487-2.453-.527-.914-1.171-1.267-1.909-2.439-.81-.805-1.281-1.66-2.511-2.437-.831-.685-1.687-1.532-3.29-2.446-1.15-.635-2.03-1.49-2.547-2.6-.883-.976-1.472-1.723-2.02-2.849-.584-1.074-.931-2.012-1.588-3.037-.572-1.044-.912-2.103-1.251-3.167-.081-.957-.494-2.059-1.012-3.239-.419-.749-.662-2.227-.865-3.252-.078-1.135-.301-1.75-.817-3.206-.299-1.032-.569-2.239-.863-3.102-.116-.783-.512-2.046-1.004-2.939-.582-.947-.554-1.844-1.242-2.719-.34-.835-.468-1.972-.957-3.022.117-.992-.642-1.649-.676-3.062-.46-1.279-.352-1.984-.471-3.104-.53-.877-.263-2.183-.338-3.15.041-.707-.146-2.149-.279-3.199.022-1.264-.242-2.302-.294-3.25-.215-.878-.027-2.22-.382-3.305-.605-1.055-.592-2.125-.544-3.362-.267-1.25-.528-2.073-.781-3.422-.299-.803-.675-2.539-1.089-3.486.296-1.3.041-2.474-.172-3.64.103-.945.727-2.178.113-3.463.429-.96.08-2.383.319-3.314.386-1.195.4-1.913.449-3.195.743-.684.152-2.284.501-3.104.046-1.755.597-1.68.477-3.042-.266-.42-.174-1.776.375-3.009.096-1.079.405-1.847.196-3.004-.451-.833-.461-1.725-.06-3.028.049-1.274-.163-1.915-.393-3.08-.059-.282-.055-2.752.117-3.589-.073-.748.463-2.047.442-3.337.416-.859.612-1.69.708-3.135.821-.997.727-1.853.918-2.98.733-.426.592-2.338 1.068-2.874.363-1.158 1.011-1.483 1.162-2.813.937-.757.482-2.212 1.196-2.8.567-.452 1.508-2.305 1.173-2.835.133-.48.913-2.088 1.093-2.918.497-.706 0-1.485.952-3.047.7-.415.722-2.348 1.465-2.66.816-.44.847-1.454 1.455-2.707-.043-.155 1.617-1.884 1.455-2.744.086-1.318 1.406-2.01 1.462-2.775.648-.292.707-1.944 1.479-2.795 1.166-.22 1.177-1.659 1.504-2.809.446-1.313 1.104-1.74 1.538-2.815.723-1.196.899-1.625 1.581-2.812-.082-.593 1.389-1.25 1.632-2.8.893-.876 1.33-1.418 1.692-2.782.657-.779.676-2.739 1.256-3.105.242-.31.934-2.51 1.373-2.913.203-.607.628-2.217 1.518-2.736.111-.596 2.014-1.735 1.689-2.57.672-1.07.608-1.35 1.889-2.418.897-.446 1.415-2.18 2.115-2.279.768-1.035 1.531-.984 2.368-2.152 1.172-1 2.182-1.427 2.649-2.038.83-.457 1.919-1.032 2.957-1.938 1.371.066 1.971-1.58 3.291-1.849-.146-.67 1.434-2.21 2.528-2.36.595.037 1.604-.622 2.444-2.204.397-.915 2.118-1.744 2.4-2.068 1.819-.836 2.727-1.222 2.398-1.956 1.348.2 1.259-1.614 2.435-1.865 1.413.38 1.461-1.175 2.513-1.798.809.152 1.965-1.025 2.63-1.754 2.085-1.054 5.94-3.243 9.007-5.217 2.194-1.832 5.245-1.78 6.743-3.947 1.609-2.244 3.398-2.476 6.924-3.464 2.1-.952 4.304-2.034 7.845-3.1 2.782-1.885 6.808-2.153 9.501-2.863" fill="#DDE4F2"/><path d="M471.698 607.871c-4.18 1.539-8.698 3.115-13.354 7.604-10.44 3.413-12.72 4.815-18.955 7.268-5.503 2.718-12.516 3.234-18.426 3.564-5.707.44-14.293.77-19.538 2.024-8.267 6.204-15.021.114-17.941 4.34-5.64-1.873-15.22.45-17.84 4.628-8.133 3.39-11.342.008-19.231 2.879-7.734.849-13.318.395-20.064-1.204-9.355.762-14.476 3.126-20.047.716-5.39 1.002-15.101-.747-18.287.244-5.536-.635-10.667-4.918-14.785-2.617-9.25 1.36-17.976-5.054-20.66-3.164-7.137-2.03-13.074-3.311-16.556-4.663-5.393-.644-8.501-3.768-15.292-5.334-3.894-2.322-8.983-6.253-16.862-5.172-7.16-2.582-12.568-4.26-18.319-7.45-.03-.765-.172-1.866-.279-2.712.022-1.264-.242-2.302-.294-3.25-.215-.878-.027-2.22-.382-3.305-.605-1.055-.592-2.125-.544-3.362-.267-1.25-.528-2.073-.781-3.422-.299-.803-.675-2.539-1.089-3.486.296-1.3.041-2.474-.172-3.64.103-.945.727-2.178.113-3.463.429-.96.08-2.383.319-3.314.386-1.195.4-1.913.449-3.195.743-.684.152-2.284.501-3.104.046-1.755.597-1.68.477-3.042-.266-.42-.174-1.776.375-3.009.096-1.079.405-1.847.196-3.004-.451-.833-.461-1.725-.06-3.028.049-1.274-.163-1.915-.393-3.08-.059-.282-.055-2.752.117-3.589-.073-.748.463-2.047.442-3.337.416-.859.612-1.69.708-3.135.821-.997.727-1.853.918-2.98.733-.426.592-2.338 1.068-2.874.363-1.158 1.011-1.483 1.162-2.813.937-.757.482-2.212 1.196-2.8.567-.452 1.508-2.305 1.173-2.835.133-.48.913-2.088 1.093-2.918.497-.706 0-1.485.952-3.047.7-.415.722-2.348 1.465-2.66.816-.44.847-1.454 1.455-2.707-.043-.155 1.617-1.884 1.455-2.744.086-1.318 1.406-2.01 1.462-2.775.648-.292.707-1.944 1.479-2.795 1.166-.22 1.177-1.659 1.504-2.809.446-1.313 1.104-1.74 1.538-2.815.723-1.196.899-1.625 1.581-2.812-.082-.593 1.389-1.25 1.632-2.8.893-.876 1.33-1.418 1.692-2.782.657-.779.676-2.739 1.256-3.105.242-.31.934-2.51 1.373-2.913.203-.607.628-2.217 1.518-2.736.111-.596 2.014-1.735 1.689-2.57.672-1.07.608-1.35 1.889-2.418.897-.446 1.415-2.18 2.115-2.279.768-1.035 1.531-.984 2.368-2.152 1.172-1 2.182-1.427 2.649-2.038.83-.457 1.919-1.032 2.957-1.938 1.371.066 1.971-1.58 3.291-1.849-.146-.67 1.434-2.21 2.528-2.36.595.037 1.604-.622 2.444-2.204.397-.915 2.118-1.744 2.4-2.068 1.819-.836 2.727-1.222 2.398-1.956 1.348.2 1.259-1.614 2.435-1.865 1.413.38 1.461-1.175 2.513-1.798.809.152 1.965-1.025 2.63-1.754 2.085-1.054 5.94-3.243 9.007-5.217 2.194-1.832 5.245-1.78 6.743-3.947 1.609-2.244 3.398-2.476 6.924-3.464 2.1-.952 4.304-2.034 7.845-3.1 2.782-1.885 6.808-2.153 9.501-2.863 1.271-1.094 6.506-.275 7.877-3.06 2.372-.992 6.775-1.575 9.089-1.563 4.516-1.26 7.55-.149 8.857-.71 2.437-1.362 5.135.84 7.381-.845 1.717.892 4.422-.716 7.645-.082 1.731.686 4.613.994 8.504-.066 2.247-.773 6.386 1.385 8.724.31 3.006-.274 4.02.363 7.722 1.113 3.282 2.393 5.868-.176 8.02.471 2.394.556 8.272.218 8.299 1.704 3.09 1.081 6.01 3.52 7.969 2.492 2.694-.095 5.83 2.11 6.609 3.498-.474 1.775 4.787 2.531 6.024 2.766 1.865 1.014 5.831 1.161 6.619 3.653 3.223 1.817 5.989 1.611 7.426 4.25 3.117.775 5.804 2.532 8.04 3.825 3.391 2.455 5.306 6.635 6.416 6.131 1.054 1.565 4.599 1.988 5.718 4.79 2.251 1.701 3.621 2.6 5.693 4.116 4.249 2.457 3.086 1.434 6.405 5.224.509 2.388 6.97 3.654 6.319 5.571 1.894 2.561 2.46 4.758 6.121 6.023 1.821 2.011 1.573 5.95 4.81 6.811.803.424 1.694 5.236 2.015 7.061-.527 1.792 1.578 3.584 3.752 7.253 1.41 2.38 2.123 4.776 4.243 7.705 3.531 3.55 2.217 6.074 3.536 7.76.195 3.593 4.749 4.031 1.677 7.391 1.655 2.127 1.621 4.95 2.308 7.418.963 2.038.632 6.061 1.244 8.69.165 5.711 1.236 6.13.972 8.662 1.815 3.301 2.037 7.073 1.288 7.592 1.426 2.606-2.645 2.546.326 7.727.749 2.75.112 6.756.119 7.846.679 2.51.408 6.604-.63 8.06-1.137 3.793-2.293 5.942-1.62 8.248-.165 2.26-.272 3.574-.361 4.539z" fill="#E10079"/></g></svg>