<svg width="26" height="26" xmlns="http://www.w3.org/2000/svg"><path d="M13 0C5.832 0 0 5.832 0 13s5.832 13 13 13 13-5.832 13-13S20.169 0 13 0zm7.261 9.485c.007.152.01.306.01.46 0 4.67-3.507 10.055-9.924 10.055A9.772 9.772 0 0 1 5 18.413a6.973 6.973 0 0 0 5.164-1.463c-1.526-.029-2.814-1.05-3.258-2.456a3.47 3.47 0 0 0 1.575-.06c-1.596-.323-2.798-1.752-2.798-3.465v-.045c.47.264 1.009.424 1.58.442a3.545 3.545 0 0 1-1.551-2.942c0-.648.171-1.255.472-1.778 1.72 2.14 4.29 3.546 7.189 3.695-.06-.26-.09-.528-.09-.806C13.283 7.583 14.844 6 16.77 6c1.004 0 1.91.43 2.547 1.116a6.907 6.907 0 0 0 2.215-.858 3.543 3.543 0 0 1-1.535 1.956A6.863 6.863 0 0 0 22 7.658a7.07 7.07 0 0 1-1.739 1.827z" fill-rule="nonzero" fill="#303F62"/></svg>