<svg width="30" height="30" xmlns="http://www.w3.org/2000/svg"><path d="M15 0C6.716 0 0 6.85 0 15.3c0 6.974 4.58 12.846 10.834 14.69.47-.02.65-.37.65-.68 0-.325-.012-1.187-.018-2.331-3.737.829-4.526-1.836-4.526-1.836-.61-1.584-1.492-2.005-1.492-2.005-1.22-.85.093-.833.093-.833 1.348.097 2.058 1.412 2.058 1.412 1.198 2.094 3.144 1.49 3.91 1.139.122-.886.468-1.49.853-1.833-2.984-.345-6.12-1.52-6.12-6.772 0-1.496.524-2.72 1.383-3.678-.139-.346-.6-1.74.131-3.626 0 0 1.128-.369 3.695 1.405a12.631 12.631 0 0 1 3.363-.461c1.141.005 2.29.157 3.364.46 2.565-1.773 3.69-1.404 3.69-1.404.734 1.887.273 3.28.134 3.626.861.959 1.382 2.182 1.382 3.678 0 5.264-3.142 6.423-6.135 6.762.483.423.912 1.26.912 2.538 0 1.832-.016 3.31-.016 3.76 0 .365.241.792.924.658.021.01.035.02.055.031C25.4 28.171 30 22.29 30 15.3 30 6.85 23.284 0 15 0" fill="#303F62" fill-rule="evenodd"/></svg>