<svg width="30" height="30" xmlns="http://www.w3.org/2000/svg"><path d="M15 30C6.716 30 0 23.284 0 15 0 6.716 6.716 0 15 0c8.284 0 15 6.716 15 15 0 8.284-6.716 15-15 15zm-.104-22.993a.737.737 0 0 0-.345.15l-6.263 4.789a.737.737 0 0 0-.288.587v8.736c0 .407.33.731.737.731h3.684a.732.732 0 0 0 .737-.73v-3.684a1 1 0 0 1 1-1h1.684a1 1 0 0 1 1 1v3.683c0 .407.33.731.737.731h3.684a.732.732 0 0 0 .737-.73v-8.737a.737.737 0 0 0-.288-.587l-6.263-4.79a.737.737 0 0 0-.553-.15z" fill="#303F62" fill-rule="evenodd"/></svg>