<svg data-name="pattern" xmlns="http://www.w3.org/2000/svg" viewBox="0 0 1366 938"><defs><style>.cls-2{fill:#ff008f}.cls-5{fill:#303f62}</style></defs><path d="M1366 0h-286.2c-3.8 6.3-7.4 10.3-10.4 8.8-9 14.2-25.6 30.5-28 43.8-9.6 14.8-16 20.5-28.3 44-9.4 14.7-20.6 21.3-28.2 43.8-9.4 14.4-17.7 12.4-27.4 42.7-9 14.2-28 24-26.2 41-8.5 13.2-9 14.7-25.2 39-15.8 24.7-31.7 45-42.4 66-24.2 37.7-41.6 50-39.3 61.2-11 17-5 52.2 20.5 41 0 0 15.6 2.2 57 3.8 17.7 1.2 54 10.4 62.7 4 24 1.7 49 3.4 79.4 5.7 14 1 31.7-2 43.3 2.6 15 1 26.8-3.6 46.2 3.4 15.5 1 32.7-9.5 47.3 3 16 1.2 44 14 48 3.6 16 1 25.7 18.5 48.4 3.4 16 1 24.5-7 47 3 14.6 1 22.2 12.3 41.8 5.4z" fill="#6058c5"/><path class="cls-2" d="M0 484.7c10.2 4.2 19.3 7 22.4 1.8 15.6 3.7 22.3 22.3 47.2 11.2 15.7 3.8 25.3-3 46 10.7 15 3.6 20.6 17.6 45 11 14.6 3.6 28.8 5.4 42 9.8 27.8 6.5 51.6-1.5 77.2 18.2 23.4 5.6 50.7 10.6 61.5 14.6 34.7 8.2 60.5 17.8 55.5 13 21 5 40-19.2 30.8-35.7 0 0-1-24.6-20.7-51.5-6.6-16-7-48-23-57.2-9-21.8-19-38.8-29-71.7-5-13-10.5-32.4-15.8-40-5.4-13.6-23.2-33-16.7-41.5-5.6-14-9.6-36.7-17-42.4-6-14-14-22-17.7-43.7-5.8-14.5-7.4-36-17-43.8C265 133 260.7 111 253 105c-5.7-14-4.7-33.2-17-41.6-5.5-13.7-3-33.3-15.5-39.7-3.6-9-7-16.4-10.5-23.7H0z"/><path d="M594.8 575c-10.8-6-31.4-12.8-40.3-13.2-14.5-3-37.4-8-43.6-7-14.7-1.8-34.3-5-44.2-7-17-4.3-47.8-3.5-50.7-12.2-16.7-3.8-36.2-9.4-50.7-11-16.7-3.3-34.2-12.3-50.3-9.4-16.7-3-32-8-50-9-16.7-2.7-32.4 1.7-50-8-16.8-2.3-38.2-4.3-51-6.2-20.4-2.6-43.2-.3-61-7.6-11.8-1.5-24.3 5.4-43-7-16.4-3-32.7 5.6-52.6-7.4L0 469v469h226.4c0-.3.2-.7.4-1 7.5-7.7 21-10.6 22.4-23 7.5-7.8 21.4-16.7 22.6-23 11.7-12.5 26.2-28.5 37-35.4 13-11 32-28.3 39-31 13.3-10 31.5-14 41.4-29.5 14-9.6 27.8-21.7 41.6-28 14-9.4 28.6-8.6 42.6-29.4 14.2-10 26-15.8 42-30.6 9.5-7.4 14-22.6 30.2-22.5 10.3-7.7 16.6-20.5 30-23.8 9.6-8.6 22.3-15.2 25-28.2 6.7-10.2 15-24 13.8-33.5-1.3-10.3-13-14.2-19.6-24z" fill="#dde4f2"/><path d="M146 18a29.6 29.6 0 0 0 .7 4c3.8 14.8 11 26.6 11.5 48.5a30.8 30.8 0 0 0 1 7c4.4 16.4 12.4 31.4 12.3 50.6a31.4 31.4 0 0 0 .8 7.4c4 17.2 7.4 28.3 12 53.5 4 17.6 4.8 35 10.5 49.6a31 31 0 0 1 1.5 4.8c2.2 10.5 4 20.4 5.5 29a31 31 0 0 0 37.8 25c9.7-2.4 21-4.8 33-6.5l2-.5c15-3.2 28-3.7 49-10.8a31.7 31.7 0 0 1 3.2-1c18-4 37.7-9.4 56-12.3 19-4.3 32.7-3.4 56.2-12.4a30.6 30.6 0 0 1 4.6-1.3C461 249 478 248 493 242.2a30 30 0 0 1 4-1.3c13.6-3.2 27.4-7 37.5-13.5l2.3-1.4c10.8-5.7 17-13.5 29.4-20.5a31 31 0 0 0 6.3-4.8c7.6-7.3 12.5-14.2 21.2-25a29.6 29.6 0 0 0 2-2.8c6.2-10.2 10-20.6 14.8-32.5l.8-2c3.7-11.2 8.8-19.2 7-34.8a30.8 30.8 0 0 1-.3-4.7c.4-12.3-.4-29.4-3.3-36.4a23.8 23.8 0 0 1-1-2.8c-3.2-11.6-10.6-22.5-13.2-33a32 32 0 0 0-2.7-7c-3.6-7-7.3-14-12-19.8H143.5c1 6.2 2 12.3 2.5 18z" fill="#0024dd"/><path class="cls-5" d="M437 144.8a3.5 3.5 0 0 0 0-2.5 5 5 0 0 0-3-2.7 5.6 5.6 0 0 0-4.6.3c-1.2.7-2.2 3.3-.3 4.4a15.8 15.8 0 0 0 3.7 1c1.8.4 3.6.5 4.2-.6zM402 28.4c-.7-1-3.3-2.2-4.4-.3a16 16 0 0 0-1 3.8c-.4 1.8-.5 3.6.6 4.2a3.5 3.5 0 0 0 2.5 0 5 5 0 0 0 2.8-3 5.7 5.7 0 0 0-.4-4.6zm26 128.9a15.8 15.8 0 0 0 3.5 1c1.8.4 3.6.4 4.2-.6a3.5 3.5 0 0 0 0-2.5 5 5 0 0 0-3-2.7 5.6 5.6 0 0 0-4.5.3c-1.2.8-2.2 3.3-.3 4.5zM420.5 40a5 5 0 0 0 3-3 5.6 5.6 0 0 0-.2-4.5c-.7-1.2-3.3-2.3-4.5-.5a15.8 15.8 0 0 0-1.3 3.6c-.4 1.7-.5 3.5.5 4a3.5 3.5 0 0 0 2.5.3zm-1.7 8.7a3.5 3.5 0 0 0-.5-2.5 5 5 0 0 0-3.3-2 5.6 5.6 0 0 0-4.5 1c-1 1-1.5 3.8.6 4.6a15.8 15.8 0 0 0 4 .4c1.7 0 3.5-.4 3.8-1.5zm-12.4 33a5.6 5.6 0 0 0 4.4-1.2c1-1 1.5-3.7-.5-4.5a15.8 15.8 0 0 0-3.8-.3c-1.8 0-3.6.3-4 1.4a3.5 3.5 0 0 0 .5 2.6 5 5 0 0 0 3.4 2zm2.4 16.5A5 5 0 0 0 412 96a5.6 5.6 0 0 0 .5-4.7c-.6-1.3-3-2.8-4.4-1.2a15.8 15.8 0 0 0-1.6 3.6c-.7 1.6-1 3.4 0 4.2a3.5 3.5 0 0 0 2.4.4zm5.7-34.2a5.6 5.6 0 0 0-.2-4.6c-.7-1.2-3.2-2.4-4.4-.6a15.8 15.8 0 0 0-1.4 3.6c-.4 1.8-.5 3.6.5 4.2a3.5 3.5 0 0 0 2.6 0 5 5 0 0 0 3-2.6zm8.5 29.5a3.5 3.5 0 0 0 2.5.2 5 5 0 0 0 3-2.7 5.6 5.6 0 0 0 0-4.6c-.8-1.2-3.3-2.4-4.5-.7a15.8 15.8 0 0 0-1.4 3.6c-.5 1.7-.6 3.6.4 4.2zm14.7 27.5a15.8 15.8 0 0 0-2.4-3c-1.3-1-2.8-2.2-3.8-1.6a3.5 3.5 0 0 0-1.4 2 5 5 0 0 0 1 4 5.6 5.6 0 0 0 4 2.2c1.4 0 3.6-1.5 2.7-3.5zm29.3-11.2a3.5 3.5 0 0 0-1.2-2.2 5 5 0 0 0-3.8-1 5.6 5.6 0 0 0-4 2.5c-.6 1.3-.2 4 2 4.2a15.8 15.8 0 0 0 3.7-.8c1.7-.5 3.3-1.4 3.3-2.6zm101-10.2a15.8 15.8 0 0 0 3.8.4c1.8 0 3.6-.4 4-1.5a3.5 3.5 0 0 0-.5-2.5 5 5 0 0 0-3.4-2 5.6 5.6 0 0 0-4.6 1c-1 1-1.4 3.8.6 4.6zM472 78a5.6 5.6 0 0 0 2.3-4c0-1.3-1.6-3.6-3.6-2.7a15.8 15.8 0 0 0-3 2.5c-1.2 1.2-2.2 2.7-1.7 3.8a3.5 3.5 0 0 0 2 1.4 5 5 0 0 0 4-1zm-20.7 48.2a15.8 15.8 0 0 0 3.8 0c2-.3 3.6-.8 3.8-2a3.5 3.5 0 0 0-.7-2.4 5 5 0 0 0-3.5-1.7 5.6 5.6 0 0 0-4.3 1.8c-.8 1-1 4 1 4.4zm1.4-54c1.4-.3 3.3-2.3 2-4a15.8 15.8 0 0 0-3-2.5c-1.4-1-3-1.6-4-1a3.5 3.5 0 0 0-1 2.4 5 5 0 0 0 1.6 3.7 5.6 5.6 0 0 0 4.4 1.5zm-9.5 13.1c1.4 0 3.7-1.5 2.8-3.5a15.8 15.8 0 0 0-2.5-3c-1.3-1.2-2.8-2.3-3.8-1.7a3.5 3.5 0 0 0-1.4 2.2 5 5 0 0 0 1 3.8 5.6 5.6 0 0 0 4 2.3zm1.1-25.3a15.8 15.8 0 0 0-2.4-3c-1.4-1.2-3-2.3-4-1.7a3.5 3.5 0 0 0-1.4 2 5 5 0 0 0 1 4 5.6 5.6 0 0 0 4 2.2c1.3 0 3.6-1.6 2.7-3.5zm4.4-32a15.8 15.8 0 0 0-2.4-3c-1.3-1.3-2.8-2.3-4-1.8a3.5 3.5 0 0 0-1.3 2 5 5 0 0 0 1 4 5.6 5.6 0 0 0 4 2.2c1.4 0 3.6-1.5 2.7-3.5zm21.5 112.2a15.8 15.8 0 0 0 3.4-1.8c1.5-1 2.8-2.2 2.5-3.4a3.5 3.5 0 0 0-1.6-1.8 5 5 0 0 0-4 0 5.6 5.6 0 0 0-3 3.5c-.3 1.4.7 4 2.8 3.5zm-123-107.7c1.3-.2 3-2.2 2-3.8a15.2 15.2 0 0 0-3-2.4c-1.4-1-3-1.6-4-1a3.4 3.4 0 0 0-.8 2.4A5 5 0 0 0 343 31a5.4 5.4 0 0 0 4.2 1.5zm-17.4-11.7a3.2 3.2 0 0 0-1.3 2 4.7 4.7 0 0 0 .8 3.6 5.2 5.2 0 0 0 3.7 2c1.3 0 3.4-1.4 2.6-3.2a14.7 14.7 0 0 0-2.3-2.8c-1-1-2.5-2-3.5-1.6zM340 6.3a3 3 0 0 0-1.8 1.3 4.4 4.4 0 0 0-.5 3.3 5 5 0 0 0 2.5 3c1 .5 3.4 0 3.3-2a13.6 13.6 0 0 0-1-3C342 7.4 341 6 340 6.2zm1.2 69.3c1.5 0 4-1.7 3-4a17.6 17.6 0 0 0-2.7-3.2c-1.4-1.4-3-2.5-4.2-2a4 4 0 0 0-1.6 2.4 5.7 5.7 0 0 0 1 4.3 6.3 6.3 0 0 0 4.5 2.6zm-4.8-20.9a6 6 0 0 0 4.8-1.4c1-1 1.6-4-.6-4.7a17 17 0 0 0-4-.4c-2 0-4 .4-4.3 1.6a3.8 3.8 0 0 0 .5 2.6 5.5 5.5 0 0 0 3.6 2.3zM501 4.8a5.2 5.2 0 0 0 3-2.7 5.8 5.8 0 0 0 .4-2h-6.2v.4c-.6 1.8-.7 3.6.3 4.3a3.5 3.5 0 0 0 2.5 0zm-1 39.5c-.8-1.2-3.2-2.6-4.5-1A15.8 15.8 0 0 0 494 47c-.6 1.6-1 3.4 0 4a3.5 3.5 0 0 0 2.6.4 5 5 0 0 0 3-2.5 5.6 5.6 0 0 0 .3-4.7zM358.4 16.5a5 5 0 0 0 .2-4c-.6-1.3-2.7-2.4-4-1a14 14 0 0 0-1.3 3.2c-.5 1.5-.7 3 0 3.7a3 3 0 0 0 2.3.3 4.5 4.5 0 0 0 2.8-2.2zM350 40.7a16.5 16.5 0 0 0-.3 4c0 2 .4 3.7 1.5 4a3.6 3.6 0 0 0 2.6-.4 5.3 5.3 0 0 0 2.2-3.5 6 6 0 0 0-1.3-4.6c-1-1-3.8-1.6-4.6.5zm49-30.1a16.5 16.5 0 0 0-1.2 4c-.3 1.7-.3 3.6.7 4.2a3.6 3.6 0 0 0 2.7 0 5.3 5.3 0 0 0 2.8-3 6 6 0 0 0-.3-4.8c-.8-1.2-3.5-2.3-4.7-.4zm7-6.6a3.8 3.8 0 0 0 2.6 0 5.6 5.6 0 0 0 3-3.2 5.4 5.4 0 0 0 .3-.8h-7c-.2 1.7 0 3.4 1 4zm-25 34.7c1.3 0 3.6-1.5 2.7-3.5a15.8 15.8 0 0 0-2.5-3c-1.3-1.2-2.8-2.3-3.8-1.7a3.5 3.5 0 0 0-1.4 2 5 5 0 0 0 1 4 5.6 5.6 0 0 0 4 2.2zM353.8 2a2.8 2.8 0 0 0 2 .8 4.2 4.2 0 0 0 2.8-1.6 4.5 4.5 0 0 0 .6-1.2h-5.5a2 2 0 0 0 0 2zm43.5 51.3a5 5 0 0 0 3.4-2 5.6 5.6 0 0 0 1-4.5c-.6-1.4-2.8-3-4.4-1.5a15.8 15.8 0 0 0-2 3.2c-.7 1.6-1.2 3.4-.4 4.2a3.5 3.5 0 0 0 2.3.6zm100 15.7a5.6 5.6 0 0 0 2.3-4c0-1.4-1.6-3.7-3.6-2.8a15.8 15.8 0 0 0-3 2.5c-1.2 1.3-2.2 2.8-1.7 3.8a3.5 3.5 0 0 0 2 1.4 5 5 0 0 0 4-1zM361.8 34.5c1.3.3 4-.6 3.5-2.7a15.3 15.3 0 0 0-1.6-3.3c-1-1.5-2-2.8-3.2-2.6a3.4 3.4 0 0 0-1.8 1.6 5 5 0 0 0 0 3.8 5.5 5.5 0 0 0 3 3zM378.6 21a15 15 0 0 0-2.3-2.8c-1.2-1.2-2.7-2-3.7-1.6a3.3 3.3 0 0 0-1.3 2 4.8 4.8 0 0 0 .8 3.6 5.3 5.3 0 0 0 4 2.2c1.3 0 3.4-1.5 2.6-3.4zm-10.4 30.4a5.2 5.2 0 0 0 3.7-1.8 5.8 5.8 0 0 0 1-4.6c-.2-1.4-2.4-3.3-4-2a16.2 16.2 0 0 0-2.4 3.3c-1 1.6-1.6 3.3-.8 4.2a3.6 3.6 0 0 0 2.4 1zM370 10a5 5 0 0 0 2-3.6c0-1.2-1.3-3.2-3-2.4a14 14 0 0 0-2.6 2c-1 1.3-2 2.6-1.5 3.5a3 3 0 0 0 1.7 1.3 4.5 4.5 0 0 0 3.4-.8zm212 36.7a17.8 17.8 0 0 0 2.2-3.7c1-1.8 1.5-3.8.5-4.7a4 4 0 0 0-2.7-.8 5.7 5.7 0 0 0-3.8 2.3 6.3 6.3 0 0 0-1 5.2c.5 1.5 3 3.4 4.8 1.7zm-15.2-8.5a4 4 0 0 0-2.8 0 5.7 5.7 0 0 0-3 3 6.3 6.3 0 0 0 0 5.2c1 1.3 3.8 2.6 5 .5a17.6 17.6 0 0 0 1.5-4c.4-2 .5-4-.7-4.8zM595 72.8a16.4 16.4 0 0 0 2.2-3.4c.7-1.7 1.3-3.5.4-4.4a3.6 3.6 0 0 0-2.5-.7 5.3 5.3 0 0 0-3.4 2.2 5.8 5.8 0 0 0-1 4.7c.5 1.4 2.8 3 4.4 1.5zm-6.2-48.5a18.4 18.4 0 0 0 2.3-4c1-1.7 1.6-3.8.6-4.7a4 4 0 0 0-2.8-.8 6 6 0 0 0-4 2.4 6.6 6.6 0 0 0-1 5.3c.5 1.5 3 3.5 5 1.8zM571 64.5a5.3 5.3 0 0 0-2.8 3 6 6 0 0 0 .6 5c.8 1 3.5 2 4.7 0a16.5 16.5 0 0 0 1-3.7c.2-2 .2-3.8-1-4.4a3.6 3.6 0 0 0-2.5 0zm3-43.5a4 4 0 0 0-3 0 6 6 0 0 0-3.2 3.3 6.6 6.6 0 0 0 .2 5.4c1 1.4 4 2.7 5.3.6a18.5 18.5 0 0 0 1.4-4.3c.5-2 .6-4-.6-5zm35.8-9a4 4 0 0 0-2.7.7 5.7 5.7 0 0 0-2.3 3.7 6.3 6.3 0 0 0 1.4 5c1.2 1 4.2 1.6 5-.6a17.5 17.5 0 0 0 .5-4.3c0-2-.5-4-1.7-4.4zM591 52a3.8 3.8 0 0 0-2.7-.6 5.5 5.5 0 0 0-3.5 2.5 6 6 0 0 0-.6 4.8c.5 1.4 3 3 4.6 1.4a17 17 0 0 0 2-3.7c.8-1.8 1.2-3.7.2-4.5zm-6 90.3a15.8 15.8 0 0 0-.3 3.8c0 1.8.4 3.6 1.5 4a3.5 3.5 0 0 0 2.4-.5 5 5 0 0 0 2-3.3 5.6 5.6 0 0 0-1-4.5c-1-1-3.8-1.5-4.5.6zM559 7a4 4 0 0 0 3 .3 6 6 0 0 0 3.5-3A7 7 0 0 0 566 0h-6.3a21.7 21.7 0 0 0-.8 2.2c-.7 2-1 4 0 4.8zm0 122.8c1.4 1.2 3 2.3 4 1.7a3.5 3.5 0 0 0 1.3-2 5 5 0 0 0-.8-4 5.6 5.6 0 0 0-4-2.2c-1.4 0-3.7 1.6-2.8 3.5a15.8 15.8 0 0 0 2.4 3zm-3.5-22.1a15.8 15.8 0 0 0 3.8.3c1.8 0 3.6-.3 4-1.4a3.5 3.5 0 0 0-.5-2.5 5 5 0 0 0-3.4-2 5.6 5.6 0 0 0-4.4 1.2c-1 1-1.5 3.7.5 4.5zm3-29.2a16 16 0 0 0 .7-3.8c0-1.8 0-3.7-1.2-4a3.6 3.6 0 0 0-2.6.2 5.2 5.2 0 0 0-2.4 3 5.7 5.7 0 0 0 1 4.7c1 1 3.6 1.8 4.5-.2zm3.9 67.5a3.5 3.5 0 0 0 2.5-.4 5 5 0 0 0 2-3.3 5.6 5.6 0 0 0-1.3-4.5c-1-1-3.7-1.5-4.4.5a15.8 15.8 0 0 0-.4 4c0 1.6.3 3.4 1.4 3.8zM600 41.2a17.5 17.5 0 0 0 2-3.8c.7-1.8 1.2-3.7.2-4.6a4 4 0 0 0-2.7-.6 5.6 5.6 0 0 0-3.6 2.5 6.2 6.2 0 0 0-.8 5c.6 1.5 3.2 3.2 4.8 1.5zm-43.8 11.4a5.5 5.5 0 0 0-3 3 6 6 0 0 0 .4 5c.8 1.3 3.6 2.4 4.8.4a17 17 0 0 0 1.2-4c.3-2 .4-3.8-.7-4.4a3.7 3.7 0 0 0-2.8 0zM582.6.2a5.5 5.5 0 0 0-1 4.2 6 6 0 0 0 2.8 4.2c1.3.6 4.3.2 4.4-2a17.2 17.2 0 0 0-1-4.2 10 10 0 0 0-1-2.4h-4s-.2 0-.2.2zM604.5 139c.5 1.5 3 3 4.6 1.4a17 17 0 0 0 2-3.6c.8-1.8 1.3-3.7.3-4.5a3.8 3.8 0 0 0-2.7-.6 5.5 5.5 0 0 0-3.5 2.4 6 6 0 0 0-.5 5zm5.8-83.6a16.7 16.7 0 0 0 2-3.6c.6-1.7 1-3.6 0-4.4a3.7 3.7 0 0 0-2.6-.5 5.4 5.4 0 0 0-3.4 2.3 6 6 0 0 0-.6 5c.6 1.3 3 2.8 4.6 1zM505.5 96a15.8 15.8 0 0 0 3.3-2c1.3-1 2.5-2.5 2.2-3.6a3.5 3.5 0 0 0-2-1.6 5 5 0 0 0-4 .3 5.6 5.6 0 0 0-2.6 3.8c-.2 1.4 1 3.8 3 3.2zm-9.7 31.4a15.8 15.8 0 0 0 3-2.2c1.4-1.2 2.6-2.6 2-3.7a3.5 3.5 0 0 0-2-1.6 5 5 0 0 0-3.8.5 5.6 5.6 0 0 0-2.6 3.8c0 1.4 1.3 3.8 3.4 3zM503 24.5a15.8 15.8 0 0 0 2-3.4c.5-1.6 1-3.4 0-4a3.5 3.5 0 0 0-2.5-.6 5 5 0 0 0-3.2 2.3 5.6 5.6 0 0 0-.5 4.6c.6 1.3 3 2.8 4.3 1.2zm4.8 88.9a15.8 15.8 0 0 0 3.3-2c1.5-1 2.7-2.3 2.4-3.4a3.5 3.5 0 0 0-1.8-1.8 5 5 0 0 0-4 .3 5.6 5.6 0 0 0-3 3.6c0 1.5 1 4 3 3.4zM483 121c1.3-1.2 2.5-2.7 2-3.8a3.5 3.5 0 0 0-2-1.5 5 5 0 0 0-4 .6 5.6 5.6 0 0 0-2.5 3.8c0 1.5 1.3 4 3.3 3a15.8 15.8 0 0 0 3.2-2zm-4 67.6a15.8 15.8 0 0 0 .3-4c0-1.6-.4-3.4-1.5-3.8a3.5 3.5 0 0 0-2.5.5 5 5 0 0 0-2 3.3 5.6 5.6 0 0 0 1 4.5c1 1 4 1.6 4.6-.4zm28.5 16.2a16.8 16.8 0 0 0 3.6-2c1.6-1 3-2.5 2.5-3.7a3.7 3.7 0 0 0-2-1.7 5.4 5.4 0 0 0-4 .2 6 6 0 0 0-3.2 3.8c-.2 1.5 1 4 3.2 3.5zm-19.7-57.6a15.8 15.8 0 0 0 3-2.4c1.2-1.3 2.3-2.8 1.7-4a3.5 3.5 0 0 0-2-1.2 5 5 0 0 0-4 .8 5.6 5.6 0 0 0-2.2 4c0 1.4 1.5 3.7 3.5 2.8zM642 31.2c1 1 4 1 4.3-1a15.8 15.8 0 0 0 0-4c-.4-1.7-1-3.4-2-3.6a3.5 3.5 0 0 0-2.5.8A5 5 0 0 0 640 27a5.6 5.6 0 0 0 2 4.2zm-4.6 14.5a15.8 15.8 0 0 0 3.7 1c1.8 0 3.7 0 4.2-1a3.5 3.5 0 0 0-.2-2.5 5 5 0 0 0-3-2.6 5.6 5.6 0 0 0-4.5.6c-1.2 1-2 3.5 0 4.5zM473.7 159.2a15.8 15.8 0 0 0 3-2.5c1.2-1.2 2.2-2.7 1.7-3.8a3.5 3.5 0 0 0-2-1.5 5 5 0 0 0-4 1 5.6 5.6 0 0 0-2.2 4c0 1.3 1.5 3.6 3.5 2.7zM526.7 2a6 6 0 0 0 .3 5c.8 1.3 3.5 2.4 4.8.4a17 17 0 0 0 1.2-3.8 7 7 0 0 0 0-3.6h-4.8a5 5 0 0 0-1.5 2zm96.5.8a5 5 0 0 0-4 .7 5.6 5.6 0 0 0-2.4 4c0 1.3 1.3 3.6 3.4 3a15.8 15.8 0 0 0 3-2.4c1.4-1 2.5-2.5 2-3.6a3.5 3.5 0 0 0-2-1.6zM530 122a15.8 15.8 0 0 0 3.3-1.6c1.6-1 3-2 2.7-3.3a3.5 3.5 0 0 0-1.7-1.7 5 5 0 0 0-4 0 5.6 5.6 0 0 0-3.2 3.2c-.2 1.4.8 4 3 3.6zm-11.3 66a15.8 15.8 0 0 0 3.5-1.7c1.6-1 3-2 2.7-3.2a3.5 3.5 0 0 0-1.7-1.8 5 5 0 0 0-4-.2 5.6 5.6 0 0 0-3.3 3.3c-.3 1.4.6 4 2.7 3.6zm9.1-88.3a3.5 3.5 0 0 0-2-1.7 5 5 0 0 0-3.8.2 5.6 5.6 0 0 0-3 3.6c-.2 1.4 1 4 3 3.3a15.8 15.8 0 0 0 3.4-1.8c1.5-1 2.7-2.4 2.4-3.5zM516 158.6c1-1 1-4-1-4.4a15.8 15.8 0 0 0-3.8 0c-1.8.4-3.5 1-3.7 2a3.5 3.5 0 0 0 .8 2.5 5 5 0 0 0 3.6 1.7 5.6 5.6 0 0 0 4-1.8zm-61.3-13.3a15.8 15.8 0 0 0 3.7-1c1.7-.6 3.2-1.5 3.2-2.7a3.5 3.5 0 0 0-1.3-2.2 5 5 0 0 0-4-.8 5.6 5.6 0 0 0-3.6 2.7c-.6 1.3 0 4 2 4zm235.7-67.5c.4-1.5-.7-4.2-3-3.8a17 17 0 0 0-3.7 1.8c-1.6 1-3 2.3-2.8 3.5a3.7 3.7 0 0 0 1.7 2 5.5 5.5 0 0 0 4.3 0 6 6 0 0 0 3.4-3.5zm.9-55.1c-1 1-1.5 3.7.5 4.5a15.8 15.8 0 0 0 3.8.4c1.8 0 3.6-.4 4-1.5a3.5 3.5 0 0 0-.5-2.4 5 5 0 0 0-3.3-2 5.6 5.6 0 0 0-4.4 1zm-2.9 22.1c1 .7 3.7.7 4-1.4a15 15 0 0 0-.4-3.6c-.4-1.6-1-3.2-2-3.3a3.3 3.3 0 0 0-2.3 1 4.8 4.8 0 0 0-1.3 3.4 5.3 5.3 0 0 0 2 3.8zm-3.4 48a17 17 0 0 0-3.3 2.6c-1.3 1.3-2.4 3-1.8 4a3.7 3.7 0 0 0 2 1.6 5.4 5.4 0 0 0 4.2-1 6 6 0 0 0 2.5-4.3c0-1.5-1.7-4-3.8-3zM247.7 26.2c-.3-1.7-1-3.4-2-3.6a3.5 3.5 0 0 0-2.4.8 5 5 0 0 0-1.6 3.6 5.6 5.6 0 0 0 2 4.2c1 1 3.7 1 4.2-1a15.8 15.8 0 0 0-.3-4zm444.6-22a5.6 5.6 0 0 0-4.5 1.2c-1 1-1.5 3.7.6 4.5a15.8 15.8 0 0 0 3.8.2c1.7 0 3.5-.3 4-1.5a3.5 3.5 0 0 0-.6-2.4 5 5 0 0 0-3.3-2zM682.5 52a5.6 5.6 0 0 0-3.8 2.6c-.7 1.2-.3 4 2 4a15.8 15.8 0 0 0 3.6-.8c1.7-.6 3.3-1.5 3.3-2.7a3.5 3.5 0 0 0-1.3-2 5 5 0 0 0-3.8-1zm-9-22c-.3 1.4.7 4 2.8 3.5a15.6 15.6 0 0 0 3.4-1.7c1.5-1 2.8-2.2 2.5-3.3a3.5 3.5 0 0 0-1.7-2 5 5 0 0 0-4 0 5.6 5.6 0 0 0-3 3.5zm6.1-12.3a15 15 0 0 0 1.4-3.3c.5-1.7.7-3.4-.3-4a3.3 3.3 0 0 0-2.4-.3 4.8 4.8 0 0 0-2.8 2.6 5.3 5.3 0 0 0 0 4.4c.6 1.2 3 2.4 4 .7zm-60.1 151.8a15.8 15.8 0 0 0 3.8.3c1.8 0 3.6-.3 4-1.4a3.5 3.5 0 0 0-.6-2.5 5 5 0 0 0-3.3-2.2 5.6 5.6 0 0 0-4.5 1.2c-1 1-1.6 3.7.5 4.5zm1.8-64.1a5.6 5.6 0 0 0-4.7-.3c-1.2.8-2.5 3.2-1 4.5a15.8 15.8 0 0 0 3.6 1.6c1.7.6 3.5 1 4.2 0a3.5 3.5 0 0 0 .4-2.6 5 5 0 0 0-2.5-3zm4 25.6a3.7 3.7 0 0 0-1.3-2.4 5.4 5.4 0 0 0-4-1.2 6 6 0 0 0-4.2 2.7c-.7 1.4-.4 4.3 2 4.4a17 17 0 0 0 4-.8c1.7-.5 3.5-1.4 3.5-2.7zM543.6 15.3a17.6 17.6 0 0 0 2.3-3.6c.7-1.7 1.3-3.7.4-4.6a4 4 0 0 0-2.7-.7 5.7 5.7 0 0 0-3.8 2.3 6.3 6.3 0 0 0-1 5c.4 1.6 3 3.4 4.6 1.8zM661.8 99a3.6 3.6 0 0 0 1.6 2.2 5.3 5.3 0 0 0 4 .4 5.8 5.8 0 0 0 3.6-3.2c.5-1.4-.3-4.2-2.6-4a16.4 16.4 0 0 0-3.7 1.5c-1.6.8-3 2-3 3zm.9-78.4a5.6 5.6 0 0 0-4.6-1c-1.2.5-3 2.7-1.4 4.3a15.8 15.8 0 0 0 3.3 2c1.5.7 3.2 1.2 4 .3a3.5 3.5 0 0 0 .7-2.4 5 5 0 0 0-2-3.4zm5 47.4a16.2 16.2 0 0 0 3.7 1.5c1.7.5 3.6.7 4.3-.3a3.6 3.6 0 0 0 .2-2.6 5.2 5.2 0 0 0-2.8-3 5.8 5.8 0 0 0-4.8 0c-1.2.6-2.5 3.2-.7 4.5zm1-24c-.6 1.3 0 4 2.2 4a16 16 0 0 0 3.6-1c1.7-.7 3.2-1.6 3.2-2.8a3.5 3.5 0 0 0-1.4-2.2 5.2 5.2 0 0 0-4-.8 5.7 5.7 0 0 0-3.7 2.8zm-129.9-6a3.8 3.8 0 0 0 2.8.2 5.5 5.5 0 0 0 3-3 6 6 0 0 0 0-5c-.7-1.3-3.5-2.6-4.8-.6a17.2 17.2 0 0 0-1.5 4c-.4 1.8-.6 3.7.5 4.4zm-16.5 208.4c-1.4 0-3.7 1.6-2.8 3.6a15.8 15.8 0 0 0 2.5 3c1.2 1.2 2.7 2.2 3.8 1.7a3.5 3.5 0 0 0 1.4-2 5 5 0 0 0-1-4 5.6 5.6 0 0 0-4-2.3zM707 37.2c-1.4-.2-4 1-3.4 3.2a16.3 16.3 0 0 0 2 3.4c1.2 1.5 2.6 2.7 3.8 2.3a3.6 3.6 0 0 0 1.7-1.8 5.3 5.3 0 0 0-.2-4 5.8 5.8 0 0 0-3.8-3zm-468 8.5a15.8 15.8 0 0 0 3.7 1c1.7 0 3.5 0 4-1a3.5 3.5 0 0 0 0-2.5 5 5 0 0 0-3-2.6 5.6 5.6 0 0 0-4.7.6c-1 1-2 3.5 0 4.5zm462.8 27.9a6 6 0 0 0-4.2 2.7c-.7 1.3-.3 4.2 2 4.3a17 17 0 0 0 4-.8c1.8-.5 3.5-1.4 3.5-2.7a3.7 3.7 0 0 0-1-2.3 5.4 5.4 0 0 0-4.2-1zm5.8 45a3.8 3.8 0 0 0-1.5 2.3 5.5 5.5 0 0 0 1 4 6 6 0 0 0 4.5 2.6 3.8 3.8 0 0 0 2.8-1.6c0-.6.2-1.2.4-2a2.5 2.5 0 0 0-.2-.3 17.2 17.2 0 0 0-2.6-3.2c-1.6-1.3-3.2-2.4-4.4-2zM526 230.5a5 5 0 0 0-3.7-1 5.6 5.6 0 0 0-4 2.7c-.5 1.2 0 4 2 4a15.8 15.8 0 0 0 3.8-.8c1.8-.6 3.3-1.5 3.3-2.7a3.5 3.5 0 0 0-1.2-2.2zM230 30.2a5.6 5.6 0 0 0-4-2.3c-1.4 0-3.7 1.5-2.8 3.5a15.8 15.8 0 0 0 2.5 3c1.3 1.2 2.8 2.2 3.8 1.7a3.5 3.5 0 0 0 1.4-2 5 5 0 0 0-1-4zM225.5 45c-1.4 0-3.7 1.6-2.8 3.5a15.8 15.8 0 0 0 2.5 3c1.2 1.3 2.7 2.3 3.8 1.8a3.5 3.5 0 0 0 1.4-2 5 5 0 0 0-1-4 5.6 5.6 0 0 0-4-2.3zm52 21.6a5.2 5.2 0 0 0-2.7-3 5.8 5.8 0 0 0-4.8 0c-1.2.7-2.5 3.2-.7 4.5a16.2 16.2 0 0 0 3.6 1.6c1.7.5 3.6.7 4.2-.3a3.6 3.6 0 0 0 .3-2.7zm-42.1-3.1a5 5 0 0 0 4-1 5.6 5.6 0 0 0 2-4c0-1.3-1.5-3.6-3.4-2.6a15.8 15.8 0 0 0-3 2.3c-1.2 1.3-2.3 2.8-1.7 3.8a3.5 3.5 0 0 0 2 1.5zm-1.6-42.3a15.8 15.8 0 0 0 0-3.8c-.2-1.8-.7-3.5-1.8-3.8a3.5 3.5 0 0 0-2.4.7 5 5 0 0 0-1.8 3.6 5.6 5.6 0 0 0 1.6 4.2c1 1 4 1 4.4-1zm-17.5 6.4a5.5 5.5 0 0 0-3 3 6 6 0 0 0 .2 5c.8 1.3 3.6 2.5 4.8.5a17 17 0 0 0 1.3-3.8c.4-2 .5-3.8-.6-4.5a3.8 3.8 0 0 0-2.7 0zM274.6 79a3.6 3.6 0 0 0-2.4 1 5.3 5.3 0 0 0-1.5 4 6 6 0 0 0 2.3 4c1 .8 4 .8 4.3-1.4a16.5 16.5 0 0 0-.4-4c-.5-1.8-1.2-3.6-2.4-3.7zm-52.9-68.7a15.8 15.8 0 0 0 3-2.2c1.4-1 2.6-2.6 2-3.6a3.5 3.5 0 0 0-2-1.6 5 5 0 0 0-3.8.7 5.6 5.6 0 0 0-2.6 4c0 1.3 1.3 3.6 3.3 2.8zm189.9 9.4a16.7 16.7 0 0 0-1.2 4c-.3 1.8-.4 3.7.7 4.3a3.7 3.7 0 0 0 2.8 0 5.4 5.4 0 0 0 3-3 6 6 0 0 0-.5-5c-.8-1-3.5-2.2-4.7-.3zm61.6 13.8c-.3-1.4-2.3-3.3-4-2a15.8 15.8 0 0 0-2.4 3c-1 1.5-1.7 3-1 4a3.5 3.5 0 0 0 2.3 1 5 5 0 0 0 3.7-1.5 5.6 5.6 0 0 0 1.5-4.5zm-47.4 41.9a3.5 3.5 0 0 0 2.5 0 5 5 0 0 0 2.7-3 5.6 5.6 0 0 0-.3-4.5c-.8-1.3-3.4-2.3-4.5-.4a15.8 15.8 0 0 0-1 3.6c-.4 1.8-.4 3.6.6 4.2zm42.4-20A5.6 5.6 0 0 0 470 51c-.3-1.3-2.2-3.4-4-2.2a15.8 15.8 0 0 0-2.6 3c-1 1.3-1.8 3-1.2 4a3.5 3.5 0 0 0 2.3 1 5 5 0 0 0 3.7-1.4zM422 5.8a16.3 16.3 0 0 0-3 2.5c-1.3 1.3-2.4 3-1.8 4a3.6 3.6 0 0 0 2 1.4 5.3 5.3 0 0 0 4-1 5.8 5.8 0 0 0 2.5-4c0-1.5-1.7-3.8-3.7-3zm40.6 18.6a5.2 5.2 0 0 0 3.7-1.6 5.7 5.7 0 0 0 1.6-4.4c-.3-1.4-2.3-3.4-4-2.2a16 16 0 0 0-2.6 3c-1 1.5-1.8 3.2-1 4a3.6 3.6 0 0 0 2.2 1.2zm49.7 13.9a15.8 15.8 0 0 0 2-3.2c.8-1.5 1.3-3.3.5-4a3.5 3.5 0 0 0-2.5-.8 5 5 0 0 0-3.3 2 5.6 5.6 0 0 0-1 4.6c.5 1.4 2.8 3 4.3 1.5zM454.8 91a3.5 3.5 0 0 0 2 1.6 5 5 0 0 0 4-.3 5.6 5.6 0 0 0 2.6-3.7c.2-1.4-1-4-3-3.2a15.8 15.8 0 0 0-3.4 2c-1.4 1-2.6 2.5-2.2 3.6zm-27.2 13.7a5 5 0 0 0 1 3.8 5.6 5.6 0 0 0 4 2.3c1.3 0 3.6-1.6 2.7-3.6a15.8 15.8 0 0 0-2.5-3c-1.3-1.2-2.8-2.2-3.8-1.7a3.5 3.5 0 0 0-1.4 2.2zM448.8 37a3.5 3.5 0 0 0-1.4 2 5 5 0 0 0 1 3.8 5.6 5.6 0 0 0 4 2.3c1.3 0 3.5-1.5 2.6-3.5a15.8 15.8 0 0 0-2.4-3c-1.3-1-2.8-2.2-3.8-1.6zM457 3a5.5 5.5 0 0 0-3.6 2.2 6 6 0 0 0-1 4.8c.5 1.5 3 3.3 4.6 1.7a17 17 0 0 0 2-3.5c1-1.7 1.5-3.6.6-4.5A3.7 3.7 0 0 0 457 3zm24 21.8a16 16 0 0 0 2-3.3c.8-1.6 1.3-3.4.4-4.3a3.6 3.6 0 0 0-2.4-.7 5.2 5.2 0 0 0-3.5 2 5.8 5.8 0 0 0-1 4.8c.5 1.3 2.8 3 4.4 1.5zm57 42.8c.7 1.2 3.4 2.3 4.5.4a16.3 16.3 0 0 0 1.2-3.8c.3-1.8.3-3.7-.7-4.3a3.6 3.6 0 0 0-2.6 0 5.2 5.2 0 0 0-2.8 3 5.8 5.8 0 0 0 .3 4.6zM490.5 8.3c0-1.5-1.6-3.8-3.6-3a16 16 0 0 0-3 2.6c-1.4 1.2-2.4 2.8-2 3.8a3.5 3.5 0 0 0 2.3 1.4 5.2 5.2 0 0 0 4-.8 5.7 5.7 0 0 0 2.2-4.2zm-50.9 41c1.4 0 3.6-1.6 2.7-3.6a15.8 15.8 0 0 0-2.4-3c-1.4-1.2-3-2.2-4-1.7a3.5 3.5 0 0 0-1.3 2 5 5 0 0 0 1 4 5.6 5.6 0 0 0 4 2.3zm46.7 56a15.8 15.8 0 0 0 3-2.5c1.2-1.2 2.2-2.7 1.7-3.8a3.5 3.5 0 0 0-2-1.4 5 5 0 0 0-4 1 5.6 5.6 0 0 0-2.3 4c0 1.3 1.6 3.6 3.6 2.7zm4.7-65.7a5 5 0 0 0 3-2.5 5.6 5.6 0 0 0 .2-4.5c-.6-1.3-3-2.6-4.4-1a15.8 15.8 0 0 0-1.5 3.6c-.6 1.8-.8 3.6 0 4.3a3.5 3.5 0 0 0 2.6.3zM437.3 8a5.5 5.5 0 0 0-4 1.6 6 6 0 0 0-1.7 4.6c.2 1.5 2.3 3.7 4.2 2.4a17 17 0 0 0 2.8-3c1-1.7 2-3.4 1.2-4.5a3.8 3.8 0 0 0-2.5-1zM493 79.8a5.6 5.6 0 0 0-.4-4.6c-.8-1-3.4-2-4.5-.2a15.8 15.8 0 0 0-1 3.7c-.2 1.8 0 3.6 1 4a3.5 3.5 0 0 0 2.4 0 5 5 0 0 0 2.7-3zm-12-19.5a5 5 0 0 0 3.5-2 5.6 5.6 0 0 0 1-4.5c-.6-1.3-2.8-3-4.4-1.5a15.8 15.8 0 0 0-2 3.2c-.6 1.6-1 3.4-.3 4.2a3.5 3.5 0 0 0 2.4.6zm67.5 95.9a5 5 0 0 0 3-2.5 5.6 5.6 0 0 0 .3-4.7c-.7-1.2-3-2.5-4.4-1a15.8 15.8 0 0 0-1.6 3.6c-.5 1.7-.8 3.5.2 4.2a3.5 3.5 0 0 0 2.5.4zm-2.8-17.9c1.2 1.2 2.7 2.3 3.8 1.7a3.5 3.5 0 0 0 1.4-2 5 5 0 0 0-1-4 5.6 5.6 0 0 0-4-2.2c-1.4 0-3.7 1.6-2.8 3.6a15.8 15.8 0 0 0 2.5 3zM494.6 162a3.5 3.5 0 0 0-1.6-2 5 5 0 0 0-4-.5 5.6 5.6 0 0 0-3.4 3c-.4 1.5.4 4 2.5 4a15.8 15.8 0 0 0 3.7-1.5c1.6-.8 3-2 3-3zm-5.1 28.3a5 5 0 0 0-3 2.6 5.6 5.6 0 0 0-.3 4.5c.6 1.2 3 2.6 4.4 1a15.8 15.8 0 0 0 1.6-3.6c.5-1.8.7-3.6-.2-4.3a3.5 3.5 0 0 0-2.5-.3zm52.3-87.3a15.8 15.8 0 0 0 3.6-1c1.7-.8 3.2-1.7 3-3a3.5 3.5 0 0 0-1.2-2 5 5 0 0 0-4-.7 5.6 5.6 0 0 0-3.6 2.8c-.6 1.4 0 4 2.2 4zm2.5 15.8a15.8 15.8 0 0 0 3.5-1.4c1.6-.8 3-2 3-3a3.5 3.5 0 0 0-1.7-2 5 5 0 0 0-3.8-.4 5.6 5.6 0 0 0-3.4 3c-.5 1.4.3 4 2.5 3.8zm-5.9-35.4c1.2.7 4 .5 4-1.6a15.8 15.8 0 0 0-.4-3.8c-.5-1.7-1.2-3.4-2.4-3.5a3.5 3.5 0 0 0-2.3 1 5 5 0 0 0-1.2 4 5.6 5.6 0 0 0 2.4 4zM385.7 1a15.3 15.3 0 0 0-2.4 2.8c-1 1.4-1.8 3-1 4a3.4 3.4 0 0 0 2.2 1 5 5 0 0 0 3.5-1.5 5.5 5.5 0 0 0 1.5-4.2c-.2-1.2-2-3.2-3.8-2zm144.6 49.4a5.8 5.8 0 0 0-.4-4.7c-1-1.2-3.6-2.2-4.7-.3a16.2 16.2 0 0 0-1 3.8c-.4 1.8-.4 3.6.7 4.2a3.6 3.6 0 0 0 2.6 0 5.2 5.2 0 0 0 2.7-3zM520 130c1.2-.3 3-2.4 1.7-4a15.8 15.8 0 0 0-3-2.4c-1.6-1-3.3-1.5-4.2-.7a3.5 3.5 0 0 0-1 2.3 5 5 0 0 0 2 3.5 5.6 5.6 0 0 0 4.4 1.2zm8.2-113.2a3.7 3.7 0 0 0-2.6-.2 5.4 5.4 0 0 0-3 2.7 6 6 0 0 0-.2 5c.7 1.2 3.3 2.5 4.7.7a16.6 16.6 0 0 0 1.6-3.8c.4-1.8.6-3.7-.4-4.4zM523 77.7a3.5 3.5 0 0 0-1.6 1.8 5 5 0 0 0 .2 4 5.6 5.6 0 0 0 3.6 2.8c1.4.3 4-1 3.3-3a15.8 15.8 0 0 0-2-3.3c-1-1.4-2.3-2.7-3.4-2.3zm-10.3 60.6c-1.8-.3-3.6-.2-4 1a3.5 3.5 0 0 0 0 2.4 5 5 0 0 0 3 2.5 5.6 5.6 0 0 0 4.6-.6c1-.8 2-3.4 0-4.4a15.8 15.8 0 0 0-3.6-1zm-127.1-51A16 16 0 0 0 384 91c-.5 1.6-.8 3.4.2 4a3.5 3.5 0 0 0 2.5.5 5.2 5.2 0 0 0 3-2.6 5.7 5.7 0 0 0 .3-4.8c-.6-1.2-3-2.6-4.4-1zm-27.8-30.9a17 17 0 0 0-4-.4c-2 0-4 .4-4.4 1.6a3.7 3.7 0 0 0 .6 2.7 5.5 5.5 0 0 0 3.6 2.3 6 6 0 0 0 4.7-1.4c1-1 1.7-4-.5-4.8zm151 7.6a3.5 3.5 0 0 0 2.5 0 5 5 0 0 0 2.7-3 5.6 5.6 0 0 0-.3-4.5c-.8-1.2-3.4-2.2-4.5-.4a15.8 15.8 0 0 0-1 3.8c-.4 1.7-.5 3.6.6 4zM354 75.4c-1.4-.7-4.4-.3-4.5 2a17.3 17.3 0 0 0 1 4.2c.6 1.8 1.6 3.6 3 3.6a3.8 3.8 0 0 0 2.3-1.4 5.6 5.6 0 0 0 1-4.2 6.2 6.2 0 0 0-2.8-4.2zM538 238a3.5 3.5 0 0 0 2.2-1.3 5.2 5.2 0 0 0 1-4 5.7 5.7 0 0 0-2.6-3.8c-1.3-.7-4-.3-4 2a16 16 0 0 0 .8 3.7c.5 1.7 1.4 3.3 2.6 3.3zm-23.5-19a15.8 15.8 0 0 0 3.5-1.5c1.5-1 3-2 2.6-3.2a3.5 3.5 0 0 0-1.6-2 5 5 0 0 0-4 0 5.6 5.6 0 0 0-3.2 3.2c-.4 1.4.5 4 2.7 3.6zm34.8-1c1.4-.2 3.5-2.3 2-4.2a17 17 0 0 0-3-2.6c-1.7-1-3.5-1.8-4.5-1a3.7 3.7 0 0 0-1 2.5 5.5 5.5 0 0 0 1.8 4 6 6 0 0 0 4.6 1.4zm-19.5-54.2a5 5 0 0 0 3.8-.8 5.6 5.6 0 0 0 2.3-4c0-1.4-1.7-3.7-3.6-2.8a15.8 15.8 0 0 0-3 2.5c-1.2 1.2-2.3 2.7-1.7 3.8a3.5 3.5 0 0 0 2 1.3zm1.9-15.1a5.6 5.6 0 0 0 4-2.3c.7-1.2.6-4-1.6-4.2a15.8 15.8 0 0 0-3.7.6c-1.7.4-3.3 1.2-3.4 2.4a3.5 3.5 0 0 0 1 2.2 5 5 0 0 0 3.7 1.3zm20.9 85.3a3.5 3.5 0 0 0 2.5-.4 5 5 0 0 0 2.3-3.4 5.7 5.7 0 0 0-1.3-4.5c-1-1-3.7-1.5-4.5.6a16 16 0 0 0-.3 3.8c0 2 .3 3.7 1.4 4zm-17.2-30.3a16.3 16.3 0 0 0 3-2.5c1.3-1.3 2.4-3 2-4a3.6 3.6 0 0 0-2.3-1.4 5.3 5.3 0 0 0-4 1 5.8 5.8 0 0 0-2.3 4c0 1.5 1.7 4 3.7 3zm-97.9-21.2a3.5 3.5 0 0 0-2-1.4 5 5 0 0 0-4 1 5.6 5.6 0 0 0-2.3 4c0 1.3 1.6 3.6 3.6 2.7a15.8 15.8 0 0 0 3-2.4c1.2-1.3 2.2-2.8 1.7-3.8zm105.9 5.1c1.3.6 4 0 4-2.3a16.4 16.4 0 0 0-1.3-3.8c-.6-1.7-1.7-3.3-3-3.2a3.6 3.6 0 0 0-2 1.5 5.3 5.3 0 0 0-.7 4 5.8 5.8 0 0 0 3 3.8zm36.6 44.9c-.2-1.4-2.2-3.4-4-2a16 16 0 0 0-2.5 3c-1 1.4-1.7 3-1 4a3.5 3.5 0 0 0 2.4 1 5.2 5.2 0 0 0 3.6-1.6 5.7 5.7 0 0 0 1.5-4.5zm1.2-16.7a6 6 0 0 0 5 .7c1.4-.5 3-3 1.4-4.6a17.2 17.2 0 0 0-3.6-2.2c-1.8-.8-3.7-1.3-4.5-.3a3.8 3.8 0 0 0-.7 2.7 5.5 5.5 0 0 0 2.4 3.6zm-8.5-53.1a5.6 5.6 0 0 0 4-2.3c.7-1.2.5-4-1.7-4.2a15.8 15.8 0 0 0-3.7.6c-1.7.5-3.4 1.2-3.5 2.4a3.5 3.5 0 0 0 1 2.3 5 5 0 0 0 4 1.2zm13.6 79.5a5.2 5.2 0 0 0 4 1 5.8 5.8 0 0 0 4-2.7c.5-1.3 0-4-2-4a16.2 16.2 0 0 0-4 .7c-1.7.6-3.3 1.5-3.3 2.8a3.6 3.6 0 0 0 1.3 2.2zM564 210.4a5.5 5.5 0 0 0 3.5-2.5 6 6 0 0 0 .4-5c-.8-1.4-3.3-3-4.8-1.2a17 17 0 0 0-1.8 3.7c-.6 1.8-1 3.8 0 4.5a3.7 3.7 0 0 0 2.7.4zm-1-36.4a5.8 5.8 0 0 0 4-2.5c.5-1.3 0-4-2-4.2a16.2 16.2 0 0 0-4 1c-1.7.5-3.3 1.4-3.3 2.6a3.6 3.6 0 0 0 1.3 2.2 5.2 5.2 0 0 0 4 1zm-7 82.4a5.5 5.5 0 0 0 3.3-2.5 6 6 0 0 0 .4-5c-.7-1.4-3.2-3-4.7-1.2a17 17 0 0 0-1.8 3.7c-.6 1.8-1 3.8 0 4.5a3.7 3.7 0 0 0 2.7.4zm5.6-64.8a3.5 3.5 0 0 0 2.5-.5 5 5 0 0 0 2.2-3.3 5.7 5.7 0 0 0-1.2-4.5c-1-1-3.8-1.5-4.5.6a16 16 0 0 0-.4 3.8c.2 1.8.5 3.6 1.6 4zM460 185.8c1.2.6 4 .2 4-2a15.8 15.8 0 0 0-1-3.7c-.5-1.5-1.4-3-2.5-3a3.5 3.5 0 0 0-2.2 1 5 5 0 0 0-1 4 5.6 5.6 0 0 0 2.6 3.8zm-5.7-23.1a15.8 15.8 0 0 0 3.2-2c1.4-1 2.7-2.4 2.3-3.6a3.5 3.5 0 0 0-2-1.5 5 5 0 0 0-3.8.3 5.6 5.6 0 0 0-2.8 3.6c-.2 1.4 1 4 3 3.3zm9.1 58.1a16.6 16.6 0 0 0 3.2-2.6c1.3-1.3 2.3-3 1.8-4a3.7 3.7 0 0 0-2.2-1.5 5.4 5.4 0 0 0-4 1 6 6 0 0 0-2.5 4.2c0 1.3 1.7 3.7 3.8 2.8zm1.2-19.5a16 16 0 0 0 .4-3.8c0-1.8-.4-3.6-1.5-4a3.5 3.5 0 0 0-2.5.5 5 5 0 0 0-2 3.4 5.7 5.7 0 0 0 1.2 4.5c1 1 3.7 1.4 4.4-.7zm-24.6-29a3.5 3.5 0 0 0-.4-2.5 5 5 0 0 0-3.4-2 5.6 5.6 0 0 0-4.4 1.2c-1 1-1.5 3.7.5 4.4a15.8 15.8 0 0 0 3.8.4c2 0 3.7-.4 4-1.5zm10.7 25.5c-.8-1.6-1.8-3.2-3-3a3.6 3.6 0 0 0-2.2 1.4 5.3 5.3 0 0 0-.6 4 5.8 5.8 0 0 0 3 3.8c1.2.5 4 0 4-2.4a16.4 16.4 0 0 0-1.3-3.8zm-6.4-100a5.6 5.6 0 0 0 2.3-4c0-1.4-1.6-3.7-3.5-2.7a15.8 15.8 0 0 0-3 2.5c-1.2 1.3-2.2 2.8-1.7 3.8a3.5 3.5 0 0 0 2 1.4 5 5 0 0 0 4-1zM501 207a3.5 3.5 0 0 0-1.8-1.6 5 5 0 0 0-4 .4 5.6 5.6 0 0 0-2.7 3.7c-.2 1.4 1 4 3.2 3.2a15.8 15.8 0 0 0 3.2-2c1.3-1 2.5-2.5 2-3.6zm3.6-30a16 16 0 0 0 .4-4c0-1.7-.4-3.5-1.5-4a3.5 3.5 0 0 0-2.5.6 5 5 0 0 0-2 3.4 5.7 5.7 0 0 0 1 4.5c1 1 3.8 1.5 4.6-.6zm-.6 72.2a16 16 0 0 0 3.7 1c1.7.4 3.6.5 4.2-.6a3.5 3.5 0 0 0 0-2.5 5 5 0 0 0-3-2.6 5.7 5.7 0 0 0-4.7.3c-1.2.8-2.2 3.4-.3 4.5zm-13.5-15a16.2 16.2 0 0 0 3.5-1.8c1.5-1 3-2.2 2.6-3.4a3.6 3.6 0 0 0-1.7-2 5.2 5.2 0 0 0-4 0 5.8 5.8 0 0 0-3.3 3.6c-.4 1.4.6 4 2.8 3.6zm13.7-3.2a15.8 15.8 0 0 0 3.8-.2c1.8-.3 3.5-1 3.7-2a3.5 3.5 0 0 0-.8-2.4 5 5 0 0 0-3.7-1.6 5.6 5.6 0 0 0-4.3 2c-.8 1-1 3.7 1.2 4.2zM478 206.2a16 16 0 0 0 .4-4c0-1.7-.3-3.5-1.4-3.8a3.5 3.5 0 0 0-2.5.5 5 5 0 0 0-2 3.2 5.7 5.7 0 0 0 1 4.5c1 1 3.8 1.5 4.6-.5zm.5 15.8a16.3 16.3 0 0 0 3-2.5c1.3-1.3 2.4-2.8 2-4a3.6 3.6 0 0 0-2.3-1.4 5.3 5.3 0 0 0-4 1 5.8 5.8 0 0 0-2.4 4.2c0 1.5 1.7 3.8 3.7 3zm54.5-43.5a5.5 5.5 0 0 0 3.3-2.6 6 6 0 0 0 .4-5c-.7-1.4-3.2-3-4.7-1a17 17 0 0 0-1.8 3.6c-.6 1.8-1 3.7 0 4.5a3.7 3.7 0 0 0 2.7.5zm146.8-40.2c1 1.6 2.6 3 3.8 2.6a4 4 0 0 0 2-2 5.6 5.6 0 0 0-.3-4.4 6.2 6.2 0 0 0-4-3.3c-1.5-.2-4.3 1-3.7 3.4a17.5 17.5 0 0 0 2.2 3.6zm2.5 28.7a5.2 5.2 0 0 0 3.8-1.4 5.8 5.8 0 0 0 1.8-4.5c-.2-1.3-2-3.4-4-2.2a16.3 16.3 0 0 0-2.7 3c-1 1.4-1.8 3-1 4a3.6 3.6 0 0 0 2.3 1.2zM597 128.2c1.2 1.3 2.7 2.3 3.7 1.8a3.5 3.5 0 0 0 1.4-2 5 5 0 0 0-.7-4 5.6 5.6 0 0 0-4-2.3c-1.4 0-3.7 1.6-2.8 3.6a15.8 15.8 0 0 0 2.4 3zm101-9.9c1.7 0 4-1.7 3-3.8a17.2 17.2 0 0 0-2.5-3.3c-1.4-1.3-3-2.4-4.2-2a3.8 3.8 0 0 0-1.5 2.4 5.5 5.5 0 0 0 1 4.2 6 6 0 0 0 4.3 2.5zM672.3 177a13.5 13.5 0 0 0 .4-3.3c0-1.5-.4-3-1.3-3.3a3 3 0 0 0-2 .4 4.3 4.3 0 0 0-2 3 4.8 4.8 0 0 0 1 3.7c1 .8 3.3 1.2 4-.5zm3.9-63a5.4 5.4 0 0 0 4 .7 6 6 0 0 0 4-3c.4-1.5-.2-4.3-2.5-4a16.7 16.7 0 0 0-4 1c-1.6 1-3 2-3 3.3a3.7 3.7 0 0 0 1.5 2zm26.5-12.5a4 4 0 0 0 2-2 5.6 5.6 0 0 0-.3-4.3 6.2 6.2 0 0 0-4-3.2c-1.5-.3-4.3 1-3.7 3.3A17.5 17.5 0 0 0 699 99c1 1.5 2.5 3 3.7 2.5zm-31.4 51.8a17.7 17.7 0 0 0-1.5-4c-1-1.7-2.2-3.4-3.5-3.2a4 4 0 0 0-2.2 2 5.7 5.7 0 0 0-.3 4.3 6.3 6.3 0 0 0 3.5 3.8c1.4.6 4.4-.3 4-2.7zm4.5-66.5a16.5 16.5 0 0 0-.5-4c-.3-1.8-1-3.6-2.3-3.7a3.6 3.6 0 0 0-2.4 1 5.3 5.3 0 0 0-1.5 4 6 6 0 0 0 2.3 4.2c1.2 1 4 .8 4.5-1.4zM667 196.3a14.6 14.6 0 0 0 .4-3.6c0-1.6-.2-3.3-1.2-3.7a3.2 3.2 0 0 0-2.3.4 4.7 4.7 0 0 0-2.2 3 5.2 5.2 0 0 0 1 4.2c.8 1 3.3 1.5 4-.3zM239.4 1.5a5.6 5.6 0 0 0-1.2 4.5c.3 1.3 2.4 3 4 1.8a15.8 15.8 0 0 0 2.4-3c1-1.6 1.5-3.3.7-4.2a4 4 0 0 0-1-.6h-2.7a4.8 4.8 0 0 0-2.2 1.5zm-26.8 19.2a17.5 17.5 0 0 0 .4-4.2c0-2-.4-4-1.6-4.4a4 4 0 0 0-2.8.7 5.7 5.7 0 0 0-2.3 3.7 6.3 6.3 0 0 0 1.4 5c1 1 4 1.6 5-.7zM702.5 159a15.5 15.5 0 0 0 2.3-3c1-1.6 1.5-3.3.7-4.2a3.4 3.4 0 0 0-2.3-.8 5 5 0 0 0-3.5 1.8 5.5 5.5 0 0 0-1.2 4.3c.4 1.4 2.4 3.3 4 2zm-3.5-18a3.5 3.5 0 0 0 2.4 0 5 5 0 0 0 2.8-2.6 5.6 5.6 0 0 0 0-4.6c-.8-1.2-3.3-2.4-4.5-.6a15.8 15.8 0 0 0-1.3 3.6c-.4 1.7-.5 3.6.5 4.2zm-1-85a5 5 0 0 0-3.3 1.6 5.5 5.5 0 0 0-1.3 4.4c.4 1.3 2.4 3 4 1.8a15.5 15.5 0 0 0 2.3-3c1-1.5 1.5-3.2.7-4a3.4 3.4 0 0 0-2.3-1zm-4 118.4a15.8 15.8 0 0 0-1.5-3.6c-.8-1.6-2-3-3-2.8a3.5 3.5 0 0 0-2 1.5 5 5 0 0 0-.5 4 5.6 5.6 0 0 0 3 3.4c1.5.3 4-.5 4-2.6zm-62.5 29.9a4.3 4.3 0 0 0 3.4 0 4.8 4.8 0 0 0 2.6-2.8c.3-1.2-.5-3.4-2.3-3a13.4 13.4 0 0 0-3 1.4c-1.2.7-2.4 1.7-2.2 2.7a3 3 0 0 0 1.5 1.6zm-3-62.9a4 4 0 0 0-3-.2 5.8 5.8 0 0 0-3.2 3 6.4 6.4 0 0 0 0 5.2c.8 1.4 3.6 2.8 5 .8a18 18 0 0 0 1.6-4c.4-2 .6-4-.5-4.8zm5-51.4c.4-1.6-.7-4.4-3-4a17 17 0 0 0-3.7 1.8c-1.6 1-3 2.3-2.8 3.6a3.7 3.7 0 0 0 1.8 2 5.5 5.5 0 0 0 4.3 0 6 6 0 0 0 3.5-3.5zm-10.1 109c-.3-1.4-2.4-3.4-4-2a16 16 0 0 0-2.6 3c-1 1.5-1.7 3.2-1 4a3.5 3.5 0 0 0 2.4 1 5.2 5.2 0 0 0 3.6-1.5 5.7 5.7 0 0 0 1.6-4.5zm3-19a17 17 0 0 0-4-.5c-2 0-4 .4-4.4 1.6a3.8 3.8 0 0 0 .6 2.8 5.5 5.5 0 0 0 3.6 2.2 6 6 0 0 0 4.7-1.3c1-1 1.6-4-.6-4.8zM616 230.8c1.4.7 4.4.3 4.5-2a17.4 17.4 0 0 0-1-4.2c-.6-2-1.6-3.6-3-3.6a4 4 0 0 0-2.3 1.4 5.6 5.6 0 0 0-1 4.2 6.2 6.2 0 0 0 2.8 4.2zm-10 6.8a5.3 5.3 0 0 0 4 1 6 6 0 0 0 4-2.7c.8-1.4.4-4.3-2-4.3a16.5 16.5 0 0 0-3.8 1c-1.7.5-3.4 1.4-3.4 2.6a3.6 3.6 0 0 0 1.3 2.3zM570 124a15.8 15.8 0 0 0 3.6 1.6c1.7.5 3.5.7 4.2-.2a3.5 3.5 0 0 0 .4-2.5 5 5 0 0 0-2.6-3.2 5.6 5.6 0 0 0-4.6-.2c-1.2.6-2.5 3-1 4.4zm89-16.2a3.4 3.4 0 0 0-2.2-1 5 5 0 0 0-3.5 2 5.5 5.5 0 0 0-1.2 4.3c.5 1.4 2.5 3.2 4 2a15.5 15.5 0 0 0 2.4-3c1-1.7 1.5-3.3.7-4.2zm6.4 27.7c1.5 0 4-1.8 3-4a17.2 17.2 0 0 0-2.7-3c-1.4-1.5-3-2.6-4-2a3.8 3.8 0 0 0-1.7 2.3 5.5 5.5 0 0 0 1 4.2 6 6 0 0 0 4.4 2.5zM653.3 166a3.5 3.5 0 0 0-1.3-2.3 5 5 0 0 0-3.8-1 5.6 5.6 0 0 0-3.8 2.6c-.7 1.3-.3 4 2 4a15.8 15.8 0 0 0 3.6-.8c1.7-.6 3.3-1.5 3.3-2.6zm-10.7 51.3a3.5 3.5 0 0 0-2-1.5 5 5 0 0 0-4 1 5.6 5.6 0 0 0-2.2 4c0 1.3 1.6 3.6 3.5 2.7a15.8 15.8 0 0 0 3-2.5c1-1.2 2-2.7 1.6-3.8zm5.7-34.7a3 3 0 0 0-1.2-2 4.6 4.6 0 0 0-3.3-.8 5 5 0 0 0-3.5 2.3c-.5 1.2-.2 3.7 1.8 3.8a14.2 14.2 0 0 0 3.3-.8c1.5-.5 3-1.3 3-2.4zm-1.3 26.8a4.6 4.6 0 0 0 3.5-.7 5 5 0 0 0 2-3.6c0-1.2-1.5-3.2-3.2-2.4a14.2 14.2 0 0 0-2.7 2.2c-1 1-2 2.5-1.5 3.4a3 3 0 0 0 2 1.3zm16.2-140.8a3.5 3.5 0 0 0-1.7-2 5 5 0 0 0-4-.2 5.7 5.7 0 0 0-3.3 3.3c-.4 1.4.5 4 2.6 3.7a16 16 0 0 0 3.6-1.6c1.6-1 3-2 2.8-3.2zm-8.9-61.9a3.5 3.5 0 0 0-2.3 1 5 5 0 0 0-1.2 3.8 5.6 5.6 0 0 0 2.3 4c1.2.7 4 .5 4.2-1.6a15.8 15.8 0 0 0-.5-4c-.5-1.6-1.2-3.2-2.4-3.3zm-16.5-5.2a5.6 5.6 0 0 0-1.2 4.5c.3 1.3 2.4 3 4 1.8a15.8 15.8 0 0 0 2.4-3c1-1.6 1.5-3.3.8-4.2a4 4 0 0 0-1-.6H640a4.8 4.8 0 0 0-2.2 1.5zM661.6 38a3.5 3.5 0 0 0-1.2-2.3 5 5 0 0 0-4-1 5.6 5.6 0 0 0-3.7 2.6c-.6 1.3-.2 4 2 4a15.8 15.8 0 0 0 3.7-.8c1.6-.6 3.2-1.4 3.2-2.6zM323 13.2a5 5 0 0 0 4-.3c1-.8 2-3 .3-4a14 14 0 0 0-3.3-1c-1.6-.3-3.2-.3-3.7.6a3 3 0 0 0 0 2.3A4.5 4.5 0 0 0 323 13zm314.7 140.1a5 5 0 0 0 3.4-2 5.6 5.6 0 0 0 1-4.6c-.5-1.3-2.7-3-4.3-1.5a15.8 15.8 0 0 0-2 3.3c-.8 1.6-1.2 3.3-.4 4a3.5 3.5 0 0 0 2.4.8zM657 56.5a5.6 5.6 0 0 0 0-4.6c-.8-1.3-3.3-2.4-4.5-.7a15.8 15.8 0 0 0-1.3 3.7c-.4 1.7-.5 3.5.5 4.2a3.5 3.5 0 0 0 2.5 0 5 5 0 0 0 3-2.7zM645.8 72a3.5 3.5 0 0 0-1.6-2 5 5 0 0 0-4-.4 5.6 5.6 0 0 0-3.3 3.2c-.5 1.4.4 4 2.5 3.7A15.8 15.8 0 0 0 643 75c1.6-.8 3-2 2.8-3zm-1.3 32.3a3.6 3.6 0 0 0 .2-2.6 5.2 5.2 0 0 0-2.7-3 5.8 5.8 0 0 0-4.8 0c-1.2.6-2.5 3.2-.7 4.5a16.2 16.2 0 0 0 3.7 1.5c1.7.4 3.6.6 4.3-.4zM648 88c1.3 1.3 2.8 2.3 3.8 1.8a3.5 3.5 0 0 0 1.4-2 5 5 0 0 0-1-4 5.6 5.6 0 0 0-4-2.2c-1.3 0-3.5 1.6-2.6 3.5a15.8 15.8 0 0 0 2.4 3zM329.8.6a5.5 5.5 0 0 0 .7-.6h-3a2 2 0 0 0 2.3.6zm-68 0a5.8 5.8 0 0 0 .7-.6H259a2.2 2.2 0 0 0 2.8.6zm55.6 50a3.7 3.7 0 0 0-2.5 1.2 5.5 5.5 0 0 0-1.4 4A6 6 0 0 0 316 60c1.3.8 4.2.7 4.5-1.7a17 17 0 0 0-.6-4c-.6-1.8-1.4-3.6-2.6-3.7zM302.7 2.2c-.6 1.2-.2 4 2 4a15.8 15.8 0 0 0 3.7-1c1.6-.4 3.2-1.3 3.2-2.5a3.5 3.5 0 0 0-1.2-2.2 7.2 7.2 0 0 0-1-.5h-4.2a5.2 5.2 0 0 0-2.5 2.2zm-44.3 71.2a16 16 0 0 0 3.6-1.6c1.6-1 3-2 2.7-3.2a3.5 3.5 0 0 0-1.6-2 5 5 0 0 0-4-.2 5.7 5.7 0 0 0-3.2 3.3c-.4 1.4.5 4 2.6 3.7zm7.9-49.4a5 5 0 0 0-2-3.5 5.6 5.6 0 0 0-4.5-.8c-1.4.4-3 2.6-1.6 4.2a15.8 15.8 0 0 0 3.3 2c1.6.7 3.4 1.2 4.2.3a3.5 3.5 0 0 0 .6-2.4zm-13 35a3.5 3.5 0 0 0 2.5.2 5 5 0 0 0 3-2.7 5.6 5.6 0 0 0-.3-4.6c-.7-1.3-3.2-2.4-4.4-.7A15.8 15.8 0 0 0 253 55c-.4 1.7-.5 3.5.5 4zm1.3-43.5c1.2.8 4 .6 4.2-1.6a15.8 15.8 0 0 0-.5-4c-.5-1.6-1.3-3.2-2.4-3.3a3.5 3.5 0 0 0-2.4 1 5 5 0 0 0-1.2 3.8 5.6 5.6 0 0 0 2.2 4zm1.6 25.9a15.8 15.8 0 0 0 3.8-1c1.6-.5 3.2-1.3 3.2-2.5a3.5 3.5 0 0 0-1.2-2.3 5 5 0 0 0-3.8-1 5.6 5.6 0 0 0-4 2.6c-.5 1.3 0 4 2 4zm372.2-11.2a5.6 5.6 0 0 0-4-2.3c-1.4 0-3.7 1.5-2.7 3.5a15.8 15.8 0 0 0 2.4 3c1.4 1.2 3 2.2 4 1.7a3.5 3.5 0 0 0 1.3-2 5 5 0 0 0-1-4zM599 91.3a3.5 3.5 0 0 0-.4-2.4 5 5 0 0 0-3.3-2.2 5.6 5.6 0 0 0-4.5 1.2c-1 1-1.5 3.7.6 4.5a15.8 15.8 0 0 0 3.8.3c1.8 0 3.5-.3 4-1.5zm-2.4 18.2a15.8 15.8 0 0 0 3.5 1.6c1.8.6 3.6 1 4.3 0a3.5 3.5 0 0 0 .4-2.6 5 5 0 0 0-2.6-3 5.6 5.6 0 0 0-4.5-.2c-1.2.6-2.5 3-1 4.3zm4.8 105.1a5.3 5.3 0 0 0 4 1 6 6 0 0 0 4-2.7c.7-1.4.3-4.3-2-4.3a16.5 16.5 0 0 0-4 1c-1.6.5-3.3 1.4-3.3 2.6a3.6 3.6 0 0 0 1.4 2.3zm31.6-93.3a6.2 6.2 0 0 0 3 4.3c1.3.7 4.3.2 4.4-2a17.5 17.5 0 0 0-1-4.3c-.6-1.8-1.6-3.6-3-3.6a4 4 0 0 0-2.3 1.4 5.6 5.6 0 0 0-1 4.3zM600.4 153c-.5 1.2 0 4 2.2 3.8a15.8 15.8 0 0 0 3.6-1c1.7-.8 3.2-1.8 3-3a3.5 3.5 0 0 0-1.2-2 5 5 0 0 0-4-.7 5.6 5.6 0 0 0-3.6 3zM583 111.7a3.5 3.5 0 0 0 .2-2.6 5 5 0 0 0-2.7-2.7 5.6 5.6 0 0 0-4.6 0c-1.3.8-2.5 3.4-.7 4.6a15.8 15.8 0 0 0 3.6 1c1.6.5 3.5.7 4-.3zm2.5 89.3a6 6 0 0 0 5 .7c1.4-.5 3-3 1.4-4.6a17.2 17.2 0 0 0-3.7-2c-1.8-.8-3.7-1.3-4.5-.3a3.8 3.8 0 0 0-.7 2.6 5.5 5.5 0 0 0 2.5 3.6zm-2.8-17.7a5.2 5.2 0 0 0 3.7-1.7 5.7 5.7 0 0 0 1.5-4.5c-.4-1.3-2.4-3.2-4.2-2a16 16 0 0 0-2.5 3c-1 1.6-1.7 3.3-1 4.2a3.5 3.5 0 0 0 2.4 1zm21.7-18.7c-1.2-.6-4-.2-4 2a16 16 0 0 0 .8 3.8c.6 1.7 1.5 3.3 2.7 3.3a3.5 3.5 0 0 0 2-1.3 5.2 5.2 0 0 0 1-4 5.7 5.7 0 0 0-2.6-3.8zm27.8-143.4a15.8 15.8 0 0 0 0-3.8c-.2-1.8-.7-3.5-1.8-3.8a3.5 3.5 0 0 0-2.4.7 5 5 0 0 0-1.8 3.6 5.6 5.6 0 0 0 1.6 4.2c1 1 4 1 4.4-1zm-20 161.4a17 17 0 0 0-3.2-2.6c-1.6-1-3.4-1.8-4.4-1a3.7 3.7 0 0 0-1 2.5 5.5 5.5 0 0 0 1.7 4 6 6 0 0 0 4.8 1.4c1.5-.4 3.6-2.5 2.2-4.4zM294 4.2a5.6 5.6 0 0 0-4.6 1.2c-1 1-1.5 3.7.5 4.5a15.8 15.8 0 0 0 3.8.2c1.7 0 3.5-.3 4-1.5a3.5 3.5 0 0 0-.6-2.4 5 5 0 0 0-3.3-2zm339.8 59.3a5 5 0 0 0 4-1 5.6 5.6 0 0 0 2.2-4c0-1.3-1.6-3.6-3.6-2.6a15.8 15.8 0 0 0-3 2.3c-1.2 1.3-2.2 2.8-1.7 3.8a3.5 3.5 0 0 0 2 1.5zm-6.4-10.3a3.5 3.5 0 0 0 1.4-2 5 5 0 0 0-1-4 5.6 5.6 0 0 0-4-2.2c-1.3 0-3.6 1.6-2.6 3.5a15.8 15.8 0 0 0 2.4 3c1.2 1.2 2.7 2.3 3.8 1.7zM612 75.3a3.6 3.6 0 0 0-2.8 0 5.3 5.3 0 0 0-2.7 3.2 6 6 0 0 0 .5 5c.8 1 3.6 2 4.7 0a16.5 16.5 0 0 0 1-3.8c.3-2 .2-3.8-1-4.4zm4.7-39.3a17 17 0 0 0 1.3-3.8c.4-2 .5-3.8-.6-4.5a3.8 3.8 0 0 0-2.7 0 5.5 5.5 0 0 0-3 3 6 6 0 0 0 .2 5c.7 1.2 3.5 2.4 4.7.4zm9.3 42a5.6 5.6 0 0 0-.2-4.6c-.7-1.2-3.3-2.4-4.5-.6a15.8 15.8 0 0 0-1.3 3.6c-.4 1.7-.5 3.5.5 4.2a3.5 3.5 0 0 0 2.5 0 5 5 0 0 0 3-2.6zm-260.3 23.7a5.4 5.4 0 0 0 4 .4 6 6 0 0 0 3.7-3c.5-1.5-.3-4.3-2.6-4a16.6 16.6 0 0 0-3.8 1.4c-1.6 1-3.2 2-3 3.2a3.7 3.7 0 0 0 1.7 2zM382 61.8a5.7 5.7 0 0 0 2.4-4c0-1.5-1.6-3.8-3.6-3a16 16 0 0 0-3 2.6c-1.2 1.3-2.3 2.8-1.8 3.8a3.5 3.5 0 0 0 2.2 1.5 5.2 5.2 0 0 0 4-1zM396.3 73a5.6 5.6 0 0 0 1.2-4.3c-.3-1.4-2.4-3.2-4-2A15.8 15.8 0 0 0 391 70c-1 1.5-1.6 3.2-.8 4a3.5 3.5 0 0 0 2.4 1 5 5 0 0 0 3.5-2zm-10.8 37.2a15.8 15.8 0 0 0 3.6-1.6c1.6-1 3-2 2.8-3.2a3.5 3.5 0 0 0-1.7-2 5 5 0 0 0-4 0 5.7 5.7 0 0 0-3.2 3c-.3 1.5.6 4 2.7 3.8zM280 10a4.8 4.8 0 0 0-2.8 2.6 5.3 5.3 0 0 0-.2 4.4c.6 1.2 3 2.4 4.2.7a15 15 0 0 0 1.4-3.3c.4-1.7.6-3.4-.3-4a3.3 3.3 0 0 0-2.3-.3zm84.2 61.6a5.3 5.3 0 0 0 4-1 6 6 0 0 0 2.4-4.2c0-1.4-1.7-3.8-3.7-3a16.6 16.6 0 0 0-3.2 2.7c-1.3 1.4-2.4 3-2 4a3.7 3.7 0 0 0 2.4 1.6zm-12.9 28.6a6 6 0 0 0 5 1c1.3-.4 3-2.8 1.5-4.5a17 17 0 0 0-3.5-2.2c-1.7-1-3.6-1.4-4.5-.5a3.8 3.8 0 0 0-.8 2.6 5.5 5.5 0 0 0 2.3 3.6zm49.9 58.3a5.2 5.2 0 0 0 3.8-1.5 5.8 5.8 0 0 0 1.7-4.4c-.2-1.5-2-3.6-4-2.3a16.3 16.3 0 0 0-2.6 3c-1 1.4-1.8 3-1 4a3.6 3.6 0 0 0 2.2 1.2zm22.1 5.7a3.5 3.5 0 0 0-2-1.4 5 5 0 0 0-4 1 5.6 5.6 0 0 0-2.2 4c0 1.3 1.7 3.6 3.6 2.7a15.8 15.8 0 0 0 3-2.5c1.2-1.2 2.3-2.7 1.7-3.8zm-27.6-32.9a5 5 0 0 0 3.4-2 5.6 5.6 0 0 0 1-4.5c-.4-1.3-2.7-3-4.2-1.5a15.8 15.8 0 0 0-2 3.2c-.8 1.6-1.3 3.4-.5 4.2a3.5 3.5 0 0 0 2.4.6zm18.6 15.7a5.6 5.6 0 0 0 4.5 1c1.3-.6 3-2.8 1.5-4.3a15.8 15.8 0 0 0-3.2-2c-1.5-.8-3.3-1.3-4-.5a3.5 3.5 0 0 0-.8 2.5 5 5 0 0 0 2 3.3zm11.5-18a15.8 15.8 0 0 0-3-2.5c-1.3-1-3-1.8-4-1a3.5 3.5 0 0 0-1 2.2 5 5 0 0 0 1.6 3.7 5.6 5.6 0 0 0 4.3 1.5c1.4-.3 3.4-2.2 2-4zm-5.3 49.2a5 5 0 0 0-3.8 1 5.6 5.6 0 0 0-2.3 4c0 1.3 1.6 3.6 3.5 2.7a15.8 15.8 0 0 0 3-2.6c1.2-1.3 2.2-2.8 1.7-3.8a3.5 3.5 0 0 0-2.2-1.4zm-8.5-58.4a5 5 0 0 0 3.2-2.5 5.6 5.6 0 0 0 .2-4.6c-.6-1.3-3-2.6-4.4-1a15.8 15.8 0 0 0-1.6 3.6c-.5 1.7-.7 3.5.2 4.2a3.5 3.5 0 0 0 2.5.3zM341.2 92c1.4-.8 3-3.5 1-5a17.5 17.5 0 0 0-4-1.7c-1.7-.5-3.7-.8-4.5.2a4 4 0 0 0-.4 2.8 5.6 5.6 0 0 0 2.8 3.4 6.2 6.2 0 0 0 5.2.2zm34.1-6a3.6 3.6 0 0 0 2.2-1.2 5.3 5.3 0 0 0 1-4 5.8 5.8 0 0 0-2.6-4c-1.4-.6-4.3-.2-4.3 2a16.4 16.4 0 0 0 .8 4c.6 1.7 1.6 3.3 2.8 3.3zM294 43.4a15 15 0 0 0-.4-3.6c-.3-1.6-1-3.2-2-3.3a3.3 3.3 0 0 0-2.3 1 4.8 4.8 0 0 0-1.3 3.4 5.3 5.3 0 0 0 2 3.8c1 .7 3.6.7 4-1.4zm-2 34.4c.4-1.5-.7-4.2-3-3.8a17 17 0 0 0-3.7 1.8c-1.6 1-3 2.3-2.8 3.5a3.7 3.7 0 0 0 1.8 2 5.5 5.5 0 0 0 4.2 0A6 6 0 0 0 292 78zm7-14a15.5 15.5 0 0 0 2.3-3c1-1.5 1.5-3.2.7-4a3.4 3.4 0 0 0-2.3-1 5 5 0 0 0-3.4 2A5.5 5.5 0 0 0 295 62c.4 1.3 2.4 3 4 1.8zm33.6 47.2c1.3 1 4.4 1.3 5-1a18 18 0 0 0 0-4.5c-.3-2-1-4-2.2-4.2a4 4 0 0 0-2.7.8 5.8 5.8 0 0 0-2 4 6.4 6.4 0 0 0 2 5zm-53.2-67a3.5 3.5 0 0 0-1.4-2 5.2 5.2 0 0 0-4-.8 5.7 5.7 0 0 0-3.7 2.8c-.6 1.3 0 4 2 4a16 16 0 0 0 4-1c1.6-.7 3-1.7 3-3zm4.4-15.6a3.5 3.5 0 0 0-1.7-1.8 5 5 0 0 0-3.8 0 5.6 5.6 0 0 0-3 3.4c-.4 1.4.6 4 2.7 3.5a15.6 15.6 0 0 0 3.3-1.7c1.5-1 2.8-2.3 2.5-3.4zm-1.6 30.2a15.8 15.8 0 0 0 3.7-.8c1.6-.6 3.2-1.5 3.2-2.7a3.5 3.5 0 0 0-1.3-2 5 5 0 0 0-4-1 5.6 5.6 0 0 0-3.7 2.6c-.7 1.3-.3 4 2 4zm19-32.6a3.5 3.5 0 0 0-.5-2.4 5 5 0 0 0-3.4-2 5.6 5.6 0 0 0-4.4 1c-1 1-1.6 3.8.4 4.6a15.8 15.8 0 0 0 3.8.4c1.8 0 3.6-.4 4-1.5zm24.2 47.2a17.4 17.4 0 0 0-1-4.2c-.6-1.8-1.6-3.6-3-3.6a4 4 0 0 0-2.3 1.4 5.6 5.6 0 0 0-1 4.3 6.2 6.2 0 0 0 3 4.3c1.3.7 4.3.3 4.4-2zm-3 20.8a18 18 0 0 0 1.6-4c.5-2 .7-4-.4-4.8a4 4 0 0 0-3-.2 5.8 5.8 0 0 0-3.2 3 6.4 6.4 0 0 0 0 5.3c.8 1.4 3.6 2.8 5 .8zm-13.7-17a3.7 3.7 0 0 0-1.2-2.3 5.4 5.4 0 0 0-4-1 6 6 0 0 0-4.3 2.6c-.7 1.3-.4 4.2 2 4.3a17 17 0 0 0 4-.8c1.8-.5 3.5-1.4 3.5-2.7zm22.7-35.5a3.6 3.6 0 0 0 .2-2.6 5.2 5.2 0 0 0-3-3 5.8 5.8 0 0 0-4.6 0c-1.2 1-2.4 3.5-.6 4.7a16.2 16.2 0 0 0 3.8 1.3c1.7.4 3.6.5 4.2-.5zm-18-19.3a3.5 3.5 0 0 0-.5-2.5 5 5 0 0 0-3.5-2 5.6 5.6 0 0 0-4.4 1c-1 1-1.4 3.8.6 4.6a15.8 15.8 0 0 0 4 .3c1.6 0 3.4-.3 3.8-1.4zM302 92c-1.5-.3-4.3 1-3.7 3.3a17.5 17.5 0 0 0 2 3.7c1.3 1.6 2.8 3 4 2.6a4 4 0 0 0 2-2 5.6 5.6 0 0 0-.3-4.4 6.2 6.2 0 0 0-4-3.3zm9-46a3.6 3.6 0 0 0 1.7-1.8 5.3 5.3 0 0 0-.3-4 5.8 5.8 0 0 0-3.8-3c-1.5-.2-4 1-3.4 3.2a16.3 16.3 0 0 0 2 3.4c1.2 1.5 2.6 2.7 3.7 2.3z"/><path class="cls-2" d="M1366 350l-11.6 4c-11 12.7-17 32-36 33-2 3.6-4.6 4.8-8 4-14.8-10.3-4.6-23.5-3.4-35.6-4.3-13.4-.3-40.3-25.5-20.4-1.2 1-5.3-1-7-2.7-9-9.7-15.7-3.2-22.6 3.8-5 5-9 11.8-18.8 9.7.8-17.2-.5-34.4 2-52 5-32.2-1.8-63.7-8.2-94.8-2.7-13.4-9.2-17.4-20-6-14.8 15-30.8 28.5-46.3 42.7-1.2 9.2-7.8 14-12.7 20-28.5 35.5-63.7 61.7-96.8 90.7-7 6-8.6 20.6-21 18.2-17.5 33-44.7 53.5-72.6 73l-.8.8c-9.3 20.3-22.5 34.6-43.8 36.4-57.7 53-123.6 92.4-182.7 143-22.5 19.5-35.4 43.4-36.4 75-1 26-.2 52-.2 78 6.3 16.6 15.5 23 31.7 15.5 11-5.2 18.3 0 16.3 15.6a217 217 0 0 0 8.8 96.3c2.4 7.3 4.5 13.5-3 20-7 6.3-13.6 13-20.2 19.8h151c4.8-5.7 12-8.3 20.6-9 0-11.4 3.2-18 14.5-12 7.2-12.3 17.6-20.5 28-29-5.8-8.2-10-17.4-3.7-27 5.8-9 12 2.8 18 1.6 12-20 32.6-30.5 42.7-52.5 1-2 7.6-1 11.5-1.5 1.6-8 3.2-16.2 12.5-17.2 10.7-17.2 22.4-33 43-33.4 3.5-6 9.2-4.8 14.2-6 1.2-21.2 20-26.3 30.4-36.3 20-19.2 35.4-46 62-56 12-22.2 31.7-33.5 51-45 3-8.3 8.5-10.4 15.8-9 7-7.5 10.8-19.7 23-19.3l10.7-12.3c-5.6-26.6 9.2-16 19.4-13.6 4-2.2 8.6-6 12.7-.5 8.4 11 19.4 8 30 7.7 6-17.2 17.3-28.5 31.3-36.7z"/><path d="M861.2 0c3.5 3.8 6.8 7.6 7.7 11.4 4.6 6.3 10 12.5 14 19.2 4.5 6.2 9 7 13.5 18.5 4.5 6.2 12.6 13.7 13 17.6 4.2 5.7 9 10 12.4 16.6 4 5.3 11.7 9 11 15.3 7 9.7 11.7 19.8 18.7 25 10.6 14.4 21.4 23 17 23 7 9.4 16.2 11.6 28 12.7 10.2-.8 16.8-8 25.5-17 0 0 10.5-6.7 12.3-23.5 3.8-7.3 7-14.6 13.8-26 2.6-5 10.6-10 8.3-15.8 2.8-5.7 5-13.2 8.5-17 3-6 7.7-15.7 9.6-18l10-19c3.4-6.5 6.8-14.4 10-19.8L1096 0zM413.7 490c-4.4.7-8.4-.3-12.3-1.8q-7 7.7-9.6-2c-4.6-.4-7.5-3.3-10.3-6.4-4 3.6-8 10-12.6 1-4-2-6-7.3-11.4-7-4.2 5-7 3.3-9-1.7-4.8 4-11 4-13.3-.3-3-5 .5-12 5-15.2 9.8-7 17-16.3 26.2-23.8v-.3c-2.3-2.4-4.6-4.5-8.5-4.3-9.2.6-17.5-3-26-6-7-2.5-14.4-2.8-21.3-4.8-11.7-3.3-24.5-1.6-35.5-7.3-8.2 8-16.2 16.4-24.7 24-10.4 9.6-22.4 12.6-36.3 10.7-36.5-5-71.7-15.8-108.4-19.6-9.4 1.4-18.5 1.5-26.7-4h-.4c-5 4-10.4 2-15.3 1.2-11-1.7-22.2-.5-32.8-4-3.6-5-8.8-1.2-13-1.7-6-.7-11.7-1.6-17.5-2.4v98c6 2.8 3.3 9 2.4 14 5.2-5.4 10-4.8 14 .8 2.3-2.5 5-.6 7.4-1 6.3-6.5 11.2-2.4 16 1.6 3.7-2 6-.2 8 2.7 7.2.2 14.8-2 21 3.3 4.6-7 8.2-5 11.5 1 3 2.5 6-.8 9 0l3 2.5c7-4.6 13-10.3 22-11 7.7-.8 7.6 2 6 7.6a16 16 0 0 1-5 8.4c-3.4 3-4 6-.6 9.3l6 5.4c8-4.8 18-2.8 28 5.6 4.4 3 9.4 3.4 14.4 3.6 13.5.6 26.8.8 40 1.5 9.4.6 19 3.6 27.7 3 17-1 32.6 3.2 48.4 7 12-4.8 23.4-3.6 34 3a24.5 24.5 0 0 1 17.3 2.8c8.6-5.6 17.2-5.4 25.6-.2 6.7-.4 13.4-4.4 20.2-.7.5-9.4 6-13 14.8-13.2 3.8-3 3.4-12 11.7-9 1.5-3.7 2.4-7.7 7-9 3.2-7 6-13.6-3.5-18.5-4.5-2.3-2.4-7 .4-10.3a94.7 94.7 0 0 1 9.4-9.2c5.2-4.5 7-9.6 4-16-5 .2-4.2-4.6-6.3-7z" fill="#ffc4bc"/><path class="cls-5" d="M363.5 820a1.7 1.7 0 0 0-1 3c1.7 1.4 6 0 7.6-1.2 2.2-1.4 2.7-4 2.8-6.4 0-1.6 0-3.3-.2-5.3l1.4-.7c1-.5 2-1.3 1.2-2.4a3.4 3.4 0 0 0-2.4-1.4c-2.4-.2-4 1.4-4.2 4a27.4 27.4 0 0 0 .2 4c.3 4-.6 5-4.2 6-.4 0-.8.2-1 .3zm-13.5-.5v.3c-1.4 1.7-1.4 4.3-1.7 6.4l-1 7.6c-.2 1-.3 2.3 1 3s2.7-.4 3-2a21.6 21.6 0 0 0 1-5.4c0-2.2 0-4.6 1-6.6a6.7 6.7 0 0 1 2.3-2.5c1-.8 1.8-1 2-2.4a1.6 1.6 0 0 0-.7-1.8 2.3 2.3 0 0 0-2 0 15 15 0 0 0-2.4 1.3 9.2 9.2 0 0 0-2.5 2zm26.5 32.5a2 2 0 0 0-1.8-2.5c-1.2-.2-1.8.6-2.2 1.7l-2.2 5.6c-1.2 2.8-1.2 5.4.7 7.8a17.4 17.4 0 0 0 1.3 2c1.3 1.2 2 2.5 1 4.3-.5 1.2 0 2.7 1.6 2.7a2 2 0 0 0 1.4-.6 6.2 6.2 0 0 0 1.5-2.5 5 5 0 0 0-.6-4 19.8 19.8 0 0 0-2-2.8c-2.3-3-2.3-3.8-.5-7.2a18.6 18.6 0 0 0 1.5-4.5zm-20.7-58.7c-1 1-2.4 2-3.6 2.8l3.8 2.7c1.2-1 2.5-2 3.7-3.2 2-1.8 3-4.2 1.8-6.6a32.5 32.5 0 0 1-2.3-5.6 8.6 8.6 0 0 1-.3-3c0-1 .4-1.6-.2-2.4a2 2 0 0 0-3.4.8c-.6 3.3-1.5 6.7 1.3 9.7 1.6 2 1.2 3-1 4.8zM360 911a7.2 7.2 0 0 0 2.5 6.7c1.7 1.2 3.5 1.2 4.3 0 1-1.3 0-2.2-1-3-2-1.2-1.8-3-1.4-4.7a35.6 35.6 0 0 0 1-5.6 6.8 6.8 0 0 0-6-7.2 3 3 0 0 0-2.4 1c-.3.5.4 1.7.8 2.5.2.3.7.3 1 .5 2.3 1.4 2.7 2 2.3 4.6-.2 1.8-.7 3.5-1 5.2zm6.5-83c-1.7 0-1.8 1.5-2 2.8a9.8 9.8 0 0 0 1.5 6.2c.8 1.4 2.4 4 4 4.5a2.3 2.3 0 0 0 .7.2c2 .2 3.3-1.5 2-3.2l-.5-.5c-2-2-4-4.3-3.7-7.6a2 2 0 0 0-2-2.3zm-9.1 46.3l1.8-5.7c.3-1.2 0-2.6-1.2-2.7a2.8 2.8 0 0 0-2.4 1.2 109.2 109.2 0 0 0-3.5 12 6.3 6.3 0 0 0 3 6 5.7 5.7 0 0 0 3.2 1 2 2 0 0 0 1.8-1.3 2 2 0 0 0-.5-2c-1-1-2.3-1-3-2a4 4 0 0 1-.2-3l1-3.7zm15.1 21.2c3 .8 4.7-5.2 4.2-7.4a9.3 9.3 0 0 0-2.4-4c-.6-.5-5.2-4-5-4.2v-1.5c.4-1.3 0-2.6-1.2-2.7a3.8 3.8 0 0 0-2.6 1.6c-1.3 1.8-1 4 1 5.8a35.2 35.2 0 0 0 3 2.2c3.6 2.6 3.6 2.6 2 6.8-.4 1.3-.7 3 1 3.5zm-28.8-132.7a5 5 0 0 0 1 5.3 3 3 0 0 0 2.5 1c.6-.3 1.2-2 1-2.4-1.2-1.8-.2-3 .4-4.6.4-1 1-1.8 1.3-2.8 1-2.6.3-7-2.5-8.2a4 4 0 0 0-1-.3 1.4 1.4 0 0 0-1.7 1.7 4.7 4.7 0 0 0 .4 1.3c1 2 1.3 3.2.2 5.2a24.6 24.6 0 0 0-1.7 3.8zm-89.7 2.6a2 2 0 0 0-2-2.4 3.3 3.3 0 0 0-2 1.6c-.7 1-.7 2.5-1.3 3.5-3 4.3-2.3 8.2 1 12 1.2 1.3 2 2.7 1 4.6-.6 1-.4 2.2.8 2.5a3.4 3.4 0 0 0 2-.3c2-2.5 2.4-4.6 1.2-6.7a11.3 11.3 0 0 0-1.7-2.5c-2.3-2.3-2.7-4.6-1-7.5a14.8 14.8 0 0 0 2-4.6zm58.3 66.2a3.4 3.4 0 0 0-2.6 1c-1.6 1.8-1.3 4 .5 5.8a27.4 27.4 0 0 0 3.4 2.4c3.2 2 3.6 3.5 2 7 0 .3-.3.7-.5 1a1.7 1.7 0 0 0 2 2.6c2.2-.4 3.7-4.7 3.8-6.7.2-2.5-1.6-4.5-3.4-6-1.2-1-2.6-2-4.3-3l.4-1.8c.2-1 0-2.3-1-2.4zm-5.9-151.3c-1.6 0-2 1.2-2.4 2.5-1 4.2 2.5 12.8 6.6 15.7a4.7 4.7 0 0 0 2-.4c1-.5 1-1.6.2-2.5l-1.6-2c-2-3.2-4-6.4-3-10.4.2-1 0-2.6-1.8-2.7zm-37.9-12.9a5.3 5.3 0 0 0-.3 4.3 7 7 0 0 0 2.6 2.8 3.7 3.7 0 0 0 1 .4c.8 0 2.2 0 2.8-.7a1.6 1.6 0 0 0-.6-2.3c-2.7-1.8-1.7-3.8-.6-6 .3-.3.4-.8.7-1.2 2-2.7 1.4-5.6.7-8.5-.4-1.7-2-2.7-3-2.2-1.3.7-1.5 2-1 3.3a8.5 8.5 0 0 1-.6 6.6l-1.5 3.4zm22.5 6.9a2 2 0 0 0-1.2-2.8c-1.5-.3-2.2.5-2.7 2a20 20 0 0 1-1.7 4.5 7.7 7.7 0 0 0 .7 9.2 11.7 11.7 0 0 1 2.3 3.3c.4 1.3-.3 2-.4 3.2a1.6 1.6 0 0 0 2.4 1.7 4 4 0 0 0 1.3-1 5.7 5.7 0 0 0 0-6.5c-.5-1-1-1.7-1.8-2.5a5.3 5.3 0 0 1-.7-6.6 19.6 19.6 0 0 0 1.8-4.7zm-7.8-26.8c-.3 0-.6-.4-1-.4a4.2 4.2 0 0 0-2.3.4 1.5 1.5 0 0 0 0 2.6c3 2.2 3 5.2 2.7 8.5a10 10 0 0 0 .2 4 10.4 10.4 0 0 0 2 3.6 1.7 1.7 0 0 0 2.7 0c1.5-1.8-.6-3.4-1-5.2a21.7 21.7 0 0 1 .3-4.7 9.2 9.2 0 0 0-3.8-8.5zm-38.7 47.1a3 3 0 0 0 2.5 0 2 2 0 0 0 .6-.3 5.5 5.5 0 0 0 1-2 17.2 17.2 0 0 0 2-6.4c0-2 .2-5.8-2-6.6-1-.5-1.7.5-2 1.4-.7 1-.2 2.5 0 3.8a15 15 0 0 1-2 7.4c-.6 1-1 2 0 2.6zm90.5 191a2.2 2.2 0 0 0 2.3 1.5 2.6 2.6 0 0 0 1.5-.8 7.3 7.3 0 0 0 .8-1 18.3 18.3 0 0 0 1.8-6.4 8 8 0 0 0-3.5-7.5 2 2 0 0 0-3 2.2c.4 1.6 2 2.5 2.3 4.2a6 6 0 0 1-.8 4.2c-.7 1-2 2-1.5 3.6zm-20.4-129.9c-1.4 2-1.2 5.5.5 7.5 1.6 1.7 3 3.4 4.7 5a2 2 0 0 0 2.7.6 2 2 0 0 0 .5-3 11.8 11.8 0 0 0-2-2.3c-2-1.7-3.7-3.5-2.8-6.5a1.5 1.5 0 0 0-.4-1.8 2.5 2.5 0 0 0-3.2.5zm6.8 61.3c.4-1.6 1.8-5.6-.6-6.4a2 2 0 0 0-2 .3 2.6 2.6 0 0 0-.7 1.6 9.7 9.7 0 0 1-.4 3 26.5 26.5 0 0 1-2 3.3c-1.6 2.6-1 8 2 9.5a2 2 0 0 0 2.3 0 1.6 1.6 0 0 0 .4-.8 3 3 0 0 0-.3-2c-.8-2-1.6-3.7-.2-6a10.3 10.3 0 0 0 1.6-2.6zm2.8-34.8c-1-1.6-2.5-1.2-3.3.3-1 2-2.3 3.7-3.2 5.6a13 13 0 0 0-1 3.4c-.4 2.3 1 4 2 6a6 6 0 0 1 1.4 3.5c0 1-1.5 2.4-.7 3.6a2 2 0 0 0 1.8.6 3 3 0 0 0 1.7-1c2-2.5 1.7-5.8-.2-8.2-2.2-2.8-2.2-5-.2-8 1-1.3 2.7-4 1.6-5.8zm-65.8-42a3.2 3.2 0 0 0-2 2 5.8 5.8 0 0 0 .4 3 7.5 7.5 0 0 0 1.8 3c2 2 2.4 4.5 2 7-.7 3.3-1 6 0 9a2 2 0 0 0 3.2 1 1.3 1.3 0 0 0 .3-.5 6.3 6.3 0 0 0 .2-2.2c0-2-.3-4 .2-6a10.7 10.7 0 0 0-2.2-10.6c-1-1.3-2-2.3-2-4a1.6 1.6 0 0 0-1.8-1.8zm16.6-13.5c0-1.8-1.8-5.7-4-7a2.5 2.5 0 0 0-3 .4c-1.2 1-.4 2.3.7 3.2 2 1.5 2.5 3.6 2.3 6a37.4 37.4 0 0 0-.2 4 6.4 6.4 0 0 0 1.8 5c1 .6 2.8 1.3 3.7 0s-.4-2.2-1-3.2a7.8 7.8 0 0 1-.3-4.2 38.6 38.6 0 0 0 0-4zM267.5 860a1.7 1.7 0 0 0 .8.4 1.7 1.7 0 0 0 1.7-1c1-2-1-3.8-2-5.2a25.6 25.6 0 0 1-2.3-3.5c-.7-1.5-.2-2.5-.2-4a2.2 2.2 0 0 0-.5-1.6 2 2 0 0 0-2.2-.3 3 3 0 0 0-1.6 1.6c-1.8 4.3 3.3 9.6 5.5 12.8a5 5 0 0 0 .8 1zm50.1 14.8c.3 1.3 1.8 3.6 3.4 3.5a2 2 0 0 0 1.6-1.2 2.5 2.5 0 0 0 0-1.8c-.7-1.2-1.2-1.8-1.4-3.2a20.6 20.6 0 0 1 .2-3.6c.4-3.6-.6-6.8-3.7-9-1-.7-2.2-1.6-3.4-.3s-.4 2.5.8 3.3c2.5 1.8 2.3 4.3 2.3 7a23.6 23.6 0 0 0 .3 5.5zM265.8 780c.2-1.6 0-4-2-3.5-1.7.6-1.8 2.7-2.2 4a33 33 0 0 1-2.3 4.8 7.2 7.2 0 0 0 1.8 8.3c1.3 1 2.6 1 3.6-.5a7.8 7.8 0 0 0-1-2.2c-1.2-1.8-1-3.5.2-5.3a12.6 12.6 0 0 0 2-5.6zm-7.8 43.5a32.6 32.6 0 0 0-1 6 4 4 0 0 0 1 2.5 1.8 1.8 0 0 0 3-1c.4-1 0-2.2 0-3.3.3-1.8 1.3-3.5 2-5.2a21.4 21.4 0 0 0 1-4 8.8 8.8 0 0 0-1.4-6.7 6.6 6.6 0 0 0-2-1.8 2.4 2.4 0 0 0-2.8.2c-1.3 1-.4 2.2.4 3.2l.6.6a4 4 0 0 1 1 4.2c-.4 1.8-1.2 3.5-1.7 5.3zm62.5-113.1c-.8-.8-2-1.2-2.7-.2a3 3 0 0 0-.4 2.6 8.7 8.7 0 0 0 2.5 2.8 3.4 3.4 0 0 1 1 4.6 14.5 14.5 0 0 0-1.4 3.2 16.6 16.6 0 0 0-.4 4.8c0 1.6.8 6.6 3 6.8a3.2 3.2 0 0 0 1.6-.6 1.4 1.4 0 0 0 .6-.5 4.8 4.8 0 0 0 0-4c-1.6-2.7-1-4.8.2-7.2 2-4.7 1.6-6.6-2-10-.8-.8-1.4-1.6-2-2.4zM345 910.2a4.6 4.6 0 0 0 2-.3c1.2-.7.8-1.8.2-2.7l-2-2.8c-2-3-3.3-6-2.7-9.5a3.7 3.7 0 0 0 0-1.5 1.8 1.8 0 0 0-3.3-1 4.7 4.7 0 0 0-1 2c-.8 4.2 2.8 13 6.8 15.7zm-10.2 9.4a49.6 49.6 0 0 0 5 5.6 2.7 2.7 0 0 0 2.7.2 2.8 2.8 0 0 0 .4-2.5 10.5 10.5 0 0 0-2.4-3c-1.8-1.7-3.4-3.5-2.4-6.3.2-.5-.2-1.3-.3-1.7a2 2 0 0 0-3.3.6 6.4 6.4 0 0 0 0 7zm-.3-93.3c0-1-1-3-2-3.2a1.8 1.8 0 0 0-1.8.8 3.4 3.4 0 0 0-.4 2.5c.4 3.3-1.3 6.6-2.4 9.6a8 8 0 0 0 1 7.4 2.2 2.2 0 0 0 3.8-.3v-1.4c-1.8-2.7-.8-5.2.2-8a31.7 31.7 0 0 0 1.5-7.3zm1.3-6.5c.4 1.2 1.6 3 2.8 3.4a2 2 0 0 0 2.3-.5c1-1.3-1-3-1.2-4.4a17.3 17.3 0 0 1 0-5 9.8 9.8 0 0 0-3.8-9 2.4 2.4 0 0 0-2.6-.2 2 2 0 0 0-.8 2.6c.6 1.5 2.2 2 2.8 3.8a12 12 0 0 1 .2 5 10.7 10.7 0 0 0 .2 4.4zm-8.6 30.8a4.7 4.7 0 0 0-1 5.4l5.4 8.6c.7 1.2 1.6 1.8 2.8 1 1.4-.6 1.5-2 .8-3-1.2-2-2.5-3.6-3.6-5.4-1-1.4-2-3-1.2-5 1-2.2-1.6-2.8-3-1.6zm-3.2 39.7a12.3 12.3 0 0 0 1.4-5 2.8 2.8 0 0 0-1.5-2c-1.4-.6-2 .5-2.5 1.7l-2 5.2c-1.6 3.4-1.2 6.5 1.3 9 1.6 2 2.6 3.4 1.6 5.8a2.5 2.5 0 0 0 .7 2.3c1 .7 2 .2 2.7-.7 0-.2.3-.4.4-.6a5 5 0 0 0 .4-6 18.7 18.7 0 0 0-2-2.8c-2-2.2-2.2-4.3-.5-7zm24.6-28.1a4.6 4.6 0 0 0-.5-.6c-3-3.6-4-7.3-1-11.7a4.2 4.2 0 0 0-.3-5 2.6 2.6 0 0 0-2.2-1c-.5 0-1 1-1.3 1.8-.4 1.2-.2 2.5-.8 3.6a13 13 0 0 0-1 8.6c.6 2.2 2.3 6.3 4.6 7.2a2.8 2.8 0 0 0 .5 0c2 .6 3-1.3 2-3zM331 751.8c-.6-1-1.7-1.6-3-.8s-1 2-.3 3a14.3 14.3 0 0 1 .8 1.3l1.8 5.3a13.5 13.5 0 0 1 .6 2 13.8 13.8 0 0 0 0 2.2 2 2 0 0 0 1.8 1.5 2 2 0 0 0 1.4-.8 3.6 3.6 0 0 0 .7-1.6 12.7 12.7 0 0 0-.6-5.7 20.4 20.4 0 0 0-3.3-6.5zm9 31.7c1-2.3-1.8-3-3.3-1.8a4.7 4.7 0 0 0-1 5.4c1.8 3 3.6 6 5.4 8.7.7 1.2 1.6 1.8 3 1 1.3-.6 1.4-2 .6-3-1-2-2.4-3.6-3.6-5.4-1-1.4-2-3-1-4.8zM99.2 876.8a26.8 26.8 0 0 0 3.2 2.4c3.3 2.2 3.7 3.3 2.3 7l-.6 1.4c-.4 1 0 2.2 1 2.5a3 3 0 0 0 2.7-.7c3.4-4 2.7-9-1.5-12.3-1.2-1-2.5-1.8-4-2.7 0 0-3.8-.6-3 2.5zM92 917.6a5.3 5.3 0 0 0-.4 4.3 7 7 0 0 0 2.6 2.7 3.7 3.7 0 0 0 1 .4c.8.3 2.2.3 2.8-.5a1.6 1.6 0 0 0-.6-2.2c-2.7-1.8-1.7-3.8-.6-6 .3-.4.4-1 .7-1.3 1.8-2.7 1.3-5.6.6-8.4-.3-1.8-1.8-2.8-2.8-2.3-1.5.6-1.6 2-1 3.2a8.5 8.5 0 0 1-.7 6.6l-1.6 3.6zm183.7-123.1l-3.2 2.8s-1.5 1.8-.5 3a2 2 0 0 0 2.7 0l5-3.7c2.7-3.7 3-6.2 1.7-9.3L279 781c-.5-1.2-1-2-2.5-1.8a2 2 0 0 0-1.5 2.6 43.6 43.6 0 0 0 2 5.6c1.5 3.3 1.3 4.8-1.3 7zM89 892.3c.6 1 .2 1.6-1 3.5a16.7 16.7 0 0 0-1.8 2.5 57.7 57.7 0 0 0-2 5.7c-.5 1.4-.2 2.7 1.3 3 1.7.5 2-1 2.5-2.2a31.2 31.2 0 0 1 2.6-5.8v-.2c1.4-1.8 2.7-3.5 2.7-5.8a6.4 6.4 0 0 0-1.8-4.5S89 886 88 888s.3 2.8 1 4.3zm76.6-1.8a2 2 0 0 0-1.8-2.4 3.3 3.3 0 0 0-2.2 1.7c-.6 1-.6 2.5-1.2 3.5-3 4.2-2.3 8 1 11.8 1.2 1.4 2 2.8 1 4.8-.6 1-.4 2 .8 2.4a3.4 3.4 0 0 0 2-.4c2-2.5 2.4-4.5 1.2-6.7a11.3 11.3 0 0 0-1.7-2.4c-2.3-2.3-2.7-4.6-1-7.5a14.8 14.8 0 0 0 2-4.5zM125.3 843c-1-.3-2.7-1-3.4-.3l-.4.4a2 2 0 0 0 0 .8c-.3 2 1.5 2.7 2.4 4a8 8 0 0 1 .6 5.4 17.8 17.8 0 0 0 0 4.6c.2 1.8 3 6 5 3.7 1.3-1.2 0-2.4-.5-3.6a6.7 6.7 0 0 1-.3-2.2 44.3 44.3 0 0 1 .2-4.5 9.5 9.5 0 0 0-3.7-8zm-18.7 54.8c-.3-.2-.6-.5-1-.5a4.2 4.2 0 0 0-2.3.4 1.5 1.5 0 0 0 0 2.6c3 2.2 3.3 5 2.8 8.4a10 10 0 0 0 .4 4 10.4 10.4 0 0 0 2 3.6 1.7 1.7 0 0 0 2.7 0c1.6-1.8-.5-3.4-.7-5.3a21.7 21.7 0 0 1 0-4.6 9.2 9.2 0 0 0-3.7-8.6zm49.6-78.1a3 3 0 0 0 2.5 0 2 2 0 0 0 .6-.3 5.5 5.5 0 0 0 1-2 17.2 17.2 0 0 0 2-6.4c0-1.8.2-5.7-2-6.5-1-.5-1.7.5-2 1.4-.7 1-.2 2.4 0 3.7a15 15 0 0 1-2 7.5c-.6.8-1 2 0 2.5zm-39.6 58.6c0 1.2.6 3.5 1.8 4.3a1.7 1.7 0 0 0 1 .2c1.2 0 2.8-2 2-3.2-1.3-2-.6-4 0-6a28.8 28.8 0 0 0 1.5-4 24.5 24.5 0 0 0 .3-6 2 2 0 0 0-2.7-2 2.8 2.8 0 0 0-1.3 2.4c.3 3-.7 6-2 8.7a13 13 0 0 0-.7 5.6zm-26.4 59.4a12.3 12.3 0 0 0-2.5-4.2 5.7 5.7 0 0 1-1.4-6.6c.8-2.4-.2-6-2.7-7-2.2-1-4.2 1-2.5 3a4.4 4.4 0 0 1 1 5 6.3 6.3 0 0 0 .8 5.6c1 1.4 1.7 3 2.5 4.4h5a2.5 2.5 0 0 0 0-.3zm285.4-9.3a3 3 0 0 0-1-.7 2 2 0 0 0-1.3-.2 2 2 0 0 0-1.4 1.4c-.3.7.3 1.3.6 2a4.3 4.3 0 0 1 .3 2.4 10.7 10.7 0 0 1-2.2 4c0 .3-.2.4-.3.6h4.8a20.3 20.3 0 0 0 1.4-2.4c1.2-2 .5-5.4-1-7.2zm-73.3 3.4c-1 1.4 0 2.4 1 3.2a5.6 5.6 0 0 1 2 3h4.2c-.2-2.4-1.7-4.2-3.3-5.8-1.7-1.2-3.3-1.4-4-.4zm120.2 2.7c-1.3-1-2.7-2-4-.5s-.2 2.8 1.2 3.7a3.8 3.8 0 0 1 .4.3h5.3a7.5 7.5 0 0 0-2.8-3.5zm-172.3-2.3a10 10 0 0 0-2.5-2.7 2.4 2.4 0 0 0-2.6-.3 2 2 0 0 0-.7 2.5c.6 1.5 2.2 2.2 2.8 4a8 8 0 0 1 .5 2.3h4a9.8 9.8 0 0 0-1.3-5.8zm-60.7 3c-1-.8-2-1.3-3-.4s-.6 2 0 3l.2.2h5.2a7.6 7.6 0 0 0-2.5-2.8zm-76.8-6.2a19.6 19.6 0 0 0 1.8-4.5 2 2 0 0 0-1.3-2.7c-1.5-.4-2.2.4-2.7 2a20 20 0 0 1-1.8 4.4 7.7 7.7 0 0 0 .7 9.2l.5.6h5c-.5-.8-1-1.6-1.7-2.3a5.3 5.3 0 0 1-.6-6.6zm59.6 6.2a2.4 2.4 0 0 0-2.8 0c-1 1-.6 2 0 2.8h5.4a8.3 8.3 0 0 0-.7-1 6.6 6.6 0 0 0-2-1.8zM74 936c0-1.7.2-5.5-2-6.4-1-.5-1.7.5-2 1.4-.7 1.2-.2 2.5 0 3.8a12.3 12.3 0 0 1-.5 3.2h4.3a11.4 11.4 0 0 0 .2-2zm106.2-143.5a5.3 5.3 0 0 0-.3 4.3 7 7 0 0 0 2.4 2.8 3.7 3.7 0 0 0 1 .4c1 .2 2.3.2 3-.6a1.6 1.6 0 0 0-.7-2.2c-2.7-1.8-1.7-3.8-.6-6 .4-.4.5-1 .8-1.3 1.8-2.8 1.3-5.7.6-8.6-.4-1.7-2-2.7-3-2.2-1.4.6-1.5 1.8-1 3.2a8.5 8.5 0 0 1-.6 6.6l-1.6 3.5zm-64.9 98a4.7 4.7 0 0 0 0 4.4l5.3 8.2c.7 1 1.6 1.8 3 1s1.2-2.2.4-3.4l-2.6-3.7s-2-2.5-2.2-4c0-1 .3-2 .3-3.2a1.8 1.8 0 0 0-.8-1.4h-.2c-1.2-.6-2.8 1-3.2 2zm16.3 42.9c.2-1.3 0-2.7-1.8-2.8s-2 1-2.4 2.4a11.8 11.8 0 0 0 .3 5h4a9.4 9.4 0 0 1 0-4.6zm19.7 3.3c-1.2-.4-2.5-1.3-3.8-1a1.7 1.7 0 0 0-1.4 2.3h6.7a6.8 6.8 0 0 0-1.4-1.3zM205 753.2c0 1.2.4 3.5 1.7 4.2a1.7 1.7 0 0 0 1 .3c1.2 0 2.8-2 2-3.2-1.3-2-.6-4 0-6a28.8 28.8 0 0 0 1.5-4 24.5 24.5 0 0 0 .4-6 2 2 0 0 0-2.7-2 2.8 2.8 0 0 0-1.4 2.3c.3 3.2-.7 6-2 8.8a13 13 0 0 0-.7 5.6zm8.6-35.2c-1.2-.6-3.6-1.6-3.8.6-.2 2 1.6 2.7 2.4 4.2a8 8 0 0 1 .7 5.3 17.8 17.8 0 0 0 0 4.6c0 2 2.7 6 5 3.8 1.2-1.3 0-2.5-.6-3.6a6.7 6.7 0 0 1-.4-2 44.2 44.2 0 0 1 .2-4.7 9.5 9.5 0 0 0-3.6-8zM160 932.3a2.4 2.4 0 0 0 1.2 1.7 2.3 2.3 0 0 0 2-.3 8 8 0 0 0-.2-12c-1.2-1-2.5-1.7-3.7-2.5-1-.7-1.6-1.4-1-2.6s.2-2.2-1-2.4a2.7 2.7 0 0 0-2.4.7 4.5 4.5 0 0 0-1.3 3.2 4.7 4.7 0 0 0 1.7 3.4 37 37 0 0 0 3 2.2c3.3 2.3 3.4 2.7 2.2 6.3a5.7 5.7 0 0 0-.6 2.3zm42.8-132.9a2 2 0 0 0-1.3-2.8c-1.5-.3-2.2.5-2.7 2a20 20 0 0 1-1.8 4.5 7.7 7.7 0 0 0 .7 9.3 11.7 11.7 0 0 1 2.3 3.3c.4 1.4-.3 2-.4 3.2a1.6 1.6 0 0 0 2.5 1.7 4 4 0 0 0 1.4-1 5.7 5.7 0 0 0 0-6.5l-1.8-2.4a5.3 5.3 0 0 1-.6-6.6 19.6 19.6 0 0 0 1.8-4.6zm-12-52.1c-.3-.8-.8-2-1.4-2.3a3 3 0 0 0-2.5 1 4 4 0 0 0 .4 5.6 24.4 24.4 0 0 0 3.3 2.5c3.3 2.3 3.7 3.4 2.3 7l-.6 1.5c-.5 1 0 2.2 1 2.5a3 3 0 0 0 2.6-.8c3.4-4 2.7-9-1.5-12.3-1.2-1-2.5-2-4-2.8a4.7 4.7 0 0 0 .3-2zM158 879a5.2 5.2 0 0 0 3 1c1 0 1-1.2 1-2a5 5 0 0 0-1.7-2.4 8.8 8.8 0 0 1-2.8-6.6c0-1-.4-2.3-2-2.3-1.5 0-2 1.2-2 2.6a10.3 10.3 0 0 0 2.2 7.3 10.8 10.8 0 0 0 2.4 2.5zm-1.2-49.2l-2-2.2s-2-1.2-2.6-.3a3 3 0 0 0-.4 2.7 8.7 8.7 0 0 0 2.5 2.7 3.4 3.4 0 0 1 1 4.7 14.5 14.5 0 0 0-1.3 3 16.6 16.6 0 0 0-.4 5c0 1.5.8 6.5 3 6.8a3.2 3.2 0 0 0 1.6-.6 1.4 1.4 0 0 0 .5-.6 4.8 4.8 0 0 0 0-4c-1.5-2.5-1-4.6.2-7 2-4.8 1.5-6.6-2.2-10.2zm-10.5 83.4l1.8-6.2c.5-1 .3-2.4-1-2.7s-2.2.5-2.5 1.7c-1.2 3.6-2.5 7.2-3.4 10.8-.5 2.6.5 5 2.6 7a7 7 0 0 0 2 .8c1.3 0 3 .8 3.6-1 .5-1.7-.8-2.3-2-2.8-2-.8-2.4-2.4-2-4.3.3-1.2.8-2.2 1-3.3zm-.3-58.5c-1.3-.7-3.4.5-4.5 1.2a6.7 6.7 0 0 0-3.2 4 124.4 124.4 0 0 0-2 13.4 2 2 0 0 0 1 1.7 3 3 0 0 0 2.4-.5 5.6 5.6 0 0 0 1-2.8 35.4 35.4 0 0 0 .7-6c0-3.2.8-5.7 4-7.2.4-.3 1-.8 1.2-1.2a3 3 0 0 0-.3-2.4.8.8 0 0 0-.3-.3zM124 923a3.2 3.2 0 0 0 1 2.5c.3.4 1.5 0 2.2-.3.4 0 .7-.7 1-1 2.7-4.5 3.3-9.8 0-13.4-1-1-2.3-2-3.7-1s-1 2.6.2 3.6c2.2 2 2 4.3.8 6.6-.4 1-1.3 2-1.5 3zm24.2-35.8a7.4 7.4 0 0 1-2.4-3.2l-.6-3a1.4 1.4 0 0 0-.6-1c-1.2-.4-2.5 1-3 2a4 4 0 0 0 .4 3.5 28.2 28.2 0 0 0 3.8 5c1 1.3 2.6 2.3 3.3 3.7.7 1 .4 2.4 1.3 3.4a2 2 0 0 0 2 .4c2-1 1.2-4.5.4-5.8a26 26 0 0 0-4.5-5zm-13.4 16.3a2.4 2.4 0 0 0 2.4 0c1.2-.6.8-2 .3-3a9.5 9.5 0 0 0-1-1c-2.5-3.3-3.5-6.7-1-10.5 1.3-1.8 1.5-4.4-.3-6a1.8 1.8 0 0 0-1.4-.4 1.8 1.8 0 0 0-1.3 1c-.8 1.4-.7 3-1.4 4.6a13.8 13.8 0 0 0 2.2 14 5.7 5.7 0 0 0 1.6 1.3zM246.4 754a5.2 5.2 0 0 0 2.8 1c1 0 1.2-1.2 1-2a5 5 0 0 0-1.6-2.5 8.8 8.8 0 0 1-2.8-6.5c0-1.2-.5-2.4-2-2.4s-2 1.2-2 2.6a10.3 10.3 0 0 0 2.2 7.4 10.8 10.8 0 0 0 2.4 2.4zm-68.9 151c.2-1.4 0-4-2-3.3-1.7.5-1.8 2.6-2.2 4a33 33 0 0 1-2.3 4.7 7.2 7.2 0 0 0 1.8 8.4c1.2 1 2.5 1 3.5-.6a7.8 7.8 0 0 0-1-2.3c-1.2-2-1-3.6.2-5.3a12.6 12.6 0 0 0 2-5.7zm-7.5-39.7a3.2 3.2 0 0 0-2 2 5.8 5.8 0 0 0 .5 3.2 7.5 7.5 0 0 0 1.8 2.8c2 2 2.4 4.5 2 7-.7 3.3-1 6 0 9a2 2 0 0 0 3.2 1 1.3 1.3 0 0 0 .3-.5 6.3 6.3 0 0 0 0-2.2c0-2-.2-4 .3-6a10.7 10.7 0 0 0-2-10.6c-1-1-2.2-2-2-4a1.6 1.6 0 0 0-2-1.7zm16.4 60.2l5-3.8c2.7-3.7 3-6.2 1.7-9.3l-2.4-6.3c-.4-1-1-2-2.4-1.7a2 2 0 0 0-1.5 2.6 43.6 43.6 0 0 0 2 5.6c1.4 3.2 1.2 4.7-1.4 7l-3 2.8s-1.6 1.8-.6 3a2 2 0 0 0 2.7 0zM169 833.3a30.6 30.6 0 0 1 1.7 4.7c1 3.2 4.8 2 4.5-1-.2-2.3-2-4-2.8-6-.8-2 .2-3.8.7-5.6.4-1 .7-2.7 0-3.2a1.4 1.4 0 0 0-1.4 0 6.6 6.6 0 0 0-3 3c-1.5 2.5-1 5.5.3 8zm2.8-38.3c-2-1-4 1-2.4 3a4.4 4.4 0 0 1 .8 4.8 6.3 6.3 0 0 0 1 5.7c1.3 2.2 2.5 4.6 4 6.8.8 1.6 2.3 1.6 3 0a4 4 0 0 0 .3-2.8 12.3 12.3 0 0 0-2.4-4.2 5.7 5.7 0 0 1-1.3-6.5c.8-2.3-.3-6-2.8-7zm155.4 137.3c-3.7-3.7-4-7.2-1-11.3a4 4 0 0 0 .6-2.6c0-1-.6-2.2-2-2.3-1.3 0-1.7 1-2 2a20.5 20.5 0 0 1-1.4 3.8c-2.4 4.4-2.3 6.7 1 10.6 1.4 1.5 2.4 3 1.4 5a3.8 3.8 0 0 0-.2.6h4.3a5 5 0 0 0-.8-5.7zm11.8 5.3a2.5 2.5 0 0 0-.6.4h2.7a2 2 0 0 0-2-.4zM277.8 810c-1-.7-2-1.3-3-.3s-.6 2 0 3c2.5 3.3 2.4 3.7 0 6.4-2.7 3.5-2.8 4.6-1.2 8.3a27.4 27.4 0 0 1 1.3 3.5c.3 1.2 1 2 2 1.5a3.3 3.3 0 0 0 1.8-2 4.3 4.3 0 0 0-.6-2.8c-1.7-2.7-1-4.7 1-7a7 7 0 0 0-1.4-10.5zm7.9 124.4c1-.5 2-1.3 1.2-2.4a3.4 3.4 0 0 0-2.5-1.3c-2.4-.2-4 1.4-4.2 4a19.3 19.3 0 0 0 0 3.3h4v-2.8l1.4-.8zm-103.3-75.9a6.4 6.4 0 0 0 2 4.7c.8.8 2.7 1.4 3.6.2s-.4-2.3-1-3.2a7.8 7.8 0 0 1-.3-4.2 38.6 38.6 0 0 0 0-4.2c0-1.8-1.8-5.7-4-7a2.5 2.5 0 0 0-3 .4c-1.2 1-.4 2.3.7 3 2 1.6 2.5 3.8 2.3 6a37.4 37.4 0 0 0-.3 4.3zM234 759c-.2-1-.2-2-.5-3a1.4 1.4 0 0 0-.6-1h-.2c-1-.6-2.4 1-2.8 1.8a4 4 0 0 0 .3 3.6 28.2 28.2 0 0 0 3.8 5c1.2 1.2 2.7 2.2 3.4 3.7.6 1 .3 2.5 1.2 3.4a2 2 0 0 0 2 .4c2-.8 1.3-4.4.4-5.7a26 26 0 0 0-4.5-5 7.4 7.4 0 0 1-2.4-3zm.3-29.4c-1.4-.7-3.4.5-4.5 1.2a6.7 6.7 0 0 0-3.3 4 124.4 124.4 0 0 0-2 13.5 2 2 0 0 0 1.2 1.7 3 3 0 0 0 2.3-.7 5.6 5.6 0 0 0 1-2.7 35.4 35.4 0 0 0 .7-6c0-3.2.8-5.7 3.8-7.2.6-.3 1.2-.8 1.3-1.3a3 3 0 0 0-.3-2.2.8.8 0 0 0-.2-.2zM190 816.7a1.2 1.2 0 0 0-.8-.2c-2 .3-2.4 1.3-3 3l-3 10.8a6.5 6.5 0 0 0-.2 4 2 2 0 0 0 1.8 1.4c2 0 2.7-4.4 3-5.8l2-7.4a30.6 30.6 0 0 0 .6-4.7 1.6 1.6 0 0 0 0-1 .8.8 0 0 0-.3-.3zm62.4 44.5a2 2 0 0 0 0-3 4.4 4.4 0 0 1-.4-.5c-1.7-2.5-1.7-3 0-5.5a25.4 25.4 0 0 0 2-3.5c1-2.3.5-5.7-1.2-7a3.4 3.4 0 0 0-2.7-.7c-1.2.4-1.2 1.7-.5 2.8 1.5 2.3 1 4.3-.8 6.2l-.6 1c-3 4.3-1 7.3 2.2 10.4.4 0 1.6.3 2.2-.2zm.3 59.8c.7 1 1.6 1.6 2.8 1 1.5-.7 1.5-2 .8-3.2-1-1.8-2.4-3.5-3.6-5.3-1-1.5-2-3-1-5 1-2.2-1.8-2.8-3.3-1.6a4.7 4.7 0 0 0-1 5.2l5.3 8.7zM358 936.6c1-2.5 2.5-5.6 1.7-8.2a9.3 9.3 0 0 0-2-3c-1-1.3-2.8-4-4.5-3.8a2 2 0 0 0-1.5 1.7 3 3 0 0 0 .7 2.2c1 1.3 2.6 2 3.2 3.5a4.4 4.4 0 0 1-.3 3.4c-.3 1-1 1.6-1 2.4a11.3 11.3 0 0 0-1 3.2h4.6a4.2 4.2 0 0 1 0-1.4zm-166.2-52.4a5 5 0 0 0-1.2-5.6c-.8-1-1.8-1.5-3-.7s-1 1.6-.3 2.6c1 1.8.5 3.3-.7 4.8a11 11 0 0 0-1 1.6 9.7 9.7 0 0 0 .7 9.8 5.5 5.5 0 0 0 2.2 2 2.5 2.5 0 0 0 1.5.2c1.5-.3 1.7-1.6 1-2.8-.4-.3-.6-.6-.8-1-2-2.6-1.8-5.3 0-8a16.8 16.8 0 0 0 1.6-3zm52-87.7a37 37 0 0 0 3 2.2c3.3 2.3 3.4 2.7 2.2 6.3a5.7 5.7 0 0 0-.7 2 2.4 2.4 0 0 0 1.2 1.8 2.3 2.3 0 0 0 2-.2 8 8 0 0 0-.2-12c-1-1-2.4-1.7-3.7-2.6-1-.6-1.5-1.3-1-2.5s.2-2.2-1-2.4a2.7 2.7 0 0 0-2.4.8 4.5 4.5 0 0 0-1.2 3.3 4.7 4.7 0 0 0 1.8 3.5zm-40.2-31.1a4.7 4.7 0 0 0 0 4.3c1.7 3 3.6 5.6 5.3 8.4.6 1 1.5 2 2.8 1s1.3-2 .5-3.3l-2.6-3.7s-2-2.6-2.2-4.2l.3-3a1.8 1.8 0 0 0-.8-1.5h-.2c-1.2-.6-2.8 1-3.2 2zm-4.8 15.9a9.2 9.2 0 0 0-4-8.6c-.2-.2-.5-.5-1-.5a4.2 4.2 0 0 0-2.2.3 1.5 1.5 0 0 0 0 2.6c3 2.3 3.3 5.3 2.8 8.6a10 10 0 0 0 .3 4 10.4 10.4 0 0 0 2 3.6 1.7 1.7 0 0 0 2.7 0c1.5-2-.6-3.5-.8-5.3a21.7 21.7 0 0 1 .2-4.7zm202.5 126.5c.4-.5.8-1 1-1.6a7.3 7.3 0 0 0-2-9.7c-.8-.7-1.7-1-2.6 0a1.8 1.8 0 0 0-.2 2.5l.7 1c1.7 2.3 1.7 3 0 5.3l-1.6 2a4.7 4.7 0 0 0-.6 5.7c.7 1.4 1 3 1.7 4.5a3 3 0 0 0 1.8 1.4 1.7 1.7 0 0 0 2-2 10.2 10.2 0 0 0-1-4c-1-2-1.2-3.7.8-5.2zM379 828.4a4.8 4.8 0 0 0 1.3 5 10 10 0 0 1 3 7.4 25.3 25.3 0 0 1-.8 4 13 13 0 0 0 .4 5.2c.2 1.2 1 2.5 2.4 2.2s2-1.5 1.5-3c-.8-2.3-.3-4.6.3-7a9.3 9.3 0 0 0-1.7-8.6c-1.3-1.6-3-3-2.7-5.6 0-.3-.5-.6-.6-1a2 2 0 0 0-3.3 1.4zm22.2 38.2c-.2-.4-1.2-.8-2-.8-.3 0-1 .7-1.2 1.2a3.6 3.6 0 0 0 0 2.2 32.7 32.7 0 0 0 1.6 4.5c1.6 3.5 1.4 5-1.4 7.7-1 1-4 2.6-4 4a1.8 1.8 0 0 0 1 1.6 2.6 2.6 0 0 0 2 0c2-.7 4.6-3 6-4.6a6.2 6.2 0 0 0 1.6-5.8 96.8 96.8 0 0 0-3.6-10zm20.8 39.2c-1.6 2.4-3.2 5-4.5 7.4a16.3 16.3 0 0 0-1.5 4.7 5.7 5.7 0 0 0 2 5.5c2.5 1.7 3.7 1.8 4.6.5 1.2-1.6 0-2.5-1-3.4a2.8 2.8 0 0 1-1-4l2.3-4.4 2.4-4.7a2 2 0 0 0-1-2.8c-1-.6-1.8.2-2.4 1zM410.4 893c-.5 2-1.6 3.7-1.4 5.8.2 2.3 1.8 5.6 4.2 6.2 4.2 1 2-2.7 1-4.4-1-2.2-.6-3.7 0-6s.5-4.5 1-6.6c.4-1.5 1.7-3.4 1.5-5a2.8 2.8 0 0 0 0-.4 2.7 2.7 0 0 0-3.5-1.7c-2 .6-2.2 3.2-2.4 5-.2 2.2 0 4.6-.4 7zm40.2 24l-1.5 3.8a8.2 8.2 0 0 0 0 5.6c.4 1.5 1.5 3.8 3.4 3.2a1.7 1.7 0 0 0 1.3-1c.4-1.4-.8-3.4-.8-4.7a8.5 8.5 0 0 1 .3-2.6zm11.8 21h.6l-.4-.8c0 .3 0 .5-.2.8zm-34.1-57.7c-3.4 2-3.7 5-4 8.5 0 1.8-.8 4.2-.4 6a2 2 0 0 0 1.8 1.5 2.3 2.3 0 0 0 1.4-1c3-3.5 0-9 3.7-12.2l-2-3.3a1.6 1.6 0 0 1-.7.6zm23.1 56.2a1.6 1.6 0 0 0-.7-1c-1-.6-2.5.5-3 1.6a4.7 4.7 0 0 0-.6 1h4.6a6 6 0 0 0-.2-1.5zm-49.2.5a2 2 0 0 0-2.5 1h3.7a3.3 3.3 0 0 0-1.2-1zM388 863.4a2.3 2.3 0 0 0-.8-.5 1.8 1.8 0 0 0-2.4 1.5 12.3 12.3 0 0 1-2.2 6.3 7.4 7.4 0 0 0 .5 8.8c1 1 2 2 3.3 1.3s1.2-2.3.3-3.4c-1.5-2-1-3.6 0-5.6 1-1.6 3.4-6.8 1.4-8.6zm-1.7 44.2a9.4 9.4 0 0 0-3-11c-.6 0-1.8-.4-2.5 0-1.3 1-1 2.2 0 3.3a2.7 2.7 0 0 0 .3.2c2 1.5 2 3.4 1.4 5.5-.7 2.3-2 4.4-2.4 6.8a12.6 12.6 0 0 0 0 5 2 2 0 0 0 2.7 1.5 1.8 1.8 0 0 0 1.2-2.5c-.7-2 0-3.7.8-5.4.6-1 1-2.3 1.5-3.4zm5.3 29.4c-.6-1.3-1.4-2.4-2-3.6a5.2 5.2 0 0 1-.4-4c.4-1 1.8-2.3 1.6-3.6a1.8 1.8 0 0 0-1.2-1.4 2.4 2.4 0 0 0-2.2.6 6 6 0 0 0-.5.4 8 8 0 0 0-2 7.2 24 24 0 0 0 2.2 4.8l.2.6h4.5a9.3 9.3 0 0 0-.4-1zm5.4-89a7.3 7.3 0 0 0-1.2 3 9 9 0 0 0 3 9 3 3 0 0 0 2.7.5c1.2-.7 1-2 .2-3a3 3 0 0 0-.2-.3c-2.7-3.2-2.2-6.2 0-9.3a8.8 8.8 0 0 0 1.3-2c.8-2 0-5.6-2-6.7a3 3 0 0 0-1-.2 1.6 1.6 0 0 0-1.8 1 2.4 2.4 0 0 0 .2 1.3c.3 1.3.8 2.4.4 3.7a9 9 0 0 1-1.7 3zm22.2 15.4l-4.4-7.6c-1-.7-2-1-2.8 0-1.4 1.4-.2 2.6 1 3.5a5.2 5.2 0 0 1 2 4.6c0 1.3-.3 2.7-.4 4 0 2.7.3 5.2 3 6.6a2 2 0 0 0 2.8-1c.4-1.4-1.2-3-1.4-4.3a19 19 0 0 1 .2-4.6 12.3 12.3 0 0 0 0-1.3zm15.4 57.4c-.2-.8 0-1.6-.3-2.3-.5-2-2.7-1.5-3.7-.2a4 4 0 0 0 .3 5.2 13.7 13.7 0 0 0 2 1.6c5.2 3.6 5.2 3.6 3.4 8.8 0 .2 0 .5-.2.7-.4 1-.2 2.2 1 2.5a2.8 2.8 0 0 0 2.3-.7c3.5-3.7 3.2-8.7-.8-12-1.2-1-3.8-1.8-4-3.5zM436 906a7.5 7.5 0 0 0 .5 5c.6 1.2 1.7 3.3 3.3 3a2 2 0 0 0 1.7-1.6c.4-1.5-1.2-2.5-1.3-4a7 7 0 0 1 1.3-4 11.5 11.5 0 0 0 .8-1.7l-3-5.3a2.3 2.3 0 0 0 0 .6 8 8 0 0 1-1.8 5.2 9.4 9.4 0 0 0-1.4 2.7zm-29.8 13.4a2.4 2.4 0 0 0-2 .8 3.4 3.4 0 0 0-.7 2c-.3 6 2.5 10.4 6.6 14.2 1 1 2.2.7 3.3-1a5.8 5.8 0 0 0-.8-2c-3-3.5-5.4-7.4-5-12.5 0-.5-.8-1.4-1.3-1.6zm-173.7 16.3a2 2 0 0 0-2 .3 2.6 2.6 0 0 0-.7 1.7v.3h4a2.2 2.2 0 0 0-1.3-2.3zm74.9-13.2c.5 0 1-.4 1.5-.6 0-.6 0-.8.2-1l3-9.8c.5-1.7.7-3.5 1-5.3.3-1.4 0-2.5-1.4-2.6-.7 0-1.7.8-2.2 1.5a5.5 5.5 0 0 0-1 2.7 23.4 23.4 0 0 1-2.4 8.3c-.7 1.5-.5 3.5-.4 5.2 0 .5 1 1 1.6 1.3zm-5.9-151.8a15.8 15.8 0 0 0 3.4 4.5c1 1.3 2.5 2.3 3.4 3.8.8 1.2.5 3.8 2 4.2a2 2 0 0 0 2-.7c1-1 .8-3.6 0-4.7a31.5 31.5 0 0 0-4.5-5.4c-1-1-2.4-2-2.8-3.6-.3-1 0-2.4-.8-3.2a1.8 1.8 0 0 0-.6-.4c-3-1-3 4-2.3 5.5zm1.8 87.6c2.3-4 1-8-3-10-1.4-.7-2.5-.6-3 .5a3 3 0 0 0 .4 2.6c3 3.4 3 3.4.4 7a13 13 0 0 0-1.5 2.6 32 32 0 0 0-1.4 5 2 2 0 0 0 3.2 2.2c1.3-1 1.4-3.2 2-4.5a14.6 14.6 0 0 1 1.2-3l.2-.2a20.7 20.7 0 0 0 1.7-2.2zm3.4 28.4a2 2 0 0 0 2-.4 1.7 1.7 0 0 0 .2-1.6 3.5 3.5 0 0 0-1-1.5c-.4-.4-1.3-1-1.5-1.6 0-.6.5-1.4.7-1.8l2-4.4c.6-1.8 1.2-10.4-2.6-9.4a2.5 2.5 0 0 0-1.6 2.3c0 1.2.6 2.2.5 3.3a10.5 10.5 0 0 1-1 3.6l-1.6 4c-1.3 3 0 7 3.7 7.5zm.7-159.4c-.3-1.7-2.7-2-3.7-.7a4.3 4.3 0 0 0-.6 5c2 3.2 3.8 6.3 6 9.3.7 1.2 2.2.7 3-.4a2 2 0 0 0 0-1.8 21.6 21.6 0 0 0-2-3.2c-1-1.4-2.3-2.6-3-4.3-.2-1.4.6-2.6.4-4zm-16.6-15.9a18 18 0 0 0 1.6-4.2 2 2 0 0 0-1.5-2.7c-1.5-.4-2 .4-2.6 1.7a26.6 26.6 0 0 1-1.7 4c-2 4-2 6.7 1 10 1.4 1.8 3 3.3 1.5 5.8-1.2 2 1.6 3 3 2a5.3 5.3 0 0 0 1.5-3 6.2 6.2 0 0 0-2-5.8c-2.5-2.6-2.5-5-1-7.8zm5.5 27.3c-1.6-1.4-5.5-1.8-3.8 1 2 3.3 1 6-.8 9a10 10 0 0 0-1.3 3.8 10.4 10.4 0 0 0 .6 4 1.7 1.7 0 0 0 2.4 1c2-1 .8-3.4 1.3-5.2a21.7 21.7 0 0 1 2-4.2c1.2-2.4 2-6.5 0-9a2.5 2.5 0 0 0-.4-.3zm4.4-30.4l4.6 5a2 2 0 0 0 2.7.6 2 2 0 0 0 .5-3 11.8 11.8 0 0 0-2-2.4c-2-1.8-3.6-3.6-2.7-6.6a1.5 1.5 0 0 0-.4-1.7 2.5 2.5 0 0 0-3.2.5c-1.4 1.8-1.2 5.5.5 7.5zM276 752.8c-1.2.7-1 1.7-.4 2.7 1 1.8.5 3.3-.7 4.8a11 11 0 0 0-1 1.6 9.7 9.7 0 0 0 .6 9.7 5.5 5.5 0 0 0 2.2 2 2.5 2.5 0 0 0 1.5.2c1.4-.4 1.7-1.7.8-3 0-.2-.3-.5-.5-.8-2-2.7-1.8-5.4 0-8a16.8 16.8 0 0 0 1.6-3 5 5 0 0 0-1-5.7c-1-1-2-1.5-3-.7zm20 43.2a4.7 4.7 0 0 0-.4 5.3l6 8c1 1.2 1.8 1.7 3 1 1.3-1 1.3-2.2.4-3.3l-4-5c-1.2-1.3-2.3-2.8-1.7-4.7.7-2.4-2-2.7-3.3-1.4zm-16.5 110.6a2 2 0 0 0 1.6 0 3.6 3.6 0 0 0 1.5-1.2 12.7 12.7 0 0 0 2-5.2 20.4 20.4 0 0 0 .2-7.3c-.2-1.4-1-2.3-2.2-2.2s-1.8 1.3-1.8 2.5a14.3 14.3 0 0 1 0 1.5l-.8 5.6a13.5 13.5 0 0 1-.4 2c-.3.7-.8 1.2-1 2a2 2 0 0 0 1 2.2zm7.3-30a3.8 3.8 0 0 0 .3-1c.4-3.2 1-6.4 1-9.7a10.4 10.4 0 0 0-1-4.8 97.7 97.7 0 0 0-5-9 2.5 2.5 0 0 0-2-.8 2.5 2.5 0 0 0-1.5 2 9.2 9.2 0 0 0 1.2 3.5 39.5 39.5 0 0 0 2.8 4.4 7.8 7.8 0 0 1 1 6.8 11.3 11.3 0 0 0-.5 2.6 19.8 19.8 0 0 0 .3 5.2 2 2 0 0 0 3.4.6zm-8.8 11c1-1 .6-2-.3-3a14.5 14.5 0 0 1-1.5-1.8 5.8 5.8 0 0 1-.5-3.6 11 11 0 0 0-2.3-7.5 2 2 0 0 0-3-.6 1.7 1.7 0 0 0-.5 2.8c1.6 2.3 1.6 5 1.5 7.6s1.2 4.6 3.6 6.4a2 2 0 0 0 3-.2zm-10.5 30.8c-1 1-2.4 2-3.6 2.8l3.7 2.6c1.2-1 2.5-2 3.7-3.2 2-1.8 3-4.2 1.8-6.5a32.4 32.4 0 0 1-2.3-5.5 8.6 8.6 0 0 1-.4-3c.2-1 .5-1.5 0-2.3a2 2 0 0 0-3.5.8c-.5 3.3-1.4 6.6 1.4 9.6 1.6 2 1.2 3-1 4.8zM293 923a8.6 8.6 0 0 0 .4 2.4 2.2 2.2 0 0 0 2.8 1c2-1 1.4-4.6.4-6a9.7 9.7 0 0 1-2-4.3 5.4 5.4 0 0 1 .3-2c0-1 .8-1.6 1-2.5a2.4 2.4 0 0 0-.2-1.8 1.7 1.7 0 0 0-.3-.4c-2-1.8-4.3 2.3-4.8 3.7a7 7 0 0 0 .5 6.3 10.5 10.5 0 0 1 1.8 3.6zm11-100.6c.8-1.3 1-2.5-.7-3.2-1.3-.6-2 .4-2.7 1.4-1.4 2.4-3 4.7-4.2 7.2a17 17 0 0 0-1.4 5 5.8 5.8 0 0 0 2.4 5.5l1 .6c1.3.6 2.5.8 3.4-.6s0-2-1-3c-2-2-2.2-2.4-1-5s3-5.4 4.3-8zM291.4 851c1-.7 1-2 0-3a37.3 37.3 0 0 1-2.3-3 13.2 13.2 0 0 1-2.6-8c0-1.6 0-3-1.8-3s-2 1.4-2.2 3a14.5 14.5 0 0 0 0 1.8c.4 4.8 2.8 8.5 6.6 12.3.4 0 1.7.4 2.4 0zm8.6 52a2 2 0 0 0 1.5-2.6 13.4 13.4 0 0 0-2.4-5c-1.8-2.2-2.7-4.2-1.6-7.2 1-2.5-.3-5-3-7a4.3 4.3 0 0 0-2.2.2c-1.3.8-1 2 0 3a4.5 4.5 0 0 1 .7 5c-1 2.4 0 4.6 1.3 6.7a46.7 46.7 0 0 1 3.3 5.6c.5 1 1 1.6 2.3 1.4zm-7.4-133.5c-1-.4-1.6-1-2.7-.6a1.6 1.6 0 0 0-1 2c.4 1.5 2 2.2 2.8 3.6a9.2 9.2 0 0 1 .5 4.6c-.2 3-.5 7.5 2.7 9a2 2 0 0 0 2.8-1.4c0-1-.7-2-1-2.7-.8-2-.5-4-.3-6a9 9 0 0 0-4-8.5zm-68.1 51.1l-1.6-2c-2-3.2-4-6.3-3.2-10.3.3-1.3 0-2.7-1.7-3s-2 1.3-2.3 2.6c-1 4 2.5 12.8 6.6 15.6a4.7 4.7 0 0 0 2-.3c1-.7 1-1.8.2-2.7zm-12.1 12.8l4.6 5a2 2 0 0 0 2.7.6 2 2 0 0 0 .5-3 11.8 11.8 0 0 0-2-2.3c-2-1.8-3.6-3.6-2.7-6.6a1.5 1.5 0 0 0-.4-1.6 2.5 2.5 0 0 0-3.2.5c-1.3 1.8-1 5.4.6 7.4zm6.6 19.1c-.2-1.8-2.6-2-3.6-.8a4.3 4.3 0 0 0-.6 5c1.8 3.2 3.7 6.3 5.8 9.3 1 1.3 2.4.8 3-.2a2 2 0 0 0 .2-2 21.6 21.6 0 0 0-2-3c-1-1.5-2.4-2.7-3-4.3-.3-1.5.5-2.7.3-4zm-6.7-54.5a3.2 3.2 0 0 0 1 2.4c.3.4 1.5 0 2.2-.3.4 0 .7-.6 1-.8 2.7-4.6 3.3-10 0-13.5-1-1-2.3-2-3.7-1s-1 2.6.2 3.6c2.2 2 2 4.3.8 6.6-.4 1-1.3 1.8-1.5 3zm-4 75.2c1.3-2.5 2-6.6 0-9a2.5 2.5 0 0 0-.3-.3c-1.6-1.5-5.5-2-3.8 1 2 3 1 6-.8 8.8a10 10 0 0 0-1.3 4 10.4 10.4 0 0 0 .7 4 1.7 1.7 0 0 0 2.4 1c2.2-1.3 1-3.6 1.4-5.4a21.7 21.7 0 0 1 2-4.2zm5 61.3c.8 1 1.7 1.6 3 1 1.3-1 1.2-2.3.4-3.4-1.3-1.6-2.8-3.2-4-4.8-1.3-1.4-2.3-2.8-1.7-4.8.7-2.4-2-2.7-3.3-1.4a4.7 4.7 0 0 0-.5 5.4l6 8zM220 904c1 1.3.6 4 2.2 4.3a2 2 0 0 0 2-.7c1-1 .7-3.6 0-4.7a31.5 31.5 0 0 0-4.6-5.5c-1-1-2.3-2-2.7-3.6-.3-1 0-2.5-1-3.3a1.8 1.8 0 0 0-.5-.4c-3-1-3 4-2.2 5.5a15.8 15.8 0 0 0 3.3 4.6c1.2 1.2 2.6 2.2 3.5 3.7zm14.6-116l1.8-6c.4-1.3.2-2.5-1-3s-2.3.7-2.6 2c-1.2 3.5-2.5 7-3.4 10.7-.6 2.6.4 5 2.5 7a7 7 0 0 0 2 .7c1.2.2 2.8 1 3.5-1 .5-1.6-.8-2.2-2-2.7-2-1-2.4-2.4-2-4.4.3-1 .8-2 1-3.2zm43.8-96.5a1.2 1.2 0 0 0-1 0c-1.8.2-2.3 1.2-2.8 3-1 3.5-2.2 7-3 10.7a6.5 6.5 0 0 0-.3 4 2 2 0 0 0 1.8 1.3c2.2.2 2.8-4.3 3-5.7.8-2.5 1.4-5 2-7.3a30.6 30.6 0 0 0 .7-4.7 1.6 1.6 0 0 0 0-1 .8.8 0 0 0-.3-.3zm-47 201.9a2 2 0 0 0 2.7.5 2 2 0 0 0 .6-3 11.8 11.8 0 0 0-2-2.4c-2-1.7-3.6-3.5-2.7-6.5a1.5 1.5 0 0 0-.5-1.7 2.5 2.5 0 0 0-3.3.5c-1.3 2-1 5.5.6 7.5 1.4 1.8 3 3.4 4.6 5zm-5.6-117.9a9.5 9.5 0 0 0-1-1.2c-2.5-3.3-3.5-6.7-1-10.4 1.3-2 1.5-4.5-.3-6a1.8 1.8 0 0 0-1.4-.5 1.8 1.8 0 0 0-1.2 1c-.8 1.3-.7 3-1.4 4.6a13.8 13.8 0 0 0 2 14 5.7 5.7 0 0 0 1.7 1.3 2.4 2.4 0 0 0 2.5.2c1.2-.7.8-2 .3-3zm19.2-70.8l-2-2.3s-1.8-1.2-2.5-.2a3 3 0 0 0-.4 2.6 8.7 8.7 0 0 0 2.6 2.8 3.4 3.4 0 0 1 1 4.7 14.5 14.5 0 0 0-1.3 3 16.6 16.6 0 0 0-.4 5c0 1.5.7 6.5 3 6.7a3.2 3.2 0 0 0 1.5-.5 1.4 1.4 0 0 0 .5-.6 4.8 4.8 0 0 0 0-4c-1.5-2.6-1-4.8.2-7.2 2-4.7 1.6-6.5-2-10zm12.3 3.5a30.6 30.6 0 0 1 1.7 4.7c1 3 4.8 2 4.5-1-.2-2.4-2-4.2-2.8-6.2-.8-2 .2-3.7.7-5.5.4-1 .6-2.7 0-3.2a1.4 1.4 0 0 0-1.5.2 6.6 6.6 0 0 0-3 2.8c-1.6 2.6-1 5.6.3 8.2zm-1 185a3 3 0 0 0 2.6 1c.5-.4 1-2 1-2.5-1.3-1.8-.3-3 .3-4.6.4-.8 1-1.7 1.3-2.7 1-2.5.4-7-2.4-8.2a4 4 0 0 0-1-.2 1.4 1.4 0 0 0-1.7 1.8 4.8 4.8 0 0 0 .4 1.2c1 2 1.2 3.2 0 5.3a24.6 24.6 0 0 0-1.6 4 5 5 0 0 0 1 5.2zm3.7-223.5c-2-.8-4 1.2-2.3 3a4.4 4.4 0 0 1 .8 5 6.3 6.3 0 0 0 1 5.7c1.3 2.2 2.5 4.6 4 6.8.8 1.5 2.3 1.6 3 0a4 4 0 0 0 .3-2.8 12.3 12.3 0 0 0-2.4-4.2 5.7 5.7 0 0 1-1.4-6.5c.8-2.3-.3-6-2.8-7zM242.8 890a2 2 0 0 0 1.7 1.4 2 2 0 0 0 1.4-.8 3.6 3.6 0 0 0 .7-1.6 12.7 12.7 0 0 0-.6-5.6 20.4 20.4 0 0 0-3.2-6.5c-.7-1-1.8-1.6-3-1s-1 2-.4 3a14.4 14.4 0 0 1 .8 1.4l1.8 5.3a13.5 13.5 0 0 1 .6 2 13.8 13.8 0 0 0 .2 2.2zm-8.6-52.2l-2-2.3s-2-1.2-2.6-.2a3 3 0 0 0-.5 2.6 8.7 8.7 0 0 0 2.7 2.7 3.4 3.4 0 0 1 1 4.7 14.5 14.5 0 0 0-1.3 3 16.6 16.6 0 0 0-.5 5c0 1.5.7 6.5 3 6.7a3.2 3.2 0 0 0 1.6-.4 1.4 1.4 0 0 0 .4-.6 4.8 4.8 0 0 0 0-4c-1.5-2.5-1-4.7.2-7 2-4.8 1.6-6.7-2-10.2zm3.4-14.8a18 18 0 0 0 .4 5.5 4.4 4.4 0 0 0 3.8 3.4c1.6 0 3.7-2.2 1.8-3.4-2.7-1.6-2.3-3.8-1.7-6.3a21 21 0 0 0 .6-4.8 6.7 6.7 0 0 0-3-6c-1.2-.4-2.5-1.2-3.8-1a1.7 1.7 0 0 0-1.3 2.6c.5 1.5 2 1.6 3 2.7a3.7 3.7 0 0 1 1 3.2 30.6 30.6 0 0 0-1 4zm-1.6 84.3c-1-1.6-2.6-1.2-3.4.3-1 2-2.2 3.7-3 5.6a13 13 0 0 0-1 3.3c-.4 2.3.8 4 2 6a6 6 0 0 1 1.3 3.5c-.2 1.2-1.6 2.6-.7 3.7a2 2 0 0 0 1.7.6 3 3 0 0 0 1.7-1c2-2.5 1.7-5.8-.2-8.2-2.2-2.7-2.2-5-.2-7.8 1-1.4 2.7-4.2 1.6-6zm-29.3 5.9a2 2 0 0 0 2.8-1.2c0-1-.7-2-1-2.8-1-2-.5-4-.3-6a9 9 0 0 0-4-8.6c-.8-.4-1.5-1-2.6-.6a1.6 1.6 0 0 0-1 2c.5 1.6 2.2 2.3 3 3.7a9.2 9.2 0 0 1 .4 4.6c-.2 3-.5 7.5 2.7 9zm-2.7-80.9a2 2 0 0 0-1.4-2.7c-1.4-.4-2 .5-2.5 1.7a26.6 26.6 0 0 1-1.6 4.2c-2 4-2 6.5 1 10 1.4 1.6 3 3 1.5 5.6-1.3 2 1.5 3 3 2a5.3 5.3 0 0 0 1.4-2.8 6.2 6.2 0 0 0-2-5.8c-2.5-2.6-2.5-5-1-7.8a18 18 0 0 0 1.7-4.3z"/><path d="M1317.8 925c3.3-17.3 18-29.6 29.6-43s20.2-33.5 10-48c-10.4-14.7-33.6-12.6-48.5-2.6s-25.2 25.7-39.4 36.8-36 16.6-49.3 4.5c-10-9.3-11-25.3-6.3-38.2s13.6-23.7 21.3-35 14.5-24.3 13.5-38c-1.5-22-26.2-38.8-47-32.3-16.7 5-27.2 21-39.5 33.2s-32.7 21.3-46.5 10.8c-14.4-10.8-10.2-33.7-1.3-49.3s21.4-31.6 19.4-49.5c-2-18.2-20-32-38.2-33s-35.8 8-49 20.8-22 29-31 44.7c9-15.8 18-32 31-44.7s30.8-22 49-20.8 36 14.8 38 33c2 18-10.4 33.7-19.3 49.4s-13 38.4 1.3 49.2c13.8 10.5 34 1.4 46.5-10.8s22.8-28 39.4-33.2c21-6.5 45.6 10.4 47 32.3 1 13.6-5.7 26.6-13.4 38s-16.7 22-21.3 35-3.8 29 6.3 38.2c13.3 12 35.2 6.6 49.3-4.5s24.4-26.7 39.3-36.8 38-12 48.4 2.6c10 14.4 1.4 34.6-10 48s-26.3 25.6-29.6 43a31.5 31.5 0 0 0 .4 13" fill="none" stroke="#303f62" stroke-linecap="round" stroke-linejoin="round" stroke-width="32.73"/></svg>