<svg id="Ebene_1" data-name="Ebene 1" xmlns="http://www.w3.org/2000/svg" viewBox="0 0 1591 23"><defs><style>.cls-1{fill:#303f62;}</style></defs><title>zigzag-border</title><path class="cls-1" d="M1590.8.1V8.34a69.67,69.67,0,0,0-6.7,7.81c-6.19,8.83-13,6.66-18.74-.15-1.55-1.84-2.89-3.85-4.51-5.63-2.68-2.93-3.42-2.79-5.83.29s-4.5,6.24-7.28,8.77c-4.23,3.84-8.3,3.56-12.49-.5a79.94,79.94,0,0,1-6.6-7.72c-3-3.78-4.27-3.77-7.18,0a87.48,87.48,0,0,1-6.86,8.35c-2.94,3-6.81,3.47-10.08.86a64.81,64.81,0,0,1-8.87-9c-1.85-2.19-3-3.15-4.28-3.09a70.4,70.4,0,0,0-6.69,7.81c-6.19,8.83-13,6.66-18.75-.15-1.54-1.84-2.89-3.85-4.51-5.63-2.68-2.93-3.42-2.79-5.82.29s-4.5,6.24-7.29,8.77c-4.22,3.84-8.3,3.56-12.48-.5a80,80,0,0,1-6.61-7.72c-3-3.78-4.27-3.77-7.17,0a86.09,86.09,0,0,1-6.87,8.35c-2.94,3-6.81,3.47-10.08.86a65.37,65.37,0,0,1-8.87-9c-1.85-2.19-3-3.15-4.28-3.09a70.4,70.4,0,0,0-6.69,7.81c-6.19,8.83-13,6.66-18.74-.15-1.55-1.84-2.9-3.85-4.51-5.63-2.68-2.93-3.42-2.79-5.83.29s-4.5,6.24-7.29,8.77c-4.22,3.84-8.29,3.56-12.48-.5a80,80,0,0,1-6.61-7.72c-3-3.78-4.26-3.77-7.17,0a87.48,87.48,0,0,1-6.86,8.35c-2.94,3-6.82,3.47-10.08.86a64.26,64.26,0,0,1-8.87-9c-1.85-2.19-3-3.15-4.28-3.09a69.67,69.67,0,0,0-6.7,7.81c-6.19,8.83-13,6.66-18.74-.15-1.55-1.84-2.89-3.85-4.51-5.63-2.68-2.93-3.42-2.79-5.83.29s-4.5,6.24-7.28,8.77c-4.23,3.84-8.3,3.56-12.49-.5a79.94,79.94,0,0,1-6.6-7.72c-3-3.78-4.27-3.77-7.18,0a87.48,87.48,0,0,1-6.86,8.35c-2.94,3-6.82,3.47-10.08.86a64.81,64.81,0,0,1-8.87-9c-1.85-2.19-3-3.15-4.28-3.09a70.79,70.79,0,0,0-6.7,7.81c-6.19,8.83-13,6.66-18.74-.15-1.55-1.84-2.89-3.85-4.51-5.63-2.68-2.93-3.42-2.79-5.82.29s-4.51,6.24-7.29,8.77c-4.22,3.84-8.3,3.56-12.48-.5a80,80,0,0,1-6.61-7.72c-3-3.78-4.27-3.77-7.17,0a86.09,86.09,0,0,1-6.87,8.35c-2.94,3-6.81,3.47-10.08.86a64.81,64.81,0,0,1-8.87-9c-1.85-2.19-3-3.15-4.28-3.09a70.4,70.4,0,0,0-6.69,7.81c-6.19,8.83-13,6.66-18.74-.15-1.55-1.84-2.9-3.85-4.51-5.63-2.68-2.93-3.43-2.79-5.83.29s-4.5,6.24-7.29,8.77c-4.22,3.84-8.29,3.56-12.48-.5a80,80,0,0,1-6.61-7.72c-3-3.78-4.27-3.77-7.17,0a87.48,87.48,0,0,1-6.86,8.35c-2.95,3-6.82,3.47-10.09.86a64.74,64.74,0,0,1-8.86-9c-1.86-2.19-3-3.15-4.29-3.09a70.4,70.4,0,0,0-6.69,7.81c-6.19,8.83-13,6.66-18.74-.15-1.55-1.84-2.89-3.85-4.51-5.63-2.68-2.93-3.42-2.79-5.83.29s-4.5,6.24-7.29,8.77c-4.22,3.84-8.29,3.56-12.48-.5a79.94,79.94,0,0,1-6.6-7.72c-3-3.78-4.27-3.77-7.18,0a87.48,87.48,0,0,1-6.86,8.35c-2.94,3-6.82,3.47-10.08.86a64.81,64.81,0,0,1-8.87-9c-1.85-2.19-3-3.15-4.28-3.09a70.79,70.79,0,0,0-6.7,7.81c-6.19,8.83-13,6.66-18.74-.15-1.55-1.84-2.89-3.85-4.51-5.63-2.68-2.93-3.42-2.79-5.82.29s-4.51,6.24-7.29,8.77c-4.23,3.84-8.3,3.56-12.49-.5a81.38,81.38,0,0,1-6.6-7.72c-3-3.78-4.27-3.77-7.17,0a87.58,87.58,0,0,1-6.87,8.35c-2.94,3-6.81,3.47-10.08.86a64.81,64.81,0,0,1-8.87-9c-1.85-2.19-3-3.15-4.28-3.09a70.4,70.4,0,0,0-6.69,7.81c-6.19,8.83-13,6.66-18.74-.15-1.55-1.84-2.9-3.85-4.52-5.63-2.67-2.93-3.42-2.79-5.82.29s-4.5,6.24-7.29,8.77c-4.22,3.84-8.29,3.56-12.48-.5a80,80,0,0,1-6.61-7.72c-3-3.78-4.27-3.77-7.17,0a87.48,87.48,0,0,1-6.86,8.35c-2.95,3-6.82,3.47-10.09.86a65.37,65.37,0,0,1-8.87-9c-1.85-2.19-3-3.15-4.28-3.09a70.4,70.4,0,0,0-6.69,7.81c-6.19,8.83-13,6.66-18.74-.15-1.55-1.84-2.89-3.85-4.51-5.63-2.68-2.93-3.42-2.79-5.83.29s-4.5,6.24-7.29,8.77c-4.22,3.84-8.29,3.56-12.48-.5a79.94,79.94,0,0,1-6.6-7.72c-3-3.78-4.27-3.77-7.18,0a87.48,87.48,0,0,1-6.86,8.35c-2.94,3-6.82,3.47-10.08.86a64.26,64.26,0,0,1-8.87-9c-1.85-2.19-3-3.15-4.28-3.09a69.67,69.67,0,0,0-6.7,7.81c-6.19,8.83-13,6.66-18.74-.15-1.55-1.84-2.89-3.85-4.51-5.63-2.68-2.93-3.42-2.79-5.83.29s-4.5,6.24-7.28,8.77c-4.23,3.84-8.3,3.56-12.49-.5a79.94,79.94,0,0,1-6.6-7.72c-3-3.78-4.27-3.77-7.17,0a87.58,87.58,0,0,1-6.87,8.35c-2.94,3-6.81,3.47-10.08.86a64.81,64.81,0,0,1-8.87-9c-1.85-2.19-3-3.15-4.28-3.09a70.4,70.4,0,0,0-6.69,7.81c-6.19,8.83-13,6.66-18.74-.15-1.55-1.84-2.9-3.85-4.52-5.63-2.68-2.93-3.42-2.79-5.82.29s-4.5,6.24-7.29,8.77c-4.22,3.84-8.29,3.56-12.48-.5a80,80,0,0,1-6.61-7.72c-3-3.78-4.27-3.77-7.17,0A87.48,87.48,0,0,1,421,19.61c-2.95,3-6.82,3.47-10.09.86a65.37,65.37,0,0,1-8.87-9c-1.85-2.19-3-3.15-4.28-3.09a70.4,70.4,0,0,0-6.69,7.81c-6.19,8.83-13,6.66-18.74-.15-1.55-1.84-2.89-3.85-4.51-5.63-2.68-2.93-3.42-2.79-5.83.29s-4.5,6.24-7.29,8.77c-4.22,3.84-8.29,3.56-12.48-.5a78.56,78.56,0,0,1-6.6-7.72c-3-3.78-4.27-3.77-7.18,0a87.48,87.48,0,0,1-6.86,8.35c-2.94,3-6.82,3.47-10.08.86a64.26,64.26,0,0,1-8.87-9c-1.85-2.19-3-3.15-4.28-3.09a69.67,69.67,0,0,0-6.7,7.81c-6.19,8.83-13,6.66-18.74-.15-1.55-1.84-2.89-3.85-4.51-5.63-2.68-2.93-3.42-2.79-5.83.29s-4.5,6.24-7.28,8.77c-4.23,3.84-8.3,3.56-12.49-.5a79.94,79.94,0,0,1-6.6-7.72c-3-3.78-4.27-3.77-7.18,0a87.48,87.48,0,0,1-6.86,8.35c-2.94,3-6.82,3.47-10.08.86a64.81,64.81,0,0,1-8.87-9c-1.85-2.19-3-3.15-4.28-3.09a71.94,71.94,0,0,0-6.7,7.81c-6.18,8.83-13,6.66-18.74-.15-1.54-1.84-2.89-3.85-4.51-5.63-2.68-2.93-3.42-2.79-5.82.29s-4.51,6.24-7.29,8.77c-4.22,3.84-8.3,3.56-12.48-.5a80,80,0,0,1-6.61-7.72c-3-3.78-4.27-3.77-7.17,0a86.09,86.09,0,0,1-6.87,8.35c-2.94,3-6.81,3.47-10.08.86a64.81,64.81,0,0,1-8.87-9c-1.85-2.19-3-3.15-4.28-3.09a70.4,70.4,0,0,0-6.69,7.81c-6.19,8.83-13,6.66-18.74-.15-1.55-1.84-2.9-3.85-4.51-5.63-2.68-2.93-3.42-2.79-5.83.29s-4.5,6.24-7.29,8.77C52.26,23.27,48.19,23,44,18.93a80,80,0,0,1-6.61-7.72c-3-3.78-4.27-3.77-7.17,0a87.48,87.48,0,0,1-6.86,8.35c-2.95,3-6.82,3.47-10.09.86a64.74,64.74,0,0,1-8.86-9C2.55,9.24,1.41,8.28.12,8.34V.07Z"/></svg>